<?xml version="1.0" encoding="utf-8" standalone="no"?>
<!DOCTYPE svg PUBLIC "-//W3C//DTD SVG 1.1//EN"
  "http://www.w3.org/Graphics/SVG/1.1/DTD/svg11.dtd">
<!-- Created with matplotlib (http://matplotlib.org/) -->
<svg height="273pt" version="1.1" viewBox="0 0 881 273" width="881pt" xmlns="http://www.w3.org/2000/svg" xmlns:xlink="http://www.w3.org/1999/xlink">
 <defs>
  <style type="text/css">
*{stroke-linecap:butt;stroke-linejoin:round;}
  </style>
 </defs>
 <g id="figure_1">
  <g id="patch_1">
   <path d="M 0 273.814375 
L 881.303125 273.814375 
L 881.303125 0 
L 0 0 
z
" style="fill:#ffffff;"/>
  </g>
  <g id="axes_1">
   <g id="patch_2">
    <path d="M 37.103125 239.758125 
L 874.103125 239.758125 
L 874.103125 22.318125 
L 37.103125 22.318125 
z
" style="fill:#ffffff;"/>
   </g>
   <g id="matplotlib.axis_1">
    <g id="xtick_1">
     <g id="line2d_1"/>
     <g id="text_1">
      <!-- 0 -->
      <defs>
       <path d="M 31.78125 66.40625 
Q 24.171875 66.40625 20.328125 58.90625 
Q 16.5 51.421875 16.5 36.375 
Q 16.5 21.390625 20.328125 13.890625 
Q 24.171875 6.390625 31.78125 6.390625 
Q 39.453125 6.390625 43.28125 13.890625 
Q 47.125 21.390625 47.125 36.375 
Q 47.125 51.421875 43.28125 58.90625 
Q 39.453125 66.40625 31.78125 66.40625 
z
M 31.78125 74.21875 
Q 44.046875 74.21875 50.515625 64.515625 
Q 56.984375 54.828125 56.984375 36.375 
Q 56.984375 17.96875 50.515625 8.265625 
Q 44.046875 -1.421875 31.78125 -1.421875 
Q 19.53125 -1.421875 13.0625 8.265625 
Q 6.59375 17.96875 6.59375 36.375 
Q 6.59375 54.828125 13.0625 64.515625 
Q 19.53125 74.21875 31.78125 74.21875 
z
" id="DejaVuSans-30"/>
      </defs>
      <g style="fill:#262626;" transform="translate(33.921875 250.856563)scale(0.1 -0.1)">
       <use xlink:href="#DejaVuSans-30"/>
      </g>
     </g>
    </g>
    <g id="xtick_2">
     <g id="line2d_2"/>
     <g id="text_2">
      <!-- 5 -->
      <defs>
       <path d="M 10.796875 72.90625 
L 49.515625 72.90625 
L 49.515625 64.59375 
L 19.828125 64.59375 
L 19.828125 46.734375 
Q 21.96875 47.46875 24.109375 47.828125 
Q 26.265625 48.1875 28.421875 48.1875 
Q 40.625 48.1875 47.75 41.5 
Q 54.890625 34.8125 54.890625 23.390625 
Q 54.890625 11.625 47.5625 5.09375 
Q 40.234375 -1.421875 26.90625 -1.421875 
Q 22.3125 -1.421875 17.546875 -0.640625 
Q 12.796875 0.140625 7.71875 1.703125 
L 7.71875 11.625 
Q 12.109375 9.234375 16.796875 8.0625 
Q 21.484375 6.890625 26.703125 6.890625 
Q 35.15625 6.890625 40.078125 11.328125 
Q 45.015625 15.765625 45.015625 23.390625 
Q 45.015625 31 40.078125 35.4375 
Q 35.15625 39.890625 26.703125 39.890625 
Q 22.75 39.890625 18.8125 39.015625 
Q 14.890625 38.140625 10.796875 36.28125 
z
" id="DejaVuSans-35"/>
      </defs>
      <g style="fill:#262626;" transform="translate(166.779018 250.856563)scale(0.1 -0.1)">
       <use xlink:href="#DejaVuSans-35"/>
      </g>
     </g>
    </g>
    <g id="xtick_3">
     <g id="line2d_3"/>
     <g id="text_3">
      <!-- 10 -->
      <defs>
       <path d="M 12.40625 8.296875 
L 28.515625 8.296875 
L 28.515625 63.921875 
L 10.984375 60.40625 
L 10.984375 69.390625 
L 28.421875 72.90625 
L 38.28125 72.90625 
L 38.28125 8.296875 
L 54.390625 8.296875 
L 54.390625 0 
L 12.40625 0 
z
" id="DejaVuSans-31"/>
      </defs>
      <g style="fill:#262626;" transform="translate(296.454911 250.856563)scale(0.1 -0.1)">
       <use xlink:href="#DejaVuSans-31"/>
       <use x="63.623047" xlink:href="#DejaVuSans-30"/>
      </g>
     </g>
    </g>
    <g id="xtick_4">
     <g id="line2d_4"/>
     <g id="text_4">
      <!-- 15 -->
      <g style="fill:#262626;" transform="translate(429.312054 250.856563)scale(0.1 -0.1)">
       <use xlink:href="#DejaVuSans-31"/>
       <use x="63.623047" xlink:href="#DejaVuSans-35"/>
      </g>
     </g>
    </g>
    <g id="xtick_5">
     <g id="line2d_5"/>
     <g id="text_5">
      <!-- 20 -->
      <defs>
       <path d="M 19.1875 8.296875 
L 53.609375 8.296875 
L 53.609375 0 
L 7.328125 0 
L 7.328125 8.296875 
Q 12.9375 14.109375 22.625 23.890625 
Q 32.328125 33.6875 34.8125 36.53125 
Q 39.546875 41.84375 41.421875 45.53125 
Q 43.3125 49.21875 43.3125 52.78125 
Q 43.3125 58.59375 39.234375 62.25 
Q 35.15625 65.921875 28.609375 65.921875 
Q 23.96875 65.921875 18.8125 64.3125 
Q 13.671875 62.703125 7.8125 59.421875 
L 7.8125 69.390625 
Q 13.765625 71.78125 18.9375 73 
Q 24.125 74.21875 28.421875 74.21875 
Q 39.75 74.21875 46.484375 68.546875 
Q 53.21875 62.890625 53.21875 53.421875 
Q 53.21875 48.921875 51.53125 44.890625 
Q 49.859375 40.875 45.40625 35.40625 
Q 44.1875 33.984375 37.640625 27.21875 
Q 31.109375 20.453125 19.1875 8.296875 
z
" id="DejaVuSans-32"/>
      </defs>
      <g style="fill:#262626;" transform="translate(562.169196 250.856563)scale(0.1 -0.1)">
       <use xlink:href="#DejaVuSans-32"/>
       <use x="63.623047" xlink:href="#DejaVuSans-30"/>
      </g>
     </g>
    </g>
    <g id="xtick_6">
     <g id="line2d_6"/>
     <g id="text_6">
      <!-- 25 -->
      <g style="fill:#262626;" transform="translate(695.026339 250.856563)scale(0.1 -0.1)">
       <use xlink:href="#DejaVuSans-32"/>
       <use x="63.623047" xlink:href="#DejaVuSans-35"/>
      </g>
     </g>
    </g>
    <g id="xtick_7">
     <g id="line2d_7"/>
     <g id="text_7">
      <!-- 30 -->
      <defs>
       <path d="M 40.578125 39.3125 
Q 47.65625 37.796875 51.625 33 
Q 55.609375 28.21875 55.609375 21.1875 
Q 55.609375 10.40625 48.1875 4.484375 
Q 40.765625 -1.421875 27.09375 -1.421875 
Q 22.515625 -1.421875 17.65625 -0.515625 
Q 12.796875 0.390625 7.625 2.203125 
L 7.625 11.71875 
Q 11.71875 9.328125 16.59375 8.109375 
Q 21.484375 6.890625 26.8125 6.890625 
Q 36.078125 6.890625 40.9375 10.546875 
Q 45.796875 14.203125 45.796875 21.1875 
Q 45.796875 27.640625 41.28125 31.265625 
Q 36.765625 34.90625 28.71875 34.90625 
L 20.21875 34.90625 
L 20.21875 43.015625 
L 29.109375 43.015625 
Q 36.375 43.015625 40.234375 45.921875 
Q 44.09375 48.828125 44.09375 54.296875 
Q 44.09375 59.90625 40.109375 62.90625 
Q 36.140625 65.921875 28.71875 65.921875 
Q 24.65625 65.921875 20.015625 65.03125 
Q 15.375 64.15625 9.8125 62.3125 
L 9.8125 71.09375 
Q 15.4375 72.65625 20.34375 73.4375 
Q 25.25 74.21875 29.59375 74.21875 
Q 40.828125 74.21875 47.359375 69.109375 
Q 53.90625 64.015625 53.90625 55.328125 
Q 53.90625 49.265625 50.4375 45.09375 
Q 46.96875 40.921875 40.578125 39.3125 
z
" id="DejaVuSans-33"/>
      </defs>
      <g style="fill:#262626;" transform="translate(827.883482 250.856563)scale(0.1 -0.1)">
       <use xlink:href="#DejaVuSans-33"/>
       <use x="63.623047" xlink:href="#DejaVuSans-30"/>
      </g>
     </g>
    </g>
    <g id="text_8">
     <!-- Experiment time (h) -->
     <defs>
      <path d="M 9.8125 72.90625 
L 55.90625 72.90625 
L 55.90625 64.59375 
L 19.671875 64.59375 
L 19.671875 43.015625 
L 54.390625 43.015625 
L 54.390625 34.71875 
L 19.671875 34.71875 
L 19.671875 8.296875 
L 56.78125 8.296875 
L 56.78125 0 
L 9.8125 0 
z
" id="DejaVuSans-45"/>
      <path d="M 54.890625 54.6875 
L 35.109375 28.078125 
L 55.90625 0 
L 45.3125 0 
L 29.390625 21.484375 
L 13.484375 0 
L 2.875 0 
L 24.125 28.609375 
L 4.6875 54.6875 
L 15.28125 54.6875 
L 29.78125 35.203125 
L 44.28125 54.6875 
z
" id="DejaVuSans-78"/>
      <path d="M 18.109375 8.203125 
L 18.109375 -20.796875 
L 9.078125 -20.796875 
L 9.078125 54.6875 
L 18.109375 54.6875 
L 18.109375 46.390625 
Q 20.953125 51.265625 25.265625 53.625 
Q 29.59375 56 35.59375 56 
Q 45.5625 56 51.78125 48.09375 
Q 58.015625 40.1875 58.015625 27.296875 
Q 58.015625 14.40625 51.78125 6.484375 
Q 45.5625 -1.421875 35.59375 -1.421875 
Q 29.59375 -1.421875 25.265625 0.953125 
Q 20.953125 3.328125 18.109375 8.203125 
z
M 48.6875 27.296875 
Q 48.6875 37.203125 44.609375 42.84375 
Q 40.53125 48.484375 33.40625 48.484375 
Q 26.265625 48.484375 22.1875 42.84375 
Q 18.109375 37.203125 18.109375 27.296875 
Q 18.109375 17.390625 22.1875 11.75 
Q 26.265625 6.109375 33.40625 6.109375 
Q 40.53125 6.109375 44.609375 11.75 
Q 48.6875 17.390625 48.6875 27.296875 
z
" id="DejaVuSans-70"/>
      <path d="M 56.203125 29.59375 
L 56.203125 25.203125 
L 14.890625 25.203125 
Q 15.484375 15.921875 20.484375 11.0625 
Q 25.484375 6.203125 34.421875 6.203125 
Q 39.59375 6.203125 44.453125 7.46875 
Q 49.3125 8.734375 54.109375 11.28125 
L 54.109375 2.78125 
Q 49.265625 0.734375 44.1875 -0.34375 
Q 39.109375 -1.421875 33.890625 -1.421875 
Q 20.796875 -1.421875 13.15625 6.1875 
Q 5.515625 13.8125 5.515625 26.8125 
Q 5.515625 40.234375 12.765625 48.109375 
Q 20.015625 56 32.328125 56 
Q 43.359375 56 49.78125 48.890625 
Q 56.203125 41.796875 56.203125 29.59375 
z
M 47.21875 32.234375 
Q 47.125 39.59375 43.09375 43.984375 
Q 39.0625 48.390625 32.421875 48.390625 
Q 24.90625 48.390625 20.390625 44.140625 
Q 15.875 39.890625 15.1875 32.171875 
z
" id="DejaVuSans-65"/>
      <path d="M 41.109375 46.296875 
Q 39.59375 47.171875 37.8125 47.578125 
Q 36.03125 48 33.890625 48 
Q 26.265625 48 22.1875 43.046875 
Q 18.109375 38.09375 18.109375 28.8125 
L 18.109375 0 
L 9.078125 0 
L 9.078125 54.6875 
L 18.109375 54.6875 
L 18.109375 46.1875 
Q 20.953125 51.171875 25.484375 53.578125 
Q 30.03125 56 36.53125 56 
Q 37.453125 56 38.578125 55.875 
Q 39.703125 55.765625 41.0625 55.515625 
z
" id="DejaVuSans-72"/>
      <path d="M 9.421875 54.6875 
L 18.40625 54.6875 
L 18.40625 0 
L 9.421875 0 
z
M 9.421875 75.984375 
L 18.40625 75.984375 
L 18.40625 64.59375 
L 9.421875 64.59375 
z
" id="DejaVuSans-69"/>
      <path d="M 52 44.1875 
Q 55.375 50.25 60.0625 53.125 
Q 64.75 56 71.09375 56 
Q 79.640625 56 84.28125 50.015625 
Q 88.921875 44.046875 88.921875 33.015625 
L 88.921875 0 
L 79.890625 0 
L 79.890625 32.71875 
Q 79.890625 40.578125 77.09375 44.375 
Q 74.3125 48.1875 68.609375 48.1875 
Q 61.625 48.1875 57.5625 43.546875 
Q 53.515625 38.921875 53.515625 30.90625 
L 53.515625 0 
L 44.484375 0 
L 44.484375 32.71875 
Q 44.484375 40.625 41.703125 44.40625 
Q 38.921875 48.1875 33.109375 48.1875 
Q 26.21875 48.1875 22.15625 43.53125 
Q 18.109375 38.875 18.109375 30.90625 
L 18.109375 0 
L 9.078125 0 
L 9.078125 54.6875 
L 18.109375 54.6875 
L 18.109375 46.1875 
Q 21.1875 51.21875 25.484375 53.609375 
Q 29.78125 56 35.6875 56 
Q 41.65625 56 45.828125 52.96875 
Q 50 49.953125 52 44.1875 
z
" id="DejaVuSans-6d"/>
      <path d="M 54.890625 33.015625 
L 54.890625 0 
L 45.90625 0 
L 45.90625 32.71875 
Q 45.90625 40.484375 42.875 44.328125 
Q 39.84375 48.1875 33.796875 48.1875 
Q 26.515625 48.1875 22.3125 43.546875 
Q 18.109375 38.921875 18.109375 30.90625 
L 18.109375 0 
L 9.078125 0 
L 9.078125 54.6875 
L 18.109375 54.6875 
L 18.109375 46.1875 
Q 21.34375 51.125 25.703125 53.5625 
Q 30.078125 56 35.796875 56 
Q 45.21875 56 50.046875 50.171875 
Q 54.890625 44.34375 54.890625 33.015625 
z
" id="DejaVuSans-6e"/>
      <path d="M 18.3125 70.21875 
L 18.3125 54.6875 
L 36.8125 54.6875 
L 36.8125 47.703125 
L 18.3125 47.703125 
L 18.3125 18.015625 
Q 18.3125 11.328125 20.140625 9.421875 
Q 21.96875 7.515625 27.59375 7.515625 
L 36.8125 7.515625 
L 36.8125 0 
L 27.59375 0 
Q 17.1875 0 13.234375 3.875 
Q 9.28125 7.765625 9.28125 18.015625 
L 9.28125 47.703125 
L 2.6875 47.703125 
L 2.6875 54.6875 
L 9.28125 54.6875 
L 9.28125 70.21875 
z
" id="DejaVuSans-74"/>
      <path id="DejaVuSans-20"/>
      <path d="M 31 75.875 
Q 24.46875 64.65625 21.28125 53.65625 
Q 18.109375 42.671875 18.109375 31.390625 
Q 18.109375 20.125 21.3125 9.0625 
Q 24.515625 -2 31 -13.1875 
L 23.1875 -13.1875 
Q 15.875 -1.703125 12.234375 9.375 
Q 8.59375 20.453125 8.59375 31.390625 
Q 8.59375 42.28125 12.203125 53.3125 
Q 15.828125 64.359375 23.1875 75.875 
z
" id="DejaVuSans-28"/>
      <path d="M 54.890625 33.015625 
L 54.890625 0 
L 45.90625 0 
L 45.90625 32.71875 
Q 45.90625 40.484375 42.875 44.328125 
Q 39.84375 48.1875 33.796875 48.1875 
Q 26.515625 48.1875 22.3125 43.546875 
Q 18.109375 38.921875 18.109375 30.90625 
L 18.109375 0 
L 9.078125 0 
L 9.078125 75.984375 
L 18.109375 75.984375 
L 18.109375 46.1875 
Q 21.34375 51.125 25.703125 53.5625 
Q 30.078125 56 35.796875 56 
Q 45.21875 56 50.046875 50.171875 
Q 54.890625 44.34375 54.890625 33.015625 
z
" id="DejaVuSans-68"/>
      <path d="M 8.015625 75.875 
L 15.828125 75.875 
Q 23.140625 64.359375 26.78125 53.3125 
Q 30.421875 42.28125 30.421875 31.390625 
Q 30.421875 20.453125 26.78125 9.375 
Q 23.140625 -1.703125 15.828125 -13.1875 
L 8.015625 -13.1875 
Q 14.5 -2 17.703125 9.0625 
Q 20.90625 20.125 20.90625 31.390625 
Q 20.90625 42.671875 17.703125 53.65625 
Q 14.5 64.65625 8.015625 75.875 
z
" id="DejaVuSans-29"/>
     </defs>
     <g style="fill:#262626;" transform="translate(405.16875 264.534688)scale(0.1 -0.1)">
      <use xlink:href="#DejaVuSans-45"/>
      <use x="63.183594" xlink:href="#DejaVuSans-78"/>
      <use x="122.363281" xlink:href="#DejaVuSans-70"/>
      <use x="185.839844" xlink:href="#DejaVuSans-65"/>
      <use x="247.363281" xlink:href="#DejaVuSans-72"/>
      <use x="288.476562" xlink:href="#DejaVuSans-69"/>
      <use x="316.259766" xlink:href="#DejaVuSans-6d"/>
      <use x="413.671875" xlink:href="#DejaVuSans-65"/>
      <use x="475.195312" xlink:href="#DejaVuSans-6e"/>
      <use x="538.574219" xlink:href="#DejaVuSans-74"/>
      <use x="577.783203" xlink:href="#DejaVuSans-20"/>
      <use x="609.570312" xlink:href="#DejaVuSans-74"/>
      <use x="648.779297" xlink:href="#DejaVuSans-69"/>
      <use x="676.5625" xlink:href="#DejaVuSans-6d"/>
      <use x="773.974609" xlink:href="#DejaVuSans-65"/>
      <use x="835.498047" xlink:href="#DejaVuSans-20"/>
      <use x="867.285156" xlink:href="#DejaVuSans-28"/>
      <use x="906.298828" xlink:href="#DejaVuSans-68"/>
      <use x="969.677734" xlink:href="#DejaVuSans-29"/>
     </g>
    </g>
   </g>
   <g id="matplotlib.axis_2">
    <g id="ytick_1">
     <g id="line2d_8"/>
     <g id="text_9">
      <!-- 0 -->
      <g style="fill:#262626;" transform="translate(27.240625 243.557344)scale(0.1 -0.1)">
       <use xlink:href="#DejaVuSans-30"/>
      </g>
     </g>
    </g>
    <g id="ytick_2">
     <g id="line2d_9"/>
     <g id="text_10">
      <!-- 2 -->
      <g style="fill:#262626;" transform="translate(27.240625 209.140436)scale(0.1 -0.1)">
       <use xlink:href="#DejaVuSans-32"/>
      </g>
     </g>
    </g>
    <g id="ytick_3">
     <g id="line2d_10"/>
     <g id="text_11">
      <!-- 4 -->
      <defs>
       <path d="M 37.796875 64.3125 
L 12.890625 25.390625 
L 37.796875 25.390625 
z
M 35.203125 72.90625 
L 47.609375 72.90625 
L 47.609375 25.390625 
L 58.015625 25.390625 
L 58.015625 17.1875 
L 47.609375 17.1875 
L 47.609375 0 
L 37.796875 0 
L 37.796875 17.1875 
L 4.890625 17.1875 
L 4.890625 26.703125 
z
" id="DejaVuSans-34"/>
      </defs>
      <g style="fill:#262626;" transform="translate(27.240625 174.723528)scale(0.1 -0.1)">
       <use xlink:href="#DejaVuSans-34"/>
      </g>
     </g>
    </g>
    <g id="ytick_4">
     <g id="line2d_11"/>
     <g id="text_12">
      <!-- 6 -->
      <defs>
       <path d="M 33.015625 40.375 
Q 26.375 40.375 22.484375 35.828125 
Q 18.609375 31.296875 18.609375 23.390625 
Q 18.609375 15.53125 22.484375 10.953125 
Q 26.375 6.390625 33.015625 6.390625 
Q 39.65625 6.390625 43.53125 10.953125 
Q 47.40625 15.53125 47.40625 23.390625 
Q 47.40625 31.296875 43.53125 35.828125 
Q 39.65625 40.375 33.015625 40.375 
z
M 52.59375 71.296875 
L 52.59375 62.3125 
Q 48.875 64.0625 45.09375 64.984375 
Q 41.3125 65.921875 37.59375 65.921875 
Q 27.828125 65.921875 22.671875 59.328125 
Q 17.53125 52.734375 16.796875 39.40625 
Q 19.671875 43.65625 24.015625 45.921875 
Q 28.375 48.1875 33.59375 48.1875 
Q 44.578125 48.1875 50.953125 41.515625 
Q 57.328125 34.859375 57.328125 23.390625 
Q 57.328125 12.15625 50.6875 5.359375 
Q 44.046875 -1.421875 33.015625 -1.421875 
Q 20.359375 -1.421875 13.671875 8.265625 
Q 6.984375 17.96875 6.984375 36.375 
Q 6.984375 53.65625 15.1875 63.9375 
Q 23.390625 74.21875 37.203125 74.21875 
Q 40.921875 74.21875 44.703125 73.484375 
Q 48.484375 72.75 52.59375 71.296875 
z
" id="DejaVuSans-36"/>
      </defs>
      <g style="fill:#262626;" transform="translate(27.240625 140.306621)scale(0.1 -0.1)">
       <use xlink:href="#DejaVuSans-36"/>
      </g>
     </g>
    </g>
    <g id="ytick_5">
     <g id="line2d_12"/>
     <g id="text_13">
      <!-- 8 -->
      <defs>
       <path d="M 31.78125 34.625 
Q 24.75 34.625 20.71875 30.859375 
Q 16.703125 27.09375 16.703125 20.515625 
Q 16.703125 13.921875 20.71875 10.15625 
Q 24.75 6.390625 31.78125 6.390625 
Q 38.8125 6.390625 42.859375 10.171875 
Q 46.921875 13.96875 46.921875 20.515625 
Q 46.921875 27.09375 42.890625 30.859375 
Q 38.875 34.625 31.78125 34.625 
z
M 21.921875 38.8125 
Q 15.578125 40.375 12.03125 44.71875 
Q 8.5 49.078125 8.5 55.328125 
Q 8.5 64.0625 14.71875 69.140625 
Q 20.953125 74.21875 31.78125 74.21875 
Q 42.671875 74.21875 48.875 69.140625 
Q 55.078125 64.0625 55.078125 55.328125 
Q 55.078125 49.078125 51.53125 44.71875 
Q 48 40.375 41.703125 38.8125 
Q 48.828125 37.15625 52.796875 32.3125 
Q 56.78125 27.484375 56.78125 20.515625 
Q 56.78125 9.90625 50.3125 4.234375 
Q 43.84375 -1.421875 31.78125 -1.421875 
Q 19.734375 -1.421875 13.25 4.234375 
Q 6.78125 9.90625 6.78125 20.515625 
Q 6.78125 27.484375 10.78125 32.3125 
Q 14.796875 37.15625 21.921875 38.8125 
z
M 18.3125 54.390625 
Q 18.3125 48.734375 21.84375 45.5625 
Q 25.390625 42.390625 31.78125 42.390625 
Q 38.140625 42.390625 41.71875 45.5625 
Q 45.3125 48.734375 45.3125 54.390625 
Q 45.3125 60.0625 41.71875 63.234375 
Q 38.140625 66.40625 31.78125 66.40625 
Q 25.390625 66.40625 21.84375 63.234375 
Q 18.3125 60.0625 18.3125 54.390625 
z
" id="DejaVuSans-38"/>
      </defs>
      <g style="fill:#262626;" transform="translate(27.240625 105.889713)scale(0.1 -0.1)">
       <use xlink:href="#DejaVuSans-38"/>
      </g>
     </g>
    </g>
    <g id="ytick_6">
     <g id="line2d_13"/>
     <g id="text_14">
      <!-- 10 -->
      <g style="fill:#262626;" transform="translate(20.878125 71.472805)scale(0.1 -0.1)">
       <use xlink:href="#DejaVuSans-31"/>
       <use x="63.623047" xlink:href="#DejaVuSans-30"/>
      </g>
     </g>
    </g>
    <g id="ytick_7">
     <g id="line2d_14"/>
     <g id="text_15">
      <!-- 12 -->
      <g style="fill:#262626;" transform="translate(20.878125 37.055897)scale(0.1 -0.1)">
       <use xlink:href="#DejaVuSans-31"/>
       <use x="63.623047" xlink:href="#DejaVuSans-32"/>
      </g>
     </g>
    </g>
    <g id="text_16">
     <!-- Mean read PHRED quality -->
     <defs>
      <path d="M 9.8125 72.90625 
L 24.515625 72.90625 
L 43.109375 23.296875 
L 61.8125 72.90625 
L 76.515625 72.90625 
L 76.515625 0 
L 66.890625 0 
L 66.890625 64.015625 
L 48.09375 14.015625 
L 38.1875 14.015625 
L 19.390625 64.015625 
L 19.390625 0 
L 9.8125 0 
z
" id="DejaVuSans-4d"/>
      <path d="M 34.28125 27.484375 
Q 23.390625 27.484375 19.1875 25 
Q 14.984375 22.515625 14.984375 16.5 
Q 14.984375 11.71875 18.140625 8.90625 
Q 21.296875 6.109375 26.703125 6.109375 
Q 34.1875 6.109375 38.703125 11.40625 
Q 43.21875 16.703125 43.21875 25.484375 
L 43.21875 27.484375 
z
M 52.203125 31.203125 
L 52.203125 0 
L 43.21875 0 
L 43.21875 8.296875 
Q 40.140625 3.328125 35.546875 0.953125 
Q 30.953125 -1.421875 24.3125 -1.421875 
Q 15.921875 -1.421875 10.953125 3.296875 
Q 6 8.015625 6 15.921875 
Q 6 25.140625 12.171875 29.828125 
Q 18.359375 34.515625 30.609375 34.515625 
L 43.21875 34.515625 
L 43.21875 35.40625 
Q 43.21875 41.609375 39.140625 45 
Q 35.0625 48.390625 27.6875 48.390625 
Q 23 48.390625 18.546875 47.265625 
Q 14.109375 46.140625 10.015625 43.890625 
L 10.015625 52.203125 
Q 14.9375 54.109375 19.578125 55.046875 
Q 24.21875 56 28.609375 56 
Q 40.484375 56 46.34375 49.84375 
Q 52.203125 43.703125 52.203125 31.203125 
z
" id="DejaVuSans-61"/>
      <path d="M 45.40625 46.390625 
L 45.40625 75.984375 
L 54.390625 75.984375 
L 54.390625 0 
L 45.40625 0 
L 45.40625 8.203125 
Q 42.578125 3.328125 38.25 0.953125 
Q 33.9375 -1.421875 27.875 -1.421875 
Q 17.96875 -1.421875 11.734375 6.484375 
Q 5.515625 14.40625 5.515625 27.296875 
Q 5.515625 40.1875 11.734375 48.09375 
Q 17.96875 56 27.875 56 
Q 33.9375 56 38.25 53.625 
Q 42.578125 51.265625 45.40625 46.390625 
z
M 14.796875 27.296875 
Q 14.796875 17.390625 18.875 11.75 
Q 22.953125 6.109375 30.078125 6.109375 
Q 37.203125 6.109375 41.296875 11.75 
Q 45.40625 17.390625 45.40625 27.296875 
Q 45.40625 37.203125 41.296875 42.84375 
Q 37.203125 48.484375 30.078125 48.484375 
Q 22.953125 48.484375 18.875 42.84375 
Q 14.796875 37.203125 14.796875 27.296875 
z
" id="DejaVuSans-64"/>
      <path d="M 19.671875 64.796875 
L 19.671875 37.40625 
L 32.078125 37.40625 
Q 38.96875 37.40625 42.71875 40.96875 
Q 46.484375 44.53125 46.484375 51.125 
Q 46.484375 57.671875 42.71875 61.234375 
Q 38.96875 64.796875 32.078125 64.796875 
z
M 9.8125 72.90625 
L 32.078125 72.90625 
Q 44.34375 72.90625 50.609375 67.359375 
Q 56.890625 61.8125 56.890625 51.125 
Q 56.890625 40.328125 50.609375 34.8125 
Q 44.34375 29.296875 32.078125 29.296875 
L 19.671875 29.296875 
L 19.671875 0 
L 9.8125 0 
z
" id="DejaVuSans-50"/>
      <path d="M 9.8125 72.90625 
L 19.671875 72.90625 
L 19.671875 43.015625 
L 55.515625 43.015625 
L 55.515625 72.90625 
L 65.375 72.90625 
L 65.375 0 
L 55.515625 0 
L 55.515625 34.71875 
L 19.671875 34.71875 
L 19.671875 0 
L 9.8125 0 
z
" id="DejaVuSans-48"/>
      <path d="M 44.390625 34.1875 
Q 47.5625 33.109375 50.5625 29.59375 
Q 53.5625 26.078125 56.59375 19.921875 
L 66.609375 0 
L 56 0 
L 46.6875 18.703125 
Q 43.0625 26.03125 39.671875 28.421875 
Q 36.28125 30.8125 30.421875 30.8125 
L 19.671875 30.8125 
L 19.671875 0 
L 9.8125 0 
L 9.8125 72.90625 
L 32.078125 72.90625 
Q 44.578125 72.90625 50.734375 67.671875 
Q 56.890625 62.453125 56.890625 51.90625 
Q 56.890625 45.015625 53.6875 40.46875 
Q 50.484375 35.9375 44.390625 34.1875 
z
M 19.671875 64.796875 
L 19.671875 38.921875 
L 32.078125 38.921875 
Q 39.203125 38.921875 42.84375 42.21875 
Q 46.484375 45.515625 46.484375 51.90625 
Q 46.484375 58.296875 42.84375 61.546875 
Q 39.203125 64.796875 32.078125 64.796875 
z
" id="DejaVuSans-52"/>
      <path d="M 19.671875 64.796875 
L 19.671875 8.109375 
L 31.59375 8.109375 
Q 46.6875 8.109375 53.6875 14.9375 
Q 60.6875 21.78125 60.6875 36.53125 
Q 60.6875 51.171875 53.6875 57.984375 
Q 46.6875 64.796875 31.59375 64.796875 
z
M 9.8125 72.90625 
L 30.078125 72.90625 
Q 51.265625 72.90625 61.171875 64.09375 
Q 71.09375 55.28125 71.09375 36.53125 
Q 71.09375 17.671875 61.125 8.828125 
Q 51.171875 0 30.078125 0 
L 9.8125 0 
z
" id="DejaVuSans-44"/>
      <path d="M 14.796875 27.296875 
Q 14.796875 17.390625 18.875 11.75 
Q 22.953125 6.109375 30.078125 6.109375 
Q 37.203125 6.109375 41.296875 11.75 
Q 45.40625 17.390625 45.40625 27.296875 
Q 45.40625 37.203125 41.296875 42.84375 
Q 37.203125 48.484375 30.078125 48.484375 
Q 22.953125 48.484375 18.875 42.84375 
Q 14.796875 37.203125 14.796875 27.296875 
z
M 45.40625 8.203125 
Q 42.578125 3.328125 38.25 0.953125 
Q 33.9375 -1.421875 27.875 -1.421875 
Q 17.96875 -1.421875 11.734375 6.484375 
Q 5.515625 14.40625 5.515625 27.296875 
Q 5.515625 40.1875 11.734375 48.09375 
Q 17.96875 56 27.875 56 
Q 33.9375 56 38.25 53.625 
Q 42.578125 51.265625 45.40625 46.390625 
L 45.40625 54.6875 
L 54.390625 54.6875 
L 54.390625 -20.796875 
L 45.40625 -20.796875 
z
" id="DejaVuSans-71"/>
      <path d="M 8.5 21.578125 
L 8.5 54.6875 
L 17.484375 54.6875 
L 17.484375 21.921875 
Q 17.484375 14.15625 20.5 10.265625 
Q 23.53125 6.390625 29.59375 6.390625 
Q 36.859375 6.390625 41.078125 11.03125 
Q 45.3125 15.671875 45.3125 23.6875 
L 45.3125 54.6875 
L 54.296875 54.6875 
L 54.296875 0 
L 45.3125 0 
L 45.3125 8.40625 
Q 42.046875 3.421875 37.71875 1 
Q 33.40625 -1.421875 27.6875 -1.421875 
Q 18.265625 -1.421875 13.375 4.4375 
Q 8.5 10.296875 8.5 21.578125 
z
M 31.109375 56 
z
" id="DejaVuSans-75"/>
      <path d="M 9.421875 75.984375 
L 18.40625 75.984375 
L 18.40625 0 
L 9.421875 0 
z
" id="DejaVuSans-6c"/>
      <path d="M 32.171875 -5.078125 
Q 28.375 -14.84375 24.75 -17.8125 
Q 21.140625 -20.796875 15.09375 -20.796875 
L 7.90625 -20.796875 
L 7.90625 -13.28125 
L 13.1875 -13.28125 
Q 16.890625 -13.28125 18.9375 -11.515625 
Q 21 -9.765625 23.484375 -3.21875 
L 25.09375 0.875 
L 2.984375 54.6875 
L 12.5 54.6875 
L 29.59375 11.921875 
L 46.6875 54.6875 
L 56.203125 54.6875 
z
" id="DejaVuSans-79"/>
     </defs>
     <g style="fill:#262626;" transform="translate(14.798438 195.160781)rotate(-90)scale(0.1 -0.1)">
      <use xlink:href="#DejaVuSans-4d"/>
      <use x="86.279297" xlink:href="#DejaVuSans-65"/>
      <use x="147.802734" xlink:href="#DejaVuSans-61"/>
      <use x="209.082031" xlink:href="#DejaVuSans-6e"/>
      <use x="272.460938" xlink:href="#DejaVuSans-20"/>
      <use x="304.248047" xlink:href="#DejaVuSans-72"/>
      <use x="345.330078" xlink:href="#DejaVuSans-65"/>
      <use x="406.853516" xlink:href="#DejaVuSans-61"/>
      <use x="468.132812" xlink:href="#DejaVuSans-64"/>
      <use x="531.609375" xlink:href="#DejaVuSans-20"/>
      <use x="563.396484" xlink:href="#DejaVuSans-50"/>
      <use x="623.699219" xlink:href="#DejaVuSans-48"/>
      <use x="698.894531" xlink:href="#DejaVuSans-52"/>
      <use x="768.376953" xlink:href="#DejaVuSans-45"/>
      <use x="831.560547" xlink:href="#DejaVuSans-44"/>
      <use x="908.5625" xlink:href="#DejaVuSans-20"/>
      <use x="940.349609" xlink:href="#DejaVuSans-71"/>
      <use x="1003.826172" xlink:href="#DejaVuSans-75"/>
      <use x="1067.205078" xlink:href="#DejaVuSans-61"/>
      <use x="1128.484375" xlink:href="#DejaVuSans-6c"/>
      <use x="1156.267578" xlink:href="#DejaVuSans-69"/>
      <use x="1184.050781" xlink:href="#DejaVuSans-74"/>
      <use x="1223.259766" xlink:href="#DejaVuSans-79"/>
     </g>
    </g>
   </g>
   <g id="PolyCollection_1">
    <path clip-path="url(#pc0161afa6d)" d="M 37.103125 80.717594 
L 37.103125 214.857492 
L 39.760268 217.972222 
L 42.417411 222.429212 
L 45.074554 215.236078 
L 47.731696 215.528622 
L 50.388839 204.463586 
L 53.045982 215.494205 
L 55.703125 204.085 
L 58.360268 220.587907 
L 61.017411 222.549671 
L 63.674554 216.561129 
L 66.331696 208.662449 
L 68.988839 197.063951 
L 71.645982 216.320211 
L 74.303125 202.536239 
L 76.960268 211.312551 
L 79.617411 210.53817 
L 82.274554 202.346946 
L 84.931696 212.362266 
L 87.588839 212.603185 
L 90.245982 215.21887 
L 92.903125 216.836464 
L 95.560268 219.968403 
L 98.217411 203.930124 
L 100.874554 199.541968 
L 103.531696 219.985612 
L 106.188839 196.599323 
L 108.845982 199.662428 
L 111.503125 219.383316 
L 114.160268 195.670066 
L 116.817411 201.882318 
L 119.474554 212.138557 
L 122.131696 190.834491 
L 124.788839 220.880451 
L 127.445982 211.966472 
L 130.103125 191.247494 
L 132.760268 210.159584 
L 135.417411 193.17484 
L 138.074554 203.930124 
L 140.731696 194.585934 
L 143.388839 197.18441 
L 146.045982 185.981707 
L 146.045982 95.964285 
L 146.045982 95.964285 
L 143.388839 88.599066 
L 140.731696 79.409752 
L 138.074554 55.472793 
L 135.417411 86.413593 
L 132.760268 82.627733 
L 130.103125 77.482405 
L 127.445982 89.149737 
L 124.788839 41.551153 
L 122.131696 48.985206 
L 119.474554 61.719461 
L 116.817411 71.769198 
L 114.160268 47.384819 
L 111.503125 54.440285 
L 108.845982 62.803594 
L 106.188839 94.432732 
L 103.531696 48.314076 
L 100.874554 46.782523 
L 98.217411 82.593316 
L 95.560268 79.771129 
L 92.903125 54.319826 
L 90.245982 53.872406 
L 87.588839 53.683113 
L 84.931696 55.438376 
L 82.274554 51.101845 
L 79.617411 46.059768 
L 76.960268 60.876247 
L 74.303125 48.348493 
L 71.645982 70.822733 
L 68.988839 77.998659 
L 66.331696 57.468973 
L 63.674554 47.281569 
L 61.017411 52.71944 
L 58.360268 52.512939 
L 55.703125 48.744287 
L 53.045982 51.033012 
L 50.388839 49.15729 
L 47.731696 53.958449 
L 45.074554 55.16304 
L 42.417411 69.205139 
L 39.760268 70.925984 
L 37.103125 80.717594 
z
" style="fill:#1e90ff;fill-opacity:0.25;stroke:#1e90ff;stroke-opacity:0.25;"/>
    <path clip-path="url(#pc0161afa6d)" d="M 252.331696 71.700365 
L 252.331696 195.274272 
L 252.331696 71.700365 
L 252.331696 71.700365 
z
" style="fill:#1e90ff;fill-opacity:0.25;stroke:#1e90ff;stroke-opacity:0.25;"/>
    <path clip-path="url(#pc0161afa6d)" d="M 464.903125 89.321821 
L 464.903125 193.880387 
L 467.560268 219.916778 
L 470.217411 209.471246 
L 472.874554 213.807777 
L 475.531696 206.838353 
L 478.188839 210.417711 
L 480.845982 220.484657 
L 483.503125 217.455969 
L 486.160268 202.071611 
L 488.817411 201.830693 
L 491.474554 211.295342 
L 494.131696 209.901458 
L 496.788839 208.937784 
L 499.445982 200.316349 
L 502.103125 214.186363 
L 504.760268 208.817325 
L 507.417411 219.125189 
L 510.074554 213.962653 
L 512.731696 217.679679 
L 515.388839 213.979861 
L 518.045982 209.522872 
L 520.703125 220.346989 
L 523.360268 208.215029 
L 526.017411 217.696887 
L 528.674554 203.792456 
L 531.331696 220.725575 
L 533.988839 217.473177 
L 536.645982 210.331669 
L 539.303125 197.476954 
L 541.960268 208.576407 
L 544.617411 196.719782 
L 547.274554 202.019986 
L 549.931696 216.130918 
L 552.588839 217.524803 
L 555.245982 202.346946 
L 557.903125 202.002777 
L 560.560268 193.088798 
L 563.217411 207.698775 
L 565.874554 207.268564 
L 568.531696 193.794345 
L 571.188839 219.951195 
L 573.845982 218.350808 
L 576.503125 211.828804 
L 579.160268 209.712165 
L 581.817411 212.947354 
L 584.474554 217.473177 
L 587.131696 214.926326 
L 589.788839 212.740852 
L 592.445982 212.551559 
L 595.103125 207.974111 
L 597.760268 214.926326 
L 600.417411 203.947333 
L 603.074554 215.872791 
L 605.731696 218.643352 
L 608.388839 218.299183 
L 611.045982 211.932055 
L 613.703125 207.19973 
L 616.360268 211.260925 
L 619.017411 219.348899 
L 621.674554 207.629942 
L 624.331696 209.350787 
L 626.988839 221.362288 
L 629.645982 211.020007 
L 632.303125 210.98559 
L 634.960268 213.308731 
L 637.617411 200.144264 
L 640.274554 214.427281 
L 642.931696 204.738921 
L 645.588839 198.096458 
L 648.245982 212.912937 
L 650.903125 199.989388 
L 653.560268 214.909118 
L 656.217411 216.974132 
L 658.874554 209.299162 
L 661.531696 212.138557 
L 664.188839 204.670088 
L 666.845982 215.236078 
L 669.503125 206.390933 
L 672.160268 219.624234 
L 674.817411 214.805867 
L 677.474554 215.373746 
L 680.131696 214.444489 
L 682.788839 218.230349 
L 685.445982 209.677748 
L 688.103125 212.912937 
L 690.760268 213.085022 
L 693.417411 218.488476 
L 696.074554 211.949264 
L 698.731696 218.901479 
L 701.388839 201.555357 
L 704.045982 208.490364 
L 706.703125 215.459788 
L 709.360268 207.561108 
L 712.017411 206.855561 
L 714.674554 215.322121 
L 717.331696 197.683455 
L 719.988839 219.245648 
L 722.645982 216.268585 
L 725.303125 211.43301 
L 727.960268 195.96261 
L 730.617411 202.742741 
L 733.274554 219.693068 
L 735.931696 209.402412 
L 738.588839 199.954971 
L 741.245982 215.459788 
L 743.903125 202.054403 
L 746.560268 206.838353 
L 749.217411 219.039147 
L 751.874554 213.601275 
L 754.531696 197.132785 
L 757.188839 201.589774 
L 759.845982 204.239876 
L 762.503125 209.385204 
L 765.160268 215.614664 
L 767.817411 199.851721 
L 767.817411 117.233934 
L 767.817411 117.233934 
L 765.160268 60.153492 
L 762.503125 53.562654 
L 759.845982 104.258759 
L 757.188839 68.947012 
L 754.531696 101.935618 
L 751.874554 94.587608 
L 749.217411 65.987158 
L 746.560268 82.748192 
L 743.903125 90.681289 
L 741.245982 58.742399 
L 738.588839 94.89736 
L 735.931696 105.635436 
L 733.274554 88.100021 
L 730.617411 96.91075 
L 727.960268 100.008271 
L 725.303125 100.077105 
L 722.645982 52.925941 
L 719.988839 103.226252 
L 717.331696 86.207091 
L 714.674554 78.87629 
L 712.017411 72.595204 
L 709.360268 63.010095 
L 706.703125 64.558856 
L 704.045982 67.243375 
L 701.388839 98.958556 
L 698.731696 58.794024 
L 696.074554 89.149737 
L 693.417411 67.931713 
L 690.760268 107.958577 
L 688.103125 65.333237 
L 685.445982 74.815095 
L 682.788839 69.394432 
L 680.131696 64.903025 
L 677.474554 58.914483 
L 674.817411 68.826553 
L 672.160268 97.392586 
L 669.503125 49.260541 
L 666.845982 86.585677 
L 664.188839 99.061806 
L 661.531696 89.304613 
L 658.874554 79.736713 
L 656.217411 58.862858 
L 653.560268 95.327572 
L 650.903125 102.658373 
L 648.245982 102.709998 
L 645.588839 100.02548 
L 642.931696 108.130661 
L 640.274554 64.713732 
L 637.617411 97.409795 
L 634.960268 60.790205 
L 632.303125 98.838096 
L 629.645982 89.838075 
L 626.988839 97.736755 
L 624.331696 86.017798 
L 621.674554 90.595247 
L 619.017411 92.539802 
L 616.360268 101.298905 
L 613.703125 92.763512 
L 611.045982 62.906845 
L 608.388839 80.3218 
L 605.731696 97.392586 
L 603.074554 90.698498 
L 600.417411 72.457537 
L 597.760268 72.629621 
L 595.103125 60.411619 
L 592.445982 91.576129 
L 589.788839 41.344652 
L 587.131696 68.41355 
L 584.474554 100.627776 
L 581.817411 67.071291 
L 579.160268 78.101909 
L 576.503125 90.715706 
L 573.845982 100.077105 
L 571.188839 91.094292 
L 568.531696 89.992951 
L 565.874554 67.880088 
L 563.217411 69.738601 
L 560.560268 53.734739 
L 557.903125 97.100043 
L 555.245982 102.882083 
L 552.588839 68.344716 
L 549.931696 52.960358 
L 547.274554 90.715706 
L 544.617411 64.920234 
L 541.960268 103.949007 
L 539.303125 90.285495 
L 536.645982 99.044598 
L 533.988839 88.409773 
L 531.331696 59.568405 
L 528.674554 44.14963 
L 526.017411 69.755809 
L 523.360268 59.929782 
L 520.703125 101.281697 
L 518.045982 68.895387 
L 515.388839 90.027368 
L 512.731696 74.987179 
L 510.074554 66.314119 
L 507.417411 99.35435 
L 504.760268 62.941262 
L 502.103125 86.534052 
L 499.445982 79.306501 
L 496.788839 55.111415 
L 494.131696 78.42887 
L 491.474554 61.461335 
L 488.817411 60.033033 
L 486.160268 70.822733 
L 483.503125 69.428849 
L 480.845982 62.803594 
L 478.188839 81.044555 
L 475.531696 82.834234 
L 472.874554 55.524418 
L 470.217411 54.870497 
L 467.560268 68.034964 
L 464.903125 89.321821 
z
" style="fill:#1e90ff;fill-opacity:0.25;stroke:#1e90ff;stroke-opacity:0.25;"/>
    <path clip-path="url(#pc0161afa6d)" d="M 874.103125 128.608722 
L 874.103125 181.318216 
L 874.103125 128.608722 
L 874.103125 128.608722 
z
" style="fill:#1e90ff;fill-opacity:0.25;stroke:#1e90ff;stroke-opacity:0.25;"/>
   </g>
   <g id="PolyCollection_2">
    <path clip-path="url(#pc0161afa6d)" d="M 37.103125 126.139308 
L 37.103125 152.752182 
L 39.760268 151.409923 
L 42.417411 151.577705 
L 45.074554 152.287554 
L 47.731696 151.779905 
L 50.388839 151.328183 
L 53.045982 155.686224 
L 55.703125 153.612605 
L 58.360268 150.859252 
L 61.017411 154.576278 
L 63.674554 152.124074 
L 66.331696 154.077233 
L 68.988839 153.832013 
L 71.645982 154.696738 
L 74.303125 155.879819 
L 76.960268 153.922357 
L 79.617411 156.150852 
L 82.274554 154.300943 
L 84.931696 151.212026 
L 87.588839 154.356871 
L 90.245982 154.085837 
L 92.903125 153.302853 
L 95.560268 152.446732 
L 98.217411 154.232109 
L 100.874554 155.428097 
L 103.531696 150.928086 
L 106.188839 153.905149 
L 108.845982 155.376472 
L 111.503125 157.574851 
L 114.160268 155.643203 
L 116.817411 157.566247 
L 119.474554 152.915663 
L 122.131696 153.758877 
L 124.788839 156.632689 
L 127.445982 156.77896 
L 130.103125 155.591577 
L 132.760268 157.290912 
L 135.417411 157.992156 
L 138.074554 156.576761 
L 140.731696 156.400375 
L 143.388839 159.308603 
L 146.045982 153.965378 
L 146.045982 128.884057 
L 146.045982 128.884057 
L 143.388839 126.440456 
L 140.731696 128.230136 
L 138.074554 128.363501 
L 135.417411 130.088649 
L 132.760268 128.570003 
L 130.103125 127.163211 
L 127.445982 127.20193 
L 124.788839 126.410342 
L 122.131696 126.229653 
L 119.474554 128.660347 
L 116.817411 124.874487 
L 114.160268 127.18042 
L 111.503125 125.67468 
L 108.845982 125.442366 
L 106.188839 126.319997 
L 103.531696 125.906994 
L 100.874554 123.773146 
L 98.217411 126.599635 
L 95.560268 126.698583 
L 92.903125 126.664166 
L 90.245982 129.056141 
L 87.588839 125.085291 
L 84.931696 126.526499 
L 82.274554 128.505471 
L 79.617411 127.352504 
L 76.960268 126.625447 
L 74.303125 126.801834 
L 71.645982 125.076686 
L 68.988839 126.186632 
L 66.331696 126.543707 
L 63.674554 125.631659 
L 61.017411 125.786535 
L 58.360268 123.596759 
L 55.703125 126.268372 
L 53.045982 127.077169 
L 50.388839 125.240167 
L 47.731696 125.743514 
L 45.074554 125.73491 
L 42.417411 124.603454 
L 39.760268 126.139308 
L 37.103125 126.139308 
z
" style="fill:#1e90ff;fill-opacity:0.25;stroke:#1e90ff;stroke-opacity:0.25;"/>
    <path clip-path="url(#pc0161afa6d)" d="M 252.331696 125.459574 
L 252.331696 141.635521 
L 252.331696 125.459574 
L 252.331696 125.459574 
z
" style="fill:#1e90ff;fill-opacity:0.25;stroke:#1e90ff;stroke-opacity:0.25;"/>
    <path clip-path="url(#pc0161afa6d)" d="M 464.903125 136.232067 
L 464.903125 164.075345 
L 467.560268 164.539973 
L 470.217411 163.077255 
L 472.874554 164.970185 
L 475.531696 161.033751 
L 478.188839 165.701544 
L 480.845982 165.374583 
L 483.503125 161.23595 
L 486.160268 166.148964 
L 488.817411 160.633654 
L 491.474554 163.67955 
L 494.131696 167.190075 
L 496.788839 163.042838 
L 499.445982 160.693884 
L 502.103125 162.147998 
L 504.760268 163.967792 
L 507.417411 165.262728 
L 510.074554 160.736905 
L 512.731696 163.584904 
L 515.388839 166.355465 
L 518.045982 166.140359 
L 520.703125 161.967309 
L 523.360268 163.731176 
L 526.017411 167.069616 
L 528.674554 163.447236 
L 531.331696 165.813399 
L 533.988839 163.817218 
L 536.645982 164.019417 
L 539.303125 162.629835 
L 541.960268 168.80767 
L 544.617411 163.35259 
L 547.274554 164.617411 
L 549.931696 164.488348 
L 552.588839 164.058136 
L 555.245982 168.549543 
L 557.903125 164.823913 
L 560.560268 165.047623 
L 563.217411 168.201072 
L 565.874554 165.675731 
L 568.531696 167.121241 
L 571.188839 164.109762 
L 573.845982 167.637495 
L 576.503125 169.087307 
L 579.160268 170.997445 
L 581.817411 175.140381 
L 584.474554 173.432442 
L 587.131696 166.570571 
L 589.788839 170.141325 
L 592.445982 167.83109 
L 595.103125 166.209193 
L 597.760268 160.474476 
L 600.417411 164.213013 
L 603.074554 168.996963 
L 605.731696 169.005567 
L 608.388839 169.844479 
L 611.045982 162.388916 
L 613.703125 164.978789 
L 616.360268 166.897531 
L 619.017411 168.756044 
L 621.674554 170.975935 
L 624.331696 173.453952 
L 626.988839 166.99648 
L 629.645982 169.289506 
L 632.303125 162.956795 
L 634.960268 166.105942 
L 637.617411 169.891802 
L 640.274554 169.728322 
L 642.931696 168.153748 
L 645.588839 167.869809 
L 648.245982 171.784732 
L 650.903125 165.254124 
L 653.560268 171.113603 
L 656.217411 166.794281 
L 658.874554 167.271815 
L 661.531696 165.611199 
L 664.188839 161.941497 
L 666.845982 162.767502 
L 669.503125 163.473049 
L 672.160268 165.701544 
L 674.817411 163.602112 
L 677.474554 164.101158 
L 680.131696 162.74169 
L 682.788839 165.680033 
L 685.445982 161.248856 
L 688.103125 162.156602 
L 690.760268 165.292843 
L 693.417411 162.68146 
L 696.074554 162.500771 
L 698.731696 165.249822 
L 701.388839 159.799044 
L 704.045982 161.17572 
L 706.703125 163.696759 
L 709.360268 164.217315 
L 712.017411 163.408517 
L 714.674554 164.109762 
L 717.331696 158.276096 
L 719.988839 164.677641 
L 722.645982 161.967309 
L 725.303125 162.216832 
L 727.960268 165.400396 
L 730.617411 164.608807 
L 733.274554 165.443417 
L 735.931696 167.663308 
L 738.588839 168.626981 
L 741.245982 162.737388 
L 743.903125 162.870753 
L 746.560268 160.082984 
L 749.217411 160.375527 
L 751.874554 162.672856 
L 754.531696 164.35068 
L 757.188839 165.133665 
L 759.845982 164.462535 
L 762.503125 167.280419 
L 765.160268 167.379368 
L 767.817411 165.417604 
L 767.817411 134.769348 
L 767.817411 134.769348 
L 765.160268 138.899377 
L 762.503125 135.956731 
L 759.845982 133.607777 
L 757.188839 131.017905 
L 754.531696 130.854425 
L 751.874554 135.190955 
L 749.217411 131.938557 
L 746.560268 128.109676 
L 743.903125 136.335317 
L 741.245982 134.941433 
L 738.588839 135.552333 
L 735.931696 134.425179 
L 733.274554 135.646979 
L 730.617411 133.719632 
L 727.960268 134.52843 
L 725.303125 137.574326 
L 722.645982 133.805675 
L 719.988839 129.877845 
L 717.331696 129.985398 
L 714.674554 134.330532 
L 712.017411 132.781772 
L 709.360268 134.278907 
L 706.703125 130.74257 
L 704.045982 130.553277 
L 701.388839 132.231101 
L 698.731696 132.876418 
L 696.074554 130.544673 
L 693.417411 134.063801 
L 690.760268 136.244973 
L 688.103125 130.785591 
L 685.445982 130.333869 
L 682.788839 135.427571 
L 680.131696 132.605385 
L 677.474554 134.765046 
L 674.817411 132.067621 
L 672.160268 133.194774 
L 669.503125 133.177566 
L 666.845982 131.06953 
L 664.188839 132.773167 
L 661.531696 134.575753 
L 658.874554 133.263608 
L 656.217411 138.55951 
L 653.560268 140.732077 
L 650.903125 135.612562 
L 648.245982 136.283692 
L 645.588839 131.512648 
L 642.931696 135.870689 
L 640.274554 136.313807 
L 637.617411 137.686181 
L 634.960268 135.900804 
L 632.303125 134.820973 
L 629.645982 139.708174 
L 626.988839 134.145542 
L 624.331696 141.334373 
L 621.674554 135.371644 
L 619.017411 134.192865 
L 616.360268 135.793251 
L 613.703125 134.055197 
L 611.045982 133.642194 
L 608.388839 132.816188 
L 605.731696 135.956731 
L 603.074554 137.798036 
L 600.417411 136.012659 
L 597.760268 132.076225 
L 595.103125 133.173264 
L 592.445982 131.555669 
L 589.788839 137.083885 
L 587.131696 137.174229 
L 584.474554 137.264574 
L 581.817411 138.297081 
L 579.160268 137.690483 
L 576.503125 135.203861 
L 573.845982 133.663705 
L 571.188839 132.618291 
L 568.531696 134.93713 
L 565.874554 131.912745 
L 563.217411 135.023173 
L 560.560268 133.69382 
L 557.903125 133.143149 
L 555.245982 130.07144 
L 552.588839 132.41179 
L 549.931696 134.055197 
L 547.274554 133.762653 
L 544.617411 131.125458 
L 541.960268 135.560937 
L 539.303125 133.18617 
L 536.645982 132.394581 
L 533.988839 135.406061 
L 531.331696 133.478714 
L 528.674554 132.41179 
L 526.017411 133.100128 
L 523.360268 133.100128 
L 520.703125 135.440478 
L 518.045982 134.287511 
L 515.388839 133.065711 
L 512.731696 129.589603 
L 510.074554 133.031294 
L 507.417411 134.231584 
L 504.760268 132.24831 
L 502.103125 130.656528 
L 499.445982 132.803282 
L 496.788839 133.220587 
L 494.131696 134.648889 
L 491.474554 135.044683 
L 488.817411 130.553277 
L 486.160268 134.4682 
L 483.503125 133.220587 
L 480.845982 133.194774 
L 478.188839 130.888842 
L 475.531696 130.342473 
L 472.874554 131.551367 
L 470.217411 131.895536 
L 467.560268 132.549457 
L 464.903125 136.232067 
z
" style="fill:#1e90ff;fill-opacity:0.25;stroke:#1e90ff;stroke-opacity:0.25;"/>
    <path clip-path="url(#pc0161afa6d)" d="M 874.103125 138.383123 
L 874.103125 162.59972 
L 874.103125 138.383123 
L 874.103125 138.383123 
z
" style="fill:#1e90ff;fill-opacity:0.25;stroke:#1e90ff;stroke-opacity:0.25;"/>
   </g>
   <g id="LineCollection_1">
    <path clip-path="url(#pc0161afa6d)" d="M 37.103125 231.609922 
L 37.103125 32.284401 
" style="fill:none;stroke:#808080;stroke-width:0.5;"/>
   </g>
   <g id="LineCollection_2">
    <path clip-path="url(#pc0161afa6d)" d="M 40.028877 231.609922 
L 40.028877 32.284401 
" style="fill:none;stroke:#808080;stroke-width:0.5;"/>
   </g>
   <g id="LineCollection_3">
    <path clip-path="url(#pc0161afa6d)" d="M 466.06499 231.609922 
L 466.06499 32.284401 
" style="fill:none;stroke:#808080;stroke-width:0.5;"/>
   </g>
   <g id="LineCollection_4">
    <path clip-path="url(#pc0161afa6d)" d="M 468.972445 231.609922 
L 468.972445 32.284401 
" style="fill:none;stroke:#808080;stroke-width:0.5;"/>
   </g>
   <g id="LineCollection_5">
    <path clip-path="url(#pc0161afa6d)" d="M 575.765474 231.609922 
L 575.765474 32.284401 
" style="fill:none;stroke:#808080;stroke-width:0.5;"/>
   </g>
   <g id="LineCollection_6">
    <path clip-path="url(#pc0161afa6d)" d="M 578.683469 231.609922 
L 578.683469 32.284401 
" style="fill:none;stroke:#808080;stroke-width:0.5;"/>
   </g>
   <g id="LineCollection_7">
    <path clip-path="url(#pc0161afa6d)" d="M 588.469514 231.609922 
L 588.469514 32.284401 
" style="fill:none;stroke:#808080;stroke-width:0.5;"/>
   </g>
   <g id="LineCollection_8">
    <path clip-path="url(#pc0161afa6d)" d="M 591.357308 231.609922 
L 591.357308 32.284401 
" style="fill:none;stroke:#808080;stroke-width:0.5;"/>
   </g>
   <g id="LineCollection_9">
    <path clip-path="url(#pc0161afa6d)" d="M 659.587402 231.609922 
L 659.587402 32.284401 
" style="fill:none;stroke:#808080;stroke-width:0.5;"/>
   </g>
   <g id="LineCollection_10">
    <path clip-path="url(#pc0161afa6d)" d="M 662.517635 231.609922 
L 662.517635 32.284401 
" style="fill:none;stroke:#808080;stroke-width:0.5;"/>
   </g>
   <g id="line2d_15">
    <path clip-path="url(#pc0161afa6d)" d="M 37.103125 139.1489 
L 39.760268 137.849661 
L 42.417411 137.755015 
L 45.074554 139.966301 
L 47.731696 137.927099 
L 50.388839 136.97203 
L 53.045982 141.084851 
L 55.703125 138.451957 
L 58.360268 137.763619 
L 61.017411 139.123087 
L 63.674554 138.426144 
L 66.331696 139.828633 
L 68.988839 138.951002 
L 71.645982 139.002628 
L 74.303125 140.998808 
L 76.960268 137.935704 
L 79.617411 140.164198 
L 82.274554 140.190011 
L 84.931696 139.914676 
L 87.588839 138.710084 
L 90.245982 139.673757 
L 92.903125 139.518881 
L 95.560268 139.501673 
L 98.217411 138.056163 
L 100.874554 140.620222 
L 103.531696 139.019836 
L 106.188839 141.342977 
L 108.845982 140.568597 
L 111.503125 142.031316 
L 114.160268 139.054253 
L 116.817411 138.890773 
L 119.474554 140.723473 
L 122.131696 139.553298 
L 124.788839 140.646035 
L 127.445982 142.633611 
L 130.103125 139.914676 
L 132.760268 141.790397 
L 135.417411 142.134566 
L 138.074554 140.241636 
L 140.731696 142.306651 
L 143.388839 141.842023 
L 146.045982 144.371665 
M 464.903125 150.394624 
L 467.560268 146.677598 
L 470.217411 145.903218 
L 472.874554 147.641271 
L 475.531696 148.65657 
L 478.188839 148.097296 
L 480.845982 147.176643 
L 483.503125 147.021767 
L 486.160268 150.377416 
L 488.817411 145.713925 
L 491.474554 149.55141 
L 494.131696 148.243567 
L 496.788839 148.450069 
L 499.445982 146.255991 
L 502.103125 144.423291 
L 504.760268 148.183338 
L 507.417411 149.697682 
L 510.074554 145.877405 
L 512.731696 146.643181 
L 515.388839 149.344908 
L 518.045982 149.172824 
L 520.703125 150.824835 
L 523.360268 148.725404 
L 526.017411 147.417562 
L 528.674554 148.191942 
L 531.331696 147.125018 
L 533.988839 147.675688 
L 536.645982 144.130747 
L 539.303125 145.662299 
L 541.960268 150.394624 
L 544.617411 142.685237 
L 547.274554 150.188123 
L 549.931696 150.016038 
L 552.588839 147.262686 
L 555.245982 149.861162 
L 557.903125 146.643181 
L 560.560268 144.715834 
L 563.217411 149.078177 
L 565.874554 149.3277 
L 568.531696 146.557139 
L 571.188839 146.712015 
L 573.845982 149.413742 
L 576.503125 152.855433 
L 579.160268 155.032302 
L 581.817411 155.402284 
L 584.474554 156.013184 
L 587.131696 152.752182 
L 589.788839 151.960593 
L 592.445982 150.480666 
L 595.103125 147.451979 
L 597.760268 147.125018 
L 600.417411 149.9386 
L 603.074554 154.33536 
L 605.731696 152.958684 
L 608.388839 147.908003 
L 611.045982 149.10399 
L 613.703125 148.226359 
L 616.360268 150.411833 
L 619.017411 153.11356 
L 621.674554 152.494055 
L 624.331696 154.610695 
L 626.988839 149.689078 
L 629.645982 152.528472 
L 632.303125 150.360207 
L 634.960268 148.906093 
L 637.617411 153.423312 
L 640.274554 153.844919 
L 642.931696 151.547591 
L 645.588839 151.530382 
L 648.245982 151.633633 
L 650.903125 148.381235 
L 653.560268 154.197692 
L 656.217411 151.934781 
L 658.874554 150.687168 
L 661.531696 149.955809 
L 664.188839 146.453888 
L 666.845982 148.398443 
L 669.503125 148.570528 
L 672.160268 149.129803 
L 674.817411 149.190032 
L 677.474554 150.5495 
L 680.131696 147.391749 
L 682.788839 150.695772 
L 685.445982 148.561924 
L 688.103125 148.639362 
L 690.760268 150.506479 
L 693.417411 147.348728 
L 696.074554 148.639362 
L 698.731696 147.125018 
L 701.388839 146.617368 
L 704.045982 144.474916 
L 706.703125 149.482576 
L 709.360268 147.262686 
L 712.017411 149.129803 
L 714.674554 150.704376 
L 717.331696 143.390783 
L 719.988839 145.085816 
L 722.645982 145.369756 
L 725.303125 151.014128 
L 727.960268 148.43286 
L 730.617411 148.55332 
L 733.274554 147.908003 
L 735.931696 149.895579 
L 738.588839 148.019857 
L 741.245982 149.190032 
L 743.903125 147.985441 
L 746.560268 144.664209 
L 749.217411 146.040885 
L 751.874554 149.310492 
L 754.531696 145.76555 
L 759.845982 150.033247 
L 765.160268 149.671869 
L 767.817411 147.951024 
M 874.103125 147.348728 
" style="fill:none;stroke:#1e90ff;stroke-linecap:round;stroke-width:1.5;"/>
   </g>
   <g id="patch_3">
    <path d="M 37.103125 239.758125 
L 37.103125 22.318125 
" style="fill:none;stroke:#262626;stroke-linecap:square;stroke-linejoin:miter;stroke-width:1.25;"/>
   </g>
   <g id="patch_4">
    <path d="M 874.103125 239.758125 
L 874.103125 22.318125 
" style="fill:none;stroke:#262626;stroke-linecap:square;stroke-linejoin:miter;stroke-width:1.25;"/>
   </g>
   <g id="patch_5">
    <path d="M 37.103125 239.758125 
L 874.103125 239.758125 
" style="fill:none;stroke:#262626;stroke-linecap:square;stroke-linejoin:miter;stroke-width:1.25;"/>
   </g>
   <g id="patch_6">
    <path d="M 37.103125 22.318125 
L 874.103125 22.318125 
" style="fill:none;stroke:#262626;stroke-linecap:square;stroke-linejoin:miter;stroke-width:1.25;"/>
   </g>
   <g id="text_17">
    <!-- Mean read quality over time (Median, Q1-Q3, Min-Max) -->
    <defs>
     <path d="M 30.609375 48.390625 
Q 23.390625 48.390625 19.1875 42.75 
Q 14.984375 37.109375 14.984375 27.296875 
Q 14.984375 17.484375 19.15625 11.84375 
Q 23.34375 6.203125 30.609375 6.203125 
Q 37.796875 6.203125 41.984375 11.859375 
Q 46.1875 17.53125 46.1875 27.296875 
Q 46.1875 37.015625 41.984375 42.703125 
Q 37.796875 48.390625 30.609375 48.390625 
z
M 30.609375 56 
Q 42.328125 56 49.015625 48.375 
Q 55.71875 40.765625 55.71875 27.296875 
Q 55.71875 13.875 49.015625 6.21875 
Q 42.328125 -1.421875 30.609375 -1.421875 
Q 18.84375 -1.421875 12.171875 6.21875 
Q 5.515625 13.875 5.515625 27.296875 
Q 5.515625 40.765625 12.171875 48.375 
Q 18.84375 56 30.609375 56 
z
" id="DejaVuSans-6f"/>
     <path d="M 2.984375 54.6875 
L 12.5 54.6875 
L 29.59375 8.796875 
L 46.6875 54.6875 
L 56.203125 54.6875 
L 35.6875 0 
L 23.484375 0 
z
" id="DejaVuSans-76"/>
     <path d="M 11.71875 12.40625 
L 22.015625 12.40625 
L 22.015625 4 
L 14.015625 -11.625 
L 7.71875 -11.625 
L 11.71875 4 
z
" id="DejaVuSans-2c"/>
     <path d="M 39.40625 66.21875 
Q 28.65625 66.21875 22.328125 58.203125 
Q 16.015625 50.203125 16.015625 36.375 
Q 16.015625 22.609375 22.328125 14.59375 
Q 28.65625 6.59375 39.40625 6.59375 
Q 50.140625 6.59375 56.421875 14.59375 
Q 62.703125 22.609375 62.703125 36.375 
Q 62.703125 50.203125 56.421875 58.203125 
Q 50.140625 66.21875 39.40625 66.21875 
z
M 53.21875 1.3125 
L 66.21875 -12.890625 
L 54.296875 -12.890625 
L 43.5 -1.21875 
Q 41.890625 -1.3125 41.03125 -1.359375 
Q 40.1875 -1.421875 39.40625 -1.421875 
Q 24.03125 -1.421875 14.8125 8.859375 
Q 5.609375 19.140625 5.609375 36.375 
Q 5.609375 53.65625 14.8125 63.9375 
Q 24.03125 74.21875 39.40625 74.21875 
Q 54.734375 74.21875 63.90625 63.9375 
Q 73.09375 53.65625 73.09375 36.375 
Q 73.09375 23.6875 67.984375 14.640625 
Q 62.890625 5.609375 53.21875 1.3125 
z
" id="DejaVuSans-51"/>
     <path d="M 4.890625 31.390625 
L 31.203125 31.390625 
L 31.203125 23.390625 
L 4.890625 23.390625 
z
" id="DejaVuSans-2d"/>
    </defs>
    <g style="fill:#262626;" transform="translate(290.018125 16.318125)scale(0.12 -0.12)">
     <use xlink:href="#DejaVuSans-4d"/>
     <use x="86.279297" xlink:href="#DejaVuSans-65"/>
     <use x="147.802734" xlink:href="#DejaVuSans-61"/>
     <use x="209.082031" xlink:href="#DejaVuSans-6e"/>
     <use x="272.460938" xlink:href="#DejaVuSans-20"/>
     <use x="304.248047" xlink:href="#DejaVuSans-72"/>
     <use x="345.330078" xlink:href="#DejaVuSans-65"/>
     <use x="406.853516" xlink:href="#DejaVuSans-61"/>
     <use x="468.132812" xlink:href="#DejaVuSans-64"/>
     <use x="531.609375" xlink:href="#DejaVuSans-20"/>
     <use x="563.396484" xlink:href="#DejaVuSans-71"/>
     <use x="626.873047" xlink:href="#DejaVuSans-75"/>
     <use x="690.251953" xlink:href="#DejaVuSans-61"/>
     <use x="751.53125" xlink:href="#DejaVuSans-6c"/>
     <use x="779.314453" xlink:href="#DejaVuSans-69"/>
     <use x="807.097656" xlink:href="#DejaVuSans-74"/>
     <use x="846.306641" xlink:href="#DejaVuSans-79"/>
     <use x="905.486328" xlink:href="#DejaVuSans-20"/>
     <use x="937.273438" xlink:href="#DejaVuSans-6f"/>
     <use x="998.455078" xlink:href="#DejaVuSans-76"/>
     <use x="1057.634766" xlink:href="#DejaVuSans-65"/>
     <use x="1119.158203" xlink:href="#DejaVuSans-72"/>
     <use x="1160.271484" xlink:href="#DejaVuSans-20"/>
     <use x="1192.058594" xlink:href="#DejaVuSans-74"/>
     <use x="1231.267578" xlink:href="#DejaVuSans-69"/>
     <use x="1259.050781" xlink:href="#DejaVuSans-6d"/>
     <use x="1356.462891" xlink:href="#DejaVuSans-65"/>
     <use x="1417.986328" xlink:href="#DejaVuSans-20"/>
     <use x="1449.773438" xlink:href="#DejaVuSans-28"/>
     <use x="1488.787109" xlink:href="#DejaVuSans-4d"/>
     <use x="1575.066406" xlink:href="#DejaVuSans-65"/>
     <use x="1636.589844" xlink:href="#DejaVuSans-64"/>
     <use x="1700.066406" xlink:href="#DejaVuSans-69"/>
     <use x="1727.849609" xlink:href="#DejaVuSans-61"/>
     <use x="1789.128906" xlink:href="#DejaVuSans-6e"/>
     <use x="1852.507812" xlink:href="#DejaVuSans-2c"/>
     <use x="1884.294922" xlink:href="#DejaVuSans-20"/>
     <use x="1916.082031" xlink:href="#DejaVuSans-51"/>
     <use x="1994.792969" xlink:href="#DejaVuSans-31"/>
     <use x="2058.416016" xlink:href="#DejaVuSans-2d"/>
     <use x="2094.546875" xlink:href="#DejaVuSans-51"/>
     <use x="2173.257812" xlink:href="#DejaVuSans-33"/>
     <use x="2236.880859" xlink:href="#DejaVuSans-2c"/>
     <use x="2268.667969" xlink:href="#DejaVuSans-20"/>
     <use x="2300.455078" xlink:href="#DejaVuSans-4d"/>
     <use x="2386.734375" xlink:href="#DejaVuSans-69"/>
     <use x="2414.517578" xlink:href="#DejaVuSans-6e"/>
     <use x="2477.896484" xlink:href="#DejaVuSans-2d"/>
     <use x="2513.980469" xlink:href="#DejaVuSans-4d"/>
     <use x="2600.259766" xlink:href="#DejaVuSans-61"/>
     <use x="2661.539062" xlink:href="#DejaVuSans-78"/>
     <use x="2720.71875" xlink:href="#DejaVuSans-29"/>
    </g>
   </g>
  </g>
 </g>
 <defs>
  <clipPath id="pc0161afa6d">
   <rect height="217.44" width="837" x="37.103125" y="22.318125"/>
  </clipPath>
 </defs>
</svg>
