<?xml version="1.0" encoding="utf-8" standalone="no"?>
<!DOCTYPE svg PUBLIC "-//W3C//DTD SVG 1.1//EN"
  "http://www.w3.org/Graphics/SVG/1.1/DTD/svg11.dtd">
<!-- Created with matplotlib (http://matplotlib.org/) -->
<svg height="281pt" version="1.1" viewBox="0 0 890 281" width="890pt" xmlns="http://www.w3.org/2000/svg" xmlns:xlink="http://www.w3.org/1999/xlink">
 <defs>
  <style type="text/css">
*{stroke-linecap:butt;stroke-linejoin:round;}
  </style>
 </defs>
 <g id="figure_1">
  <g id="patch_1">
   <path d="M 0 281.073625 
L 890.23875 281.073625 
L 890.23875 0 
L 0 0 
z
" style="fill:#ffffff;"/>
  </g>
  <g id="axes_1">
   <g id="patch_2">
    <path d="M 42.53875 241.58175 
L 879.53875 241.58175 
L 879.53875 24.14175 
L 42.53875 24.14175 
z
" style="fill:#e5e5e5;"/>
   </g>
   <g id="matplotlib.axis_1">
    <g id="xtick_1">
     <g id="line2d_1">
      <path clip-path="url(#p8f0b6aae7c)" d="M 42.53875 241.58175 
L 42.53875 24.14175 
" style="fill:none;stroke:#ffffff;stroke-linecap:square;stroke-width:0.8;"/>
     </g>
     <g id="line2d_2">
      <defs>
       <path d="M 0 0 
L 0 3.5 
" id="m7b8f043858" style="stroke:#555555;stroke-width:0.8;"/>
      </defs>
      <g>
       <use style="fill:#555555;stroke:#555555;stroke-width:0.8;" x="42.53875" xlink:href="#m7b8f043858" y="241.58175"/>
      </g>
     </g>
     <g id="text_1">
      <!-- 0 -->
      <defs>
       <path d="M 31.78125 66.40625 
Q 24.171875 66.40625 20.328125 58.90625 
Q 16.5 51.421875 16.5 36.375 
Q 16.5 21.390625 20.328125 13.890625 
Q 24.171875 6.390625 31.78125 6.390625 
Q 39.453125 6.390625 43.28125 13.890625 
Q 47.125 21.390625 47.125 36.375 
Q 47.125 51.421875 43.28125 58.90625 
Q 39.453125 66.40625 31.78125 66.40625 
z
M 31.78125 74.21875 
Q 44.046875 74.21875 50.515625 64.515625 
Q 56.984375 54.828125 56.984375 36.375 
Q 56.984375 17.96875 50.515625 8.265625 
Q 44.046875 -1.421875 31.78125 -1.421875 
Q 19.53125 -1.421875 13.0625 8.265625 
Q 6.59375 17.96875 6.59375 36.375 
Q 6.59375 54.828125 13.0625 64.515625 
Q 19.53125 74.21875 31.78125 74.21875 
z
" id="DejaVuSans-30"/>
      </defs>
      <g style="fill:#555555;" transform="translate(39.3575 256.180187)scale(0.1 -0.1)">
       <use xlink:href="#DejaVuSans-30"/>
      </g>
     </g>
    </g>
    <g id="xtick_2">
     <g id="line2d_3">
      <path clip-path="url(#p8f0b6aae7c)" d="M 218.749276 241.58175 
L 218.749276 24.14175 
" style="fill:none;stroke:#ffffff;stroke-linecap:square;stroke-width:0.8;"/>
     </g>
     <g id="line2d_4">
      <g>
       <use style="fill:#555555;stroke:#555555;stroke-width:0.8;" x="218.749276" xlink:href="#m7b8f043858" y="241.58175"/>
      </g>
     </g>
     <g id="text_2">
      <!-- 10 -->
      <defs>
       <path d="M 12.40625 8.296875 
L 28.515625 8.296875 
L 28.515625 63.921875 
L 10.984375 60.40625 
L 10.984375 69.390625 
L 28.421875 72.90625 
L 38.28125 72.90625 
L 38.28125 8.296875 
L 54.390625 8.296875 
L 54.390625 0 
L 12.40625 0 
z
" id="DejaVuSans-31"/>
      </defs>
      <g style="fill:#555555;" transform="translate(212.386776 256.180187)scale(0.1 -0.1)">
       <use xlink:href="#DejaVuSans-31"/>
       <use x="63.623047" xlink:href="#DejaVuSans-30"/>
      </g>
     </g>
    </g>
    <g id="xtick_3">
     <g id="line2d_5">
      <path clip-path="url(#p8f0b6aae7c)" d="M 394.959803 241.58175 
L 394.959803 24.14175 
" style="fill:none;stroke:#ffffff;stroke-linecap:square;stroke-width:0.8;"/>
     </g>
     <g id="line2d_6">
      <g>
       <use style="fill:#555555;stroke:#555555;stroke-width:0.8;" x="394.959803" xlink:href="#m7b8f043858" y="241.58175"/>
      </g>
     </g>
     <g id="text_3">
      <!-- 20 -->
      <defs>
       <path d="M 19.1875 8.296875 
L 53.609375 8.296875 
L 53.609375 0 
L 7.328125 0 
L 7.328125 8.296875 
Q 12.9375 14.109375 22.625 23.890625 
Q 32.328125 33.6875 34.8125 36.53125 
Q 39.546875 41.84375 41.421875 45.53125 
Q 43.3125 49.21875 43.3125 52.78125 
Q 43.3125 58.59375 39.234375 62.25 
Q 35.15625 65.921875 28.609375 65.921875 
Q 23.96875 65.921875 18.8125 64.3125 
Q 13.671875 62.703125 7.8125 59.421875 
L 7.8125 69.390625 
Q 13.765625 71.78125 18.9375 73 
Q 24.125 74.21875 28.421875 74.21875 
Q 39.75 74.21875 46.484375 68.546875 
Q 53.21875 62.890625 53.21875 53.421875 
Q 53.21875 48.921875 51.53125 44.890625 
Q 49.859375 40.875 45.40625 35.40625 
Q 44.1875 33.984375 37.640625 27.21875 
Q 31.109375 20.453125 19.1875 8.296875 
z
" id="DejaVuSans-32"/>
      </defs>
      <g style="fill:#555555;" transform="translate(388.597303 256.180187)scale(0.1 -0.1)">
       <use xlink:href="#DejaVuSans-32"/>
       <use x="63.623047" xlink:href="#DejaVuSans-30"/>
      </g>
     </g>
    </g>
    <g id="xtick_4">
     <g id="line2d_7">
      <path clip-path="url(#p8f0b6aae7c)" d="M 571.170329 241.58175 
L 571.170329 24.14175 
" style="fill:none;stroke:#ffffff;stroke-linecap:square;stroke-width:0.8;"/>
     </g>
     <g id="line2d_8">
      <g>
       <use style="fill:#555555;stroke:#555555;stroke-width:0.8;" x="571.170329" xlink:href="#m7b8f043858" y="241.58175"/>
      </g>
     </g>
     <g id="text_4">
      <!-- 30 -->
      <defs>
       <path d="M 40.578125 39.3125 
Q 47.65625 37.796875 51.625 33 
Q 55.609375 28.21875 55.609375 21.1875 
Q 55.609375 10.40625 48.1875 4.484375 
Q 40.765625 -1.421875 27.09375 -1.421875 
Q 22.515625 -1.421875 17.65625 -0.515625 
Q 12.796875 0.390625 7.625 2.203125 
L 7.625 11.71875 
Q 11.71875 9.328125 16.59375 8.109375 
Q 21.484375 6.890625 26.8125 6.890625 
Q 36.078125 6.890625 40.9375 10.546875 
Q 45.796875 14.203125 45.796875 21.1875 
Q 45.796875 27.640625 41.28125 31.265625 
Q 36.765625 34.90625 28.71875 34.90625 
L 20.21875 34.90625 
L 20.21875 43.015625 
L 29.109375 43.015625 
Q 36.375 43.015625 40.234375 45.921875 
Q 44.09375 48.828125 44.09375 54.296875 
Q 44.09375 59.90625 40.109375 62.90625 
Q 36.140625 65.921875 28.71875 65.921875 
Q 24.65625 65.921875 20.015625 65.03125 
Q 15.375 64.15625 9.8125 62.3125 
L 9.8125 71.09375 
Q 15.4375 72.65625 20.34375 73.4375 
Q 25.25 74.21875 29.59375 74.21875 
Q 40.828125 74.21875 47.359375 69.109375 
Q 53.90625 64.015625 53.90625 55.328125 
Q 53.90625 49.265625 50.4375 45.09375 
Q 46.96875 40.921875 40.578125 39.3125 
z
" id="DejaVuSans-33"/>
      </defs>
      <g style="fill:#555555;" transform="translate(564.807829 256.180187)scale(0.1 -0.1)">
       <use xlink:href="#DejaVuSans-33"/>
       <use x="63.623047" xlink:href="#DejaVuSans-30"/>
      </g>
     </g>
    </g>
    <g id="xtick_5">
     <g id="line2d_9">
      <path clip-path="url(#p8f0b6aae7c)" d="M 747.380855 241.58175 
L 747.380855 24.14175 
" style="fill:none;stroke:#ffffff;stroke-linecap:square;stroke-width:0.8;"/>
     </g>
     <g id="line2d_10">
      <g>
       <use style="fill:#555555;stroke:#555555;stroke-width:0.8;" x="747.380855" xlink:href="#m7b8f043858" y="241.58175"/>
      </g>
     </g>
     <g id="text_5">
      <!-- 40 -->
      <defs>
       <path d="M 37.796875 64.3125 
L 12.890625 25.390625 
L 37.796875 25.390625 
z
M 35.203125 72.90625 
L 47.609375 72.90625 
L 47.609375 25.390625 
L 58.015625 25.390625 
L 58.015625 17.1875 
L 47.609375 17.1875 
L 47.609375 0 
L 37.796875 0 
L 37.796875 17.1875 
L 4.890625 17.1875 
L 4.890625 26.703125 
z
" id="DejaVuSans-34"/>
      </defs>
      <g style="fill:#555555;" transform="translate(741.018355 256.180187)scale(0.1 -0.1)">
       <use xlink:href="#DejaVuSans-34"/>
       <use x="63.623047" xlink:href="#DejaVuSans-30"/>
      </g>
     </g>
    </g>
    <g id="text_6">
     <!-- Experiment time (h) -->
     <defs>
      <path d="M 9.8125 72.90625 
L 55.90625 72.90625 
L 55.90625 64.59375 
L 19.671875 64.59375 
L 19.671875 43.015625 
L 54.390625 43.015625 
L 54.390625 34.71875 
L 19.671875 34.71875 
L 19.671875 8.296875 
L 56.78125 8.296875 
L 56.78125 0 
L 9.8125 0 
z
" id="DejaVuSans-45"/>
      <path d="M 54.890625 54.6875 
L 35.109375 28.078125 
L 55.90625 0 
L 45.3125 0 
L 29.390625 21.484375 
L 13.484375 0 
L 2.875 0 
L 24.125 28.609375 
L 4.6875 54.6875 
L 15.28125 54.6875 
L 29.78125 35.203125 
L 44.28125 54.6875 
z
" id="DejaVuSans-78"/>
      <path d="M 18.109375 8.203125 
L 18.109375 -20.796875 
L 9.078125 -20.796875 
L 9.078125 54.6875 
L 18.109375 54.6875 
L 18.109375 46.390625 
Q 20.953125 51.265625 25.265625 53.625 
Q 29.59375 56 35.59375 56 
Q 45.5625 56 51.78125 48.09375 
Q 58.015625 40.1875 58.015625 27.296875 
Q 58.015625 14.40625 51.78125 6.484375 
Q 45.5625 -1.421875 35.59375 -1.421875 
Q 29.59375 -1.421875 25.265625 0.953125 
Q 20.953125 3.328125 18.109375 8.203125 
z
M 48.6875 27.296875 
Q 48.6875 37.203125 44.609375 42.84375 
Q 40.53125 48.484375 33.40625 48.484375 
Q 26.265625 48.484375 22.1875 42.84375 
Q 18.109375 37.203125 18.109375 27.296875 
Q 18.109375 17.390625 22.1875 11.75 
Q 26.265625 6.109375 33.40625 6.109375 
Q 40.53125 6.109375 44.609375 11.75 
Q 48.6875 17.390625 48.6875 27.296875 
z
" id="DejaVuSans-70"/>
      <path d="M 56.203125 29.59375 
L 56.203125 25.203125 
L 14.890625 25.203125 
Q 15.484375 15.921875 20.484375 11.0625 
Q 25.484375 6.203125 34.421875 6.203125 
Q 39.59375 6.203125 44.453125 7.46875 
Q 49.3125 8.734375 54.109375 11.28125 
L 54.109375 2.78125 
Q 49.265625 0.734375 44.1875 -0.34375 
Q 39.109375 -1.421875 33.890625 -1.421875 
Q 20.796875 -1.421875 13.15625 6.1875 
Q 5.515625 13.8125 5.515625 26.8125 
Q 5.515625 40.234375 12.765625 48.109375 
Q 20.015625 56 32.328125 56 
Q 43.359375 56 49.78125 48.890625 
Q 56.203125 41.796875 56.203125 29.59375 
z
M 47.21875 32.234375 
Q 47.125 39.59375 43.09375 43.984375 
Q 39.0625 48.390625 32.421875 48.390625 
Q 24.90625 48.390625 20.390625 44.140625 
Q 15.875 39.890625 15.1875 32.171875 
z
" id="DejaVuSans-65"/>
      <path d="M 41.109375 46.296875 
Q 39.59375 47.171875 37.8125 47.578125 
Q 36.03125 48 33.890625 48 
Q 26.265625 48 22.1875 43.046875 
Q 18.109375 38.09375 18.109375 28.8125 
L 18.109375 0 
L 9.078125 0 
L 9.078125 54.6875 
L 18.109375 54.6875 
L 18.109375 46.1875 
Q 20.953125 51.171875 25.484375 53.578125 
Q 30.03125 56 36.53125 56 
Q 37.453125 56 38.578125 55.875 
Q 39.703125 55.765625 41.0625 55.515625 
z
" id="DejaVuSans-72"/>
      <path d="M 9.421875 54.6875 
L 18.40625 54.6875 
L 18.40625 0 
L 9.421875 0 
z
M 9.421875 75.984375 
L 18.40625 75.984375 
L 18.40625 64.59375 
L 9.421875 64.59375 
z
" id="DejaVuSans-69"/>
      <path d="M 52 44.1875 
Q 55.375 50.25 60.0625 53.125 
Q 64.75 56 71.09375 56 
Q 79.640625 56 84.28125 50.015625 
Q 88.921875 44.046875 88.921875 33.015625 
L 88.921875 0 
L 79.890625 0 
L 79.890625 32.71875 
Q 79.890625 40.578125 77.09375 44.375 
Q 74.3125 48.1875 68.609375 48.1875 
Q 61.625 48.1875 57.5625 43.546875 
Q 53.515625 38.921875 53.515625 30.90625 
L 53.515625 0 
L 44.484375 0 
L 44.484375 32.71875 
Q 44.484375 40.625 41.703125 44.40625 
Q 38.921875 48.1875 33.109375 48.1875 
Q 26.21875 48.1875 22.15625 43.53125 
Q 18.109375 38.875 18.109375 30.90625 
L 18.109375 0 
L 9.078125 0 
L 9.078125 54.6875 
L 18.109375 54.6875 
L 18.109375 46.1875 
Q 21.1875 51.21875 25.484375 53.609375 
Q 29.78125 56 35.6875 56 
Q 41.65625 56 45.828125 52.96875 
Q 50 49.953125 52 44.1875 
z
" id="DejaVuSans-6d"/>
      <path d="M 54.890625 33.015625 
L 54.890625 0 
L 45.90625 0 
L 45.90625 32.71875 
Q 45.90625 40.484375 42.875 44.328125 
Q 39.84375 48.1875 33.796875 48.1875 
Q 26.515625 48.1875 22.3125 43.546875 
Q 18.109375 38.921875 18.109375 30.90625 
L 18.109375 0 
L 9.078125 0 
L 9.078125 54.6875 
L 18.109375 54.6875 
L 18.109375 46.1875 
Q 21.34375 51.125 25.703125 53.5625 
Q 30.078125 56 35.796875 56 
Q 45.21875 56 50.046875 50.171875 
Q 54.890625 44.34375 54.890625 33.015625 
z
" id="DejaVuSans-6e"/>
      <path d="M 18.3125 70.21875 
L 18.3125 54.6875 
L 36.8125 54.6875 
L 36.8125 47.703125 
L 18.3125 47.703125 
L 18.3125 18.015625 
Q 18.3125 11.328125 20.140625 9.421875 
Q 21.96875 7.515625 27.59375 7.515625 
L 36.8125 7.515625 
L 36.8125 0 
L 27.59375 0 
Q 17.1875 0 13.234375 3.875 
Q 9.28125 7.765625 9.28125 18.015625 
L 9.28125 47.703125 
L 2.6875 47.703125 
L 2.6875 54.6875 
L 9.28125 54.6875 
L 9.28125 70.21875 
z
" id="DejaVuSans-74"/>
      <path id="DejaVuSans-20"/>
      <path d="M 31 75.875 
Q 24.46875 64.65625 21.28125 53.65625 
Q 18.109375 42.671875 18.109375 31.390625 
Q 18.109375 20.125 21.3125 9.0625 
Q 24.515625 -2 31 -13.1875 
L 23.1875 -13.1875 
Q 15.875 -1.703125 12.234375 9.375 
Q 8.59375 20.453125 8.59375 31.390625 
Q 8.59375 42.28125 12.203125 53.3125 
Q 15.828125 64.359375 23.1875 75.875 
z
" id="DejaVuSans-28"/>
      <path d="M 54.890625 33.015625 
L 54.890625 0 
L 45.90625 0 
L 45.90625 32.71875 
Q 45.90625 40.484375 42.875 44.328125 
Q 39.84375 48.1875 33.796875 48.1875 
Q 26.515625 48.1875 22.3125 43.546875 
Q 18.109375 38.921875 18.109375 30.90625 
L 18.109375 0 
L 9.078125 0 
L 9.078125 75.984375 
L 18.109375 75.984375 
L 18.109375 46.1875 
Q 21.34375 51.125 25.703125 53.5625 
Q 30.078125 56 35.796875 56 
Q 45.21875 56 50.046875 50.171875 
Q 54.890625 44.34375 54.890625 33.015625 
z
" id="DejaVuSans-68"/>
      <path d="M 8.015625 75.875 
L 15.828125 75.875 
Q 23.140625 64.359375 26.78125 53.3125 
Q 30.421875 42.28125 30.421875 31.390625 
Q 30.421875 20.453125 26.78125 9.375 
Q 23.140625 -1.703125 15.828125 -13.1875 
L 8.015625 -13.1875 
Q 14.5 -2 17.703125 9.0625 
Q 20.90625 20.125 20.90625 31.390625 
Q 20.90625 42.671875 17.703125 53.65625 
Q 14.5 64.65625 8.015625 75.875 
z
" id="DejaVuSans-29"/>
     </defs>
     <g style="fill:#555555;" transform="translate(400.5175 271.378)scale(0.12 -0.12)">
      <use xlink:href="#DejaVuSans-45"/>
      <use x="63.183594" xlink:href="#DejaVuSans-78"/>
      <use x="122.363281" xlink:href="#DejaVuSans-70"/>
      <use x="185.839844" xlink:href="#DejaVuSans-65"/>
      <use x="247.363281" xlink:href="#DejaVuSans-72"/>
      <use x="288.476562" xlink:href="#DejaVuSans-69"/>
      <use x="316.259766" xlink:href="#DejaVuSans-6d"/>
      <use x="413.671875" xlink:href="#DejaVuSans-65"/>
      <use x="475.195312" xlink:href="#DejaVuSans-6e"/>
      <use x="538.574219" xlink:href="#DejaVuSans-74"/>
      <use x="577.783203" xlink:href="#DejaVuSans-20"/>
      <use x="609.570312" xlink:href="#DejaVuSans-74"/>
      <use x="648.779297" xlink:href="#DejaVuSans-69"/>
      <use x="676.5625" xlink:href="#DejaVuSans-6d"/>
      <use x="773.974609" xlink:href="#DejaVuSans-65"/>
      <use x="835.498047" xlink:href="#DejaVuSans-20"/>
      <use x="867.285156" xlink:href="#DejaVuSans-28"/>
      <use x="906.298828" xlink:href="#DejaVuSans-68"/>
      <use x="969.677734" xlink:href="#DejaVuSans-29"/>
     </g>
    </g>
   </g>
   <g id="matplotlib.axis_2">
    <g id="ytick_1">
     <g id="line2d_11">
      <path clip-path="url(#p8f0b6aae7c)" d="M 42.53875 241.58175 
L 879.53875 241.58175 
" style="fill:none;stroke:#ffffff;stroke-linecap:square;stroke-width:0.8;"/>
     </g>
     <g id="line2d_12">
      <defs>
       <path d="M 0 0 
L -3.5 0 
" id="me72a7c6a36" style="stroke:#555555;stroke-width:0.8;"/>
      </defs>
      <g>
       <use style="fill:#555555;stroke:#555555;stroke-width:0.8;" x="42.53875" xlink:href="#me72a7c6a36" y="241.58175"/>
      </g>
     </g>
     <g id="text_7">
      <!-- 0 -->
      <g style="fill:#555555;" transform="translate(29.17625 245.380969)scale(0.1 -0.1)">
       <use xlink:href="#DejaVuSans-30"/>
      </g>
     </g>
    </g>
    <g id="ytick_2">
     <g id="line2d_13">
      <path clip-path="url(#p8f0b6aae7c)" d="M 42.53875 215.327943 
L 879.53875 215.327943 
" style="fill:none;stroke:#ffffff;stroke-linecap:square;stroke-width:0.8;"/>
     </g>
     <g id="line2d_14">
      <g>
       <use style="fill:#555555;stroke:#555555;stroke-width:0.8;" x="42.53875" xlink:href="#me72a7c6a36" y="215.327943"/>
      </g>
     </g>
     <g id="text_8">
      <!-- 2 -->
      <g style="fill:#555555;" transform="translate(29.17625 219.127162)scale(0.1 -0.1)">
       <use xlink:href="#DejaVuSans-32"/>
      </g>
     </g>
    </g>
    <g id="ytick_3">
     <g id="line2d_15">
      <path clip-path="url(#p8f0b6aae7c)" d="M 42.53875 189.074137 
L 879.53875 189.074137 
" style="fill:none;stroke:#ffffff;stroke-linecap:square;stroke-width:0.8;"/>
     </g>
     <g id="line2d_16">
      <g>
       <use style="fill:#555555;stroke:#555555;stroke-width:0.8;" x="42.53875" xlink:href="#me72a7c6a36" y="189.074137"/>
      </g>
     </g>
     <g id="text_9">
      <!-- 4 -->
      <g style="fill:#555555;" transform="translate(29.17625 192.873355)scale(0.1 -0.1)">
       <use xlink:href="#DejaVuSans-34"/>
      </g>
     </g>
    </g>
    <g id="ytick_4">
     <g id="line2d_17">
      <path clip-path="url(#p8f0b6aae7c)" d="M 42.53875 162.82033 
L 879.53875 162.82033 
" style="fill:none;stroke:#ffffff;stroke-linecap:square;stroke-width:0.8;"/>
     </g>
     <g id="line2d_18">
      <g>
       <use style="fill:#555555;stroke:#555555;stroke-width:0.8;" x="42.53875" xlink:href="#me72a7c6a36" y="162.82033"/>
      </g>
     </g>
     <g id="text_10">
      <!-- 6 -->
      <defs>
       <path d="M 33.015625 40.375 
Q 26.375 40.375 22.484375 35.828125 
Q 18.609375 31.296875 18.609375 23.390625 
Q 18.609375 15.53125 22.484375 10.953125 
Q 26.375 6.390625 33.015625 6.390625 
Q 39.65625 6.390625 43.53125 10.953125 
Q 47.40625 15.53125 47.40625 23.390625 
Q 47.40625 31.296875 43.53125 35.828125 
Q 39.65625 40.375 33.015625 40.375 
z
M 52.59375 71.296875 
L 52.59375 62.3125 
Q 48.875 64.0625 45.09375 64.984375 
Q 41.3125 65.921875 37.59375 65.921875 
Q 27.828125 65.921875 22.671875 59.328125 
Q 17.53125 52.734375 16.796875 39.40625 
Q 19.671875 43.65625 24.015625 45.921875 
Q 28.375 48.1875 33.59375 48.1875 
Q 44.578125 48.1875 50.953125 41.515625 
Q 57.328125 34.859375 57.328125 23.390625 
Q 57.328125 12.15625 50.6875 5.359375 
Q 44.046875 -1.421875 33.015625 -1.421875 
Q 20.359375 -1.421875 13.671875 8.265625 
Q 6.984375 17.96875 6.984375 36.375 
Q 6.984375 53.65625 15.1875 63.9375 
Q 23.390625 74.21875 37.203125 74.21875 
Q 40.921875 74.21875 44.703125 73.484375 
Q 48.484375 72.75 52.59375 71.296875 
z
" id="DejaVuSans-36"/>
      </defs>
      <g style="fill:#555555;" transform="translate(29.17625 166.619549)scale(0.1 -0.1)">
       <use xlink:href="#DejaVuSans-36"/>
      </g>
     </g>
    </g>
    <g id="ytick_5">
     <g id="line2d_19">
      <path clip-path="url(#p8f0b6aae7c)" d="M 42.53875 136.566523 
L 879.53875 136.566523 
" style="fill:none;stroke:#ffffff;stroke-linecap:square;stroke-width:0.8;"/>
     </g>
     <g id="line2d_20">
      <g>
       <use style="fill:#555555;stroke:#555555;stroke-width:0.8;" x="42.53875" xlink:href="#me72a7c6a36" y="136.566523"/>
      </g>
     </g>
     <g id="text_11">
      <!-- 8 -->
      <defs>
       <path d="M 31.78125 34.625 
Q 24.75 34.625 20.71875 30.859375 
Q 16.703125 27.09375 16.703125 20.515625 
Q 16.703125 13.921875 20.71875 10.15625 
Q 24.75 6.390625 31.78125 6.390625 
Q 38.8125 6.390625 42.859375 10.171875 
Q 46.921875 13.96875 46.921875 20.515625 
Q 46.921875 27.09375 42.890625 30.859375 
Q 38.875 34.625 31.78125 34.625 
z
M 21.921875 38.8125 
Q 15.578125 40.375 12.03125 44.71875 
Q 8.5 49.078125 8.5 55.328125 
Q 8.5 64.0625 14.71875 69.140625 
Q 20.953125 74.21875 31.78125 74.21875 
Q 42.671875 74.21875 48.875 69.140625 
Q 55.078125 64.0625 55.078125 55.328125 
Q 55.078125 49.078125 51.53125 44.71875 
Q 48 40.375 41.703125 38.8125 
Q 48.828125 37.15625 52.796875 32.3125 
Q 56.78125 27.484375 56.78125 20.515625 
Q 56.78125 9.90625 50.3125 4.234375 
Q 43.84375 -1.421875 31.78125 -1.421875 
Q 19.734375 -1.421875 13.25 4.234375 
Q 6.78125 9.90625 6.78125 20.515625 
Q 6.78125 27.484375 10.78125 32.3125 
Q 14.796875 37.15625 21.921875 38.8125 
z
M 18.3125 54.390625 
Q 18.3125 48.734375 21.84375 45.5625 
Q 25.390625 42.390625 31.78125 42.390625 
Q 38.140625 42.390625 41.71875 45.5625 
Q 45.3125 48.734375 45.3125 54.390625 
Q 45.3125 60.0625 41.71875 63.234375 
Q 38.140625 66.40625 31.78125 66.40625 
Q 25.390625 66.40625 21.84375 63.234375 
Q 18.3125 60.0625 18.3125 54.390625 
z
" id="DejaVuSans-38"/>
      </defs>
      <g style="fill:#555555;" transform="translate(29.17625 140.365742)scale(0.1 -0.1)">
       <use xlink:href="#DejaVuSans-38"/>
      </g>
     </g>
    </g>
    <g id="ytick_6">
     <g id="line2d_21">
      <path clip-path="url(#p8f0b6aae7c)" d="M 42.53875 110.312716 
L 879.53875 110.312716 
" style="fill:none;stroke:#ffffff;stroke-linecap:square;stroke-width:0.8;"/>
     </g>
     <g id="line2d_22">
      <g>
       <use style="fill:#555555;stroke:#555555;stroke-width:0.8;" x="42.53875" xlink:href="#me72a7c6a36" y="110.312716"/>
      </g>
     </g>
     <g id="text_12">
      <!-- 10 -->
      <g style="fill:#555555;" transform="translate(22.81375 114.111935)scale(0.1 -0.1)">
       <use xlink:href="#DejaVuSans-31"/>
       <use x="63.623047" xlink:href="#DejaVuSans-30"/>
      </g>
     </g>
    </g>
    <g id="ytick_7">
     <g id="line2d_23">
      <path clip-path="url(#p8f0b6aae7c)" d="M 42.53875 84.05891 
L 879.53875 84.05891 
" style="fill:none;stroke:#ffffff;stroke-linecap:square;stroke-width:0.8;"/>
     </g>
     <g id="line2d_24">
      <g>
       <use style="fill:#555555;stroke:#555555;stroke-width:0.8;" x="42.53875" xlink:href="#me72a7c6a36" y="84.05891"/>
      </g>
     </g>
     <g id="text_13">
      <!-- 12 -->
      <g style="fill:#555555;" transform="translate(22.81375 87.858128)scale(0.1 -0.1)">
       <use xlink:href="#DejaVuSans-31"/>
       <use x="63.623047" xlink:href="#DejaVuSans-32"/>
      </g>
     </g>
    </g>
    <g id="ytick_8">
     <g id="line2d_25">
      <path clip-path="url(#p8f0b6aae7c)" d="M 42.53875 57.805103 
L 879.53875 57.805103 
" style="fill:none;stroke:#ffffff;stroke-linecap:square;stroke-width:0.8;"/>
     </g>
     <g id="line2d_26">
      <g>
       <use style="fill:#555555;stroke:#555555;stroke-width:0.8;" x="42.53875" xlink:href="#me72a7c6a36" y="57.805103"/>
      </g>
     </g>
     <g id="text_14">
      <!-- 14 -->
      <g style="fill:#555555;" transform="translate(22.81375 61.604322)scale(0.1 -0.1)">
       <use xlink:href="#DejaVuSans-31"/>
       <use x="63.623047" xlink:href="#DejaVuSans-34"/>
      </g>
     </g>
    </g>
    <g id="ytick_9">
     <g id="line2d_27">
      <path clip-path="url(#p8f0b6aae7c)" d="M 42.53875 31.551296 
L 879.53875 31.551296 
" style="fill:none;stroke:#ffffff;stroke-linecap:square;stroke-width:0.8;"/>
     </g>
     <g id="line2d_28">
      <g>
       <use style="fill:#555555;stroke:#555555;stroke-width:0.8;" x="42.53875" xlink:href="#me72a7c6a36" y="31.551296"/>
      </g>
     </g>
     <g id="text_15">
      <!-- 16 -->
      <g style="fill:#555555;" transform="translate(22.81375 35.350515)scale(0.1 -0.1)">
       <use xlink:href="#DejaVuSans-31"/>
       <use x="63.623047" xlink:href="#DejaVuSans-36"/>
      </g>
     </g>
    </g>
    <g id="text_16">
     <!-- Mean read PHRED quality -->
     <defs>
      <path d="M 9.8125 72.90625 
L 24.515625 72.90625 
L 43.109375 23.296875 
L 61.8125 72.90625 
L 76.515625 72.90625 
L 76.515625 0 
L 66.890625 0 
L 66.890625 64.015625 
L 48.09375 14.015625 
L 38.1875 14.015625 
L 19.390625 64.015625 
L 19.390625 0 
L 9.8125 0 
z
" id="DejaVuSans-4d"/>
      <path d="M 34.28125 27.484375 
Q 23.390625 27.484375 19.1875 25 
Q 14.984375 22.515625 14.984375 16.5 
Q 14.984375 11.71875 18.140625 8.90625 
Q 21.296875 6.109375 26.703125 6.109375 
Q 34.1875 6.109375 38.703125 11.40625 
Q 43.21875 16.703125 43.21875 25.484375 
L 43.21875 27.484375 
z
M 52.203125 31.203125 
L 52.203125 0 
L 43.21875 0 
L 43.21875 8.296875 
Q 40.140625 3.328125 35.546875 0.953125 
Q 30.953125 -1.421875 24.3125 -1.421875 
Q 15.921875 -1.421875 10.953125 3.296875 
Q 6 8.015625 6 15.921875 
Q 6 25.140625 12.171875 29.828125 
Q 18.359375 34.515625 30.609375 34.515625 
L 43.21875 34.515625 
L 43.21875 35.40625 
Q 43.21875 41.609375 39.140625 45 
Q 35.0625 48.390625 27.6875 48.390625 
Q 23 48.390625 18.546875 47.265625 
Q 14.109375 46.140625 10.015625 43.890625 
L 10.015625 52.203125 
Q 14.9375 54.109375 19.578125 55.046875 
Q 24.21875 56 28.609375 56 
Q 40.484375 56 46.34375 49.84375 
Q 52.203125 43.703125 52.203125 31.203125 
z
" id="DejaVuSans-61"/>
      <path d="M 45.40625 46.390625 
L 45.40625 75.984375 
L 54.390625 75.984375 
L 54.390625 0 
L 45.40625 0 
L 45.40625 8.203125 
Q 42.578125 3.328125 38.25 0.953125 
Q 33.9375 -1.421875 27.875 -1.421875 
Q 17.96875 -1.421875 11.734375 6.484375 
Q 5.515625 14.40625 5.515625 27.296875 
Q 5.515625 40.1875 11.734375 48.09375 
Q 17.96875 56 27.875 56 
Q 33.9375 56 38.25 53.625 
Q 42.578125 51.265625 45.40625 46.390625 
z
M 14.796875 27.296875 
Q 14.796875 17.390625 18.875 11.75 
Q 22.953125 6.109375 30.078125 6.109375 
Q 37.203125 6.109375 41.296875 11.75 
Q 45.40625 17.390625 45.40625 27.296875 
Q 45.40625 37.203125 41.296875 42.84375 
Q 37.203125 48.484375 30.078125 48.484375 
Q 22.953125 48.484375 18.875 42.84375 
Q 14.796875 37.203125 14.796875 27.296875 
z
" id="DejaVuSans-64"/>
      <path d="M 19.671875 64.796875 
L 19.671875 37.40625 
L 32.078125 37.40625 
Q 38.96875 37.40625 42.71875 40.96875 
Q 46.484375 44.53125 46.484375 51.125 
Q 46.484375 57.671875 42.71875 61.234375 
Q 38.96875 64.796875 32.078125 64.796875 
z
M 9.8125 72.90625 
L 32.078125 72.90625 
Q 44.34375 72.90625 50.609375 67.359375 
Q 56.890625 61.8125 56.890625 51.125 
Q 56.890625 40.328125 50.609375 34.8125 
Q 44.34375 29.296875 32.078125 29.296875 
L 19.671875 29.296875 
L 19.671875 0 
L 9.8125 0 
z
" id="DejaVuSans-50"/>
      <path d="M 9.8125 72.90625 
L 19.671875 72.90625 
L 19.671875 43.015625 
L 55.515625 43.015625 
L 55.515625 72.90625 
L 65.375 72.90625 
L 65.375 0 
L 55.515625 0 
L 55.515625 34.71875 
L 19.671875 34.71875 
L 19.671875 0 
L 9.8125 0 
z
" id="DejaVuSans-48"/>
      <path d="M 44.390625 34.1875 
Q 47.5625 33.109375 50.5625 29.59375 
Q 53.5625 26.078125 56.59375 19.921875 
L 66.609375 0 
L 56 0 
L 46.6875 18.703125 
Q 43.0625 26.03125 39.671875 28.421875 
Q 36.28125 30.8125 30.421875 30.8125 
L 19.671875 30.8125 
L 19.671875 0 
L 9.8125 0 
L 9.8125 72.90625 
L 32.078125 72.90625 
Q 44.578125 72.90625 50.734375 67.671875 
Q 56.890625 62.453125 56.890625 51.90625 
Q 56.890625 45.015625 53.6875 40.46875 
Q 50.484375 35.9375 44.390625 34.1875 
z
M 19.671875 64.796875 
L 19.671875 38.921875 
L 32.078125 38.921875 
Q 39.203125 38.921875 42.84375 42.21875 
Q 46.484375 45.515625 46.484375 51.90625 
Q 46.484375 58.296875 42.84375 61.546875 
Q 39.203125 64.796875 32.078125 64.796875 
z
" id="DejaVuSans-52"/>
      <path d="M 19.671875 64.796875 
L 19.671875 8.109375 
L 31.59375 8.109375 
Q 46.6875 8.109375 53.6875 14.9375 
Q 60.6875 21.78125 60.6875 36.53125 
Q 60.6875 51.171875 53.6875 57.984375 
Q 46.6875 64.796875 31.59375 64.796875 
z
M 9.8125 72.90625 
L 30.078125 72.90625 
Q 51.265625 72.90625 61.171875 64.09375 
Q 71.09375 55.28125 71.09375 36.53125 
Q 71.09375 17.671875 61.125 8.828125 
Q 51.171875 0 30.078125 0 
L 9.8125 0 
z
" id="DejaVuSans-44"/>
      <path d="M 14.796875 27.296875 
Q 14.796875 17.390625 18.875 11.75 
Q 22.953125 6.109375 30.078125 6.109375 
Q 37.203125 6.109375 41.296875 11.75 
Q 45.40625 17.390625 45.40625 27.296875 
Q 45.40625 37.203125 41.296875 42.84375 
Q 37.203125 48.484375 30.078125 48.484375 
Q 22.953125 48.484375 18.875 42.84375 
Q 14.796875 37.203125 14.796875 27.296875 
z
M 45.40625 8.203125 
Q 42.578125 3.328125 38.25 0.953125 
Q 33.9375 -1.421875 27.875 -1.421875 
Q 17.96875 -1.421875 11.734375 6.484375 
Q 5.515625 14.40625 5.515625 27.296875 
Q 5.515625 40.1875 11.734375 48.09375 
Q 17.96875 56 27.875 56 
Q 33.9375 56 38.25 53.625 
Q 42.578125 51.265625 45.40625 46.390625 
L 45.40625 54.6875 
L 54.390625 54.6875 
L 54.390625 -20.796875 
L 45.40625 -20.796875 
z
" id="DejaVuSans-71"/>
      <path d="M 8.5 21.578125 
L 8.5 54.6875 
L 17.484375 54.6875 
L 17.484375 21.921875 
Q 17.484375 14.15625 20.5 10.265625 
Q 23.53125 6.390625 29.59375 6.390625 
Q 36.859375 6.390625 41.078125 11.03125 
Q 45.3125 15.671875 45.3125 23.6875 
L 45.3125 54.6875 
L 54.296875 54.6875 
L 54.296875 0 
L 45.3125 0 
L 45.3125 8.40625 
Q 42.046875 3.421875 37.71875 1 
Q 33.40625 -1.421875 27.6875 -1.421875 
Q 18.265625 -1.421875 13.375 4.4375 
Q 8.5 10.296875 8.5 21.578125 
z
M 31.109375 56 
z
" id="DejaVuSans-75"/>
      <path d="M 9.421875 75.984375 
L 18.40625 75.984375 
L 18.40625 0 
L 9.421875 0 
z
" id="DejaVuSans-6c"/>
      <path d="M 32.171875 -5.078125 
Q 28.375 -14.84375 24.75 -17.8125 
Q 21.140625 -20.796875 15.09375 -20.796875 
L 7.90625 -20.796875 
L 7.90625 -13.28125 
L 13.1875 -13.28125 
Q 16.890625 -13.28125 18.9375 -11.515625 
Q 21 -9.765625 23.484375 -3.21875 
L 25.09375 0.875 
L 2.984375 54.6875 
L 12.5 54.6875 
L 29.59375 11.921875 
L 46.6875 54.6875 
L 56.203125 54.6875 
z
" id="DejaVuSans-79"/>
     </defs>
     <g style="fill:#555555;" transform="translate(16.318125 209.808938)rotate(-90)scale(0.12 -0.12)">
      <use xlink:href="#DejaVuSans-4d"/>
      <use x="86.279297" xlink:href="#DejaVuSans-65"/>
      <use x="147.802734" xlink:href="#DejaVuSans-61"/>
      <use x="209.082031" xlink:href="#DejaVuSans-6e"/>
      <use x="272.460938" xlink:href="#DejaVuSans-20"/>
      <use x="304.248047" xlink:href="#DejaVuSans-72"/>
      <use x="345.330078" xlink:href="#DejaVuSans-65"/>
      <use x="406.853516" xlink:href="#DejaVuSans-61"/>
      <use x="468.132812" xlink:href="#DejaVuSans-64"/>
      <use x="531.609375" xlink:href="#DejaVuSans-20"/>
      <use x="563.396484" xlink:href="#DejaVuSans-50"/>
      <use x="623.699219" xlink:href="#DejaVuSans-48"/>
      <use x="698.894531" xlink:href="#DejaVuSans-52"/>
      <use x="768.376953" xlink:href="#DejaVuSans-45"/>
      <use x="831.560547" xlink:href="#DejaVuSans-44"/>
      <use x="908.5625" xlink:href="#DejaVuSans-20"/>
      <use x="940.349609" xlink:href="#DejaVuSans-71"/>
      <use x="1003.826172" xlink:href="#DejaVuSans-75"/>
      <use x="1067.205078" xlink:href="#DejaVuSans-61"/>
      <use x="1128.484375" xlink:href="#DejaVuSans-6c"/>
      <use x="1156.267578" xlink:href="#DejaVuSans-69"/>
      <use x="1184.050781" xlink:href="#DejaVuSans-74"/>
      <use x="1223.259766" xlink:href="#DejaVuSans-79"/>
     </g>
    </g>
   </g>
   <g id="PolyCollection_1">
    <defs>
     <path d="M 42.53875 -239.742786 
L 42.53875 -76.037174 
L 51.349276 -89.374108 
L 60.159803 -91.198747 
L 68.970329 -113.816402 
L 77.780855 -80.500321 
L 86.591382 -97.329011 
L 95.401908 -79.476423 
L 104.212434 -101.070179 
L 113.022961 -95.202453 
L 121.833487 -104.246889 
L 130.644013 -99.508077 
L 139.454539 -103.406767 
L 148.265066 -102.395996 
L 157.075592 -83.952697 
L 165.886118 -104.194382 
L 174.696645 -99.718108 
L 183.507171 -100.085661 
L 192.317697 -101.831539 
L 201.128224 -100.912656 
L 209.93875 -88.875285 
L 218.749276 -84.845326 
L 227.559803 -91.605681 
L 236.370329 -92.997133 
L 245.180855 -97.000839 
L 253.991382 -94.126047 
L 262.801908 -99.704981 
L 271.612434 -106.911651 
L 280.422961 -108.854432 
L 289.233487 -97.066473 
L 298.044013 -108.486879 
L 306.854539 -112.398696 
L 315.665066 -109.051336 
L 324.475592 -84.937214 
L 333.286118 -105.651468 
L 342.096645 -107.344838 
L 350.907171 -98.01161 
L 359.717697 -99.796869 
L 368.528224 -99.849377 
L 377.33875 -112.293681 
L 386.149276 -96.344493 
L 394.959803 -114.223336 
L 403.770329 -120.799914 
L 412.580855 -112.188666 
L 421.391382 -114.722158 
L 430.201908 -116.271133 
L 439.012434 -129.25364 
L 447.822961 -124.449194 
L 456.633487 -116.415529 
L 465.444013 -119.946666 
L 474.254539 -122.887092 
L 483.065066 -120.970564 
L 491.875592 -119.093417 
L 500.686118 -108.52626 
L 509.496645 -123.674706 
L 518.307171 -116.271133 
L 527.117697 -124.816747 
L 535.928224 -112.621854 
L 544.73875 -109.930838 
L 553.549276 -110.587184 
L 562.359803 -116.888097 
L 571.170329 -123.884737 
L 579.980855 -112.385569 
L 588.791382 -117.058747 
L 597.601908 -109.786442 
L 606.412434 -122.545793 
L 615.222961 -114.197082 
L 624.033487 -109.760189 
L 632.844013 -107.502361 
L 641.654539 -90.398006 
L 650.465066 -119.001529 
L 659.275592 -126.483864 
L 668.086118 -127.442128 
L 676.896645 -119.854777 
L 685.707171 -118.830879 
L 694.517697 -125.656869 
L 703.328224 -123.609072 
L 712.13875 -114.210209 
L 720.949276 -100.965163 
L 729.759803 -100.702625 
L 738.570329 -94.362331 
L 747.380855 -110.915356 
L 756.191382 -116.11361 
L 765.001908 -116.49429 
L 773.812434 -128.203488 
L 782.622961 -130.933884 
L 791.433487 -130.776361 
L 800.244013 -111.11226 
L 809.054539 -123.687833 
L 817.865066 -130.618838 
L 826.675592 -137.037894 
L 835.486118 -125.683122 
L 844.296645 -132.916046 
L 853.107171 -134.25499 
L 861.917697 -131.524594 
L 870.728224 -130.106889 
L 879.53875 -114.709031 
L 879.53875 -238.718887 
L 879.53875 -238.718887 
L 870.728224 -135.029478 
L 861.917697 -139.715782 
L 853.107171 -137.300432 
L 844.296645 -134.071214 
L 835.486118 -137.917396 
L 826.675592 -140.844696 
L 817.865066 -139.413863 
L 809.054539 -141.25163 
L 800.244013 -146.489264 
L 791.433487 -141.97361 
L 782.622961 -139.190706 
L 773.812434 -151.608757 
L 765.001908 -140.52965 
L 756.191382 -143.653853 
L 747.380855 -155.756858 
L 738.570329 -151.241203 
L 729.759803 -142.721843 
L 720.949276 -148.786472 
L 712.13875 -154.641071 
L 703.328224 -153.892838 
L 694.517697 -151.149315 
L 685.707171 -140.306493 
L 676.896645 -185.541802 
L 668.086118 -148.615823 
L 659.275592 -164.919437 
L 650.465066 -153.420269 
L 641.654539 -155.901254 
L 632.844013 -164.499376 
L 624.033487 -190.08371 
L 615.222961 -153.577792 
L 606.412434 -173.228766 
L 597.601908 -154.837975 
L 588.791382 -157.095802 
L 579.980855 -156.124411 
L 571.170329 -148.733965 
L 562.359803 -150.768635 
L 553.549276 -170.025802 
L 544.73875 -159.839325 
L 535.928224 -192.131507 
L 527.117697 -171.0497 
L 518.307171 -163.501731 
L 509.496645 -158.815427 
L 500.686118 -187.327061 
L 491.875592 -169.251315 
L 483.065066 -182.732644 
L 474.254539 -163.042289 
L 465.444013 -182.575122 
L 456.633487 -194.166177 
L 447.822961 -201.976685 
L 439.012434 -190.175599 
L 430.201908 -194.244939 
L 421.391382 -221.32574 
L 412.580855 -196.043324 
L 403.770329 -203.407517 
L 394.959803 -210.732329 
L 386.149276 -212.018766 
L 377.33875 -212.858888 
L 368.528224 -222.717192 
L 359.717697 -220.77441 
L 350.907171 -219.606116 
L 342.096645 -219.711131 
L 333.286118 -226.681517 
L 324.475592 -225.723253 
L 315.665066 -223.294776 
L 306.854539 -215.510522 
L 298.044013 -220.118065 
L 289.233487 -215.510522 
L 280.422961 -217.623954 
L 271.612434 -219.094167 
L 262.801908 -223.53106 
L 253.991382 -228.072969 
L 245.180855 -216.521294 
L 236.370329 -220.616888 
L 227.559803 -225.513223 
L 218.749276 -225.263811 
L 209.93875 -221.87707 
L 201.128224 -230.934634 
L 192.317697 -232.234197 
L 183.507171 -235.870349 
L 174.696645 -215.339872 
L 165.886118 -217.230146 
L 157.075592 -220.498745 
L 148.265066 -220.892553 
L 139.454539 -222.021466 
L 130.644013 -221.614532 
L 121.833487 -225.854522 
L 113.022961 -231.892898 
L 104.212434 -224.305547 
L 95.401908 -230.488319 
L 86.591382 -232.168563 
L 77.780855 -230.553953 
L 68.970329 -233.70441 
L 60.159803 -236.054126 
L 51.349276 -237.038644 
L 42.53875 -239.742786 
z
" id="md35193fc71" style="stroke:#ff4500;stroke-opacity:0.25;stroke-width:0.5;"/>
    </defs>
    <g clip-path="url(#p8f0b6aae7c)">
     <use style="fill:#ff4500;fill-opacity:0.25;stroke:#ff4500;stroke-opacity:0.25;stroke-width:0.5;" x="0" xlink:href="#md35193fc71" y="281.073625"/>
    </g>
   </g>
   <g id="PolyCollection_2">
    <defs>
     <path d="M 42.53875 -216.025753 
L 42.53875 -188.21969 
L 51.349276 -184.544157 
L 60.159803 -182.588249 
L 68.970329 -179.70033 
L 77.780855 -181.301812 
L 86.591382 -177.193091 
L 95.401908 -172.651183 
L 104.212434 -176.510492 
L 113.022961 -173.182822 
L 121.833487 -171.062827 
L 130.644013 -169.172553 
L 139.454539 -169.520416 
L 148.265066 -169.435091 
L 157.075592 -166.232127 
L 165.886118 -161.371891 
L 174.696645 -159.511152 
L 183.507171 -172.818551 
L 192.317697 -165.227919 
L 201.128224 -163.337645 
L 209.93875 -155.717477 
L 218.749276 -156.442739 
L 227.559803 -157.194254 
L 236.370329 -157.227071 
L 245.180855 -154.115995 
L 253.991382 -154.821566 
L 262.801908 -154.890482 
L 271.612434 -152.383244 
L 280.422961 -143.263328 
L 289.233487 -146.581153 
L 298.044013 -133.611772 
L 306.854539 -136.378267 
L 315.665066 -132.541929 
L 324.475592 -163.9743 
L 333.286118 -160.069046 
L 342.096645 -160.636784 
L 350.907171 -157.45351 
L 359.717697 -155.934071 
L 368.528224 -153.341508 
L 377.33875 -147.263752 
L 386.149276 -133.086696 
L 394.959803 -147.775701 
L 403.770329 -135.918825 
L 412.580855 -135.515173 
L 421.391382 -133.900564 
L 430.201908 -132.325336 
L 439.012434 -134.80632 
L 447.822961 -131.032336 
L 456.633487 -130.73698 
L 465.444013 -132.633818 
L 474.254539 -131.163605 
L 483.065066 -131.327691 
L 491.875592 -134.865391 
L 500.686118 -135.935234 
L 509.496645 -133.155612 
L 518.307171 -128.275686 
L 527.117697 -130.3563 
L 535.928224 -127.182871 
L 544.73875 -127.251787 
L 553.549276 -125.886589 
L 562.359803 -129.496488 
L 571.170329 -130.264412 
L 579.980855 -129.486643 
L 588.791382 -128.859833 
L 597.601908 -126.903924 
L 606.412434 -130.300511 
L 615.222961 -126.825163 
L 624.033487 -124.609998 
L 632.844013 -128.991102 
L 641.654539 -123.513902 
L 650.465066 -127.967204 
L 659.275592 -129.053455 
L 668.086118 -131.222676 
L 676.896645 -128.87296 
L 685.707171 -126.040831 
L 694.517697 -131.311282 
L 703.328224 -127.753891 
L 712.13875 -129.08299 
L 720.949276 -122.690188 
L 729.759803 -121.200285 
L 738.570329 -119.375645 
L 747.380855 -132.423787 
L 756.191382 -133.431277 
L 765.001908 -132.814313 
L 773.812434 -133.296726 
L 782.622961 -134.396105 
L 791.433487 -133.562546 
L 800.244013 -133.175303 
L 809.054539 -133.368924 
L 817.865066 -133.923536 
L 826.675592 -138.396528 
L 835.486118 -128.741691 
L 844.296645 -133.516602 
L 853.107171 -134.99666 
L 861.917697 -134.402668 
L 870.728224 -131.481932 
L 879.53875 -194.599365 
L 879.53875 -216.921664 
L 879.53875 -216.921664 
L 870.728224 -134.261554 
L 861.917697 -137.937087 
L 853.107171 -136.585016 
L 844.296645 -133.972762 
L 835.486118 -134.858828 
L 826.675592 -140.299929 
L 817.865066 -136.417648 
L 809.054539 -137.162599 
L 800.244013 -136.854117 
L 791.433487 -138.38012 
L 782.622961 -137.323404 
L 773.812434 -136.775356 
L 765.001908 -136.607988 
L 756.191382 -137.060866 
L 747.380855 -137.090401 
L 738.570329 -130.960138 
L 729.759803 -132.358153 
L 720.949276 -131.62961 
L 712.13875 -131.708371 
L 703.328224 -148.438609 
L 694.517697 -137.047739 
L 685.707171 -130.996237 
L 676.896645 -137.851762 
L 668.086118 -139.925813 
L 659.275592 -133.743041 
L 650.465066 -132.453323 
L 641.654539 -132.052952 
L 632.844013 -133.309853 
L 624.033487 -133.598645 
L 615.222961 -138.340739 
L 606.412434 -145.192983 
L 597.601908 -144.10345 
L 588.791382 -143.273173 
L 579.980855 -142.813731 
L 571.170329 -137.366066 
L 562.359803 -144.520229 
L 553.549276 -140.723272 
L 544.73875 -141.927665 
L 535.928224 -145.550691 
L 527.117697 -142.524939 
L 518.307171 -143.246919 
L 509.496645 -147.496754 
L 500.686118 -148.182635 
L 491.875592 -146.075767 
L 483.065066 -144.65478 
L 474.254539 -147.047158 
L 465.444013 -154.75265 
L 456.633487 -148.36313 
L 447.822961 -154.161939 
L 439.012434 -164.118696 
L 430.201908 -169.986421 
L 421.391382 -168.450574 
L 412.580855 -168.952678 
L 403.770329 -172.818551 
L 394.959803 -180.222124 
L 386.149276 -179.227761 
L 377.33875 -183.215058 
L 368.528224 -187.438639 
L 359.717697 -193.824878 
L 350.907171 -194.123515 
L 342.096645 -196.696388 
L 333.286118 -198.39304 
L 324.475592 -198.511182 
L 315.665066 -169.572924 
L 306.854539 -172.01781 
L 298.044013 -176.448139 
L 289.233487 -183.185523 
L 280.422961 -180.691411 
L 271.612434 -186.605081 
L 262.801908 -191.806616 
L 253.991382 -194.763451 
L 245.180855 -192.945375 
L 236.370329 -195.915337 
L 227.559803 -199.626969 
L 218.749276 -200.59836 
L 209.93875 -200.099538 
L 201.128224 -204.250921 
L 192.317697 -205.317482 
L 183.507171 -208.198837 
L 174.696645 -189.479873 
L 165.886118 -191.947731 
L 157.075592 -195.872675 
L 148.265066 -198.872172 
L 139.454539 -198.780284 
L 130.644013 -200.834644 
L 121.833487 -203.407517 
L 113.022961 -205.189494 
L 104.212434 -204.483923 
L 95.401908 -205.534076 
L 86.591382 -207.411223 
L 77.780855 -209.974251 
L 68.970329 -208.92738 
L 60.159803 -210.496045 
L 51.349276 -212.622603 
L 42.53875 -216.025753 
z
" id="mde2b47f661" style="stroke:#ff4500;stroke-opacity:0.25;stroke-width:0.5;"/>
    </defs>
    <g clip-path="url(#p8f0b6aae7c)">
     <use style="fill:#ff4500;fill-opacity:0.25;stroke:#ff4500;stroke-opacity:0.25;stroke-width:0.5;" x="0" xlink:href="#mde2b47f661" y="281.073625"/>
    </g>
   </g>
   <g id="LineCollection_1">
    <path clip-path="url(#p8f0b6aae7c)" d="M 42.53875 213.221732 
L 42.53875 33.145559 
" style="fill:none;stroke:#808080;stroke-width:0.5;"/>
   </g>
   <g id="LineCollection_2">
    <path clip-path="url(#p8f0b6aae7c)" d="M 882.784057 213.221732 
L 882.784057 33.145559 
" style="fill:none;stroke:#808080;stroke-width:0.5;"/>
   </g>
   <g id="line2d_29">
    <path clip-path="url(#p8f0b6aae7c)" d="M 42.53875 74.830697 
L 51.349276 78.427468 
L 60.159803 80.685296 
L 68.970329 82.509935 
L 77.780855 81.591052 
L 86.591382 84.590549 
L 95.401908 87.458778 
L 104.212434 87.563793 
L 113.022961 88.344844 
L 121.833487 89.703478 
L 130.644013 92.945823 
L 139.454539 94.757336 
L 148.265066 94.507925 
L 157.075592 96.253803 
L 165.886118 102.594097 
L 174.696645 104.668148 
L 183.507171 86.68429 
L 192.317697 90.898026 
L 201.128224 92.591397 
L 209.93875 97.172686 
L 218.749276 96.398199 
L 227.559803 98.426305 
L 236.370329 102.049331 
L 245.180855 104.248087 
L 253.991382 102.21998 
L 262.801908 106.374645 
L 271.612434 109.498848 
L 280.422961 117.302792 
L 289.233487 113.738838 
L 298.044013 124.798254 
L 306.854539 125.388965 
L 315.665066 124.187853 
L 324.475592 97.02829 
L 333.286118 97.776524 
L 342.096645 101.688341 
L 350.907171 102.587534 
L 359.717697 103.933041 
L 368.528224 107.844859 
L 377.33875 112.472092 
L 386.149276 119.724706 
L 394.959803 119.133995 
L 403.770329 126.275031 
L 412.580855 125.723701 
L 421.391382 128.664127 
L 430.201908 131.237 
L 439.012434 129.661772 
L 447.822961 137.85296 
L 456.633487 147.573432 
L 465.444013 137.367264 
L 474.254539 143.504092 
L 483.065066 143.510655 
L 491.875592 139.139396 
L 500.686118 138.745589 
L 509.496645 141.134685 
L 518.307171 142.499883 
L 527.117697 147.238696 
L 535.928224 145.341858 
L 544.73875 149.352127 
L 553.549276 150.605746 
L 562.359803 146.490462 
L 571.170329 146.897396 
L 579.980855 145.696284 
L 588.791382 145.702848 
L 597.601908 145.302477 
L 606.412434 148.078817 
L 615.222961 152.371315 
L 624.033487 153.506792 
L 632.844013 149.16835 
L 641.654539 152.47633 
L 650.465066 150.868284 
L 659.275592 149.942838 
L 668.086118 146.92365 
L 676.896645 148.223213 
L 685.707171 151.94469 
L 694.517697 148.334792 
L 703.328224 144.665822 
L 712.13875 150.546675 
L 720.949276 151.885619 
L 729.759803 155.246107 
L 738.570329 156.342203 
L 747.380855 145.571579 
L 756.191382 145.591269 
L 765.001908 145.873498 
L 773.812434 145.453437 
L 782.622961 145.414056 
L 791.433487 144.777401 
L 800.244013 145.453437 
L 809.054539 145.866934 
L 817.865066 146.37232 
L 826.675592 141.318462 
L 835.486118 149.273366 
L 844.296645 147.245259 
L 853.107171 145.519071 
L 861.917697 144.52799 
L 870.728224 148.689218 
L 879.53875 72.152808 
" style="fill:none;stroke:#ff4500;stroke-linecap:square;stroke-width:1.5;"/>
   </g>
   <g id="patch_3">
    <path d="M 42.53875 241.58175 
L 42.53875 24.14175 
" style="fill:none;stroke:#ffffff;stroke-linecap:square;stroke-linejoin:miter;"/>
   </g>
   <g id="patch_4">
    <path d="M 879.53875 241.58175 
L 879.53875 24.14175 
" style="fill:none;stroke:#ffffff;stroke-linecap:square;stroke-linejoin:miter;"/>
   </g>
   <g id="patch_5">
    <path d="M 42.53875 241.58175 
L 879.53875 241.58175 
" style="fill:none;stroke:#ffffff;stroke-linecap:square;stroke-linejoin:miter;"/>
   </g>
   <g id="patch_6">
    <path d="M 42.53875 24.14175 
L 879.53875 24.14175 
" style="fill:none;stroke:#ffffff;stroke-linecap:square;stroke-linejoin:miter;"/>
   </g>
   <g id="text_17">
    <!-- Mean read quality over time (Median, Q1-Q3, Min-Max) -->
    <defs>
     <path d="M 30.609375 48.390625 
Q 23.390625 48.390625 19.1875 42.75 
Q 14.984375 37.109375 14.984375 27.296875 
Q 14.984375 17.484375 19.15625 11.84375 
Q 23.34375 6.203125 30.609375 6.203125 
Q 37.796875 6.203125 41.984375 11.859375 
Q 46.1875 17.53125 46.1875 27.296875 
Q 46.1875 37.015625 41.984375 42.703125 
Q 37.796875 48.390625 30.609375 48.390625 
z
M 30.609375 56 
Q 42.328125 56 49.015625 48.375 
Q 55.71875 40.765625 55.71875 27.296875 
Q 55.71875 13.875 49.015625 6.21875 
Q 42.328125 -1.421875 30.609375 -1.421875 
Q 18.84375 -1.421875 12.171875 6.21875 
Q 5.515625 13.875 5.515625 27.296875 
Q 5.515625 40.765625 12.171875 48.375 
Q 18.84375 56 30.609375 56 
z
" id="DejaVuSans-6f"/>
     <path d="M 2.984375 54.6875 
L 12.5 54.6875 
L 29.59375 8.796875 
L 46.6875 54.6875 
L 56.203125 54.6875 
L 35.6875 0 
L 23.484375 0 
z
" id="DejaVuSans-76"/>
     <path d="M 11.71875 12.40625 
L 22.015625 12.40625 
L 22.015625 4 
L 14.015625 -11.625 
L 7.71875 -11.625 
L 11.71875 4 
z
" id="DejaVuSans-2c"/>
     <path d="M 39.40625 66.21875 
Q 28.65625 66.21875 22.328125 58.203125 
Q 16.015625 50.203125 16.015625 36.375 
Q 16.015625 22.609375 22.328125 14.59375 
Q 28.65625 6.59375 39.40625 6.59375 
Q 50.140625 6.59375 56.421875 14.59375 
Q 62.703125 22.609375 62.703125 36.375 
Q 62.703125 50.203125 56.421875 58.203125 
Q 50.140625 66.21875 39.40625 66.21875 
z
M 53.21875 1.3125 
L 66.21875 -12.890625 
L 54.296875 -12.890625 
L 43.5 -1.21875 
Q 41.890625 -1.3125 41.03125 -1.359375 
Q 40.1875 -1.421875 39.40625 -1.421875 
Q 24.03125 -1.421875 14.8125 8.859375 
Q 5.609375 19.140625 5.609375 36.375 
Q 5.609375 53.65625 14.8125 63.9375 
Q 24.03125 74.21875 39.40625 74.21875 
Q 54.734375 74.21875 63.90625 63.9375 
Q 73.09375 53.65625 73.09375 36.375 
Q 73.09375 23.6875 67.984375 14.640625 
Q 62.890625 5.609375 53.21875 1.3125 
z
" id="DejaVuSans-51"/>
     <path d="M 4.890625 31.390625 
L 31.203125 31.390625 
L 31.203125 23.390625 
L 4.890625 23.390625 
z
" id="DejaVuSans-2d"/>
    </defs>
    <g transform="translate(262.33675 18.14175)scale(0.144 -0.144)">
     <use xlink:href="#DejaVuSans-4d"/>
     <use x="86.279297" xlink:href="#DejaVuSans-65"/>
     <use x="147.802734" xlink:href="#DejaVuSans-61"/>
     <use x="209.082031" xlink:href="#DejaVuSans-6e"/>
     <use x="272.460938" xlink:href="#DejaVuSans-20"/>
     <use x="304.248047" xlink:href="#DejaVuSans-72"/>
     <use x="345.330078" xlink:href="#DejaVuSans-65"/>
     <use x="406.853516" xlink:href="#DejaVuSans-61"/>
     <use x="468.132812" xlink:href="#DejaVuSans-64"/>
     <use x="531.609375" xlink:href="#DejaVuSans-20"/>
     <use x="563.396484" xlink:href="#DejaVuSans-71"/>
     <use x="626.873047" xlink:href="#DejaVuSans-75"/>
     <use x="690.251953" xlink:href="#DejaVuSans-61"/>
     <use x="751.53125" xlink:href="#DejaVuSans-6c"/>
     <use x="779.314453" xlink:href="#DejaVuSans-69"/>
     <use x="807.097656" xlink:href="#DejaVuSans-74"/>
     <use x="846.306641" xlink:href="#DejaVuSans-79"/>
     <use x="905.486328" xlink:href="#DejaVuSans-20"/>
     <use x="937.273438" xlink:href="#DejaVuSans-6f"/>
     <use x="998.455078" xlink:href="#DejaVuSans-76"/>
     <use x="1057.634766" xlink:href="#DejaVuSans-65"/>
     <use x="1119.158203" xlink:href="#DejaVuSans-72"/>
     <use x="1160.271484" xlink:href="#DejaVuSans-20"/>
     <use x="1192.058594" xlink:href="#DejaVuSans-74"/>
     <use x="1231.267578" xlink:href="#DejaVuSans-69"/>
     <use x="1259.050781" xlink:href="#DejaVuSans-6d"/>
     <use x="1356.462891" xlink:href="#DejaVuSans-65"/>
     <use x="1417.986328" xlink:href="#DejaVuSans-20"/>
     <use x="1449.773438" xlink:href="#DejaVuSans-28"/>
     <use x="1488.787109" xlink:href="#DejaVuSans-4d"/>
     <use x="1575.066406" xlink:href="#DejaVuSans-65"/>
     <use x="1636.589844" xlink:href="#DejaVuSans-64"/>
     <use x="1700.066406" xlink:href="#DejaVuSans-69"/>
     <use x="1727.849609" xlink:href="#DejaVuSans-61"/>
     <use x="1789.128906" xlink:href="#DejaVuSans-6e"/>
     <use x="1852.507812" xlink:href="#DejaVuSans-2c"/>
     <use x="1884.294922" xlink:href="#DejaVuSans-20"/>
     <use x="1916.082031" xlink:href="#DejaVuSans-51"/>
     <use x="1994.792969" xlink:href="#DejaVuSans-31"/>
     <use x="2058.416016" xlink:href="#DejaVuSans-2d"/>
     <use x="2094.546875" xlink:href="#DejaVuSans-51"/>
     <use x="2173.257812" xlink:href="#DejaVuSans-33"/>
     <use x="2236.880859" xlink:href="#DejaVuSans-2c"/>
     <use x="2268.667969" xlink:href="#DejaVuSans-20"/>
     <use x="2300.455078" xlink:href="#DejaVuSans-4d"/>
     <use x="2386.734375" xlink:href="#DejaVuSans-69"/>
     <use x="2414.517578" xlink:href="#DejaVuSans-6e"/>
     <use x="2477.896484" xlink:href="#DejaVuSans-2d"/>
     <use x="2513.980469" xlink:href="#DejaVuSans-4d"/>
     <use x="2600.259766" xlink:href="#DejaVuSans-61"/>
     <use x="2661.539062" xlink:href="#DejaVuSans-78"/>
     <use x="2720.71875" xlink:href="#DejaVuSans-29"/>
    </g>
   </g>
  </g>
 </g>
 <defs>
  <clipPath id="p8f0b6aae7c">
   <rect height="217.44" width="837" x="42.53875" y="24.14175"/>
  </clipPath>
 </defs>
</svg>
