<?xml version="1.0" encoding="utf-8" standalone="no"?>
<!DOCTYPE svg PUBLIC "-//W3C//DTD SVG 1.1//EN"
  "http://www.w3.org/Graphics/SVG/1.1/DTD/svg11.dtd">
<!-- Created with matplotlib (http://matplotlib.org/) -->
<svg height="281pt" version="1.1" viewBox="0 0 909 281" width="909pt" xmlns="http://www.w3.org/2000/svg" xmlns:xlink="http://www.w3.org/1999/xlink">
 <defs>
  <style type="text/css">
*{stroke-linecap:butt;stroke-linejoin:round;}
  </style>
 </defs>
 <g id="figure_1">
  <g id="patch_1">
   <path d="M 0 281.073625 
L 909.004375 281.073625 
L 909.004375 0 
L 0 0 
z
" style="fill:#ffffff;"/>
  </g>
  <g id="axes_1">
   <g id="patch_2">
    <path d="M 58.441875 241.58175 
L 895.441875 241.58175 
L 895.441875 24.14175 
L 58.441875 24.14175 
z
" style="fill:#e5e5e5;"/>
   </g>
   <g id="matplotlib.axis_1">
    <g id="xtick_1">
     <g id="line2d_1">
      <path clip-path="url(#p049608a135)" d="M 58.441875 241.58175 
L 58.441875 24.14175 
" style="fill:none;stroke:#ffffff;stroke-linecap:square;stroke-width:0.8;"/>
     </g>
     <g id="line2d_2">
      <defs>
       <path d="M 0 0 
L 0 3.5 
" id="m5d375d69eb" style="stroke:#555555;stroke-width:0.8;"/>
      </defs>
      <g>
       <use style="fill:#555555;stroke:#555555;stroke-width:0.8;" x="58.441875" xlink:href="#m5d375d69eb" y="241.58175"/>
      </g>
     </g>
     <g id="text_1">
      <!-- 4 -->
      <defs>
       <path d="M 37.796875 64.3125 
L 12.890625 25.390625 
L 37.796875 25.390625 
z
M 35.203125 72.90625 
L 47.609375 72.90625 
L 47.609375 25.390625 
L 58.015625 25.390625 
L 58.015625 17.1875 
L 47.609375 17.1875 
L 47.609375 0 
L 37.796875 0 
L 37.796875 17.1875 
L 4.890625 17.1875 
L 4.890625 26.703125 
z
" id="DejaVuSans-34"/>
      </defs>
      <g style="fill:#555555;" transform="translate(55.260625 256.180187)scale(0.1 -0.1)">
       <use xlink:href="#DejaVuSans-34"/>
      </g>
     </g>
    </g>
    <g id="xtick_2">
     <g id="line2d_3">
      <path clip-path="url(#p049608a135)" d="M 163.066875 241.58175 
L 163.066875 24.14175 
" style="fill:none;stroke:#ffffff;stroke-linecap:square;stroke-width:0.8;"/>
     </g>
     <g id="line2d_4">
      <g>
       <use style="fill:#555555;stroke:#555555;stroke-width:0.8;" x="163.066875" xlink:href="#m5d375d69eb" y="241.58175"/>
      </g>
     </g>
     <g id="text_2">
      <!-- 6 -->
      <defs>
       <path d="M 33.015625 40.375 
Q 26.375 40.375 22.484375 35.828125 
Q 18.609375 31.296875 18.609375 23.390625 
Q 18.609375 15.53125 22.484375 10.953125 
Q 26.375 6.390625 33.015625 6.390625 
Q 39.65625 6.390625 43.53125 10.953125 
Q 47.40625 15.53125 47.40625 23.390625 
Q 47.40625 31.296875 43.53125 35.828125 
Q 39.65625 40.375 33.015625 40.375 
z
M 52.59375 71.296875 
L 52.59375 62.3125 
Q 48.875 64.0625 45.09375 64.984375 
Q 41.3125 65.921875 37.59375 65.921875 
Q 27.828125 65.921875 22.671875 59.328125 
Q 17.53125 52.734375 16.796875 39.40625 
Q 19.671875 43.65625 24.015625 45.921875 
Q 28.375 48.1875 33.59375 48.1875 
Q 44.578125 48.1875 50.953125 41.515625 
Q 57.328125 34.859375 57.328125 23.390625 
Q 57.328125 12.15625 50.6875 5.359375 
Q 44.046875 -1.421875 33.015625 -1.421875 
Q 20.359375 -1.421875 13.671875 8.265625 
Q 6.984375 17.96875 6.984375 36.375 
Q 6.984375 53.65625 15.1875 63.9375 
Q 23.390625 74.21875 37.203125 74.21875 
Q 40.921875 74.21875 44.703125 73.484375 
Q 48.484375 72.75 52.59375 71.296875 
z
" id="DejaVuSans-36"/>
      </defs>
      <g style="fill:#555555;" transform="translate(159.885625 256.180187)scale(0.1 -0.1)">
       <use xlink:href="#DejaVuSans-36"/>
      </g>
     </g>
    </g>
    <g id="xtick_3">
     <g id="line2d_5">
      <path clip-path="url(#p049608a135)" d="M 267.691875 241.58175 
L 267.691875 24.14175 
" style="fill:none;stroke:#ffffff;stroke-linecap:square;stroke-width:0.8;"/>
     </g>
     <g id="line2d_6">
      <g>
       <use style="fill:#555555;stroke:#555555;stroke-width:0.8;" x="267.691875" xlink:href="#m5d375d69eb" y="241.58175"/>
      </g>
     </g>
     <g id="text_3">
      <!-- 8 -->
      <defs>
       <path d="M 31.78125 34.625 
Q 24.75 34.625 20.71875 30.859375 
Q 16.703125 27.09375 16.703125 20.515625 
Q 16.703125 13.921875 20.71875 10.15625 
Q 24.75 6.390625 31.78125 6.390625 
Q 38.8125 6.390625 42.859375 10.171875 
Q 46.921875 13.96875 46.921875 20.515625 
Q 46.921875 27.09375 42.890625 30.859375 
Q 38.875 34.625 31.78125 34.625 
z
M 21.921875 38.8125 
Q 15.578125 40.375 12.03125 44.71875 
Q 8.5 49.078125 8.5 55.328125 
Q 8.5 64.0625 14.71875 69.140625 
Q 20.953125 74.21875 31.78125 74.21875 
Q 42.671875 74.21875 48.875 69.140625 
Q 55.078125 64.0625 55.078125 55.328125 
Q 55.078125 49.078125 51.53125 44.71875 
Q 48 40.375 41.703125 38.8125 
Q 48.828125 37.15625 52.796875 32.3125 
Q 56.78125 27.484375 56.78125 20.515625 
Q 56.78125 9.90625 50.3125 4.234375 
Q 43.84375 -1.421875 31.78125 -1.421875 
Q 19.734375 -1.421875 13.25 4.234375 
Q 6.78125 9.90625 6.78125 20.515625 
Q 6.78125 27.484375 10.78125 32.3125 
Q 14.796875 37.15625 21.921875 38.8125 
z
M 18.3125 54.390625 
Q 18.3125 48.734375 21.84375 45.5625 
Q 25.390625 42.390625 31.78125 42.390625 
Q 38.140625 42.390625 41.71875 45.5625 
Q 45.3125 48.734375 45.3125 54.390625 
Q 45.3125 60.0625 41.71875 63.234375 
Q 38.140625 66.40625 31.78125 66.40625 
Q 25.390625 66.40625 21.84375 63.234375 
Q 18.3125 60.0625 18.3125 54.390625 
z
" id="DejaVuSans-38"/>
      </defs>
      <g style="fill:#555555;" transform="translate(264.510625 256.180187)scale(0.1 -0.1)">
       <use xlink:href="#DejaVuSans-38"/>
      </g>
     </g>
    </g>
    <g id="xtick_4">
     <g id="line2d_7">
      <path clip-path="url(#p049608a135)" d="M 372.316875 241.58175 
L 372.316875 24.14175 
" style="fill:none;stroke:#ffffff;stroke-linecap:square;stroke-width:0.8;"/>
     </g>
     <g id="line2d_8">
      <g>
       <use style="fill:#555555;stroke:#555555;stroke-width:0.8;" x="372.316875" xlink:href="#m5d375d69eb" y="241.58175"/>
      </g>
     </g>
     <g id="text_4">
      <!-- 10 -->
      <defs>
       <path d="M 12.40625 8.296875 
L 28.515625 8.296875 
L 28.515625 63.921875 
L 10.984375 60.40625 
L 10.984375 69.390625 
L 28.421875 72.90625 
L 38.28125 72.90625 
L 38.28125 8.296875 
L 54.390625 8.296875 
L 54.390625 0 
L 12.40625 0 
z
" id="DejaVuSans-31"/>
       <path d="M 31.78125 66.40625 
Q 24.171875 66.40625 20.328125 58.90625 
Q 16.5 51.421875 16.5 36.375 
Q 16.5 21.390625 20.328125 13.890625 
Q 24.171875 6.390625 31.78125 6.390625 
Q 39.453125 6.390625 43.28125 13.890625 
Q 47.125 21.390625 47.125 36.375 
Q 47.125 51.421875 43.28125 58.90625 
Q 39.453125 66.40625 31.78125 66.40625 
z
M 31.78125 74.21875 
Q 44.046875 74.21875 50.515625 64.515625 
Q 56.984375 54.828125 56.984375 36.375 
Q 56.984375 17.96875 50.515625 8.265625 
Q 44.046875 -1.421875 31.78125 -1.421875 
Q 19.53125 -1.421875 13.0625 8.265625 
Q 6.59375 17.96875 6.59375 36.375 
Q 6.59375 54.828125 13.0625 64.515625 
Q 19.53125 74.21875 31.78125 74.21875 
z
" id="DejaVuSans-30"/>
      </defs>
      <g style="fill:#555555;" transform="translate(365.954375 256.180187)scale(0.1 -0.1)">
       <use xlink:href="#DejaVuSans-31"/>
       <use x="63.623047" xlink:href="#DejaVuSans-30"/>
      </g>
     </g>
    </g>
    <g id="xtick_5">
     <g id="line2d_9">
      <path clip-path="url(#p049608a135)" d="M 476.941875 241.58175 
L 476.941875 24.14175 
" style="fill:none;stroke:#ffffff;stroke-linecap:square;stroke-width:0.8;"/>
     </g>
     <g id="line2d_10">
      <g>
       <use style="fill:#555555;stroke:#555555;stroke-width:0.8;" x="476.941875" xlink:href="#m5d375d69eb" y="241.58175"/>
      </g>
     </g>
     <g id="text_5">
      <!-- 12 -->
      <defs>
       <path d="M 19.1875 8.296875 
L 53.609375 8.296875 
L 53.609375 0 
L 7.328125 0 
L 7.328125 8.296875 
Q 12.9375 14.109375 22.625 23.890625 
Q 32.328125 33.6875 34.8125 36.53125 
Q 39.546875 41.84375 41.421875 45.53125 
Q 43.3125 49.21875 43.3125 52.78125 
Q 43.3125 58.59375 39.234375 62.25 
Q 35.15625 65.921875 28.609375 65.921875 
Q 23.96875 65.921875 18.8125 64.3125 
Q 13.671875 62.703125 7.8125 59.421875 
L 7.8125 69.390625 
Q 13.765625 71.78125 18.9375 73 
Q 24.125 74.21875 28.421875 74.21875 
Q 39.75 74.21875 46.484375 68.546875 
Q 53.21875 62.890625 53.21875 53.421875 
Q 53.21875 48.921875 51.53125 44.890625 
Q 49.859375 40.875 45.40625 35.40625 
Q 44.1875 33.984375 37.640625 27.21875 
Q 31.109375 20.453125 19.1875 8.296875 
z
" id="DejaVuSans-32"/>
      </defs>
      <g style="fill:#555555;" transform="translate(470.579375 256.180187)scale(0.1 -0.1)">
       <use xlink:href="#DejaVuSans-31"/>
       <use x="63.623047" xlink:href="#DejaVuSans-32"/>
      </g>
     </g>
    </g>
    <g id="xtick_6">
     <g id="line2d_11">
      <path clip-path="url(#p049608a135)" d="M 581.566875 241.58175 
L 581.566875 24.14175 
" style="fill:none;stroke:#ffffff;stroke-linecap:square;stroke-width:0.8;"/>
     </g>
     <g id="line2d_12">
      <g>
       <use style="fill:#555555;stroke:#555555;stroke-width:0.8;" x="581.566875" xlink:href="#m5d375d69eb" y="241.58175"/>
      </g>
     </g>
     <g id="text_6">
      <!-- 14 -->
      <g style="fill:#555555;" transform="translate(575.204375 256.180187)scale(0.1 -0.1)">
       <use xlink:href="#DejaVuSans-31"/>
       <use x="63.623047" xlink:href="#DejaVuSans-34"/>
      </g>
     </g>
    </g>
    <g id="xtick_7">
     <g id="line2d_13">
      <path clip-path="url(#p049608a135)" d="M 686.191875 241.58175 
L 686.191875 24.14175 
" style="fill:none;stroke:#ffffff;stroke-linecap:square;stroke-width:0.8;"/>
     </g>
     <g id="line2d_14">
      <g>
       <use style="fill:#555555;stroke:#555555;stroke-width:0.8;" x="686.191875" xlink:href="#m5d375d69eb" y="241.58175"/>
      </g>
     </g>
     <g id="text_7">
      <!-- 16 -->
      <g style="fill:#555555;" transform="translate(679.829375 256.180187)scale(0.1 -0.1)">
       <use xlink:href="#DejaVuSans-31"/>
       <use x="63.623047" xlink:href="#DejaVuSans-36"/>
      </g>
     </g>
    </g>
    <g id="xtick_8">
     <g id="line2d_15">
      <path clip-path="url(#p049608a135)" d="M 790.816875 241.58175 
L 790.816875 24.14175 
" style="fill:none;stroke:#ffffff;stroke-linecap:square;stroke-width:0.8;"/>
     </g>
     <g id="line2d_16">
      <g>
       <use style="fill:#555555;stroke:#555555;stroke-width:0.8;" x="790.816875" xlink:href="#m5d375d69eb" y="241.58175"/>
      </g>
     </g>
     <g id="text_8">
      <!-- 18 -->
      <g style="fill:#555555;" transform="translate(784.454375 256.180187)scale(0.1 -0.1)">
       <use xlink:href="#DejaVuSans-31"/>
       <use x="63.623047" xlink:href="#DejaVuSans-38"/>
      </g>
     </g>
    </g>
    <g id="xtick_9">
     <g id="line2d_17">
      <path clip-path="url(#p049608a135)" d="M 895.441875 241.58175 
L 895.441875 24.14175 
" style="fill:none;stroke:#ffffff;stroke-linecap:square;stroke-width:0.8;"/>
     </g>
     <g id="line2d_18">
      <g>
       <use style="fill:#555555;stroke:#555555;stroke-width:0.8;" x="895.441875" xlink:href="#m5d375d69eb" y="241.58175"/>
      </g>
     </g>
     <g id="text_9">
      <!-- 20 -->
      <g style="fill:#555555;" transform="translate(889.079375 256.180187)scale(0.1 -0.1)">
       <use xlink:href="#DejaVuSans-32"/>
       <use x="63.623047" xlink:href="#DejaVuSans-30"/>
      </g>
     </g>
    </g>
    <g id="text_10">
     <!-- Mean PHRED quality Score -->
     <defs>
      <path d="M 9.8125 72.90625 
L 24.515625 72.90625 
L 43.109375 23.296875 
L 61.8125 72.90625 
L 76.515625 72.90625 
L 76.515625 0 
L 66.890625 0 
L 66.890625 64.015625 
L 48.09375 14.015625 
L 38.1875 14.015625 
L 19.390625 64.015625 
L 19.390625 0 
L 9.8125 0 
z
" id="DejaVuSans-4d"/>
      <path d="M 56.203125 29.59375 
L 56.203125 25.203125 
L 14.890625 25.203125 
Q 15.484375 15.921875 20.484375 11.0625 
Q 25.484375 6.203125 34.421875 6.203125 
Q 39.59375 6.203125 44.453125 7.46875 
Q 49.3125 8.734375 54.109375 11.28125 
L 54.109375 2.78125 
Q 49.265625 0.734375 44.1875 -0.34375 
Q 39.109375 -1.421875 33.890625 -1.421875 
Q 20.796875 -1.421875 13.15625 6.1875 
Q 5.515625 13.8125 5.515625 26.8125 
Q 5.515625 40.234375 12.765625 48.109375 
Q 20.015625 56 32.328125 56 
Q 43.359375 56 49.78125 48.890625 
Q 56.203125 41.796875 56.203125 29.59375 
z
M 47.21875 32.234375 
Q 47.125 39.59375 43.09375 43.984375 
Q 39.0625 48.390625 32.421875 48.390625 
Q 24.90625 48.390625 20.390625 44.140625 
Q 15.875 39.890625 15.1875 32.171875 
z
" id="DejaVuSans-65"/>
      <path d="M 34.28125 27.484375 
Q 23.390625 27.484375 19.1875 25 
Q 14.984375 22.515625 14.984375 16.5 
Q 14.984375 11.71875 18.140625 8.90625 
Q 21.296875 6.109375 26.703125 6.109375 
Q 34.1875 6.109375 38.703125 11.40625 
Q 43.21875 16.703125 43.21875 25.484375 
L 43.21875 27.484375 
z
M 52.203125 31.203125 
L 52.203125 0 
L 43.21875 0 
L 43.21875 8.296875 
Q 40.140625 3.328125 35.546875 0.953125 
Q 30.953125 -1.421875 24.3125 -1.421875 
Q 15.921875 -1.421875 10.953125 3.296875 
Q 6 8.015625 6 15.921875 
Q 6 25.140625 12.171875 29.828125 
Q 18.359375 34.515625 30.609375 34.515625 
L 43.21875 34.515625 
L 43.21875 35.40625 
Q 43.21875 41.609375 39.140625 45 
Q 35.0625 48.390625 27.6875 48.390625 
Q 23 48.390625 18.546875 47.265625 
Q 14.109375 46.140625 10.015625 43.890625 
L 10.015625 52.203125 
Q 14.9375 54.109375 19.578125 55.046875 
Q 24.21875 56 28.609375 56 
Q 40.484375 56 46.34375 49.84375 
Q 52.203125 43.703125 52.203125 31.203125 
z
" id="DejaVuSans-61"/>
      <path d="M 54.890625 33.015625 
L 54.890625 0 
L 45.90625 0 
L 45.90625 32.71875 
Q 45.90625 40.484375 42.875 44.328125 
Q 39.84375 48.1875 33.796875 48.1875 
Q 26.515625 48.1875 22.3125 43.546875 
Q 18.109375 38.921875 18.109375 30.90625 
L 18.109375 0 
L 9.078125 0 
L 9.078125 54.6875 
L 18.109375 54.6875 
L 18.109375 46.1875 
Q 21.34375 51.125 25.703125 53.5625 
Q 30.078125 56 35.796875 56 
Q 45.21875 56 50.046875 50.171875 
Q 54.890625 44.34375 54.890625 33.015625 
z
" id="DejaVuSans-6e"/>
      <path id="DejaVuSans-20"/>
      <path d="M 19.671875 64.796875 
L 19.671875 37.40625 
L 32.078125 37.40625 
Q 38.96875 37.40625 42.71875 40.96875 
Q 46.484375 44.53125 46.484375 51.125 
Q 46.484375 57.671875 42.71875 61.234375 
Q 38.96875 64.796875 32.078125 64.796875 
z
M 9.8125 72.90625 
L 32.078125 72.90625 
Q 44.34375 72.90625 50.609375 67.359375 
Q 56.890625 61.8125 56.890625 51.125 
Q 56.890625 40.328125 50.609375 34.8125 
Q 44.34375 29.296875 32.078125 29.296875 
L 19.671875 29.296875 
L 19.671875 0 
L 9.8125 0 
z
" id="DejaVuSans-50"/>
      <path d="M 9.8125 72.90625 
L 19.671875 72.90625 
L 19.671875 43.015625 
L 55.515625 43.015625 
L 55.515625 72.90625 
L 65.375 72.90625 
L 65.375 0 
L 55.515625 0 
L 55.515625 34.71875 
L 19.671875 34.71875 
L 19.671875 0 
L 9.8125 0 
z
" id="DejaVuSans-48"/>
      <path d="M 44.390625 34.1875 
Q 47.5625 33.109375 50.5625 29.59375 
Q 53.5625 26.078125 56.59375 19.921875 
L 66.609375 0 
L 56 0 
L 46.6875 18.703125 
Q 43.0625 26.03125 39.671875 28.421875 
Q 36.28125 30.8125 30.421875 30.8125 
L 19.671875 30.8125 
L 19.671875 0 
L 9.8125 0 
L 9.8125 72.90625 
L 32.078125 72.90625 
Q 44.578125 72.90625 50.734375 67.671875 
Q 56.890625 62.453125 56.890625 51.90625 
Q 56.890625 45.015625 53.6875 40.46875 
Q 50.484375 35.9375 44.390625 34.1875 
z
M 19.671875 64.796875 
L 19.671875 38.921875 
L 32.078125 38.921875 
Q 39.203125 38.921875 42.84375 42.21875 
Q 46.484375 45.515625 46.484375 51.90625 
Q 46.484375 58.296875 42.84375 61.546875 
Q 39.203125 64.796875 32.078125 64.796875 
z
" id="DejaVuSans-52"/>
      <path d="M 9.8125 72.90625 
L 55.90625 72.90625 
L 55.90625 64.59375 
L 19.671875 64.59375 
L 19.671875 43.015625 
L 54.390625 43.015625 
L 54.390625 34.71875 
L 19.671875 34.71875 
L 19.671875 8.296875 
L 56.78125 8.296875 
L 56.78125 0 
L 9.8125 0 
z
" id="DejaVuSans-45"/>
      <path d="M 19.671875 64.796875 
L 19.671875 8.109375 
L 31.59375 8.109375 
Q 46.6875 8.109375 53.6875 14.9375 
Q 60.6875 21.78125 60.6875 36.53125 
Q 60.6875 51.171875 53.6875 57.984375 
Q 46.6875 64.796875 31.59375 64.796875 
z
M 9.8125 72.90625 
L 30.078125 72.90625 
Q 51.265625 72.90625 61.171875 64.09375 
Q 71.09375 55.28125 71.09375 36.53125 
Q 71.09375 17.671875 61.125 8.828125 
Q 51.171875 0 30.078125 0 
L 9.8125 0 
z
" id="DejaVuSans-44"/>
      <path d="M 14.796875 27.296875 
Q 14.796875 17.390625 18.875 11.75 
Q 22.953125 6.109375 30.078125 6.109375 
Q 37.203125 6.109375 41.296875 11.75 
Q 45.40625 17.390625 45.40625 27.296875 
Q 45.40625 37.203125 41.296875 42.84375 
Q 37.203125 48.484375 30.078125 48.484375 
Q 22.953125 48.484375 18.875 42.84375 
Q 14.796875 37.203125 14.796875 27.296875 
z
M 45.40625 8.203125 
Q 42.578125 3.328125 38.25 0.953125 
Q 33.9375 -1.421875 27.875 -1.421875 
Q 17.96875 -1.421875 11.734375 6.484375 
Q 5.515625 14.40625 5.515625 27.296875 
Q 5.515625 40.1875 11.734375 48.09375 
Q 17.96875 56 27.875 56 
Q 33.9375 56 38.25 53.625 
Q 42.578125 51.265625 45.40625 46.390625 
L 45.40625 54.6875 
L 54.390625 54.6875 
L 54.390625 -20.796875 
L 45.40625 -20.796875 
z
" id="DejaVuSans-71"/>
      <path d="M 8.5 21.578125 
L 8.5 54.6875 
L 17.484375 54.6875 
L 17.484375 21.921875 
Q 17.484375 14.15625 20.5 10.265625 
Q 23.53125 6.390625 29.59375 6.390625 
Q 36.859375 6.390625 41.078125 11.03125 
Q 45.3125 15.671875 45.3125 23.6875 
L 45.3125 54.6875 
L 54.296875 54.6875 
L 54.296875 0 
L 45.3125 0 
L 45.3125 8.40625 
Q 42.046875 3.421875 37.71875 1 
Q 33.40625 -1.421875 27.6875 -1.421875 
Q 18.265625 -1.421875 13.375 4.4375 
Q 8.5 10.296875 8.5 21.578125 
z
M 31.109375 56 
z
" id="DejaVuSans-75"/>
      <path d="M 9.421875 75.984375 
L 18.40625 75.984375 
L 18.40625 0 
L 9.421875 0 
z
" id="DejaVuSans-6c"/>
      <path d="M 9.421875 54.6875 
L 18.40625 54.6875 
L 18.40625 0 
L 9.421875 0 
z
M 9.421875 75.984375 
L 18.40625 75.984375 
L 18.40625 64.59375 
L 9.421875 64.59375 
z
" id="DejaVuSans-69"/>
      <path d="M 18.3125 70.21875 
L 18.3125 54.6875 
L 36.8125 54.6875 
L 36.8125 47.703125 
L 18.3125 47.703125 
L 18.3125 18.015625 
Q 18.3125 11.328125 20.140625 9.421875 
Q 21.96875 7.515625 27.59375 7.515625 
L 36.8125 7.515625 
L 36.8125 0 
L 27.59375 0 
Q 17.1875 0 13.234375 3.875 
Q 9.28125 7.765625 9.28125 18.015625 
L 9.28125 47.703125 
L 2.6875 47.703125 
L 2.6875 54.6875 
L 9.28125 54.6875 
L 9.28125 70.21875 
z
" id="DejaVuSans-74"/>
      <path d="M 32.171875 -5.078125 
Q 28.375 -14.84375 24.75 -17.8125 
Q 21.140625 -20.796875 15.09375 -20.796875 
L 7.90625 -20.796875 
L 7.90625 -13.28125 
L 13.1875 -13.28125 
Q 16.890625 -13.28125 18.9375 -11.515625 
Q 21 -9.765625 23.484375 -3.21875 
L 25.09375 0.875 
L 2.984375 54.6875 
L 12.5 54.6875 
L 29.59375 11.921875 
L 46.6875 54.6875 
L 56.203125 54.6875 
z
" id="DejaVuSans-79"/>
      <path d="M 53.515625 70.515625 
L 53.515625 60.890625 
Q 47.90625 63.578125 42.921875 64.890625 
Q 37.9375 66.21875 33.296875 66.21875 
Q 25.25 66.21875 20.875 63.09375 
Q 16.5 59.96875 16.5 54.203125 
Q 16.5 49.359375 19.40625 46.890625 
Q 22.3125 44.4375 30.421875 42.921875 
L 36.375 41.703125 
Q 47.40625 39.59375 52.65625 34.296875 
Q 57.90625 29 57.90625 20.125 
Q 57.90625 9.515625 50.796875 4.046875 
Q 43.703125 -1.421875 29.984375 -1.421875 
Q 24.8125 -1.421875 18.96875 -0.25 
Q 13.140625 0.921875 6.890625 3.21875 
L 6.890625 13.375 
Q 12.890625 10.015625 18.65625 8.296875 
Q 24.421875 6.59375 29.984375 6.59375 
Q 38.421875 6.59375 43.015625 9.90625 
Q 47.609375 13.234375 47.609375 19.390625 
Q 47.609375 24.75 44.3125 27.78125 
Q 41.015625 30.8125 33.5 32.328125 
L 27.484375 33.5 
Q 16.453125 35.6875 11.515625 40.375 
Q 6.59375 45.0625 6.59375 53.421875 
Q 6.59375 63.09375 13.40625 68.65625 
Q 20.21875 74.21875 32.171875 74.21875 
Q 37.3125 74.21875 42.625 73.28125 
Q 47.953125 72.359375 53.515625 70.515625 
z
" id="DejaVuSans-53"/>
      <path d="M 48.78125 52.59375 
L 48.78125 44.1875 
Q 44.96875 46.296875 41.140625 47.34375 
Q 37.3125 48.390625 33.40625 48.390625 
Q 24.65625 48.390625 19.8125 42.84375 
Q 14.984375 37.3125 14.984375 27.296875 
Q 14.984375 17.28125 19.8125 11.734375 
Q 24.65625 6.203125 33.40625 6.203125 
Q 37.3125 6.203125 41.140625 7.25 
Q 44.96875 8.296875 48.78125 10.40625 
L 48.78125 2.09375 
Q 45.015625 0.34375 40.984375 -0.53125 
Q 36.96875 -1.421875 32.421875 -1.421875 
Q 20.0625 -1.421875 12.78125 6.34375 
Q 5.515625 14.109375 5.515625 27.296875 
Q 5.515625 40.671875 12.859375 48.328125 
Q 20.21875 56 33.015625 56 
Q 37.15625 56 41.109375 55.140625 
Q 45.0625 54.296875 48.78125 52.59375 
z
" id="DejaVuSans-63"/>
      <path d="M 30.609375 48.390625 
Q 23.390625 48.390625 19.1875 42.75 
Q 14.984375 37.109375 14.984375 27.296875 
Q 14.984375 17.484375 19.15625 11.84375 
Q 23.34375 6.203125 30.609375 6.203125 
Q 37.796875 6.203125 41.984375 11.859375 
Q 46.1875 17.53125 46.1875 27.296875 
Q 46.1875 37.015625 41.984375 42.703125 
Q 37.796875 48.390625 30.609375 48.390625 
z
M 30.609375 56 
Q 42.328125 56 49.015625 48.375 
Q 55.71875 40.765625 55.71875 27.296875 
Q 55.71875 13.875 49.015625 6.21875 
Q 42.328125 -1.421875 30.609375 -1.421875 
Q 18.84375 -1.421875 12.171875 6.21875 
Q 5.515625 13.875 5.515625 27.296875 
Q 5.515625 40.765625 12.171875 48.375 
Q 18.84375 56 30.609375 56 
z
" id="DejaVuSans-6f"/>
      <path d="M 41.109375 46.296875 
Q 39.59375 47.171875 37.8125 47.578125 
Q 36.03125 48 33.890625 48 
Q 26.265625 48 22.1875 43.046875 
Q 18.109375 38.09375 18.109375 28.8125 
L 18.109375 0 
L 9.078125 0 
L 9.078125 54.6875 
L 18.109375 54.6875 
L 18.109375 46.1875 
Q 20.953125 51.171875 25.484375 53.578125 
Q 30.03125 56 36.53125 56 
Q 37.453125 56 38.578125 55.875 
Q 39.703125 55.765625 41.0625 55.515625 
z
" id="DejaVuSans-72"/>
     </defs>
     <g style="fill:#555555;" transform="translate(396.70125 271.378)scale(0.12 -0.12)">
      <use xlink:href="#DejaVuSans-4d"/>
      <use x="86.279297" xlink:href="#DejaVuSans-65"/>
      <use x="147.802734" xlink:href="#DejaVuSans-61"/>
      <use x="209.082031" xlink:href="#DejaVuSans-6e"/>
      <use x="272.460938" xlink:href="#DejaVuSans-20"/>
      <use x="304.248047" xlink:href="#DejaVuSans-50"/>
      <use x="364.550781" xlink:href="#DejaVuSans-48"/>
      <use x="439.746094" xlink:href="#DejaVuSans-52"/>
      <use x="509.228516" xlink:href="#DejaVuSans-45"/>
      <use x="572.412109" xlink:href="#DejaVuSans-44"/>
      <use x="649.414062" xlink:href="#DejaVuSans-20"/>
      <use x="681.201172" xlink:href="#DejaVuSans-71"/>
      <use x="744.677734" xlink:href="#DejaVuSans-75"/>
      <use x="808.056641" xlink:href="#DejaVuSans-61"/>
      <use x="869.335938" xlink:href="#DejaVuSans-6c"/>
      <use x="897.119141" xlink:href="#DejaVuSans-69"/>
      <use x="924.902344" xlink:href="#DejaVuSans-74"/>
      <use x="964.111328" xlink:href="#DejaVuSans-79"/>
      <use x="1023.291016" xlink:href="#DejaVuSans-20"/>
      <use x="1055.078125" xlink:href="#DejaVuSans-53"/>
      <use x="1118.554688" xlink:href="#DejaVuSans-63"/>
      <use x="1173.535156" xlink:href="#DejaVuSans-6f"/>
      <use x="1234.716797" xlink:href="#DejaVuSans-72"/>
      <use x="1275.798828" xlink:href="#DejaVuSans-65"/>
     </g>
    </g>
   </g>
   <g id="matplotlib.axis_2">
    <g id="ytick_1">
     <g id="line2d_19">
      <path clip-path="url(#p049608a135)" d="M 58.441875 241.58175 
L 895.441875 241.58175 
" style="fill:none;stroke:#ffffff;stroke-linecap:square;stroke-width:0.8;"/>
     </g>
     <g id="line2d_20">
      <defs>
       <path d="M 0 0 
L -3.5 0 
" id="mef387fb846" style="stroke:#555555;stroke-width:0.8;"/>
      </defs>
      <g>
       <use style="fill:#555555;stroke:#555555;stroke-width:0.8;" x="58.441875" xlink:href="#mef387fb846" y="241.58175"/>
      </g>
     </g>
     <g id="text_11">
      <!-- 0.000 -->
      <defs>
       <path d="M 10.6875 12.40625 
L 21 12.40625 
L 21 0 
L 10.6875 0 
z
" id="DejaVuSans-2e"/>
      </defs>
      <g style="fill:#555555;" transform="translate(22.81375 245.380969)scale(0.1 -0.1)">
       <use xlink:href="#DejaVuSans-30"/>
       <use x="63.623047" xlink:href="#DejaVuSans-2e"/>
       <use x="95.410156" xlink:href="#DejaVuSans-30"/>
       <use x="159.033203" xlink:href="#DejaVuSans-30"/>
       <use x="222.65625" xlink:href="#DejaVuSans-30"/>
      </g>
     </g>
    </g>
    <g id="ytick_2">
     <g id="line2d_21">
      <path clip-path="url(#p049608a135)" d="M 58.441875 216.919491 
L 895.441875 216.919491 
" style="fill:none;stroke:#ffffff;stroke-linecap:square;stroke-width:0.8;"/>
     </g>
     <g id="line2d_22">
      <g>
       <use style="fill:#555555;stroke:#555555;stroke-width:0.8;" x="58.441875" xlink:href="#mef387fb846" y="216.919491"/>
      </g>
     </g>
     <g id="text_12">
      <!-- 0.025 -->
      <defs>
       <path d="M 10.796875 72.90625 
L 49.515625 72.90625 
L 49.515625 64.59375 
L 19.828125 64.59375 
L 19.828125 46.734375 
Q 21.96875 47.46875 24.109375 47.828125 
Q 26.265625 48.1875 28.421875 48.1875 
Q 40.625 48.1875 47.75 41.5 
Q 54.890625 34.8125 54.890625 23.390625 
Q 54.890625 11.625 47.5625 5.09375 
Q 40.234375 -1.421875 26.90625 -1.421875 
Q 22.3125 -1.421875 17.546875 -0.640625 
Q 12.796875 0.140625 7.71875 1.703125 
L 7.71875 11.625 
Q 12.109375 9.234375 16.796875 8.0625 
Q 21.484375 6.890625 26.703125 6.890625 
Q 35.15625 6.890625 40.078125 11.328125 
Q 45.015625 15.765625 45.015625 23.390625 
Q 45.015625 31 40.078125 35.4375 
Q 35.15625 39.890625 26.703125 39.890625 
Q 22.75 39.890625 18.8125 39.015625 
Q 14.890625 38.140625 10.796875 36.28125 
z
" id="DejaVuSans-35"/>
      </defs>
      <g style="fill:#555555;" transform="translate(22.81375 220.71871)scale(0.1 -0.1)">
       <use xlink:href="#DejaVuSans-30"/>
       <use x="63.623047" xlink:href="#DejaVuSans-2e"/>
       <use x="95.410156" xlink:href="#DejaVuSans-30"/>
       <use x="159.033203" xlink:href="#DejaVuSans-32"/>
       <use x="222.65625" xlink:href="#DejaVuSans-35"/>
      </g>
     </g>
    </g>
    <g id="ytick_3">
     <g id="line2d_23">
      <path clip-path="url(#p049608a135)" d="M 58.441875 192.257232 
L 895.441875 192.257232 
" style="fill:none;stroke:#ffffff;stroke-linecap:square;stroke-width:0.8;"/>
     </g>
     <g id="line2d_24">
      <g>
       <use style="fill:#555555;stroke:#555555;stroke-width:0.8;" x="58.441875" xlink:href="#mef387fb846" y="192.257232"/>
      </g>
     </g>
     <g id="text_13">
      <!-- 0.050 -->
      <g style="fill:#555555;" transform="translate(22.81375 196.05645)scale(0.1 -0.1)">
       <use xlink:href="#DejaVuSans-30"/>
       <use x="63.623047" xlink:href="#DejaVuSans-2e"/>
       <use x="95.410156" xlink:href="#DejaVuSans-30"/>
       <use x="159.033203" xlink:href="#DejaVuSans-35"/>
       <use x="222.65625" xlink:href="#DejaVuSans-30"/>
      </g>
     </g>
    </g>
    <g id="ytick_4">
     <g id="line2d_25">
      <path clip-path="url(#p049608a135)" d="M 58.441875 167.594972 
L 895.441875 167.594972 
" style="fill:none;stroke:#ffffff;stroke-linecap:square;stroke-width:0.8;"/>
     </g>
     <g id="line2d_26">
      <g>
       <use style="fill:#555555;stroke:#555555;stroke-width:0.8;" x="58.441875" xlink:href="#mef387fb846" y="167.594972"/>
      </g>
     </g>
     <g id="text_14">
      <!-- 0.075 -->
      <defs>
       <path d="M 8.203125 72.90625 
L 55.078125 72.90625 
L 55.078125 68.703125 
L 28.609375 0 
L 18.3125 0 
L 43.21875 64.59375 
L 8.203125 64.59375 
z
" id="DejaVuSans-37"/>
      </defs>
      <g style="fill:#555555;" transform="translate(22.81375 171.394191)scale(0.1 -0.1)">
       <use xlink:href="#DejaVuSans-30"/>
       <use x="63.623047" xlink:href="#DejaVuSans-2e"/>
       <use x="95.410156" xlink:href="#DejaVuSans-30"/>
       <use x="159.033203" xlink:href="#DejaVuSans-37"/>
       <use x="222.65625" xlink:href="#DejaVuSans-35"/>
      </g>
     </g>
    </g>
    <g id="ytick_5">
     <g id="line2d_27">
      <path clip-path="url(#p049608a135)" d="M 58.441875 142.932713 
L 895.441875 142.932713 
" style="fill:none;stroke:#ffffff;stroke-linecap:square;stroke-width:0.8;"/>
     </g>
     <g id="line2d_28">
      <g>
       <use style="fill:#555555;stroke:#555555;stroke-width:0.8;" x="58.441875" xlink:href="#mef387fb846" y="142.932713"/>
      </g>
     </g>
     <g id="text_15">
      <!-- 0.100 -->
      <g style="fill:#555555;" transform="translate(22.81375 146.731932)scale(0.1 -0.1)">
       <use xlink:href="#DejaVuSans-30"/>
       <use x="63.623047" xlink:href="#DejaVuSans-2e"/>
       <use x="95.410156" xlink:href="#DejaVuSans-31"/>
       <use x="159.033203" xlink:href="#DejaVuSans-30"/>
       <use x="222.65625" xlink:href="#DejaVuSans-30"/>
      </g>
     </g>
    </g>
    <g id="ytick_6">
     <g id="line2d_29">
      <path clip-path="url(#p049608a135)" d="M 58.441875 118.270454 
L 895.441875 118.270454 
" style="fill:none;stroke:#ffffff;stroke-linecap:square;stroke-width:0.8;"/>
     </g>
     <g id="line2d_30">
      <g>
       <use style="fill:#555555;stroke:#555555;stroke-width:0.8;" x="58.441875" xlink:href="#mef387fb846" y="118.270454"/>
      </g>
     </g>
     <g id="text_16">
      <!-- 0.125 -->
      <g style="fill:#555555;" transform="translate(22.81375 122.069673)scale(0.1 -0.1)">
       <use xlink:href="#DejaVuSans-30"/>
       <use x="63.623047" xlink:href="#DejaVuSans-2e"/>
       <use x="95.410156" xlink:href="#DejaVuSans-31"/>
       <use x="159.033203" xlink:href="#DejaVuSans-32"/>
       <use x="222.65625" xlink:href="#DejaVuSans-35"/>
      </g>
     </g>
    </g>
    <g id="ytick_7">
     <g id="line2d_31">
      <path clip-path="url(#p049608a135)" d="M 58.441875 93.608195 
L 895.441875 93.608195 
" style="fill:none;stroke:#ffffff;stroke-linecap:square;stroke-width:0.8;"/>
     </g>
     <g id="line2d_32">
      <g>
       <use style="fill:#555555;stroke:#555555;stroke-width:0.8;" x="58.441875" xlink:href="#mef387fb846" y="93.608195"/>
      </g>
     </g>
     <g id="text_17">
      <!-- 0.150 -->
      <g style="fill:#555555;" transform="translate(22.81375 97.407414)scale(0.1 -0.1)">
       <use xlink:href="#DejaVuSans-30"/>
       <use x="63.623047" xlink:href="#DejaVuSans-2e"/>
       <use x="95.410156" xlink:href="#DejaVuSans-31"/>
       <use x="159.033203" xlink:href="#DejaVuSans-35"/>
       <use x="222.65625" xlink:href="#DejaVuSans-30"/>
      </g>
     </g>
    </g>
    <g id="ytick_8">
     <g id="line2d_33">
      <path clip-path="url(#p049608a135)" d="M 58.441875 68.945936 
L 895.441875 68.945936 
" style="fill:none;stroke:#ffffff;stroke-linecap:square;stroke-width:0.8;"/>
     </g>
     <g id="line2d_34">
      <g>
       <use style="fill:#555555;stroke:#555555;stroke-width:0.8;" x="58.441875" xlink:href="#mef387fb846" y="68.945936"/>
      </g>
     </g>
     <g id="text_18">
      <!-- 0.175 -->
      <g style="fill:#555555;" transform="translate(22.81375 72.745155)scale(0.1 -0.1)">
       <use xlink:href="#DejaVuSans-30"/>
       <use x="63.623047" xlink:href="#DejaVuSans-2e"/>
       <use x="95.410156" xlink:href="#DejaVuSans-31"/>
       <use x="159.033203" xlink:href="#DejaVuSans-37"/>
       <use x="222.65625" xlink:href="#DejaVuSans-35"/>
      </g>
     </g>
    </g>
    <g id="ytick_9">
     <g id="line2d_35">
      <path clip-path="url(#p049608a135)" d="M 58.441875 44.283677 
L 895.441875 44.283677 
" style="fill:none;stroke:#ffffff;stroke-linecap:square;stroke-width:0.8;"/>
     </g>
     <g id="line2d_36">
      <g>
       <use style="fill:#555555;stroke:#555555;stroke-width:0.8;" x="58.441875" xlink:href="#mef387fb846" y="44.283677"/>
      </g>
     </g>
     <g id="text_19">
      <!-- 0.200 -->
      <g style="fill:#555555;" transform="translate(22.81375 48.082895)scale(0.1 -0.1)">
       <use xlink:href="#DejaVuSans-30"/>
       <use x="63.623047" xlink:href="#DejaVuSans-2e"/>
       <use x="95.410156" xlink:href="#DejaVuSans-32"/>
       <use x="159.033203" xlink:href="#DejaVuSans-30"/>
       <use x="222.65625" xlink:href="#DejaVuSans-30"/>
      </g>
     </g>
    </g>
    <g id="text_20">
     <!-- Read Frequency -->
     <defs>
      <path d="M 45.40625 46.390625 
L 45.40625 75.984375 
L 54.390625 75.984375 
L 54.390625 0 
L 45.40625 0 
L 45.40625 8.203125 
Q 42.578125 3.328125 38.25 0.953125 
Q 33.9375 -1.421875 27.875 -1.421875 
Q 17.96875 -1.421875 11.734375 6.484375 
Q 5.515625 14.40625 5.515625 27.296875 
Q 5.515625 40.1875 11.734375 48.09375 
Q 17.96875 56 27.875 56 
Q 33.9375 56 38.25 53.625 
Q 42.578125 51.265625 45.40625 46.390625 
z
M 14.796875 27.296875 
Q 14.796875 17.390625 18.875 11.75 
Q 22.953125 6.109375 30.078125 6.109375 
Q 37.203125 6.109375 41.296875 11.75 
Q 45.40625 17.390625 45.40625 27.296875 
Q 45.40625 37.203125 41.296875 42.84375 
Q 37.203125 48.484375 30.078125 48.484375 
Q 22.953125 48.484375 18.875 42.84375 
Q 14.796875 37.203125 14.796875 27.296875 
z
" id="DejaVuSans-64"/>
      <path d="M 9.8125 72.90625 
L 51.703125 72.90625 
L 51.703125 64.59375 
L 19.671875 64.59375 
L 19.671875 43.109375 
L 48.578125 43.109375 
L 48.578125 34.8125 
L 19.671875 34.8125 
L 19.671875 0 
L 9.8125 0 
z
" id="DejaVuSans-46"/>
     </defs>
     <g style="fill:#555555;" transform="translate(16.318125 181.668937)rotate(-90)scale(0.12 -0.12)">
      <use xlink:href="#DejaVuSans-52"/>
      <use x="69.419922" xlink:href="#DejaVuSans-65"/>
      <use x="130.943359" xlink:href="#DejaVuSans-61"/>
      <use x="192.222656" xlink:href="#DejaVuSans-64"/>
      <use x="255.699219" xlink:href="#DejaVuSans-20"/>
      <use x="287.486328" xlink:href="#DejaVuSans-46"/>
      <use x="344.896484" xlink:href="#DejaVuSans-72"/>
      <use x="385.978516" xlink:href="#DejaVuSans-65"/>
      <use x="447.501953" xlink:href="#DejaVuSans-71"/>
      <use x="510.978516" xlink:href="#DejaVuSans-75"/>
      <use x="574.357422" xlink:href="#DejaVuSans-65"/>
      <use x="635.880859" xlink:href="#DejaVuSans-6e"/>
      <use x="699.259766" xlink:href="#DejaVuSans-63"/>
      <use x="754.240234" xlink:href="#DejaVuSans-79"/>
     </g>
    </g>
   </g>
   <g id="PolyCollection_1">
    <path clip-path="url(#p049608a135)" d="M 55.878563 241.04544 
L 55.878563 241.58175 
L 59.316007 241.58175 
L 62.753451 241.58175 
L 66.190895 241.58175 
L 69.628339 241.58175 
L 73.065783 241.58175 
L 76.503227 241.58175 
L 79.940671 241.58175 
L 83.378115 241.58175 
L 86.81556 241.58175 
L 90.253004 241.58175 
L 93.690448 241.58175 
L 97.127892 241.58175 
L 100.565336 241.58175 
L 104.00278 241.58175 
L 107.440224 241.58175 
L 110.877668 241.58175 
L 114.315113 241.58175 
L 117.752557 241.58175 
L 121.190001 241.58175 
L 124.627445 241.58175 
L 128.064889 241.58175 
L 131.502333 241.58175 
L 134.939777 241.58175 
L 138.377221 241.58175 
L 141.814665 241.58175 
L 145.25211 241.58175 
L 148.689554 241.58175 
L 152.126998 241.58175 
L 155.564442 241.58175 
L 159.001886 241.58175 
L 162.43933 241.58175 
L 165.876774 241.58175 
L 169.314218 241.58175 
L 172.751662 241.58175 
L 176.189107 241.58175 
L 179.626551 241.58175 
L 183.063995 241.58175 
L 186.501439 241.58175 
L 189.938883 241.58175 
L 193.376327 241.58175 
L 196.813771 241.58175 
L 200.251215 241.58175 
L 203.68866 241.58175 
L 207.126104 241.58175 
L 210.563548 241.58175 
L 214.000992 241.58175 
L 217.438436 241.58175 
L 220.87588 241.58175 
L 224.313324 241.58175 
L 227.750768 241.58175 
L 231.188212 241.58175 
L 234.625657 241.58175 
L 238.063101 241.58175 
L 241.500545 241.58175 
L 244.937989 241.58175 
L 248.375433 241.58175 
L 251.812877 241.58175 
L 255.250321 241.58175 
L 258.687765 241.58175 
L 262.12521 241.58175 
L 265.562654 241.58175 
L 269.000098 241.58175 
L 272.437542 241.58175 
L 275.874986 241.58175 
L 279.31243 241.58175 
L 282.749874 241.58175 
L 286.187318 241.58175 
L 289.624762 241.58175 
L 293.062207 241.58175 
L 296.499651 241.58175 
L 299.937095 241.58175 
L 303.374539 241.58175 
L 306.811983 241.58175 
L 310.249427 241.58175 
L 313.686871 241.58175 
L 317.124315 241.58175 
L 320.56176 241.58175 
L 323.999204 241.58175 
L 327.436648 241.58175 
L 330.874092 241.58175 
L 334.311536 241.58175 
L 337.74898 241.58175 
L 341.186424 241.58175 
L 344.623868 241.58175 
L 348.061312 241.58175 
L 351.498757 241.58175 
L 354.936201 241.58175 
L 358.373645 241.58175 
L 361.811089 241.58175 
L 365.248533 241.58175 
L 368.685977 241.58175 
L 372.123421 241.58175 
L 375.560865 241.58175 
L 378.99831 241.58175 
L 382.435754 241.58175 
L 385.873198 241.58175 
L 389.310642 241.58175 
L 392.748086 241.58175 
L 396.18553 241.58175 
L 399.622974 241.58175 
L 403.060418 241.58175 
L 406.497862 241.58175 
L 409.935307 241.58175 
L 413.372751 241.58175 
L 416.810195 241.58175 
L 420.247639 241.58175 
L 423.685083 241.58175 
L 427.122527 241.58175 
L 430.559971 241.58175 
L 433.997415 241.58175 
L 437.43486 241.58175 
L 440.872304 241.58175 
L 444.309748 241.58175 
L 447.747192 241.58175 
L 451.184636 241.58175 
L 454.62208 241.58175 
L 458.059524 241.58175 
L 461.496968 241.58175 
L 464.934412 241.58175 
L 468.371857 241.58175 
L 471.809301 241.58175 
L 475.246745 241.58175 
L 478.684189 241.58175 
L 482.121633 241.58175 
L 485.559077 241.58175 
L 488.996521 241.58175 
L 492.433965 241.58175 
L 495.87141 241.58175 
L 499.308854 241.58175 
L 502.746298 241.58175 
L 506.183742 241.58175 
L 509.621186 241.58175 
L 513.05863 241.58175 
L 516.496074 241.58175 
L 519.933518 241.58175 
L 523.370962 241.58175 
L 526.808407 241.58175 
L 530.245851 241.58175 
L 533.683295 241.58175 
L 537.120739 241.58175 
L 540.558183 241.58175 
L 543.995627 241.58175 
L 547.433071 241.58175 
L 550.870515 241.58175 
L 554.30796 241.58175 
L 557.745404 241.58175 
L 561.182848 241.58175 
L 564.620292 241.58175 
L 568.057736 241.58175 
L 571.49518 241.58175 
L 574.932624 241.58175 
L 578.370068 241.58175 
L 581.807512 241.58175 
L 585.244957 241.58175 
L 588.682401 241.58175 
L 592.119845 241.58175 
L 595.557289 241.58175 
L 598.994733 241.58175 
L 602.432177 241.58175 
L 605.869621 241.58175 
L 609.307065 241.58175 
L 612.74451 241.58175 
L 616.181954 241.58175 
L 619.619398 241.58175 
L 623.056842 241.58175 
L 626.494286 241.58175 
L 629.93173 241.58175 
L 633.369174 241.58175 
L 636.806618 241.58175 
L 640.244062 241.58175 
L 643.681507 241.58175 
L 647.118951 241.58175 
L 650.556395 241.58175 
L 653.993839 241.58175 
L 657.431283 241.58175 
L 660.868727 241.58175 
L 664.306171 241.58175 
L 667.743615 241.58175 
L 671.18106 241.58175 
L 674.618504 241.58175 
L 678.055948 241.58175 
L 681.493392 241.58175 
L 684.930836 241.58175 
L 688.36828 241.58175 
L 691.805724 241.58175 
L 695.243168 241.58175 
L 698.680612 241.58175 
L 702.118057 241.58175 
L 705.555501 241.58175 
L 708.992945 241.58175 
L 712.430389 241.58175 
L 715.867833 241.58175 
L 719.305277 241.58175 
L 722.742721 241.58175 
L 726.180165 241.58175 
L 729.61761 241.58175 
L 733.055054 241.58175 
L 736.492498 241.58175 
L 739.929942 241.58175 
L 743.367386 241.58175 
L 746.80483 241.58175 
L 750.242274 241.58175 
L 753.679718 241.58175 
L 757.117162 241.58175 
L 760.554607 241.58175 
L 763.992051 241.58175 
L 767.429495 241.58175 
L 770.866939 241.58175 
L 774.304383 241.58175 
L 777.741827 241.58175 
L 781.179271 241.58175 
L 784.616715 241.58175 
L 788.05416 241.58175 
L 791.491604 241.58175 
L 794.929048 241.58175 
L 798.366492 241.58175 
L 801.803936 241.58175 
L 805.24138 241.58175 
L 808.678824 241.58175 
L 812.116268 241.58175 
L 815.553712 241.58175 
L 818.991157 241.58175 
L 822.428601 241.58175 
L 825.866045 241.58175 
L 829.303489 241.58175 
L 832.740933 241.58175 
L 836.178377 241.58175 
L 839.615821 241.58175 
L 843.053265 241.58175 
L 846.49071 241.58175 
L 849.928154 241.58175 
L 853.365598 241.58175 
L 856.803042 241.58175 
L 860.240486 241.58175 
L 863.67793 241.58175 
L 867.115374 241.58175 
L 870.552818 241.58175 
L 873.990262 241.58175 
L 877.427707 241.58175 
L 880.865151 241.58175 
L 884.302595 241.58175 
L 887.740039 241.58175 
L 891.177483 241.58175 
L 894.614927 241.58175 
L 898.052371 241.58175 
L 901.489815 241.58175 
L 904.92726 241.58175 
L 908.364704 241.58175 
L 911.802148 241.58175 
L 915.239592 241.58175 
L 918.677036 241.58175 
L 922.11448 241.58175 
L 925.551924 241.58175 
L 928.989368 241.58175 
L 932.426812 241.58175 
L 932.426812 241.082862 
L 932.426812 241.082862 
L 928.989368 241.112602 
L 925.551924 241.133398 
L 922.11448 241.143967 
L 918.677036 241.142987 
L 915.239592 241.129057 
L 911.802148 241.100655 
L 908.364704 241.056071 
L 904.92726 240.993353 
L 901.489815 240.910252 
L 898.052371 240.804166 
L 894.614927 240.672109 
L 891.177483 240.510687 
L 887.740039 240.316096 
L 884.302595 240.084134 
L 880.865151 239.810239 
L 877.427707 239.48954 
L 873.990262 239.116945 
L 870.552818 238.687245 
L 867.115374 238.195255 
L 863.67793 237.63599 
L 860.240486 237.004874 
L 856.803042 236.29798 
L 853.365598 235.5123 
L 849.928154 234.646012 
L 846.49071 233.698744 
L 843.053265 232.671791 
L 839.615821 231.568256 
L 836.178377 230.393096 
L 832.740933 229.153041 
L 829.303489 227.856361 
L 825.866045 226.51251 
L 822.428601 225.131625 
L 818.991157 223.723943 
L 815.553712 222.299158 
L 812.116268 220.865793 
L 808.678824 219.430623 
L 805.24138 217.998227 
L 801.803936 216.570699 
L 798.366492 215.147552 
L 794.929048 213.725834 
L 791.491604 212.300435 
L 788.05416 210.864574 
L 784.616715 209.410411 
L 781.179271 207.929729 
L 777.741827 206.414636 
L 774.304383 204.858222 
L 770.866939 203.255105 
L 767.429495 201.601847 
L 763.992051 199.897184 
L 760.554607 198.142073 
L 757.117162 196.339558 
L 753.679718 194.494469 
L 750.242274 192.613002 
L 746.80483 190.702215 
L 743.367386 188.769505 
L 739.929942 186.822122 
L 736.492498 184.866759 
L 733.055054 182.909273 
L 729.61761 180.954556 
L 726.180165 179.006555 
L 722.742721 177.068435 
L 719.305277 175.142855 
L 715.867833 173.232291 
L 712.430389 171.339378 
L 708.992945 169.46719 
L 705.555501 167.619433 
L 702.118057 165.800505 
L 698.680612 164.01541 
L 695.243168 162.269545 
L 691.805724 160.56838 
L 688.36828 158.917068 
L 684.930836 157.320049 
L 681.493392 155.780676 
L 678.055948 154.300927 
L 674.618504 152.881205 
L 671.18106 151.52026 
L 667.743615 150.215205 
L 664.306171 148.96163 
L 660.868727 147.753778 
L 657.431283 146.584759 
L 653.993839 145.446794 
L 650.556395 144.331463 
L 647.118951 143.229959 
L 643.681507 142.133354 
L 640.244062 141.032863 
L 636.806618 139.920111 
L 633.369174 138.787393 
L 629.93173 137.627899 
L 626.494286 136.435884 
L 623.056842 135.20675 
L 619.619398 133.937012 
L 616.181954 132.62414 
L 612.74451 131.266266 
L 609.307065 129.861782 
L 605.869621 128.408857 
L 602.432177 126.904925 
L 598.994733 125.346198 
L 595.557289 123.727243 
L 592.119845 122.040685 
L 588.682401 120.277058 
L 585.244957 118.424807 
L 581.807512 116.470465 
L 578.370068 114.398971 
L 574.932624 112.194136 
L 571.49518 109.839223 
L 568.057736 107.317655 
L 564.620292 104.613818 
L 561.182848 101.71399 
L 557.745404 98.607371 
L 554.30796 95.287208 
L 550.870515 91.751992 
L 547.433071 88.006673 
L 543.995627 84.06383 
L 540.558183 79.944688 
L 537.120739 75.679896 
L 533.683295 71.309945 
L 530.245851 66.885126 
L 526.808407 62.464957 
L 523.370962 58.117032 
L 519.933518 53.915301 
L 516.496074 49.937816 
L 513.05863 46.264071 
L 509.621186 42.972052 
L 506.183742 40.135205 
L 502.746298 37.81951 
L 499.308854 36.08087 
L 495.87141 34.963009 
L 492.433965 34.496036 
L 488.996521 34.695767 
L 485.559077 35.563858 
L 482.121633 37.088697 
L 478.684189 39.246958 
L 475.246745 42.00564 
L 471.809301 45.324393 
L 468.371857 49.157885 
L 464.934412 53.458009 
L 461.496968 58.175735 
L 458.059524 63.262481 
L 454.62208 68.670959 
L 451.184636 74.3555 
L 447.747192 80.271967 
L 444.309748 86.377363 
L 440.872304 92.629328 
L 437.43486 98.985661 
L 433.997415 105.404032 
L 430.559971 111.841954 
L 427.122527 118.25708 
L 423.685083 124.607796 
L 420.247639 130.85405 
L 416.810195 136.958316 
L 413.372751 142.886586 
L 409.935307 148.609258 
L 406.497862 154.101838 
L 403.060418 159.345386 
L 399.622974 164.326669 
L 396.18553 169.03804 
L 392.748086 173.477069 
L 389.310642 177.645981 
L 385.873198 181.550979 
L 382.435754 185.201511 
L 378.99831 188.609535 
L 375.560865 191.788837 
L 372.123421 194.754411 
L 368.685977 197.521932 
L 365.248533 200.107303 
L 361.811089 202.526276 
L 358.373645 204.794122 
L 354.936201 206.925357 
L 351.498757 208.933485 
L 348.061312 210.830777 
L 344.623868 212.628076 
L 341.186424 214.334636 
L 337.74898 215.957995 
L 334.311536 217.503916 
L 330.874092 218.976381 
L 327.436648 220.377664 
L 323.999204 221.708487 
L 320.56176 222.968259 
L 317.124315 224.155385 
L 313.686871 225.267643 
L 310.249427 226.302609 
L 306.811983 227.258088 
L 303.374539 228.132542 
L 299.937095 228.92546 
L 296.499651 229.637653 
L 293.062207 230.271443 
L 289.624762 230.830722 
L 286.187318 231.320879 
L 282.749874 231.748605 
L 279.31243 232.121585 
L 275.874986 232.448114 
L 272.437542 232.736673 
L 269.000098 232.995507 
L 265.562654 233.232241 
L 262.12521 233.453573 
L 258.687765 233.665066 
L 255.250321 233.871049 
L 251.812877 234.074626 
L 248.375433 234.277792 
L 244.937989 234.481605 
L 241.500545 234.686419 
L 238.063101 234.892118 
L 234.625657 235.098344 
L 231.188212 235.304672 
L 227.750768 235.510738 
L 224.313324 235.716297 
L 220.87588 235.921221 
L 217.438436 236.125447 
L 214.000992 236.328894 
L 210.563548 236.531366 
L 207.126104 236.732462 
L 203.68866 236.931521 
L 200.251215 237.127601 
L 196.813771 237.319505 
L 193.376327 237.505853 
L 189.938883 237.68519 
L 186.501439 237.856119 
L 183.063995 238.017431 
L 179.626551 238.168233 
L 176.189107 238.308041 
L 172.751662 238.436839 
L 169.314218 238.555085 
L 165.876774 238.663678 
L 162.43933 238.763884 
L 159.001886 238.857225 
L 155.564442 238.945359 
L 152.126998 239.029946 
L 148.689554 239.11253 
L 145.25211 239.19443 
L 141.814665 239.276667 
L 138.377221 239.359912 
L 134.939777 239.444477 
L 131.502333 239.530332 
L 128.064889 239.617149 
L 124.627445 239.704372 
L 121.190001 239.7913 
L 117.752557 239.87718 
L 114.315113 239.961294 
L 110.877668 240.043042 
L 107.440224 240.121997 
L 104.00278 240.197944 
L 100.565336 240.270887 
L 97.127892 240.341028 
L 93.690448 240.408723 
L 90.253004 240.47441 
L 86.81556 240.538539 
L 83.378115 240.601487 
L 79.940671 240.66349 
L 76.503227 240.724586 
L 73.065783 240.784582 
L 69.628339 240.843042 
L 66.190895 240.899299 
L 62.753451 240.952487 
L 59.316007 241.001579 
L 55.878563 241.04544 
z
" style="fill:#1e90ff;fill-opacity:0.5;"/>
   </g>
   <g id="LineCollection_1">
    <path clip-path="url(#p049608a135)" d="M 412.921837 241.58175 
L 412.921837 24.14175 
" style="fill:none;stroke:#404040;stroke-dasharray:1,1.65;stroke-dashoffset:0;"/>
   </g>
   <g id="LineCollection_2">
    <path clip-path="url(#p049608a135)" d="M 524.441625 241.58175 
L 524.441625 24.14175 
" style="fill:none;stroke:#404040;"/>
   </g>
   <g id="LineCollection_3">
    <path clip-path="url(#p049608a135)" d="M 707.483062 241.58175 
L 707.483062 24.14175 
" style="fill:none;stroke:#404040;stroke-dasharray:3.7,1.6;stroke-dashoffset:0;"/>
   </g>
   <g id="line2d_37">
    <path clip-path="url(#p049608a135)" d="M 55.878563 241.04544 
L 83.378115 240.601487 
L 117.752557 239.87718 
L 176.189107 238.308041 
L 193.376327 237.505853 
L 220.87588 235.921221 
L 272.437542 232.736673 
L 279.31243 232.121585 
L 286.187318 231.320879 
L 293.062207 230.271443 
L 299.937095 228.92546 
L 306.811983 227.258088 
L 313.686871 225.267643 
L 320.56176 222.968259 
L 327.436648 220.377664 
L 334.311536 217.503916 
L 341.186424 214.334636 
L 348.061312 210.830777 
L 354.936201 206.925357 
L 358.373645 204.794122 
L 361.811089 202.526276 
L 365.248533 200.107303 
L 368.685977 197.521932 
L 372.123421 194.754411 
L 375.560865 191.788837 
L 378.99831 188.609535 
L 382.435754 185.201511 
L 385.873198 181.550979 
L 389.310642 177.645981 
L 392.748086 173.477069 
L 396.18553 169.03804 
L 399.622974 164.326669 
L 403.060418 159.345386 
L 406.497862 154.101838 
L 409.935307 148.609258 
L 416.810195 136.958316 
L 423.685083 124.607796 
L 447.747192 80.271967 
L 451.184636 74.3555 
L 454.62208 68.670959 
L 458.059524 63.262481 
L 461.496968 58.175735 
L 464.934412 53.458009 
L 468.371857 49.157885 
L 471.809301 45.324393 
L 475.246745 42.00564 
L 478.684189 39.246958 
L 482.121633 37.088697 
L 485.559077 35.563858 
L 488.996521 34.695767 
L 492.433965 34.496036 
L 495.87141 34.963009 
L 499.308854 36.08087 
L 502.746298 37.81951 
L 506.183742 40.135205 
L 509.621186 42.972052 
L 513.05863 46.264071 
L 516.496074 49.937816 
L 519.933518 53.915301 
L 526.808407 62.464957 
L 537.120739 75.679896 
L 543.995627 84.06383 
L 547.433071 88.006673 
L 550.870515 91.751992 
L 554.30796 95.287208 
L 557.745404 98.607371 
L 561.182848 101.71399 
L 564.620292 104.613818 
L 568.057736 107.317655 
L 571.49518 109.839223 
L 574.932624 112.194136 
L 578.370068 114.398971 
L 585.244957 118.424807 
L 592.119845 122.040685 
L 598.994733 125.346198 
L 605.869621 128.408857 
L 612.74451 131.266266 
L 619.619398 133.937012 
L 629.93173 137.627899 
L 640.244062 141.032863 
L 657.431283 146.584759 
L 664.306171 148.96163 
L 671.18106 151.52026 
L 678.055948 154.300927 
L 684.930836 157.320049 
L 691.805724 160.56838 
L 698.680612 164.01541 
L 708.992945 169.46719 
L 722.742721 177.068435 
L 757.117162 196.339558 
L 763.992051 199.897184 
L 770.866939 203.255105 
L 777.741827 206.414636 
L 788.05416 210.864574 
L 822.428601 225.131625 
L 829.303489 227.856361 
L 836.178377 230.393096 
L 843.053265 232.671791 
L 849.928154 234.646012 
L 856.803042 236.29798 
L 863.67793 237.63599 
L 870.552818 238.687245 
L 877.427707 239.48954 
L 884.302595 240.084134 
L 894.614927 240.672109 
L 904.92726 240.993353 
L 910.004375 241.077337 
L 910.004375 241.077337 
" style="fill:none;opacity:0.5;stroke:#1e90ff;stroke-linecap:square;stroke-width:1.5;"/>
   </g>
   <g id="patch_3">
    <path d="M 58.441875 241.58175 
L 58.441875 24.14175 
" style="fill:none;stroke:#ffffff;stroke-linecap:square;stroke-linejoin:miter;"/>
   </g>
   <g id="patch_4">
    <path d="M 895.441875 241.58175 
L 895.441875 24.14175 
" style="fill:none;stroke:#ffffff;stroke-linecap:square;stroke-linejoin:miter;"/>
   </g>
   <g id="patch_5">
    <path d="M 58.441875 241.58175 
L 895.441875 241.58175 
" style="fill:none;stroke:#ffffff;stroke-linecap:square;stroke-linejoin:miter;"/>
   </g>
   <g id="patch_6">
    <path d="M 58.441875 24.14175 
L 895.441875 24.14175 
" style="fill:none;stroke:#ffffff;stroke-linecap:square;stroke-linejoin:miter;"/>
   </g>
   <g id="text_21">
    <!-- Mean quality distribution per read -->
    <defs>
     <path d="M 44.28125 53.078125 
L 44.28125 44.578125 
Q 40.484375 46.53125 36.375 47.5 
Q 32.28125 48.484375 27.875 48.484375 
Q 21.1875 48.484375 17.84375 46.4375 
Q 14.5 44.390625 14.5 40.28125 
Q 14.5 37.15625 16.890625 35.375 
Q 19.28125 33.59375 26.515625 31.984375 
L 29.59375 31.296875 
Q 39.15625 29.25 43.1875 25.515625 
Q 47.21875 21.78125 47.21875 15.09375 
Q 47.21875 7.46875 41.1875 3.015625 
Q 35.15625 -1.421875 24.609375 -1.421875 
Q 20.21875 -1.421875 15.453125 -0.5625 
Q 10.6875 0.296875 5.421875 2 
L 5.421875 11.28125 
Q 10.40625 8.6875 15.234375 7.390625 
Q 20.0625 6.109375 24.8125 6.109375 
Q 31.15625 6.109375 34.5625 8.28125 
Q 37.984375 10.453125 37.984375 14.40625 
Q 37.984375 18.0625 35.515625 20.015625 
Q 33.0625 21.96875 24.703125 23.78125 
L 21.578125 24.515625 
Q 13.234375 26.265625 9.515625 29.90625 
Q 5.8125 33.546875 5.8125 39.890625 
Q 5.8125 47.609375 11.28125 51.796875 
Q 16.75 56 26.8125 56 
Q 31.78125 56 36.171875 55.265625 
Q 40.578125 54.546875 44.28125 53.078125 
z
" id="DejaVuSans-73"/>
     <path d="M 48.6875 27.296875 
Q 48.6875 37.203125 44.609375 42.84375 
Q 40.53125 48.484375 33.40625 48.484375 
Q 26.265625 48.484375 22.1875 42.84375 
Q 18.109375 37.203125 18.109375 27.296875 
Q 18.109375 17.390625 22.1875 11.75 
Q 26.265625 6.109375 33.40625 6.109375 
Q 40.53125 6.109375 44.609375 11.75 
Q 48.6875 17.390625 48.6875 27.296875 
z
M 18.109375 46.390625 
Q 20.953125 51.265625 25.265625 53.625 
Q 29.59375 56 35.59375 56 
Q 45.5625 56 51.78125 48.09375 
Q 58.015625 40.1875 58.015625 27.296875 
Q 58.015625 14.40625 51.78125 6.484375 
Q 45.5625 -1.421875 35.59375 -1.421875 
Q 29.59375 -1.421875 25.265625 0.953125 
Q 20.953125 3.328125 18.109375 8.203125 
L 18.109375 0 
L 9.078125 0 
L 9.078125 75.984375 
L 18.109375 75.984375 
z
" id="DejaVuSans-62"/>
     <path d="M 18.109375 8.203125 
L 18.109375 -20.796875 
L 9.078125 -20.796875 
L 9.078125 54.6875 
L 18.109375 54.6875 
L 18.109375 46.390625 
Q 20.953125 51.265625 25.265625 53.625 
Q 29.59375 56 35.59375 56 
Q 45.5625 56 51.78125 48.09375 
Q 58.015625 40.1875 58.015625 27.296875 
Q 58.015625 14.40625 51.78125 6.484375 
Q 45.5625 -1.421875 35.59375 -1.421875 
Q 29.59375 -1.421875 25.265625 0.953125 
Q 20.953125 3.328125 18.109375 8.203125 
z
M 48.6875 27.296875 
Q 48.6875 37.203125 44.609375 42.84375 
Q 40.53125 48.484375 33.40625 48.484375 
Q 26.265625 48.484375 22.1875 42.84375 
Q 18.109375 37.203125 18.109375 27.296875 
Q 18.109375 17.390625 22.1875 11.75 
Q 26.265625 6.109375 33.40625 6.109375 
Q 40.53125 6.109375 44.609375 11.75 
Q 48.6875 17.390625 48.6875 27.296875 
z
" id="DejaVuSans-70"/>
    </defs>
    <g transform="translate(354.1785 18.14175)scale(0.144 -0.144)">
     <use xlink:href="#DejaVuSans-4d"/>
     <use x="86.279297" xlink:href="#DejaVuSans-65"/>
     <use x="147.802734" xlink:href="#DejaVuSans-61"/>
     <use x="209.082031" xlink:href="#DejaVuSans-6e"/>
     <use x="272.460938" xlink:href="#DejaVuSans-20"/>
     <use x="304.248047" xlink:href="#DejaVuSans-71"/>
     <use x="367.724609" xlink:href="#DejaVuSans-75"/>
     <use x="431.103516" xlink:href="#DejaVuSans-61"/>
     <use x="492.382812" xlink:href="#DejaVuSans-6c"/>
     <use x="520.166016" xlink:href="#DejaVuSans-69"/>
     <use x="547.949219" xlink:href="#DejaVuSans-74"/>
     <use x="587.158203" xlink:href="#DejaVuSans-79"/>
     <use x="646.337891" xlink:href="#DejaVuSans-20"/>
     <use x="678.125" xlink:href="#DejaVuSans-64"/>
     <use x="741.601562" xlink:href="#DejaVuSans-69"/>
     <use x="769.384766" xlink:href="#DejaVuSans-73"/>
     <use x="821.484375" xlink:href="#DejaVuSans-74"/>
     <use x="860.693359" xlink:href="#DejaVuSans-72"/>
     <use x="901.806641" xlink:href="#DejaVuSans-69"/>
     <use x="929.589844" xlink:href="#DejaVuSans-62"/>
     <use x="993.066406" xlink:href="#DejaVuSans-75"/>
     <use x="1056.445312" xlink:href="#DejaVuSans-74"/>
     <use x="1095.654297" xlink:href="#DejaVuSans-69"/>
     <use x="1123.4375" xlink:href="#DejaVuSans-6f"/>
     <use x="1184.619141" xlink:href="#DejaVuSans-6e"/>
     <use x="1247.998047" xlink:href="#DejaVuSans-20"/>
     <use x="1279.785156" xlink:href="#DejaVuSans-70"/>
     <use x="1343.261719" xlink:href="#DejaVuSans-65"/>
     <use x="1404.785156" xlink:href="#DejaVuSans-72"/>
     <use x="1445.898438" xlink:href="#DejaVuSans-20"/>
     <use x="1477.685547" xlink:href="#DejaVuSans-72"/>
     <use x="1518.767578" xlink:href="#DejaVuSans-65"/>
     <use x="1580.291016" xlink:href="#DejaVuSans-61"/>
     <use x="1641.570312" xlink:href="#DejaVuSans-64"/>
    </g>
   </g>
   <g id="legend_1">
    <g id="patch_7">
     <path d="M 775.591875 91.132375 
L 888.441875 91.132375 
Q 890.441875 91.132375 890.441875 89.132375 
L 890.441875 31.14175 
Q 890.441875 29.14175 888.441875 29.14175 
L 775.591875 29.14175 
Q 773.591875 29.14175 773.591875 31.14175 
L 773.591875 89.132375 
Q 773.591875 91.132375 775.591875 91.132375 
z
" style="fill:#e5e5e5;opacity:0.8;stroke:#cccccc;stroke-linejoin:miter;stroke-width:0.5;"/>
    </g>
    <g id="line2d_38">
     <path d="M 777.591875 37.240187 
L 797.591875 37.240187 
" style="fill:none;opacity:0.5;stroke:#1e90ff;stroke-linecap:square;stroke-width:1.5;"/>
    </g>
    <g id="line2d_39"/>
    <g id="text_22">
     <!-- mean_qscore -->
     <defs>
      <path d="M 52 44.1875 
Q 55.375 50.25 60.0625 53.125 
Q 64.75 56 71.09375 56 
Q 79.640625 56 84.28125 50.015625 
Q 88.921875 44.046875 88.921875 33.015625 
L 88.921875 0 
L 79.890625 0 
L 79.890625 32.71875 
Q 79.890625 40.578125 77.09375 44.375 
Q 74.3125 48.1875 68.609375 48.1875 
Q 61.625 48.1875 57.5625 43.546875 
Q 53.515625 38.921875 53.515625 30.90625 
L 53.515625 0 
L 44.484375 0 
L 44.484375 32.71875 
Q 44.484375 40.625 41.703125 44.40625 
Q 38.921875 48.1875 33.109375 48.1875 
Q 26.21875 48.1875 22.15625 43.53125 
Q 18.109375 38.875 18.109375 30.90625 
L 18.109375 0 
L 9.078125 0 
L 9.078125 54.6875 
L 18.109375 54.6875 
L 18.109375 46.1875 
Q 21.1875 51.21875 25.484375 53.609375 
Q 29.78125 56 35.6875 56 
Q 41.65625 56 45.828125 52.96875 
Q 50 49.953125 52 44.1875 
z
" id="DejaVuSans-6d"/>
      <path d="M 50.984375 -16.609375 
L 50.984375 -23.578125 
L -0.984375 -23.578125 
L -0.984375 -16.609375 
z
" id="DejaVuSans-5f"/>
     </defs>
     <g transform="translate(805.591875 40.740187)scale(0.1 -0.1)">
      <use xlink:href="#DejaVuSans-6d"/>
      <use x="97.412109" xlink:href="#DejaVuSans-65"/>
      <use x="158.935547" xlink:href="#DejaVuSans-61"/>
      <use x="220.214844" xlink:href="#DejaVuSans-6e"/>
      <use x="283.59375" xlink:href="#DejaVuSans-5f"/>
      <use x="333.59375" xlink:href="#DejaVuSans-71"/>
      <use x="397.070312" xlink:href="#DejaVuSans-73"/>
      <use x="449.169922" xlink:href="#DejaVuSans-63"/>
      <use x="504.150391" xlink:href="#DejaVuSans-6f"/>
      <use x="565.332031" xlink:href="#DejaVuSans-72"/>
      <use x="606.414062" xlink:href="#DejaVuSans-65"/>
     </g>
    </g>
    <g id="line2d_40">
     <path d="M 777.591875 52.196438 
L 797.591875 52.196438 
" style="fill:none;stroke:#404040;stroke-dasharray:1,1.65;stroke-dashoffset:0;"/>
    </g>
    <g id="text_23">
     <!-- 10% = 10.78 -->
     <defs>
      <path d="M 72.703125 32.078125 
Q 68.453125 32.078125 66.03125 28.46875 
Q 63.625 24.859375 63.625 18.40625 
Q 63.625 12.0625 66.03125 8.421875 
Q 68.453125 4.78125 72.703125 4.78125 
Q 76.859375 4.78125 79.265625 8.421875 
Q 81.6875 12.0625 81.6875 18.40625 
Q 81.6875 24.8125 79.265625 28.4375 
Q 76.859375 32.078125 72.703125 32.078125 
z
M 72.703125 38.28125 
Q 80.421875 38.28125 84.953125 32.90625 
Q 89.5 27.546875 89.5 18.40625 
Q 89.5 9.28125 84.9375 3.921875 
Q 80.375 -1.421875 72.703125 -1.421875 
Q 64.890625 -1.421875 60.34375 3.921875 
Q 55.8125 9.28125 55.8125 18.40625 
Q 55.8125 27.59375 60.375 32.9375 
Q 64.9375 38.28125 72.703125 38.28125 
z
M 22.3125 68.015625 
Q 18.109375 68.015625 15.6875 64.375 
Q 13.28125 60.75 13.28125 54.390625 
Q 13.28125 47.953125 15.671875 44.328125 
Q 18.0625 40.71875 22.3125 40.71875 
Q 26.5625 40.71875 28.96875 44.328125 
Q 31.390625 47.953125 31.390625 54.390625 
Q 31.390625 60.6875 28.953125 64.34375 
Q 26.515625 68.015625 22.3125 68.015625 
z
M 66.40625 74.21875 
L 74.21875 74.21875 
L 28.609375 -1.421875 
L 20.796875 -1.421875 
z
M 22.3125 74.21875 
Q 30.03125 74.21875 34.609375 68.875 
Q 39.203125 63.53125 39.203125 54.390625 
Q 39.203125 45.171875 34.640625 39.84375 
Q 30.078125 34.515625 22.3125 34.515625 
Q 14.546875 34.515625 10.03125 39.859375 
Q 5.515625 45.21875 5.515625 54.390625 
Q 5.515625 63.484375 10.046875 68.84375 
Q 14.59375 74.21875 22.3125 74.21875 
z
" id="DejaVuSans-25"/>
      <path d="M 10.59375 45.40625 
L 73.1875 45.40625 
L 73.1875 37.203125 
L 10.59375 37.203125 
z
M 10.59375 25.484375 
L 73.1875 25.484375 
L 73.1875 17.1875 
L 10.59375 17.1875 
z
" id="DejaVuSans-3d"/>
     </defs>
     <g transform="translate(805.591875 55.696438)scale(0.1 -0.1)">
      <use xlink:href="#DejaVuSans-31"/>
      <use x="63.623047" xlink:href="#DejaVuSans-30"/>
      <use x="127.246094" xlink:href="#DejaVuSans-25"/>
      <use x="222.265625" xlink:href="#DejaVuSans-20"/>
      <use x="254.052734" xlink:href="#DejaVuSans-3d"/>
      <use x="337.841797" xlink:href="#DejaVuSans-20"/>
      <use x="369.628906" xlink:href="#DejaVuSans-31"/>
      <use x="433.251953" xlink:href="#DejaVuSans-30"/>
      <use x="496.875" xlink:href="#DejaVuSans-2e"/>
      <use x="528.662109" xlink:href="#DejaVuSans-37"/>
      <use x="592.285156" xlink:href="#DejaVuSans-38"/>
     </g>
    </g>
    <g id="line2d_41">
     <path d="M 777.591875 66.874562 
L 797.591875 66.874562 
" style="fill:none;stroke:#404040;"/>
    </g>
    <g id="text_24">
     <!-- median = 12.91 -->
     <defs>
      <path d="M 10.984375 1.515625 
L 10.984375 10.5 
Q 14.703125 8.734375 18.5 7.8125 
Q 22.3125 6.890625 25.984375 6.890625 
Q 35.75 6.890625 40.890625 13.453125 
Q 46.046875 20.015625 46.78125 33.40625 
Q 43.953125 29.203125 39.59375 26.953125 
Q 35.25 24.703125 29.984375 24.703125 
Q 19.046875 24.703125 12.671875 31.3125 
Q 6.296875 37.9375 6.296875 49.421875 
Q 6.296875 60.640625 12.9375 67.421875 
Q 19.578125 74.21875 30.609375 74.21875 
Q 43.265625 74.21875 49.921875 64.515625 
Q 56.59375 54.828125 56.59375 36.375 
Q 56.59375 19.140625 48.40625 8.859375 
Q 40.234375 -1.421875 26.421875 -1.421875 
Q 22.703125 -1.421875 18.890625 -0.6875 
Q 15.09375 0.046875 10.984375 1.515625 
z
M 30.609375 32.421875 
Q 37.25 32.421875 41.125 36.953125 
Q 45.015625 41.5 45.015625 49.421875 
Q 45.015625 57.28125 41.125 61.84375 
Q 37.25 66.40625 30.609375 66.40625 
Q 23.96875 66.40625 20.09375 61.84375 
Q 16.21875 57.28125 16.21875 49.421875 
Q 16.21875 41.5 20.09375 36.953125 
Q 23.96875 32.421875 30.609375 32.421875 
z
" id="DejaVuSans-39"/>
     </defs>
     <g transform="translate(805.591875 70.374562)scale(0.1 -0.1)">
      <use xlink:href="#DejaVuSans-6d"/>
      <use x="97.412109" xlink:href="#DejaVuSans-65"/>
      <use x="158.935547" xlink:href="#DejaVuSans-64"/>
      <use x="222.412109" xlink:href="#DejaVuSans-69"/>
      <use x="250.195312" xlink:href="#DejaVuSans-61"/>
      <use x="311.474609" xlink:href="#DejaVuSans-6e"/>
      <use x="374.853516" xlink:href="#DejaVuSans-20"/>
      <use x="406.640625" xlink:href="#DejaVuSans-3d"/>
      <use x="490.429688" xlink:href="#DejaVuSans-20"/>
      <use x="522.216797" xlink:href="#DejaVuSans-31"/>
      <use x="585.839844" xlink:href="#DejaVuSans-32"/>
      <use x="649.462891" xlink:href="#DejaVuSans-2e"/>
      <use x="681.25" xlink:href="#DejaVuSans-39"/>
      <use x="744.873047" xlink:href="#DejaVuSans-31"/>
     </g>
    </g>
    <g id="line2d_42">
     <path d="M 777.591875 81.552687 
L 797.591875 81.552687 
" style="fill:none;stroke:#404040;stroke-dasharray:3.7,1.6;stroke-dashoffset:0;"/>
    </g>
    <g id="text_25">
     <!-- 90% = 16.41 -->
     <g transform="translate(805.591875 85.052687)scale(0.1 -0.1)">
      <use xlink:href="#DejaVuSans-39"/>
      <use x="63.623047" xlink:href="#DejaVuSans-30"/>
      <use x="127.246094" xlink:href="#DejaVuSans-25"/>
      <use x="222.265625" xlink:href="#DejaVuSans-20"/>
      <use x="254.052734" xlink:href="#DejaVuSans-3d"/>
      <use x="337.841797" xlink:href="#DejaVuSans-20"/>
      <use x="369.628906" xlink:href="#DejaVuSans-31"/>
      <use x="433.251953" xlink:href="#DejaVuSans-36"/>
      <use x="496.875" xlink:href="#DejaVuSans-2e"/>
      <use x="528.662109" xlink:href="#DejaVuSans-34"/>
      <use x="592.285156" xlink:href="#DejaVuSans-31"/>
     </g>
    </g>
   </g>
  </g>
 </g>
 <defs>
  <clipPath id="p049608a135">
   <rect height="217.44" width="837" x="58.441875" y="24.14175"/>
  </clipPath>
 </defs>
</svg>
