<?xml version="1.0" encoding="utf-8" standalone="no"?>
<!DOCTYPE svg PUBLIC "-//W3C//DTD SVG 1.1//EN"
  "http://www.w3.org/Graphics/SVG/1.1/DTD/svg11.dtd">
<!-- Created with matplotlib (http://matplotlib.org/) -->
<svg height="281pt" version="1.1" viewBox="0 0 912 281" width="912pt" xmlns="http://www.w3.org/2000/svg" xmlns:xlink="http://www.w3.org/1999/xlink">
 <defs>
  <style type="text/css">
*{stroke-linecap:butt;stroke-linejoin:round;}
  </style>
 </defs>
 <g id="figure_1">
  <g id="patch_1">
   <path d="M 0 281.073625 
L 912.185625 281.073625 
L 912.185625 0 
L 0 0 
z
" style="fill:#ffffff;"/>
  </g>
  <g id="axes_1">
   <g id="patch_2">
    <path d="M 58.441875 241.58175 
L 895.441875 241.58175 
L 895.441875 24.14175 
L 58.441875 24.14175 
z
" style="fill:#e5e5e5;"/>
   </g>
   <g id="matplotlib.axis_1">
    <g id="xtick_1">
     <g id="line2d_1">
      <path clip-path="url(#p42eed56ca9)" d="M 58.441875 241.58175 
L 58.441875 24.14175 
" style="fill:none;stroke:#ffffff;stroke-linecap:square;stroke-width:0.8;"/>
     </g>
     <g id="line2d_2">
      <defs>
       <path d="M 0 0 
L 0 3.5 
" id="m4055eae801" style="stroke:#555555;stroke-width:0.8;"/>
      </defs>
      <g>
       <use style="fill:#555555;stroke:#555555;stroke-width:0.8;" x="58.441875" xlink:href="#m4055eae801" y="241.58175"/>
      </g>
     </g>
     <g id="text_1">
      <!-- 0 -->
      <defs>
       <path d="M 31.78125 66.40625 
Q 24.171875 66.40625 20.328125 58.90625 
Q 16.5 51.421875 16.5 36.375 
Q 16.5 21.390625 20.328125 13.890625 
Q 24.171875 6.390625 31.78125 6.390625 
Q 39.453125 6.390625 43.28125 13.890625 
Q 47.125 21.390625 47.125 36.375 
Q 47.125 51.421875 43.28125 58.90625 
Q 39.453125 66.40625 31.78125 66.40625 
z
M 31.78125 74.21875 
Q 44.046875 74.21875 50.515625 64.515625 
Q 56.984375 54.828125 56.984375 36.375 
Q 56.984375 17.96875 50.515625 8.265625 
Q 44.046875 -1.421875 31.78125 -1.421875 
Q 19.53125 -1.421875 13.0625 8.265625 
Q 6.59375 17.96875 6.59375 36.375 
Q 6.59375 54.828125 13.0625 64.515625 
Q 19.53125 74.21875 31.78125 74.21875 
z
" id="DejaVuSans-30"/>
      </defs>
      <g style="fill:#555555;" transform="translate(55.260625 256.180187)scale(0.1 -0.1)">
       <use xlink:href="#DejaVuSans-30"/>
      </g>
     </g>
    </g>
    <g id="xtick_2">
     <g id="line2d_3">
      <path clip-path="url(#p42eed56ca9)" d="M 197.941875 241.58175 
L 197.941875 24.14175 
" style="fill:none;stroke:#ffffff;stroke-linecap:square;stroke-width:0.8;"/>
     </g>
     <g id="line2d_4">
      <g>
       <use style="fill:#555555;stroke:#555555;stroke-width:0.8;" x="197.941875" xlink:href="#m4055eae801" y="241.58175"/>
      </g>
     </g>
     <g id="text_2">
      <!-- 100 -->
      <defs>
       <path d="M 12.40625 8.296875 
L 28.515625 8.296875 
L 28.515625 63.921875 
L 10.984375 60.40625 
L 10.984375 69.390625 
L 28.421875 72.90625 
L 38.28125 72.90625 
L 38.28125 8.296875 
L 54.390625 8.296875 
L 54.390625 0 
L 12.40625 0 
z
" id="DejaVuSans-31"/>
      </defs>
      <g style="fill:#555555;" transform="translate(188.398125 256.180187)scale(0.1 -0.1)">
       <use xlink:href="#DejaVuSans-31"/>
       <use x="63.623047" xlink:href="#DejaVuSans-30"/>
       <use x="127.246094" xlink:href="#DejaVuSans-30"/>
      </g>
     </g>
    </g>
    <g id="xtick_3">
     <g id="line2d_5">
      <path clip-path="url(#p42eed56ca9)" d="M 337.441875 241.58175 
L 337.441875 24.14175 
" style="fill:none;stroke:#ffffff;stroke-linecap:square;stroke-width:0.8;"/>
     </g>
     <g id="line2d_6">
      <g>
       <use style="fill:#555555;stroke:#555555;stroke-width:0.8;" x="337.441875" xlink:href="#m4055eae801" y="241.58175"/>
      </g>
     </g>
     <g id="text_3">
      <!-- 200 -->
      <defs>
       <path d="M 19.1875 8.296875 
L 53.609375 8.296875 
L 53.609375 0 
L 7.328125 0 
L 7.328125 8.296875 
Q 12.9375 14.109375 22.625 23.890625 
Q 32.328125 33.6875 34.8125 36.53125 
Q 39.546875 41.84375 41.421875 45.53125 
Q 43.3125 49.21875 43.3125 52.78125 
Q 43.3125 58.59375 39.234375 62.25 
Q 35.15625 65.921875 28.609375 65.921875 
Q 23.96875 65.921875 18.8125 64.3125 
Q 13.671875 62.703125 7.8125 59.421875 
L 7.8125 69.390625 
Q 13.765625 71.78125 18.9375 73 
Q 24.125 74.21875 28.421875 74.21875 
Q 39.75 74.21875 46.484375 68.546875 
Q 53.21875 62.890625 53.21875 53.421875 
Q 53.21875 48.921875 51.53125 44.890625 
Q 49.859375 40.875 45.40625 35.40625 
Q 44.1875 33.984375 37.640625 27.21875 
Q 31.109375 20.453125 19.1875 8.296875 
z
" id="DejaVuSans-32"/>
      </defs>
      <g style="fill:#555555;" transform="translate(327.898125 256.180187)scale(0.1 -0.1)">
       <use xlink:href="#DejaVuSans-32"/>
       <use x="63.623047" xlink:href="#DejaVuSans-30"/>
       <use x="127.246094" xlink:href="#DejaVuSans-30"/>
      </g>
     </g>
    </g>
    <g id="xtick_4">
     <g id="line2d_7">
      <path clip-path="url(#p42eed56ca9)" d="M 476.941875 241.58175 
L 476.941875 24.14175 
" style="fill:none;stroke:#ffffff;stroke-linecap:square;stroke-width:0.8;"/>
     </g>
     <g id="line2d_8">
      <g>
       <use style="fill:#555555;stroke:#555555;stroke-width:0.8;" x="476.941875" xlink:href="#m4055eae801" y="241.58175"/>
      </g>
     </g>
     <g id="text_4">
      <!-- 300 -->
      <defs>
       <path d="M 40.578125 39.3125 
Q 47.65625 37.796875 51.625 33 
Q 55.609375 28.21875 55.609375 21.1875 
Q 55.609375 10.40625 48.1875 4.484375 
Q 40.765625 -1.421875 27.09375 -1.421875 
Q 22.515625 -1.421875 17.65625 -0.515625 
Q 12.796875 0.390625 7.625 2.203125 
L 7.625 11.71875 
Q 11.71875 9.328125 16.59375 8.109375 
Q 21.484375 6.890625 26.8125 6.890625 
Q 36.078125 6.890625 40.9375 10.546875 
Q 45.796875 14.203125 45.796875 21.1875 
Q 45.796875 27.640625 41.28125 31.265625 
Q 36.765625 34.90625 28.71875 34.90625 
L 20.21875 34.90625 
L 20.21875 43.015625 
L 29.109375 43.015625 
Q 36.375 43.015625 40.234375 45.921875 
Q 44.09375 48.828125 44.09375 54.296875 
Q 44.09375 59.90625 40.109375 62.90625 
Q 36.140625 65.921875 28.71875 65.921875 
Q 24.65625 65.921875 20.015625 65.03125 
Q 15.375 64.15625 9.8125 62.3125 
L 9.8125 71.09375 
Q 15.4375 72.65625 20.34375 73.4375 
Q 25.25 74.21875 29.59375 74.21875 
Q 40.828125 74.21875 47.359375 69.109375 
Q 53.90625 64.015625 53.90625 55.328125 
Q 53.90625 49.265625 50.4375 45.09375 
Q 46.96875 40.921875 40.578125 39.3125 
z
" id="DejaVuSans-33"/>
      </defs>
      <g style="fill:#555555;" transform="translate(467.398125 256.180187)scale(0.1 -0.1)">
       <use xlink:href="#DejaVuSans-33"/>
       <use x="63.623047" xlink:href="#DejaVuSans-30"/>
       <use x="127.246094" xlink:href="#DejaVuSans-30"/>
      </g>
     </g>
    </g>
    <g id="xtick_5">
     <g id="line2d_9">
      <path clip-path="url(#p42eed56ca9)" d="M 616.441875 241.58175 
L 616.441875 24.14175 
" style="fill:none;stroke:#ffffff;stroke-linecap:square;stroke-width:0.8;"/>
     </g>
     <g id="line2d_10">
      <g>
       <use style="fill:#555555;stroke:#555555;stroke-width:0.8;" x="616.441875" xlink:href="#m4055eae801" y="241.58175"/>
      </g>
     </g>
     <g id="text_5">
      <!-- 400 -->
      <defs>
       <path d="M 37.796875 64.3125 
L 12.890625 25.390625 
L 37.796875 25.390625 
z
M 35.203125 72.90625 
L 47.609375 72.90625 
L 47.609375 25.390625 
L 58.015625 25.390625 
L 58.015625 17.1875 
L 47.609375 17.1875 
L 47.609375 0 
L 37.796875 0 
L 37.796875 17.1875 
L 4.890625 17.1875 
L 4.890625 26.703125 
z
" id="DejaVuSans-34"/>
      </defs>
      <g style="fill:#555555;" transform="translate(606.898125 256.180187)scale(0.1 -0.1)">
       <use xlink:href="#DejaVuSans-34"/>
       <use x="63.623047" xlink:href="#DejaVuSans-30"/>
       <use x="127.246094" xlink:href="#DejaVuSans-30"/>
      </g>
     </g>
    </g>
    <g id="xtick_6">
     <g id="line2d_11">
      <path clip-path="url(#p42eed56ca9)" d="M 755.941875 241.58175 
L 755.941875 24.14175 
" style="fill:none;stroke:#ffffff;stroke-linecap:square;stroke-width:0.8;"/>
     </g>
     <g id="line2d_12">
      <g>
       <use style="fill:#555555;stroke:#555555;stroke-width:0.8;" x="755.941875" xlink:href="#m4055eae801" y="241.58175"/>
      </g>
     </g>
     <g id="text_6">
      <!-- 500 -->
      <defs>
       <path d="M 10.796875 72.90625 
L 49.515625 72.90625 
L 49.515625 64.59375 
L 19.828125 64.59375 
L 19.828125 46.734375 
Q 21.96875 47.46875 24.109375 47.828125 
Q 26.265625 48.1875 28.421875 48.1875 
Q 40.625 48.1875 47.75 41.5 
Q 54.890625 34.8125 54.890625 23.390625 
Q 54.890625 11.625 47.5625 5.09375 
Q 40.234375 -1.421875 26.90625 -1.421875 
Q 22.3125 -1.421875 17.546875 -0.640625 
Q 12.796875 0.140625 7.71875 1.703125 
L 7.71875 11.625 
Q 12.109375 9.234375 16.796875 8.0625 
Q 21.484375 6.890625 26.703125 6.890625 
Q 35.15625 6.890625 40.078125 11.328125 
Q 45.015625 15.765625 45.015625 23.390625 
Q 45.015625 31 40.078125 35.4375 
Q 35.15625 39.890625 26.703125 39.890625 
Q 22.75 39.890625 18.8125 39.015625 
Q 14.890625 38.140625 10.796875 36.28125 
z
" id="DejaVuSans-35"/>
      </defs>
      <g style="fill:#555555;" transform="translate(746.398125 256.180187)scale(0.1 -0.1)">
       <use xlink:href="#DejaVuSans-35"/>
       <use x="63.623047" xlink:href="#DejaVuSans-30"/>
       <use x="127.246094" xlink:href="#DejaVuSans-30"/>
      </g>
     </g>
    </g>
    <g id="xtick_7">
     <g id="line2d_13">
      <path clip-path="url(#p42eed56ca9)" d="M 895.441875 241.58175 
L 895.441875 24.14175 
" style="fill:none;stroke:#ffffff;stroke-linecap:square;stroke-width:0.8;"/>
     </g>
     <g id="line2d_14">
      <g>
       <use style="fill:#555555;stroke:#555555;stroke-width:0.8;" x="895.441875" xlink:href="#m4055eae801" y="241.58175"/>
      </g>
     </g>
     <g id="text_7">
      <!-- 600 -->
      <defs>
       <path d="M 33.015625 40.375 
Q 26.375 40.375 22.484375 35.828125 
Q 18.609375 31.296875 18.609375 23.390625 
Q 18.609375 15.53125 22.484375 10.953125 
Q 26.375 6.390625 33.015625 6.390625 
Q 39.65625 6.390625 43.53125 10.953125 
Q 47.40625 15.53125 47.40625 23.390625 
Q 47.40625 31.296875 43.53125 35.828125 
Q 39.65625 40.375 33.015625 40.375 
z
M 52.59375 71.296875 
L 52.59375 62.3125 
Q 48.875 64.0625 45.09375 64.984375 
Q 41.3125 65.921875 37.59375 65.921875 
Q 27.828125 65.921875 22.671875 59.328125 
Q 17.53125 52.734375 16.796875 39.40625 
Q 19.671875 43.65625 24.015625 45.921875 
Q 28.375 48.1875 33.59375 48.1875 
Q 44.578125 48.1875 50.953125 41.515625 
Q 57.328125 34.859375 57.328125 23.390625 
Q 57.328125 12.15625 50.6875 5.359375 
Q 44.046875 -1.421875 33.015625 -1.421875 
Q 20.359375 -1.421875 13.671875 8.265625 
Q 6.984375 17.96875 6.984375 36.375 
Q 6.984375 53.65625 15.1875 63.9375 
Q 23.390625 74.21875 37.203125 74.21875 
Q 40.921875 74.21875 44.703125 73.484375 
Q 48.484375 72.75 52.59375 71.296875 
z
" id="DejaVuSans-36"/>
      </defs>
      <g style="fill:#555555;" transform="translate(885.898125 256.180187)scale(0.1 -0.1)">
       <use xlink:href="#DejaVuSans-36"/>
       <use x="63.623047" xlink:href="#DejaVuSans-30"/>
       <use x="127.246094" xlink:href="#DejaVuSans-30"/>
      </g>
     </g>
    </g>
    <g id="text_8">
     <!-- Mean read length -->
     <defs>
      <path d="M 9.8125 72.90625 
L 24.515625 72.90625 
L 43.109375 23.296875 
L 61.8125 72.90625 
L 76.515625 72.90625 
L 76.515625 0 
L 66.890625 0 
L 66.890625 64.015625 
L 48.09375 14.015625 
L 38.1875 14.015625 
L 19.390625 64.015625 
L 19.390625 0 
L 9.8125 0 
z
" id="DejaVuSans-4d"/>
      <path d="M 56.203125 29.59375 
L 56.203125 25.203125 
L 14.890625 25.203125 
Q 15.484375 15.921875 20.484375 11.0625 
Q 25.484375 6.203125 34.421875 6.203125 
Q 39.59375 6.203125 44.453125 7.46875 
Q 49.3125 8.734375 54.109375 11.28125 
L 54.109375 2.78125 
Q 49.265625 0.734375 44.1875 -0.34375 
Q 39.109375 -1.421875 33.890625 -1.421875 
Q 20.796875 -1.421875 13.15625 6.1875 
Q 5.515625 13.8125 5.515625 26.8125 
Q 5.515625 40.234375 12.765625 48.109375 
Q 20.015625 56 32.328125 56 
Q 43.359375 56 49.78125 48.890625 
Q 56.203125 41.796875 56.203125 29.59375 
z
M 47.21875 32.234375 
Q 47.125 39.59375 43.09375 43.984375 
Q 39.0625 48.390625 32.421875 48.390625 
Q 24.90625 48.390625 20.390625 44.140625 
Q 15.875 39.890625 15.1875 32.171875 
z
" id="DejaVuSans-65"/>
      <path d="M 34.28125 27.484375 
Q 23.390625 27.484375 19.1875 25 
Q 14.984375 22.515625 14.984375 16.5 
Q 14.984375 11.71875 18.140625 8.90625 
Q 21.296875 6.109375 26.703125 6.109375 
Q 34.1875 6.109375 38.703125 11.40625 
Q 43.21875 16.703125 43.21875 25.484375 
L 43.21875 27.484375 
z
M 52.203125 31.203125 
L 52.203125 0 
L 43.21875 0 
L 43.21875 8.296875 
Q 40.140625 3.328125 35.546875 0.953125 
Q 30.953125 -1.421875 24.3125 -1.421875 
Q 15.921875 -1.421875 10.953125 3.296875 
Q 6 8.015625 6 15.921875 
Q 6 25.140625 12.171875 29.828125 
Q 18.359375 34.515625 30.609375 34.515625 
L 43.21875 34.515625 
L 43.21875 35.40625 
Q 43.21875 41.609375 39.140625 45 
Q 35.0625 48.390625 27.6875 48.390625 
Q 23 48.390625 18.546875 47.265625 
Q 14.109375 46.140625 10.015625 43.890625 
L 10.015625 52.203125 
Q 14.9375 54.109375 19.578125 55.046875 
Q 24.21875 56 28.609375 56 
Q 40.484375 56 46.34375 49.84375 
Q 52.203125 43.703125 52.203125 31.203125 
z
" id="DejaVuSans-61"/>
      <path d="M 54.890625 33.015625 
L 54.890625 0 
L 45.90625 0 
L 45.90625 32.71875 
Q 45.90625 40.484375 42.875 44.328125 
Q 39.84375 48.1875 33.796875 48.1875 
Q 26.515625 48.1875 22.3125 43.546875 
Q 18.109375 38.921875 18.109375 30.90625 
L 18.109375 0 
L 9.078125 0 
L 9.078125 54.6875 
L 18.109375 54.6875 
L 18.109375 46.1875 
Q 21.34375 51.125 25.703125 53.5625 
Q 30.078125 56 35.796875 56 
Q 45.21875 56 50.046875 50.171875 
Q 54.890625 44.34375 54.890625 33.015625 
z
" id="DejaVuSans-6e"/>
      <path id="DejaVuSans-20"/>
      <path d="M 41.109375 46.296875 
Q 39.59375 47.171875 37.8125 47.578125 
Q 36.03125 48 33.890625 48 
Q 26.265625 48 22.1875 43.046875 
Q 18.109375 38.09375 18.109375 28.8125 
L 18.109375 0 
L 9.078125 0 
L 9.078125 54.6875 
L 18.109375 54.6875 
L 18.109375 46.1875 
Q 20.953125 51.171875 25.484375 53.578125 
Q 30.03125 56 36.53125 56 
Q 37.453125 56 38.578125 55.875 
Q 39.703125 55.765625 41.0625 55.515625 
z
" id="DejaVuSans-72"/>
      <path d="M 45.40625 46.390625 
L 45.40625 75.984375 
L 54.390625 75.984375 
L 54.390625 0 
L 45.40625 0 
L 45.40625 8.203125 
Q 42.578125 3.328125 38.25 0.953125 
Q 33.9375 -1.421875 27.875 -1.421875 
Q 17.96875 -1.421875 11.734375 6.484375 
Q 5.515625 14.40625 5.515625 27.296875 
Q 5.515625 40.1875 11.734375 48.09375 
Q 17.96875 56 27.875 56 
Q 33.9375 56 38.25 53.625 
Q 42.578125 51.265625 45.40625 46.390625 
z
M 14.796875 27.296875 
Q 14.796875 17.390625 18.875 11.75 
Q 22.953125 6.109375 30.078125 6.109375 
Q 37.203125 6.109375 41.296875 11.75 
Q 45.40625 17.390625 45.40625 27.296875 
Q 45.40625 37.203125 41.296875 42.84375 
Q 37.203125 48.484375 30.078125 48.484375 
Q 22.953125 48.484375 18.875 42.84375 
Q 14.796875 37.203125 14.796875 27.296875 
z
" id="DejaVuSans-64"/>
      <path d="M 9.421875 75.984375 
L 18.40625 75.984375 
L 18.40625 0 
L 9.421875 0 
z
" id="DejaVuSans-6c"/>
      <path d="M 45.40625 27.984375 
Q 45.40625 37.75 41.375 43.109375 
Q 37.359375 48.484375 30.078125 48.484375 
Q 22.859375 48.484375 18.828125 43.109375 
Q 14.796875 37.75 14.796875 27.984375 
Q 14.796875 18.265625 18.828125 12.890625 
Q 22.859375 7.515625 30.078125 7.515625 
Q 37.359375 7.515625 41.375 12.890625 
Q 45.40625 18.265625 45.40625 27.984375 
z
M 54.390625 6.78125 
Q 54.390625 -7.171875 48.1875 -13.984375 
Q 42 -20.796875 29.203125 -20.796875 
Q 24.46875 -20.796875 20.265625 -20.09375 
Q 16.0625 -19.390625 12.109375 -17.921875 
L 12.109375 -9.1875 
Q 16.0625 -11.328125 19.921875 -12.34375 
Q 23.78125 -13.375 27.78125 -13.375 
Q 36.625 -13.375 41.015625 -8.765625 
Q 45.40625 -4.15625 45.40625 5.171875 
L 45.40625 9.625 
Q 42.625 4.78125 38.28125 2.390625 
Q 33.9375 0 27.875 0 
Q 17.828125 0 11.671875 7.65625 
Q 5.515625 15.328125 5.515625 27.984375 
Q 5.515625 40.671875 11.671875 48.328125 
Q 17.828125 56 27.875 56 
Q 33.9375 56 38.28125 53.609375 
Q 42.625 51.21875 45.40625 46.390625 
L 45.40625 54.6875 
L 54.390625 54.6875 
z
" id="DejaVuSans-67"/>
      <path d="M 18.3125 70.21875 
L 18.3125 54.6875 
L 36.8125 54.6875 
L 36.8125 47.703125 
L 18.3125 47.703125 
L 18.3125 18.015625 
Q 18.3125 11.328125 20.140625 9.421875 
Q 21.96875 7.515625 27.59375 7.515625 
L 36.8125 7.515625 
L 36.8125 0 
L 27.59375 0 
Q 17.1875 0 13.234375 3.875 
Q 9.28125 7.765625 9.28125 18.015625 
L 9.28125 47.703125 
L 2.6875 47.703125 
L 2.6875 54.6875 
L 9.28125 54.6875 
L 9.28125 70.21875 
z
" id="DejaVuSans-74"/>
      <path d="M 54.890625 33.015625 
L 54.890625 0 
L 45.90625 0 
L 45.90625 32.71875 
Q 45.90625 40.484375 42.875 44.328125 
Q 39.84375 48.1875 33.796875 48.1875 
Q 26.515625 48.1875 22.3125 43.546875 
Q 18.109375 38.921875 18.109375 30.90625 
L 18.109375 0 
L 9.078125 0 
L 9.078125 75.984375 
L 18.109375 75.984375 
L 18.109375 46.1875 
Q 21.34375 51.125 25.703125 53.5625 
Q 30.078125 56 35.796875 56 
Q 45.21875 56 50.046875 50.171875 
Q 54.890625 44.34375 54.890625 33.015625 
z
" id="DejaVuSans-68"/>
     </defs>
     <g style="fill:#555555;" transform="translate(424.0125 271.378)scale(0.12 -0.12)">
      <use xlink:href="#DejaVuSans-4d"/>
      <use x="86.279297" xlink:href="#DejaVuSans-65"/>
      <use x="147.802734" xlink:href="#DejaVuSans-61"/>
      <use x="209.082031" xlink:href="#DejaVuSans-6e"/>
      <use x="272.460938" xlink:href="#DejaVuSans-20"/>
      <use x="304.248047" xlink:href="#DejaVuSans-72"/>
      <use x="345.330078" xlink:href="#DejaVuSans-65"/>
      <use x="406.853516" xlink:href="#DejaVuSans-61"/>
      <use x="468.132812" xlink:href="#DejaVuSans-64"/>
      <use x="531.609375" xlink:href="#DejaVuSans-20"/>
      <use x="563.396484" xlink:href="#DejaVuSans-6c"/>
      <use x="591.179688" xlink:href="#DejaVuSans-65"/>
      <use x="652.703125" xlink:href="#DejaVuSans-6e"/>
      <use x="716.082031" xlink:href="#DejaVuSans-67"/>
      <use x="779.558594" xlink:href="#DejaVuSans-74"/>
      <use x="818.767578" xlink:href="#DejaVuSans-68"/>
     </g>
    </g>
   </g>
   <g id="matplotlib.axis_2">
    <g id="ytick_1">
     <g id="line2d_15">
      <path clip-path="url(#p42eed56ca9)" d="M 58.441875 241.58175 
L 895.441875 241.58175 
" style="fill:none;stroke:#ffffff;stroke-linecap:square;stroke-width:0.8;"/>
     </g>
     <g id="line2d_16">
      <defs>
       <path d="M 0 0 
L -3.5 0 
" id="m2f3cc1e9f1" style="stroke:#555555;stroke-width:0.8;"/>
      </defs>
      <g>
       <use style="fill:#555555;stroke:#555555;stroke-width:0.8;" x="58.441875" xlink:href="#m2f3cc1e9f1" y="241.58175"/>
      </g>
     </g>
     <g id="text_9">
      <!-- 0.000 -->
      <defs>
       <path d="M 10.6875 12.40625 
L 21 12.40625 
L 21 0 
L 10.6875 0 
z
" id="DejaVuSans-2e"/>
      </defs>
      <g style="fill:#555555;" transform="translate(22.81375 245.380969)scale(0.1 -0.1)">
       <use xlink:href="#DejaVuSans-30"/>
       <use x="63.623047" xlink:href="#DejaVuSans-2e"/>
       <use x="95.410156" xlink:href="#DejaVuSans-30"/>
       <use x="159.033203" xlink:href="#DejaVuSans-30"/>
       <use x="222.65625" xlink:href="#DejaVuSans-30"/>
      </g>
     </g>
    </g>
    <g id="ytick_2">
     <g id="line2d_17">
      <path clip-path="url(#p42eed56ca9)" d="M 58.441875 215.057595 
L 895.441875 215.057595 
" style="fill:none;stroke:#ffffff;stroke-linecap:square;stroke-width:0.8;"/>
     </g>
     <g id="line2d_18">
      <g>
       <use style="fill:#555555;stroke:#555555;stroke-width:0.8;" x="58.441875" xlink:href="#m2f3cc1e9f1" y="215.057595"/>
      </g>
     </g>
     <g id="text_10">
      <!-- 0.001 -->
      <g style="fill:#555555;" transform="translate(22.81375 218.856813)scale(0.1 -0.1)">
       <use xlink:href="#DejaVuSans-30"/>
       <use x="63.623047" xlink:href="#DejaVuSans-2e"/>
       <use x="95.410156" xlink:href="#DejaVuSans-30"/>
       <use x="159.033203" xlink:href="#DejaVuSans-30"/>
       <use x="222.65625" xlink:href="#DejaVuSans-31"/>
      </g>
     </g>
    </g>
    <g id="ytick_3">
     <g id="line2d_19">
      <path clip-path="url(#p42eed56ca9)" d="M 58.441875 188.533439 
L 895.441875 188.533439 
" style="fill:none;stroke:#ffffff;stroke-linecap:square;stroke-width:0.8;"/>
     </g>
     <g id="line2d_20">
      <g>
       <use style="fill:#555555;stroke:#555555;stroke-width:0.8;" x="58.441875" xlink:href="#m2f3cc1e9f1" y="188.533439"/>
      </g>
     </g>
     <g id="text_11">
      <!-- 0.002 -->
      <g style="fill:#555555;" transform="translate(22.81375 192.332658)scale(0.1 -0.1)">
       <use xlink:href="#DejaVuSans-30"/>
       <use x="63.623047" xlink:href="#DejaVuSans-2e"/>
       <use x="95.410156" xlink:href="#DejaVuSans-30"/>
       <use x="159.033203" xlink:href="#DejaVuSans-30"/>
       <use x="222.65625" xlink:href="#DejaVuSans-32"/>
      </g>
     </g>
    </g>
    <g id="ytick_4">
     <g id="line2d_21">
      <path clip-path="url(#p42eed56ca9)" d="M 58.441875 162.009284 
L 895.441875 162.009284 
" style="fill:none;stroke:#ffffff;stroke-linecap:square;stroke-width:0.8;"/>
     </g>
     <g id="line2d_22">
      <g>
       <use style="fill:#555555;stroke:#555555;stroke-width:0.8;" x="58.441875" xlink:href="#m2f3cc1e9f1" y="162.009284"/>
      </g>
     </g>
     <g id="text_12">
      <!-- 0.003 -->
      <g style="fill:#555555;" transform="translate(22.81375 165.808503)scale(0.1 -0.1)">
       <use xlink:href="#DejaVuSans-30"/>
       <use x="63.623047" xlink:href="#DejaVuSans-2e"/>
       <use x="95.410156" xlink:href="#DejaVuSans-30"/>
       <use x="159.033203" xlink:href="#DejaVuSans-30"/>
       <use x="222.65625" xlink:href="#DejaVuSans-33"/>
      </g>
     </g>
    </g>
    <g id="ytick_5">
     <g id="line2d_23">
      <path clip-path="url(#p42eed56ca9)" d="M 58.441875 135.485128 
L 895.441875 135.485128 
" style="fill:none;stroke:#ffffff;stroke-linecap:square;stroke-width:0.8;"/>
     </g>
     <g id="line2d_24">
      <g>
       <use style="fill:#555555;stroke:#555555;stroke-width:0.8;" x="58.441875" xlink:href="#m2f3cc1e9f1" y="135.485128"/>
      </g>
     </g>
     <g id="text_13">
      <!-- 0.004 -->
      <g style="fill:#555555;" transform="translate(22.81375 139.284347)scale(0.1 -0.1)">
       <use xlink:href="#DejaVuSans-30"/>
       <use x="63.623047" xlink:href="#DejaVuSans-2e"/>
       <use x="95.410156" xlink:href="#DejaVuSans-30"/>
       <use x="159.033203" xlink:href="#DejaVuSans-30"/>
       <use x="222.65625" xlink:href="#DejaVuSans-34"/>
      </g>
     </g>
    </g>
    <g id="ytick_6">
     <g id="line2d_25">
      <path clip-path="url(#p42eed56ca9)" d="M 58.441875 108.960973 
L 895.441875 108.960973 
" style="fill:none;stroke:#ffffff;stroke-linecap:square;stroke-width:0.8;"/>
     </g>
     <g id="line2d_26">
      <g>
       <use style="fill:#555555;stroke:#555555;stroke-width:0.8;" x="58.441875" xlink:href="#m2f3cc1e9f1" y="108.960973"/>
      </g>
     </g>
     <g id="text_14">
      <!-- 0.005 -->
      <g style="fill:#555555;" transform="translate(22.81375 112.760192)scale(0.1 -0.1)">
       <use xlink:href="#DejaVuSans-30"/>
       <use x="63.623047" xlink:href="#DejaVuSans-2e"/>
       <use x="95.410156" xlink:href="#DejaVuSans-30"/>
       <use x="159.033203" xlink:href="#DejaVuSans-30"/>
       <use x="222.65625" xlink:href="#DejaVuSans-35"/>
      </g>
     </g>
    </g>
    <g id="ytick_7">
     <g id="line2d_27">
      <path clip-path="url(#p42eed56ca9)" d="M 58.441875 82.436818 
L 895.441875 82.436818 
" style="fill:none;stroke:#ffffff;stroke-linecap:square;stroke-width:0.8;"/>
     </g>
     <g id="line2d_28">
      <g>
       <use style="fill:#555555;stroke:#555555;stroke-width:0.8;" x="58.441875" xlink:href="#m2f3cc1e9f1" y="82.436818"/>
      </g>
     </g>
     <g id="text_15">
      <!-- 0.006 -->
      <g style="fill:#555555;" transform="translate(22.81375 86.236036)scale(0.1 -0.1)">
       <use xlink:href="#DejaVuSans-30"/>
       <use x="63.623047" xlink:href="#DejaVuSans-2e"/>
       <use x="95.410156" xlink:href="#DejaVuSans-30"/>
       <use x="159.033203" xlink:href="#DejaVuSans-30"/>
       <use x="222.65625" xlink:href="#DejaVuSans-36"/>
      </g>
     </g>
    </g>
    <g id="ytick_8">
     <g id="line2d_29">
      <path clip-path="url(#p42eed56ca9)" d="M 58.441875 55.912662 
L 895.441875 55.912662 
" style="fill:none;stroke:#ffffff;stroke-linecap:square;stroke-width:0.8;"/>
     </g>
     <g id="line2d_30">
      <g>
       <use style="fill:#555555;stroke:#555555;stroke-width:0.8;" x="58.441875" xlink:href="#m2f3cc1e9f1" y="55.912662"/>
      </g>
     </g>
     <g id="text_16">
      <!-- 0.007 -->
      <defs>
       <path d="M 8.203125 72.90625 
L 55.078125 72.90625 
L 55.078125 68.703125 
L 28.609375 0 
L 18.3125 0 
L 43.21875 64.59375 
L 8.203125 64.59375 
z
" id="DejaVuSans-37"/>
      </defs>
      <g style="fill:#555555;" transform="translate(22.81375 59.711881)scale(0.1 -0.1)">
       <use xlink:href="#DejaVuSans-30"/>
       <use x="63.623047" xlink:href="#DejaVuSans-2e"/>
       <use x="95.410156" xlink:href="#DejaVuSans-30"/>
       <use x="159.033203" xlink:href="#DejaVuSans-30"/>
       <use x="222.65625" xlink:href="#DejaVuSans-37"/>
      </g>
     </g>
    </g>
    <g id="ytick_9">
     <g id="line2d_31">
      <path clip-path="url(#p42eed56ca9)" d="M 58.441875 29.388507 
L 895.441875 29.388507 
" style="fill:none;stroke:#ffffff;stroke-linecap:square;stroke-width:0.8;"/>
     </g>
     <g id="line2d_32">
      <g>
       <use style="fill:#555555;stroke:#555555;stroke-width:0.8;" x="58.441875" xlink:href="#m2f3cc1e9f1" y="29.388507"/>
      </g>
     </g>
     <g id="text_17">
      <!-- 0.008 -->
      <defs>
       <path d="M 31.78125 34.625 
Q 24.75 34.625 20.71875 30.859375 
Q 16.703125 27.09375 16.703125 20.515625 
Q 16.703125 13.921875 20.71875 10.15625 
Q 24.75 6.390625 31.78125 6.390625 
Q 38.8125 6.390625 42.859375 10.171875 
Q 46.921875 13.96875 46.921875 20.515625 
Q 46.921875 27.09375 42.890625 30.859375 
Q 38.875 34.625 31.78125 34.625 
z
M 21.921875 38.8125 
Q 15.578125 40.375 12.03125 44.71875 
Q 8.5 49.078125 8.5 55.328125 
Q 8.5 64.0625 14.71875 69.140625 
Q 20.953125 74.21875 31.78125 74.21875 
Q 42.671875 74.21875 48.875 69.140625 
Q 55.078125 64.0625 55.078125 55.328125 
Q 55.078125 49.078125 51.53125 44.71875 
Q 48 40.375 41.703125 38.8125 
Q 48.828125 37.15625 52.796875 32.3125 
Q 56.78125 27.484375 56.78125 20.515625 
Q 56.78125 9.90625 50.3125 4.234375 
Q 43.84375 -1.421875 31.78125 -1.421875 
Q 19.734375 -1.421875 13.25 4.234375 
Q 6.78125 9.90625 6.78125 20.515625 
Q 6.78125 27.484375 10.78125 32.3125 
Q 14.796875 37.15625 21.921875 38.8125 
z
M 18.3125 54.390625 
Q 18.3125 48.734375 21.84375 45.5625 
Q 25.390625 42.390625 31.78125 42.390625 
Q 38.140625 42.390625 41.71875 45.5625 
Q 45.3125 48.734375 45.3125 54.390625 
Q 45.3125 60.0625 41.71875 63.234375 
Q 38.140625 66.40625 31.78125 66.40625 
Q 25.390625 66.40625 21.84375 63.234375 
Q 18.3125 60.0625 18.3125 54.390625 
z
" id="DejaVuSans-38"/>
      </defs>
      <g style="fill:#555555;" transform="translate(22.81375 33.187726)scale(0.1 -0.1)">
       <use xlink:href="#DejaVuSans-30"/>
       <use x="63.623047" xlink:href="#DejaVuSans-2e"/>
       <use x="95.410156" xlink:href="#DejaVuSans-30"/>
       <use x="159.033203" xlink:href="#DejaVuSans-30"/>
       <use x="222.65625" xlink:href="#DejaVuSans-38"/>
      </g>
     </g>
    </g>
    <g id="text_18">
     <!-- Read Frequency -->
     <defs>
      <path d="M 44.390625 34.1875 
Q 47.5625 33.109375 50.5625 29.59375 
Q 53.5625 26.078125 56.59375 19.921875 
L 66.609375 0 
L 56 0 
L 46.6875 18.703125 
Q 43.0625 26.03125 39.671875 28.421875 
Q 36.28125 30.8125 30.421875 30.8125 
L 19.671875 30.8125 
L 19.671875 0 
L 9.8125 0 
L 9.8125 72.90625 
L 32.078125 72.90625 
Q 44.578125 72.90625 50.734375 67.671875 
Q 56.890625 62.453125 56.890625 51.90625 
Q 56.890625 45.015625 53.6875 40.46875 
Q 50.484375 35.9375 44.390625 34.1875 
z
M 19.671875 64.796875 
L 19.671875 38.921875 
L 32.078125 38.921875 
Q 39.203125 38.921875 42.84375 42.21875 
Q 46.484375 45.515625 46.484375 51.90625 
Q 46.484375 58.296875 42.84375 61.546875 
Q 39.203125 64.796875 32.078125 64.796875 
z
" id="DejaVuSans-52"/>
      <path d="M 9.8125 72.90625 
L 51.703125 72.90625 
L 51.703125 64.59375 
L 19.671875 64.59375 
L 19.671875 43.109375 
L 48.578125 43.109375 
L 48.578125 34.8125 
L 19.671875 34.8125 
L 19.671875 0 
L 9.8125 0 
z
" id="DejaVuSans-46"/>
      <path d="M 14.796875 27.296875 
Q 14.796875 17.390625 18.875 11.75 
Q 22.953125 6.109375 30.078125 6.109375 
Q 37.203125 6.109375 41.296875 11.75 
Q 45.40625 17.390625 45.40625 27.296875 
Q 45.40625 37.203125 41.296875 42.84375 
Q 37.203125 48.484375 30.078125 48.484375 
Q 22.953125 48.484375 18.875 42.84375 
Q 14.796875 37.203125 14.796875 27.296875 
z
M 45.40625 8.203125 
Q 42.578125 3.328125 38.25 0.953125 
Q 33.9375 -1.421875 27.875 -1.421875 
Q 17.96875 -1.421875 11.734375 6.484375 
Q 5.515625 14.40625 5.515625 27.296875 
Q 5.515625 40.1875 11.734375 48.09375 
Q 17.96875 56 27.875 56 
Q 33.9375 56 38.25 53.625 
Q 42.578125 51.265625 45.40625 46.390625 
L 45.40625 54.6875 
L 54.390625 54.6875 
L 54.390625 -20.796875 
L 45.40625 -20.796875 
z
" id="DejaVuSans-71"/>
      <path d="M 8.5 21.578125 
L 8.5 54.6875 
L 17.484375 54.6875 
L 17.484375 21.921875 
Q 17.484375 14.15625 20.5 10.265625 
Q 23.53125 6.390625 29.59375 6.390625 
Q 36.859375 6.390625 41.078125 11.03125 
Q 45.3125 15.671875 45.3125 23.6875 
L 45.3125 54.6875 
L 54.296875 54.6875 
L 54.296875 0 
L 45.3125 0 
L 45.3125 8.40625 
Q 42.046875 3.421875 37.71875 1 
Q 33.40625 -1.421875 27.6875 -1.421875 
Q 18.265625 -1.421875 13.375 4.4375 
Q 8.5 10.296875 8.5 21.578125 
z
M 31.109375 56 
z
" id="DejaVuSans-75"/>
      <path d="M 48.78125 52.59375 
L 48.78125 44.1875 
Q 44.96875 46.296875 41.140625 47.34375 
Q 37.3125 48.390625 33.40625 48.390625 
Q 24.65625 48.390625 19.8125 42.84375 
Q 14.984375 37.3125 14.984375 27.296875 
Q 14.984375 17.28125 19.8125 11.734375 
Q 24.65625 6.203125 33.40625 6.203125 
Q 37.3125 6.203125 41.140625 7.25 
Q 44.96875 8.296875 48.78125 10.40625 
L 48.78125 2.09375 
Q 45.015625 0.34375 40.984375 -0.53125 
Q 36.96875 -1.421875 32.421875 -1.421875 
Q 20.0625 -1.421875 12.78125 6.34375 
Q 5.515625 14.109375 5.515625 27.296875 
Q 5.515625 40.671875 12.859375 48.328125 
Q 20.21875 56 33.015625 56 
Q 37.15625 56 41.109375 55.140625 
Q 45.0625 54.296875 48.78125 52.59375 
z
" id="DejaVuSans-63"/>
      <path d="M 32.171875 -5.078125 
Q 28.375 -14.84375 24.75 -17.8125 
Q 21.140625 -20.796875 15.09375 -20.796875 
L 7.90625 -20.796875 
L 7.90625 -13.28125 
L 13.1875 -13.28125 
Q 16.890625 -13.28125 18.9375 -11.515625 
Q 21 -9.765625 23.484375 -3.21875 
L 25.09375 0.875 
L 2.984375 54.6875 
L 12.5 54.6875 
L 29.59375 11.921875 
L 46.6875 54.6875 
L 56.203125 54.6875 
z
" id="DejaVuSans-79"/>
     </defs>
     <g style="fill:#555555;" transform="translate(16.318125 181.668937)rotate(-90)scale(0.12 -0.12)">
      <use xlink:href="#DejaVuSans-52"/>
      <use x="69.419922" xlink:href="#DejaVuSans-65"/>
      <use x="130.943359" xlink:href="#DejaVuSans-61"/>
      <use x="192.222656" xlink:href="#DejaVuSans-64"/>
      <use x="255.699219" xlink:href="#DejaVuSans-20"/>
      <use x="287.486328" xlink:href="#DejaVuSans-46"/>
      <use x="344.896484" xlink:href="#DejaVuSans-72"/>
      <use x="385.978516" xlink:href="#DejaVuSans-65"/>
      <use x="447.501953" xlink:href="#DejaVuSans-71"/>
      <use x="510.978516" xlink:href="#DejaVuSans-75"/>
      <use x="574.357422" xlink:href="#DejaVuSans-65"/>
      <use x="635.880859" xlink:href="#DejaVuSans-6e"/>
      <use x="699.259766" xlink:href="#DejaVuSans-63"/>
      <use x="754.240234" xlink:href="#DejaVuSans-79"/>
     </g>
    </g>
   </g>
   <g id="PolyCollection_1">
    <path clip-path="url(#p42eed56ca9)" d="M 86.341875 237.70031 
L 86.341875 241.58175 
L 89.476522 241.58175 
L 92.611169 241.58175 
L 95.745816 241.58175 
L 98.880463 241.58175 
L 102.01511 241.58175 
L 105.149757 241.58175 
L 108.284404 241.58175 
L 111.419051 241.58175 
L 114.553699 241.58175 
L 117.688346 241.58175 
L 120.822993 241.58175 
L 123.95764 241.58175 
L 127.092287 241.58175 
L 130.226934 241.58175 
L 133.361581 241.58175 
L 136.496228 241.58175 
L 139.630875 241.58175 
L 142.765522 241.58175 
L 145.900169 241.58175 
L 149.034816 241.58175 
L 152.169463 241.58175 
L 155.30411 241.58175 
L 158.438757 241.58175 
L 161.573404 241.58175 
L 164.708051 241.58175 
L 167.842699 241.58175 
L 170.977346 241.58175 
L 174.111993 241.58175 
L 177.24664 241.58175 
L 180.381287 241.58175 
L 183.515934 241.58175 
L 186.650581 241.58175 
L 189.785228 241.58175 
L 192.919875 241.58175 
L 196.054522 241.58175 
L 199.189169 241.58175 
L 202.323816 241.58175 
L 205.458463 241.58175 
L 208.59311 241.58175 
L 211.727757 241.58175 
L 214.862404 241.58175 
L 217.997051 241.58175 
L 221.131699 241.58175 
L 224.266346 241.58175 
L 227.400993 241.58175 
L 230.53564 241.58175 
L 233.670287 241.58175 
L 236.804934 241.58175 
L 239.939581 241.58175 
L 243.074228 241.58175 
L 246.208875 241.58175 
L 249.343522 241.58175 
L 252.478169 241.58175 
L 255.612816 241.58175 
L 258.747463 241.58175 
L 261.88211 241.58175 
L 265.016757 241.58175 
L 268.151404 241.58175 
L 271.286051 241.58175 
L 274.420699 241.58175 
L 277.555346 241.58175 
L 280.689993 241.58175 
L 283.82464 241.58175 
L 286.959287 241.58175 
L 290.093934 241.58175 
L 293.228581 241.58175 
L 296.363228 241.58175 
L 299.497875 241.58175 
L 302.632522 241.58175 
L 305.767169 241.58175 
L 308.901816 241.58175 
L 312.036463 241.58175 
L 315.17111 241.58175 
L 318.305757 241.58175 
L 321.440404 241.58175 
L 324.575051 241.58175 
L 327.709699 241.58175 
L 330.844346 241.58175 
L 333.978993 241.58175 
L 337.11364 241.58175 
L 340.248287 241.58175 
L 343.382934 241.58175 
L 346.517581 241.58175 
L 349.652228 241.58175 
L 352.786875 241.58175 
L 355.921522 241.58175 
L 359.056169 241.58175 
L 362.190816 241.58175 
L 365.325463 241.58175 
L 368.46011 241.58175 
L 371.594757 241.58175 
L 374.729404 241.58175 
L 377.864051 241.58175 
L 380.998699 241.58175 
L 384.133346 241.58175 
L 387.267993 241.58175 
L 390.40264 241.58175 
L 393.537287 241.58175 
L 396.671934 241.58175 
L 399.806581 241.58175 
L 402.941228 241.58175 
L 406.075875 241.58175 
L 409.210522 241.58175 
L 412.345169 241.58175 
L 415.479816 241.58175 
L 418.614463 241.58175 
L 421.74911 241.58175 
L 424.883757 241.58175 
L 428.018404 241.58175 
L 431.153051 241.58175 
L 434.287699 241.58175 
L 437.422346 241.58175 
L 440.556993 241.58175 
L 443.69164 241.58175 
L 446.826287 241.58175 
L 449.960934 241.58175 
L 453.095581 241.58175 
L 456.230228 241.58175 
L 459.364875 241.58175 
L 462.499522 241.58175 
L 465.634169 241.58175 
L 468.768816 241.58175 
L 471.903463 241.58175 
L 475.03811 241.58175 
L 478.172757 241.58175 
L 481.307404 241.58175 
L 484.442051 241.58175 
L 487.576699 241.58175 
L 490.711346 241.58175 
L 493.845993 241.58175 
L 496.98064 241.58175 
L 500.115287 241.58175 
L 503.249934 241.58175 
L 506.384581 241.58175 
L 509.519228 241.58175 
L 512.653875 241.58175 
L 515.788522 241.58175 
L 518.923169 241.58175 
L 522.057816 241.58175 
L 525.192463 241.58175 
L 528.32711 241.58175 
L 531.461757 241.58175 
L 534.596404 241.58175 
L 537.731051 241.58175 
L 540.865699 241.58175 
L 544.000346 241.58175 
L 547.134993 241.58175 
L 550.26964 241.58175 
L 553.404287 241.58175 
L 556.538934 241.58175 
L 559.673581 241.58175 
L 562.808228 241.58175 
L 565.942875 241.58175 
L 569.077522 241.58175 
L 572.212169 241.58175 
L 575.346816 241.58175 
L 578.481463 241.58175 
L 581.61611 241.58175 
L 584.750757 241.58175 
L 587.885404 241.58175 
L 591.020051 241.58175 
L 594.154699 241.58175 
L 597.289346 241.58175 
L 600.423993 241.58175 
L 603.55864 241.58175 
L 606.693287 241.58175 
L 609.827934 241.58175 
L 612.962581 241.58175 
L 616.097228 241.58175 
L 619.231875 241.58175 
L 622.366522 241.58175 
L 625.501169 241.58175 
L 628.635816 241.58175 
L 631.770463 241.58175 
L 634.90511 241.58175 
L 638.039757 241.58175 
L 641.174404 241.58175 
L 644.309051 241.58175 
L 647.443699 241.58175 
L 650.578346 241.58175 
L 653.712993 241.58175 
L 656.84764 241.58175 
L 659.982287 241.58175 
L 663.116934 241.58175 
L 666.251581 241.58175 
L 669.386228 241.58175 
L 672.520875 241.58175 
L 675.655522 241.58175 
L 678.790169 241.58175 
L 681.924816 241.58175 
L 685.059463 241.58175 
L 688.19411 241.58175 
L 691.328757 241.58175 
L 694.463404 241.58175 
L 697.598051 241.58175 
L 700.732699 241.58175 
L 703.867346 241.58175 
L 707.001993 241.58175 
L 710.13664 241.58175 
L 713.271287 241.58175 
L 716.405934 241.58175 
L 719.540581 241.58175 
L 722.675228 241.58175 
L 725.809875 241.58175 
L 728.944522 241.58175 
L 732.079169 241.58175 
L 735.213816 241.58175 
L 738.348463 241.58175 
L 741.48311 241.58175 
L 744.617757 241.58175 
L 747.752404 241.58175 
L 750.887051 241.58175 
L 754.021699 241.58175 
L 757.156346 241.58175 
L 760.290993 241.58175 
L 763.42564 241.58175 
L 766.560287 241.58175 
L 769.694934 241.58175 
L 772.829581 241.58175 
L 775.964228 241.58175 
L 779.098875 241.58175 
L 782.233522 241.58175 
L 785.368169 241.58175 
L 788.502816 241.58175 
L 791.637463 241.58175 
L 794.77211 241.58175 
L 797.906757 241.58175 
L 801.041404 241.58175 
L 804.176051 241.58175 
L 807.310699 241.58175 
L 810.445346 241.58175 
L 813.579993 241.58175 
L 816.71464 241.58175 
L 819.849287 241.58175 
L 822.983934 241.58175 
L 826.118581 241.58175 
L 829.253228 241.58175 
L 832.387875 241.58175 
L 835.522522 241.58175 
L 838.657169 241.58175 
L 841.791816 241.58175 
L 844.926463 241.58175 
L 848.06111 241.58175 
L 851.195757 241.58175 
L 854.330404 241.58175 
L 857.465051 241.58175 
L 860.599699 241.58175 
L 863.734346 241.58175 
L 866.868993 241.58175 
L 870.00364 241.58175 
L 873.138287 241.58175 
L 876.272934 241.58175 
L 879.407581 241.58175 
L 882.542228 241.58175 
L 885.676875 241.58175 
L 885.676875 238.744487 
L 885.676875 238.744487 
L 882.542228 239.504024 
L 879.407581 240.027303 
L 876.272934 240.365733 
L 873.138287 240.568545 
L 870.00364 240.67945 
L 866.868993 240.734822 
L 863.734346 240.762925 
L 860.599699 240.783796 
L 857.465051 240.809661 
L 854.330404 240.845892 
L 851.195757 240.892509 
L 848.06111 240.946088 
L 844.926463 241.001724 
L 841.791816 241.054655 
L 838.657169 241.101194 
L 835.522522 241.1389 
L 832.387875 241.166168 
L 829.253228 241.181654 
L 826.118581 241.183946 
L 822.983934 241.17176 
L 819.849287 241.144632 
L 816.71464 241.103812 
L 813.579993 241.052956 
L 810.445346 240.9982 
L 807.310699 240.947466 
L 804.176051 240.909096 
L 801.041404 240.89016 
L 797.906757 240.894917 
L 794.77211 240.923841 
L 791.637463 240.973463 
L 788.502816 241.03703 
L 785.368169 241.105778 
L 782.233522 241.170493 
L 779.098875 241.222996 
L 775.964228 241.25729 
L 772.829581 241.270205 
L 769.694934 241.261523 
L 766.560287 241.233666 
L 763.42564 241.191102 
L 760.290993 241.139641 
L 757.156346 241.085732 
L 754.021699 241.035847 
L 750.887051 240.995913 
L 747.752404 240.970749 
L 744.617757 240.963469 
L 741.48311 240.974877 
L 738.348463 241.002989 
L 735.213816 241.042866 
L 732.079169 241.086928 
L 728.944522 241.125832 
L 725.809875 241.149836 
L 722.675228 241.150461 
L 719.540581 241.122123 
L 716.405934 241.063402 
L 713.271287 240.977629 
L 710.13664 240.872587 
L 707.001993 240.759292 
L 703.867346 240.650044 
L 700.732699 240.556167 
L 697.598051 240.485944 
L 694.463404 240.443274 
L 691.328757 240.427321 
L 688.19411 240.433187 
L 685.059463 240.45329 
L 681.924816 240.47899 
L 678.790169 240.501985 
L 675.655522 240.51519 
L 672.520875 240.513047 
L 669.386228 240.491487 
L 666.251581 240.447827 
L 663.116934 240.380862 
L 659.982287 240.291199 
L 656.84764 240.181641 
L 653.712993 240.057324 
L 650.578346 239.925319 
L 647.443699 239.793622 
L 644.309051 239.669729 
L 641.174404 239.55915 
L 638.039757 239.464282 
L 634.90511 239.383887 
L 631.770463 239.313255 
L 628.635816 239.244919 
L 625.501169 239.169742 
L 622.366522 239.078213 
L 619.231875 238.961834 
L 616.097228 238.814488 
L 612.962581 238.633644 
L 609.827934 238.421154 
L 606.693287 238.183399 
L 603.55864 237.930622 
L 600.423993 237.675433 
L 597.289346 237.430681 
L 594.154699 237.207041 
L 591.020051 237.010747 
L 587.885404 236.841946 
L 584.750757 236.694086 
L 581.61611 236.554631 
L 578.481463 236.407191 
L 575.346816 236.234808 
L 572.212169 236.023808 
L 569.077522 235.767315 
L 565.942875 235.467511 
L 562.808228 235.13589 
L 559.673581 234.791309 
L 556.538934 234.456182 
L 553.404287 234.151723 
L 550.26964 233.89336 
L 547.134993 233.687339 
L 544.000346 233.529129 
L 540.865699 233.403721 
L 537.731051 233.287501 
L 534.596404 233.151159 
L 531.461757 232.963173 
L 528.32711 232.693512 
L 525.192463 232.317329 
L 522.057816 231.818295 
L 518.923169 231.191047 
L 515.788522 230.442015 
L 512.653875 229.587998 
L 509.519228 228.65223 
L 506.384581 227.658451 
L 503.249934 226.6242 
L 500.115287 225.555122 
L 496.98064 224.442085 
L 493.845993 223.262345 
L 490.711346 221.985021 
L 487.576699 220.579849 
L 484.442051 219.027105 
L 481.307404 217.325993 
L 478.172757 215.498889 
L 475.03811 213.589872 
L 471.903463 211.657492 
L 468.768816 209.763457 
L 465.634169 207.960144 
L 462.499522 206.280141 
L 459.364875 204.730317 
L 456.230228 203.291476 
L 453.095581 201.923053 
L 449.960934 200.571099 
L 446.826287 199.177304 
L 443.69164 197.686991 
L 440.556993 196.054727 
L 437.422346 194.24704 
L 434.287699 192.242655 
L 431.153051 190.031268 
L 428.018404 187.612167 
L 424.883757 184.993653 
L 421.74911 182.193438 
L 418.614463 179.239202 
L 415.479816 176.167865 
L 412.345169 173.022343 
L 409.210522 169.845593 
L 406.075875 166.67323 
L 402.941228 163.527031 
L 399.806581 160.411657 
L 396.671934 157.315767 
L 393.537287 154.216924 
L 390.40264 151.088137 
L 387.267993 147.903363 
L 384.133346 144.639963 
L 380.998699 141.277665 
L 377.864051 137.795236 
L 374.729404 134.167056 
L 371.594757 130.361801 
L 368.46011 126.344551 
L 365.325463 122.082239 
L 362.190816 117.551126 
L 359.056169 112.744235 
L 355.921522 107.676664 
L 352.786875 102.387252 
L 349.652228 96.936024 
L 346.517581 91.397896 
L 343.382934 85.854075 
L 340.248287 80.383211 
L 337.11364 75.054461 
L 333.978993 69.924085 
L 330.844346 65.036056 
L 327.709699 60.425764 
L 324.575051 56.124749 
L 321.440404 52.164005 
L 318.305757 48.574058 
L 315.17111 45.381595 
L 312.036463 42.604302 
L 308.901816 40.246903 
L 305.767169 38.301499 
L 302.632522 36.753776 
L 299.497875 35.594144 
L 296.363228 34.830251 
L 293.228581 34.496036 
L 290.093934 34.653254 
L 286.959287 35.383966 
L 283.82464 36.7759 
L 280.689993 38.905191 
L 277.555346 41.82179 
L 274.420699 45.541529 
L 271.286051 50.046136 
L 268.151404 55.289654 
L 265.016757 61.207878 
L 261.88211 67.727112 
L 258.747463 74.769618 
L 255.612816 82.255033 
L 252.478169 90.098723 
L 249.343522 98.209151 
L 246.208875 106.486437 
L 243.074228 114.823609 
L 239.939581 123.110961 
L 236.804934 131.242766 
L 233.670287 139.124785 
L 230.53564 146.680691 
L 227.400993 153.855806 
L 224.266346 160.617334 
L 221.131699 166.951204 
L 217.997051 172.856472 
L 214.862404 178.338616 
L 211.727757 183.403097 
L 208.59311 188.050308 
L 205.458463 192.272801 
L 202.323816 196.055418 
L 199.189169 199.378561 
L 196.054522 202.224204 
L 192.919875 204.583365 
L 189.785228 206.462927 
L 186.650581 207.889425 
L 183.515934 208.908042 
L 180.381287 209.576557 
L 177.24664 209.955838 
L 174.111993 210.100013 
L 170.977346 210.049805 
L 167.842699 209.83154 
L 164.708051 209.462211 
L 161.573404 208.958657 
L 158.438757 208.34725 
L 155.30411 207.670286 
L 152.169463 206.986635 
L 149.034816 206.366467 
L 145.900169 205.882215 
L 142.765522 205.599152 
L 139.630875 205.568803 
L 136.496228 205.826857 
L 133.361581 206.395197 
L 130.226934 207.286031 
L 127.092287 208.505485 
L 123.95764 210.054611 
L 120.822993 211.927112 
L 117.688346 214.104577 
L 114.553699 216.551145 
L 111.419051 219.209869 
L 108.284404 222.002693 
L 105.149757 224.834961 
L 102.01511 227.604077 
L 98.880463 230.210731 
L 95.745816 232.570282 
L 92.611169 234.621816 
L 89.476522 236.333036 
L 86.341875 237.70031 
z
" style="fill:#008000;fill-opacity:0.5;"/>
   </g>
   <g id="LineCollection_1">
    <path clip-path="url(#p42eed56ca9)" d="M 210.496875 241.58175 
L 210.496875 24.14175 
" style="fill:none;stroke:#404040;stroke-dasharray:1,1.65;stroke-dashoffset:0;"/>
   </g>
   <g id="LineCollection_2">
    <path clip-path="url(#p42eed56ca9)" d="M 308.146875 241.58175 
L 308.146875 24.14175 
" style="fill:none;stroke:#404040;"/>
   </g>
   <g id="LineCollection_3">
    <path clip-path="url(#p42eed56ca9)" d="M 428.116875 241.58175 
L 428.116875 24.14175 
" style="fill:none;stroke:#404040;stroke-dasharray:3.7,1.6;stroke-dashoffset:0;"/>
   </g>
   <g id="line2d_33">
    <path clip-path="url(#p42eed56ca9)" d="M 86.341875 237.70031 
L 89.476522 236.333036 
L 92.611169 234.621816 
L 95.745816 232.570282 
L 98.880463 230.210731 
L 102.01511 227.604077 
L 114.553699 216.551145 
L 117.688346 214.104577 
L 120.822993 211.927112 
L 123.95764 210.054611 
L 127.092287 208.505485 
L 130.226934 207.286031 
L 133.361581 206.395197 
L 136.496228 205.826857 
L 139.630875 205.568803 
L 142.765522 205.599152 
L 145.900169 205.882215 
L 149.034816 206.366467 
L 155.30411 207.670286 
L 161.573404 208.958657 
L 164.708051 209.462211 
L 167.842699 209.83154 
L 170.977346 210.049805 
L 174.111993 210.100013 
L 177.24664 209.955838 
L 180.381287 209.576557 
L 183.515934 208.908042 
L 186.650581 207.889425 
L 189.785228 206.462927 
L 192.919875 204.583365 
L 196.054522 202.224204 
L 199.189169 199.378561 
L 202.323816 196.055418 
L 205.458463 192.272801 
L 208.59311 188.050308 
L 211.727757 183.403097 
L 214.862404 178.338616 
L 217.997051 172.856472 
L 221.131699 166.951204 
L 224.266346 160.617334 
L 227.400993 153.855806 
L 230.53564 146.680691 
L 233.670287 139.124785 
L 239.939581 123.110961 
L 252.478169 90.098723 
L 255.612816 82.255033 
L 258.747463 74.769618 
L 261.88211 67.727112 
L 265.016757 61.207878 
L 268.151404 55.289654 
L 271.286051 50.046136 
L 274.420699 45.541529 
L 277.555346 41.82179 
L 280.689993 38.905191 
L 283.82464 36.7759 
L 286.959287 35.383966 
L 290.093934 34.653254 
L 293.228581 34.496036 
L 296.363228 34.830251 
L 299.497875 35.594144 
L 302.632522 36.753776 
L 305.767169 38.301499 
L 308.901816 40.246903 
L 312.036463 42.604302 
L 315.17111 45.381595 
L 318.305757 48.574058 
L 321.440404 52.164005 
L 324.575051 56.124749 
L 327.709699 60.425764 
L 330.844346 65.036056 
L 333.978993 69.924085 
L 340.248287 80.383211 
L 355.921522 107.676664 
L 359.056169 112.744235 
L 362.190816 117.551126 
L 365.325463 122.082239 
L 368.46011 126.344551 
L 371.594757 130.361801 
L 374.729404 134.167056 
L 380.998699 141.277665 
L 387.267993 147.903363 
L 396.671934 157.315767 
L 409.210522 169.845593 
L 418.614463 179.239202 
L 421.74911 182.193438 
L 424.883757 184.993653 
L 428.018404 187.612167 
L 431.153051 190.031268 
L 434.287699 192.242655 
L 437.422346 194.24704 
L 440.556993 196.054727 
L 443.69164 197.686991 
L 449.960934 200.571099 
L 459.364875 204.730317 
L 462.499522 206.280141 
L 468.768816 209.763457 
L 481.307404 217.325993 
L 484.442051 219.027105 
L 487.576699 220.579849 
L 490.711346 221.985021 
L 496.98064 224.442085 
L 503.249934 226.6242 
L 509.519228 228.65223 
L 515.788522 230.442015 
L 518.923169 231.191047 
L 522.057816 231.818295 
L 525.192463 232.317329 
L 531.461757 232.963173 
L 537.731051 233.287501 
L 547.134993 233.687339 
L 553.404287 234.151723 
L 575.346816 236.234808 
L 600.423993 237.675433 
L 612.962581 238.633644 
L 622.366522 239.078213 
L 656.84764 240.181641 
L 666.251581 240.447827 
L 675.655522 240.51519 
L 697.598051 240.485944 
L 710.13664 240.872587 
L 719.540581 241.122123 
L 728.944522 241.125832 
L 747.752404 240.970749 
L 763.42564 241.191102 
L 775.964228 241.25729 
L 788.502816 241.03703 
L 801.041404 240.89016 
L 813.579993 241.052956 
L 826.118581 241.183946 
L 838.657169 241.101194 
L 873.138287 240.568545 
L 876.272934 240.365733 
L 879.407581 240.027303 
L 882.542228 239.504024 
L 885.676875 238.744487 
L 885.676875 238.744487 
" style="fill:none;opacity:0.5;stroke:#008000;stroke-linecap:square;stroke-width:1.5;"/>
   </g>
   <g id="patch_3">
    <path d="M 58.441875 241.58175 
L 58.441875 24.14175 
" style="fill:none;stroke:#ffffff;stroke-linecap:square;stroke-linejoin:miter;"/>
   </g>
   <g id="patch_4">
    <path d="M 895.441875 241.58175 
L 895.441875 24.14175 
" style="fill:none;stroke:#ffffff;stroke-linecap:square;stroke-linejoin:miter;"/>
   </g>
   <g id="patch_5">
    <path d="M 58.441875 241.58175 
L 895.441875 241.58175 
" style="fill:none;stroke:#ffffff;stroke-linecap:square;stroke-linejoin:miter;"/>
   </g>
   <g id="patch_6">
    <path d="M 58.441875 24.14175 
L 895.441875 24.14175 
" style="fill:none;stroke:#ffffff;stroke-linecap:square;stroke-linejoin:miter;"/>
   </g>
   <g id="text_19">
    <!-- Distribution of reads length -->
    <defs>
     <path d="M 19.671875 64.796875 
L 19.671875 8.109375 
L 31.59375 8.109375 
Q 46.6875 8.109375 53.6875 14.9375 
Q 60.6875 21.78125 60.6875 36.53125 
Q 60.6875 51.171875 53.6875 57.984375 
Q 46.6875 64.796875 31.59375 64.796875 
z
M 9.8125 72.90625 
L 30.078125 72.90625 
Q 51.265625 72.90625 61.171875 64.09375 
Q 71.09375 55.28125 71.09375 36.53125 
Q 71.09375 17.671875 61.125 8.828125 
Q 51.171875 0 30.078125 0 
L 9.8125 0 
z
" id="DejaVuSans-44"/>
     <path d="M 9.421875 54.6875 
L 18.40625 54.6875 
L 18.40625 0 
L 9.421875 0 
z
M 9.421875 75.984375 
L 18.40625 75.984375 
L 18.40625 64.59375 
L 9.421875 64.59375 
z
" id="DejaVuSans-69"/>
     <path d="M 44.28125 53.078125 
L 44.28125 44.578125 
Q 40.484375 46.53125 36.375 47.5 
Q 32.28125 48.484375 27.875 48.484375 
Q 21.1875 48.484375 17.84375 46.4375 
Q 14.5 44.390625 14.5 40.28125 
Q 14.5 37.15625 16.890625 35.375 
Q 19.28125 33.59375 26.515625 31.984375 
L 29.59375 31.296875 
Q 39.15625 29.25 43.1875 25.515625 
Q 47.21875 21.78125 47.21875 15.09375 
Q 47.21875 7.46875 41.1875 3.015625 
Q 35.15625 -1.421875 24.609375 -1.421875 
Q 20.21875 -1.421875 15.453125 -0.5625 
Q 10.6875 0.296875 5.421875 2 
L 5.421875 11.28125 
Q 10.40625 8.6875 15.234375 7.390625 
Q 20.0625 6.109375 24.8125 6.109375 
Q 31.15625 6.109375 34.5625 8.28125 
Q 37.984375 10.453125 37.984375 14.40625 
Q 37.984375 18.0625 35.515625 20.015625 
Q 33.0625 21.96875 24.703125 23.78125 
L 21.578125 24.515625 
Q 13.234375 26.265625 9.515625 29.90625 
Q 5.8125 33.546875 5.8125 39.890625 
Q 5.8125 47.609375 11.28125 51.796875 
Q 16.75 56 26.8125 56 
Q 31.78125 56 36.171875 55.265625 
Q 40.578125 54.546875 44.28125 53.078125 
z
" id="DejaVuSans-73"/>
     <path d="M 48.6875 27.296875 
Q 48.6875 37.203125 44.609375 42.84375 
Q 40.53125 48.484375 33.40625 48.484375 
Q 26.265625 48.484375 22.1875 42.84375 
Q 18.109375 37.203125 18.109375 27.296875 
Q 18.109375 17.390625 22.1875 11.75 
Q 26.265625 6.109375 33.40625 6.109375 
Q 40.53125 6.109375 44.609375 11.75 
Q 48.6875 17.390625 48.6875 27.296875 
z
M 18.109375 46.390625 
Q 20.953125 51.265625 25.265625 53.625 
Q 29.59375 56 35.59375 56 
Q 45.5625 56 51.78125 48.09375 
Q 58.015625 40.1875 58.015625 27.296875 
Q 58.015625 14.40625 51.78125 6.484375 
Q 45.5625 -1.421875 35.59375 -1.421875 
Q 29.59375 -1.421875 25.265625 0.953125 
Q 20.953125 3.328125 18.109375 8.203125 
L 18.109375 0 
L 9.078125 0 
L 9.078125 75.984375 
L 18.109375 75.984375 
z
" id="DejaVuSans-62"/>
     <path d="M 30.609375 48.390625 
Q 23.390625 48.390625 19.1875 42.75 
Q 14.984375 37.109375 14.984375 27.296875 
Q 14.984375 17.484375 19.15625 11.84375 
Q 23.34375 6.203125 30.609375 6.203125 
Q 37.796875 6.203125 41.984375 11.859375 
Q 46.1875 17.53125 46.1875 27.296875 
Q 46.1875 37.015625 41.984375 42.703125 
Q 37.796875 48.390625 30.609375 48.390625 
z
M 30.609375 56 
Q 42.328125 56 49.015625 48.375 
Q 55.71875 40.765625 55.71875 27.296875 
Q 55.71875 13.875 49.015625 6.21875 
Q 42.328125 -1.421875 30.609375 -1.421875 
Q 18.84375 -1.421875 12.171875 6.21875 
Q 5.515625 13.875 5.515625 27.296875 
Q 5.515625 40.765625 12.171875 48.375 
Q 18.84375 56 30.609375 56 
z
" id="DejaVuSans-6f"/>
     <path d="M 37.109375 75.984375 
L 37.109375 68.5 
L 28.515625 68.5 
Q 23.6875 68.5 21.796875 66.546875 
Q 19.921875 64.59375 19.921875 59.515625 
L 19.921875 54.6875 
L 34.71875 54.6875 
L 34.71875 47.703125 
L 19.921875 47.703125 
L 19.921875 0 
L 10.890625 0 
L 10.890625 47.703125 
L 2.296875 47.703125 
L 2.296875 54.6875 
L 10.890625 54.6875 
L 10.890625 58.5 
Q 10.890625 67.625 15.140625 71.796875 
Q 19.390625 75.984375 28.609375 75.984375 
z
" id="DejaVuSans-66"/>
    </defs>
    <g transform="translate(378.06225 18.14175)scale(0.144 -0.144)">
     <use xlink:href="#DejaVuSans-44"/>
     <use x="77.001953" xlink:href="#DejaVuSans-69"/>
     <use x="104.785156" xlink:href="#DejaVuSans-73"/>
     <use x="156.884766" xlink:href="#DejaVuSans-74"/>
     <use x="196.09375" xlink:href="#DejaVuSans-72"/>
     <use x="237.207031" xlink:href="#DejaVuSans-69"/>
     <use x="264.990234" xlink:href="#DejaVuSans-62"/>
     <use x="328.466797" xlink:href="#DejaVuSans-75"/>
     <use x="391.845703" xlink:href="#DejaVuSans-74"/>
     <use x="431.054688" xlink:href="#DejaVuSans-69"/>
     <use x="458.837891" xlink:href="#DejaVuSans-6f"/>
     <use x="520.019531" xlink:href="#DejaVuSans-6e"/>
     <use x="583.398438" xlink:href="#DejaVuSans-20"/>
     <use x="615.185547" xlink:href="#DejaVuSans-6f"/>
     <use x="676.367188" xlink:href="#DejaVuSans-66"/>
     <use x="711.572266" xlink:href="#DejaVuSans-20"/>
     <use x="743.359375" xlink:href="#DejaVuSans-72"/>
     <use x="784.441406" xlink:href="#DejaVuSans-65"/>
     <use x="845.964844" xlink:href="#DejaVuSans-61"/>
     <use x="907.244141" xlink:href="#DejaVuSans-64"/>
     <use x="970.720703" xlink:href="#DejaVuSans-73"/>
     <use x="1022.820312" xlink:href="#DejaVuSans-20"/>
     <use x="1054.607422" xlink:href="#DejaVuSans-6c"/>
     <use x="1082.390625" xlink:href="#DejaVuSans-65"/>
     <use x="1143.914062" xlink:href="#DejaVuSans-6e"/>
     <use x="1207.292969" xlink:href="#DejaVuSans-67"/>
     <use x="1270.769531" xlink:href="#DejaVuSans-74"/>
     <use x="1309.978516" xlink:href="#DejaVuSans-68"/>
    </g>
   </g>
   <g id="legend_1">
    <g id="patch_7">
     <path d="M 775.591875 91.132375 
L 888.441875 91.132375 
Q 890.441875 91.132375 890.441875 89.132375 
L 890.441875 31.14175 
Q 890.441875 29.14175 888.441875 29.14175 
L 775.591875 29.14175 
Q 773.591875 29.14175 773.591875 31.14175 
L 773.591875 89.132375 
Q 773.591875 91.132375 775.591875 91.132375 
z
" style="fill:#e5e5e5;opacity:0.8;stroke:#cccccc;stroke-linejoin:miter;stroke-width:0.5;"/>
    </g>
    <g id="line2d_34">
     <path d="M 777.591875 37.240187 
L 797.591875 37.240187 
" style="fill:none;opacity:0.5;stroke:#008000;stroke-linecap:square;stroke-width:1.5;"/>
    </g>
    <g id="line2d_35"/>
    <g id="text_20">
     <!-- num_bases -->
     <defs>
      <path d="M 52 44.1875 
Q 55.375 50.25 60.0625 53.125 
Q 64.75 56 71.09375 56 
Q 79.640625 56 84.28125 50.015625 
Q 88.921875 44.046875 88.921875 33.015625 
L 88.921875 0 
L 79.890625 0 
L 79.890625 32.71875 
Q 79.890625 40.578125 77.09375 44.375 
Q 74.3125 48.1875 68.609375 48.1875 
Q 61.625 48.1875 57.5625 43.546875 
Q 53.515625 38.921875 53.515625 30.90625 
L 53.515625 0 
L 44.484375 0 
L 44.484375 32.71875 
Q 44.484375 40.625 41.703125 44.40625 
Q 38.921875 48.1875 33.109375 48.1875 
Q 26.21875 48.1875 22.15625 43.53125 
Q 18.109375 38.875 18.109375 30.90625 
L 18.109375 0 
L 9.078125 0 
L 9.078125 54.6875 
L 18.109375 54.6875 
L 18.109375 46.1875 
Q 21.1875 51.21875 25.484375 53.609375 
Q 29.78125 56 35.6875 56 
Q 41.65625 56 45.828125 52.96875 
Q 50 49.953125 52 44.1875 
z
" id="DejaVuSans-6d"/>
      <path d="M 50.984375 -16.609375 
L 50.984375 -23.578125 
L -0.984375 -23.578125 
L -0.984375 -16.609375 
z
" id="DejaVuSans-5f"/>
     </defs>
     <g transform="translate(805.591875 40.740187)scale(0.1 -0.1)">
      <use xlink:href="#DejaVuSans-6e"/>
      <use x="63.378906" xlink:href="#DejaVuSans-75"/>
      <use x="126.757812" xlink:href="#DejaVuSans-6d"/>
      <use x="224.169922" xlink:href="#DejaVuSans-5f"/>
      <use x="274.169922" xlink:href="#DejaVuSans-62"/>
      <use x="337.646484" xlink:href="#DejaVuSans-61"/>
      <use x="398.925781" xlink:href="#DejaVuSans-73"/>
      <use x="451.025391" xlink:href="#DejaVuSans-65"/>
      <use x="512.548828" xlink:href="#DejaVuSans-73"/>
     </g>
    </g>
    <g id="line2d_36">
     <path d="M 777.591875 52.196438 
L 797.591875 52.196438 
" style="fill:none;stroke:#404040;stroke-dasharray:1,1.65;stroke-dashoffset:0;"/>
    </g>
    <g id="text_21">
     <!-- 10% = 109.0 -->
     <defs>
      <path d="M 72.703125 32.078125 
Q 68.453125 32.078125 66.03125 28.46875 
Q 63.625 24.859375 63.625 18.40625 
Q 63.625 12.0625 66.03125 8.421875 
Q 68.453125 4.78125 72.703125 4.78125 
Q 76.859375 4.78125 79.265625 8.421875 
Q 81.6875 12.0625 81.6875 18.40625 
Q 81.6875 24.8125 79.265625 28.4375 
Q 76.859375 32.078125 72.703125 32.078125 
z
M 72.703125 38.28125 
Q 80.421875 38.28125 84.953125 32.90625 
Q 89.5 27.546875 89.5 18.40625 
Q 89.5 9.28125 84.9375 3.921875 
Q 80.375 -1.421875 72.703125 -1.421875 
Q 64.890625 -1.421875 60.34375 3.921875 
Q 55.8125 9.28125 55.8125 18.40625 
Q 55.8125 27.59375 60.375 32.9375 
Q 64.9375 38.28125 72.703125 38.28125 
z
M 22.3125 68.015625 
Q 18.109375 68.015625 15.6875 64.375 
Q 13.28125 60.75 13.28125 54.390625 
Q 13.28125 47.953125 15.671875 44.328125 
Q 18.0625 40.71875 22.3125 40.71875 
Q 26.5625 40.71875 28.96875 44.328125 
Q 31.390625 47.953125 31.390625 54.390625 
Q 31.390625 60.6875 28.953125 64.34375 
Q 26.515625 68.015625 22.3125 68.015625 
z
M 66.40625 74.21875 
L 74.21875 74.21875 
L 28.609375 -1.421875 
L 20.796875 -1.421875 
z
M 22.3125 74.21875 
Q 30.03125 74.21875 34.609375 68.875 
Q 39.203125 63.53125 39.203125 54.390625 
Q 39.203125 45.171875 34.640625 39.84375 
Q 30.078125 34.515625 22.3125 34.515625 
Q 14.546875 34.515625 10.03125 39.859375 
Q 5.515625 45.21875 5.515625 54.390625 
Q 5.515625 63.484375 10.046875 68.84375 
Q 14.59375 74.21875 22.3125 74.21875 
z
" id="DejaVuSans-25"/>
      <path d="M 10.59375 45.40625 
L 73.1875 45.40625 
L 73.1875 37.203125 
L 10.59375 37.203125 
z
M 10.59375 25.484375 
L 73.1875 25.484375 
L 73.1875 17.1875 
L 10.59375 17.1875 
z
" id="DejaVuSans-3d"/>
      <path d="M 10.984375 1.515625 
L 10.984375 10.5 
Q 14.703125 8.734375 18.5 7.8125 
Q 22.3125 6.890625 25.984375 6.890625 
Q 35.75 6.890625 40.890625 13.453125 
Q 46.046875 20.015625 46.78125 33.40625 
Q 43.953125 29.203125 39.59375 26.953125 
Q 35.25 24.703125 29.984375 24.703125 
Q 19.046875 24.703125 12.671875 31.3125 
Q 6.296875 37.9375 6.296875 49.421875 
Q 6.296875 60.640625 12.9375 67.421875 
Q 19.578125 74.21875 30.609375 74.21875 
Q 43.265625 74.21875 49.921875 64.515625 
Q 56.59375 54.828125 56.59375 36.375 
Q 56.59375 19.140625 48.40625 8.859375 
Q 40.234375 -1.421875 26.421875 -1.421875 
Q 22.703125 -1.421875 18.890625 -0.6875 
Q 15.09375 0.046875 10.984375 1.515625 
z
M 30.609375 32.421875 
Q 37.25 32.421875 41.125 36.953125 
Q 45.015625 41.5 45.015625 49.421875 
Q 45.015625 57.28125 41.125 61.84375 
Q 37.25 66.40625 30.609375 66.40625 
Q 23.96875 66.40625 20.09375 61.84375 
Q 16.21875 57.28125 16.21875 49.421875 
Q 16.21875 41.5 20.09375 36.953125 
Q 23.96875 32.421875 30.609375 32.421875 
z
" id="DejaVuSans-39"/>
     </defs>
     <g transform="translate(805.591875 55.696438)scale(0.1 -0.1)">
      <use xlink:href="#DejaVuSans-31"/>
      <use x="63.623047" xlink:href="#DejaVuSans-30"/>
      <use x="127.246094" xlink:href="#DejaVuSans-25"/>
      <use x="222.265625" xlink:href="#DejaVuSans-20"/>
      <use x="254.052734" xlink:href="#DejaVuSans-3d"/>
      <use x="337.841797" xlink:href="#DejaVuSans-20"/>
      <use x="369.628906" xlink:href="#DejaVuSans-31"/>
      <use x="433.251953" xlink:href="#DejaVuSans-30"/>
      <use x="496.875" xlink:href="#DejaVuSans-39"/>
      <use x="560.498047" xlink:href="#DejaVuSans-2e"/>
      <use x="592.285156" xlink:href="#DejaVuSans-30"/>
     </g>
    </g>
    <g id="line2d_37">
     <path d="M 777.591875 66.874562 
L 797.591875 66.874562 
" style="fill:none;stroke:#404040;"/>
    </g>
    <g id="text_22">
     <!-- median = 179.0 -->
     <g transform="translate(805.591875 70.374562)scale(0.1 -0.1)">
      <use xlink:href="#DejaVuSans-6d"/>
      <use x="97.412109" xlink:href="#DejaVuSans-65"/>
      <use x="158.935547" xlink:href="#DejaVuSans-64"/>
      <use x="222.412109" xlink:href="#DejaVuSans-69"/>
      <use x="250.195312" xlink:href="#DejaVuSans-61"/>
      <use x="311.474609" xlink:href="#DejaVuSans-6e"/>
      <use x="374.853516" xlink:href="#DejaVuSans-20"/>
      <use x="406.640625" xlink:href="#DejaVuSans-3d"/>
      <use x="490.429688" xlink:href="#DejaVuSans-20"/>
      <use x="522.216797" xlink:href="#DejaVuSans-31"/>
      <use x="585.839844" xlink:href="#DejaVuSans-37"/>
      <use x="649.462891" xlink:href="#DejaVuSans-39"/>
      <use x="713.085938" xlink:href="#DejaVuSans-2e"/>
      <use x="744.873047" xlink:href="#DejaVuSans-30"/>
     </g>
    </g>
    <g id="line2d_38">
     <path d="M 777.591875 81.552687 
L 797.591875 81.552687 
" style="fill:none;stroke:#404040;stroke-dasharray:3.7,1.6;stroke-dashoffset:0;"/>
    </g>
    <g id="text_23">
     <!-- 90% = 265.0 -->
     <g transform="translate(805.591875 85.052687)scale(0.1 -0.1)">
      <use xlink:href="#DejaVuSans-39"/>
      <use x="63.623047" xlink:href="#DejaVuSans-30"/>
      <use x="127.246094" xlink:href="#DejaVuSans-25"/>
      <use x="222.265625" xlink:href="#DejaVuSans-20"/>
      <use x="254.052734" xlink:href="#DejaVuSans-3d"/>
      <use x="337.841797" xlink:href="#DejaVuSans-20"/>
      <use x="369.628906" xlink:href="#DejaVuSans-32"/>
      <use x="433.251953" xlink:href="#DejaVuSans-36"/>
      <use x="496.875" xlink:href="#DejaVuSans-35"/>
      <use x="560.498047" xlink:href="#DejaVuSans-2e"/>
      <use x="592.285156" xlink:href="#DejaVuSans-30"/>
     </g>
    </g>
   </g>
  </g>
 </g>
 <defs>
  <clipPath id="p42eed56ca9">
   <rect height="217.44" width="837" x="58.441875" y="24.14175"/>
  </clipPath>
 </defs>
</svg>
