<?xml version="1.0" encoding="utf-8" standalone="no"?>
<!DOCTYPE svg PUBLIC "-//W3C//DTD SVG 1.1//EN"
  "http://www.w3.org/Graphics/SVG/1.1/DTD/svg11.dtd">
<!-- Created with matplotlib (http://matplotlib.org/) -->
<svg height="135pt" version="1.1" viewBox="0 0 856 135" width="856pt" xmlns="http://www.w3.org/2000/svg" xmlns:xlink="http://www.w3.org/1999/xlink">
 <defs>
  <style type="text/css">
*{stroke-linecap:butt;stroke-linejoin:round;}
  </style>
 </defs>
 <g id="figure_1">
  <g id="patch_1">
   <path d="M 0 135.033625 
L 856.6475 135.033625 
L 856.6475 0 
L 0 0 
z
" style="fill:#ffffff;"/>
  </g>
  <g id="axes_1">
   <g id="patch_2">
    <path d="M 277.7975 95.54175 
L 845.9475 95.54175 
L 845.9475 24.14175 
L 277.7975 24.14175 
z
" style="fill:#e5e5e5;"/>
   </g>
   <g id="matplotlib.axis_1">
    <g id="xtick_1">
     <g id="line2d_1">
      <path clip-path="url(#pe4a8edcdb1)" d="M 305.563276 95.54175 
L 305.563276 24.14175 
" style="fill:none;stroke:#ffffff;stroke-linecap:square;stroke-width:0.8;"/>
     </g>
     <g id="line2d_2">
      <defs>
       <path d="M 0 0 
L 0 3.5 
" id="m92d570412d" style="stroke:#555555;stroke-width:0.8;"/>
      </defs>
      <g>
       <use style="fill:#555555;stroke:#555555;stroke-width:0.8;" x="305.563276" xlink:href="#m92d570412d" y="95.54175"/>
      </g>
     </g>
     <g id="text_1">
      <!-- 2 -->
      <defs>
       <path d="M 19.1875 8.296875 
L 53.609375 8.296875 
L 53.609375 0 
L 7.328125 0 
L 7.328125 8.296875 
Q 12.9375 14.109375 22.625 23.890625 
Q 32.328125 33.6875 34.8125 36.53125 
Q 39.546875 41.84375 41.421875 45.53125 
Q 43.3125 49.21875 43.3125 52.78125 
Q 43.3125 58.59375 39.234375 62.25 
Q 35.15625 65.921875 28.609375 65.921875 
Q 23.96875 65.921875 18.8125 64.3125 
Q 13.671875 62.703125 7.8125 59.421875 
L 7.8125 69.390625 
Q 13.765625 71.78125 18.9375 73 
Q 24.125 74.21875 28.421875 74.21875 
Q 39.75 74.21875 46.484375 68.546875 
Q 53.21875 62.890625 53.21875 53.421875 
Q 53.21875 48.921875 51.53125 44.890625 
Q 49.859375 40.875 45.40625 35.40625 
Q 44.1875 33.984375 37.640625 27.21875 
Q 31.109375 20.453125 19.1875 8.296875 
z
" id="DejaVuSans-32"/>
      </defs>
      <g style="fill:#555555;" transform="translate(302.382026 110.140187)scale(0.1 -0.1)">
       <use xlink:href="#DejaVuSans-32"/>
      </g>
     </g>
    </g>
    <g id="xtick_2">
     <g id="line2d_3">
      <path clip-path="url(#pe4a8edcdb1)" d="M 378.591048 95.54175 
L 378.591048 24.14175 
" style="fill:none;stroke:#ffffff;stroke-linecap:square;stroke-width:0.8;"/>
     </g>
     <g id="line2d_4">
      <g>
       <use style="fill:#555555;stroke:#555555;stroke-width:0.8;" x="378.591048" xlink:href="#m92d570412d" y="95.54175"/>
      </g>
     </g>
     <g id="text_2">
      <!-- 4 -->
      <defs>
       <path d="M 37.796875 64.3125 
L 12.890625 25.390625 
L 37.796875 25.390625 
z
M 35.203125 72.90625 
L 47.609375 72.90625 
L 47.609375 25.390625 
L 58.015625 25.390625 
L 58.015625 17.1875 
L 47.609375 17.1875 
L 47.609375 0 
L 37.796875 0 
L 37.796875 17.1875 
L 4.890625 17.1875 
L 4.890625 26.703125 
z
" id="DejaVuSans-34"/>
      </defs>
      <g style="fill:#555555;" transform="translate(375.409798 110.140187)scale(0.1 -0.1)">
       <use xlink:href="#DejaVuSans-34"/>
      </g>
     </g>
    </g>
    <g id="xtick_3">
     <g id="line2d_5">
      <path clip-path="url(#pe4a8edcdb1)" d="M 451.618821 95.54175 
L 451.618821 24.14175 
" style="fill:none;stroke:#ffffff;stroke-linecap:square;stroke-width:0.8;"/>
     </g>
     <g id="line2d_6">
      <g>
       <use style="fill:#555555;stroke:#555555;stroke-width:0.8;" x="451.618821" xlink:href="#m92d570412d" y="95.54175"/>
      </g>
     </g>
     <g id="text_3">
      <!-- 6 -->
      <defs>
       <path d="M 33.015625 40.375 
Q 26.375 40.375 22.484375 35.828125 
Q 18.609375 31.296875 18.609375 23.390625 
Q 18.609375 15.53125 22.484375 10.953125 
Q 26.375 6.390625 33.015625 6.390625 
Q 39.65625 6.390625 43.53125 10.953125 
Q 47.40625 15.53125 47.40625 23.390625 
Q 47.40625 31.296875 43.53125 35.828125 
Q 39.65625 40.375 33.015625 40.375 
z
M 52.59375 71.296875 
L 52.59375 62.3125 
Q 48.875 64.0625 45.09375 64.984375 
Q 41.3125 65.921875 37.59375 65.921875 
Q 27.828125 65.921875 22.671875 59.328125 
Q 17.53125 52.734375 16.796875 39.40625 
Q 19.671875 43.65625 24.015625 45.921875 
Q 28.375 48.1875 33.59375 48.1875 
Q 44.578125 48.1875 50.953125 41.515625 
Q 57.328125 34.859375 57.328125 23.390625 
Q 57.328125 12.15625 50.6875 5.359375 
Q 44.046875 -1.421875 33.015625 -1.421875 
Q 20.359375 -1.421875 13.671875 8.265625 
Q 6.984375 17.96875 6.984375 36.375 
Q 6.984375 53.65625 15.1875 63.9375 
Q 23.390625 74.21875 37.203125 74.21875 
Q 40.921875 74.21875 44.703125 73.484375 
Q 48.484375 72.75 52.59375 71.296875 
z
" id="DejaVuSans-36"/>
      </defs>
      <g style="fill:#555555;" transform="translate(448.437571 110.140187)scale(0.1 -0.1)">
       <use xlink:href="#DejaVuSans-36"/>
      </g>
     </g>
    </g>
    <g id="xtick_4">
     <g id="line2d_7">
      <path clip-path="url(#pe4a8edcdb1)" d="M 524.646593 95.54175 
L 524.646593 24.14175 
" style="fill:none;stroke:#ffffff;stroke-linecap:square;stroke-width:0.8;"/>
     </g>
     <g id="line2d_8">
      <g>
       <use style="fill:#555555;stroke:#555555;stroke-width:0.8;" x="524.646593" xlink:href="#m92d570412d" y="95.54175"/>
      </g>
     </g>
     <g id="text_4">
      <!-- 8 -->
      <defs>
       <path d="M 31.78125 34.625 
Q 24.75 34.625 20.71875 30.859375 
Q 16.703125 27.09375 16.703125 20.515625 
Q 16.703125 13.921875 20.71875 10.15625 
Q 24.75 6.390625 31.78125 6.390625 
Q 38.8125 6.390625 42.859375 10.171875 
Q 46.921875 13.96875 46.921875 20.515625 
Q 46.921875 27.09375 42.890625 30.859375 
Q 38.875 34.625 31.78125 34.625 
z
M 21.921875 38.8125 
Q 15.578125 40.375 12.03125 44.71875 
Q 8.5 49.078125 8.5 55.328125 
Q 8.5 64.0625 14.71875 69.140625 
Q 20.953125 74.21875 31.78125 74.21875 
Q 42.671875 74.21875 48.875 69.140625 
Q 55.078125 64.0625 55.078125 55.328125 
Q 55.078125 49.078125 51.53125 44.71875 
Q 48 40.375 41.703125 38.8125 
Q 48.828125 37.15625 52.796875 32.3125 
Q 56.78125 27.484375 56.78125 20.515625 
Q 56.78125 9.90625 50.3125 4.234375 
Q 43.84375 -1.421875 31.78125 -1.421875 
Q 19.734375 -1.421875 13.25 4.234375 
Q 6.78125 9.90625 6.78125 20.515625 
Q 6.78125 27.484375 10.78125 32.3125 
Q 14.796875 37.15625 21.921875 38.8125 
z
M 18.3125 54.390625 
Q 18.3125 48.734375 21.84375 45.5625 
Q 25.390625 42.390625 31.78125 42.390625 
Q 38.140625 42.390625 41.71875 45.5625 
Q 45.3125 48.734375 45.3125 54.390625 
Q 45.3125 60.0625 41.71875 63.234375 
Q 38.140625 66.40625 31.78125 66.40625 
Q 25.390625 66.40625 21.84375 63.234375 
Q 18.3125 60.0625 18.3125 54.390625 
z
" id="DejaVuSans-38"/>
      </defs>
      <g style="fill:#555555;" transform="translate(521.465343 110.140187)scale(0.1 -0.1)">
       <use xlink:href="#DejaVuSans-38"/>
      </g>
     </g>
    </g>
    <g id="xtick_5">
     <g id="line2d_9">
      <path clip-path="url(#pe4a8edcdb1)" d="M 597.674365 95.54175 
L 597.674365 24.14175 
" style="fill:none;stroke:#ffffff;stroke-linecap:square;stroke-width:0.8;"/>
     </g>
     <g id="line2d_10">
      <g>
       <use style="fill:#555555;stroke:#555555;stroke-width:0.8;" x="597.674365" xlink:href="#m92d570412d" y="95.54175"/>
      </g>
     </g>
     <g id="text_5">
      <!-- 10 -->
      <defs>
       <path d="M 12.40625 8.296875 
L 28.515625 8.296875 
L 28.515625 63.921875 
L 10.984375 60.40625 
L 10.984375 69.390625 
L 28.421875 72.90625 
L 38.28125 72.90625 
L 38.28125 8.296875 
L 54.390625 8.296875 
L 54.390625 0 
L 12.40625 0 
z
" id="DejaVuSans-31"/>
       <path d="M 31.78125 66.40625 
Q 24.171875 66.40625 20.328125 58.90625 
Q 16.5 51.421875 16.5 36.375 
Q 16.5 21.390625 20.328125 13.890625 
Q 24.171875 6.390625 31.78125 6.390625 
Q 39.453125 6.390625 43.28125 13.890625 
Q 47.125 21.390625 47.125 36.375 
Q 47.125 51.421875 43.28125 58.90625 
Q 39.453125 66.40625 31.78125 66.40625 
z
M 31.78125 74.21875 
Q 44.046875 74.21875 50.515625 64.515625 
Q 56.984375 54.828125 56.984375 36.375 
Q 56.984375 17.96875 50.515625 8.265625 
Q 44.046875 -1.421875 31.78125 -1.421875 
Q 19.53125 -1.421875 13.0625 8.265625 
Q 6.59375 17.96875 6.59375 36.375 
Q 6.59375 54.828125 13.0625 64.515625 
Q 19.53125 74.21875 31.78125 74.21875 
z
" id="DejaVuSans-30"/>
      </defs>
      <g style="fill:#555555;" transform="translate(591.311865 110.140187)scale(0.1 -0.1)">
       <use xlink:href="#DejaVuSans-31"/>
       <use x="63.623047" xlink:href="#DejaVuSans-30"/>
      </g>
     </g>
    </g>
    <g id="xtick_6">
     <g id="line2d_11">
      <path clip-path="url(#pe4a8edcdb1)" d="M 670.702138 95.54175 
L 670.702138 24.14175 
" style="fill:none;stroke:#ffffff;stroke-linecap:square;stroke-width:0.8;"/>
     </g>
     <g id="line2d_12">
      <g>
       <use style="fill:#555555;stroke:#555555;stroke-width:0.8;" x="670.702138" xlink:href="#m92d570412d" y="95.54175"/>
      </g>
     </g>
     <g id="text_6">
      <!-- 12 -->
      <g style="fill:#555555;" transform="translate(664.339638 110.140187)scale(0.1 -0.1)">
       <use xlink:href="#DejaVuSans-31"/>
       <use x="63.623047" xlink:href="#DejaVuSans-32"/>
      </g>
     </g>
    </g>
    <g id="xtick_7">
     <g id="line2d_13">
      <path clip-path="url(#pe4a8edcdb1)" d="M 743.72991 95.54175 
L 743.72991 24.14175 
" style="fill:none;stroke:#ffffff;stroke-linecap:square;stroke-width:0.8;"/>
     </g>
     <g id="line2d_14">
      <g>
       <use style="fill:#555555;stroke:#555555;stroke-width:0.8;" x="743.72991" xlink:href="#m92d570412d" y="95.54175"/>
      </g>
     </g>
     <g id="text_7">
      <!-- 14 -->
      <g style="fill:#555555;" transform="translate(737.36741 110.140187)scale(0.1 -0.1)">
       <use xlink:href="#DejaVuSans-31"/>
       <use x="63.623047" xlink:href="#DejaVuSans-34"/>
      </g>
     </g>
    </g>
    <g id="xtick_8">
     <g id="line2d_15">
      <path clip-path="url(#pe4a8edcdb1)" d="M 816.757682 95.54175 
L 816.757682 24.14175 
" style="fill:none;stroke:#ffffff;stroke-linecap:square;stroke-width:0.8;"/>
     </g>
     <g id="line2d_16">
      <g>
       <use style="fill:#555555;stroke:#555555;stroke-width:0.8;" x="816.757682" xlink:href="#m92d570412d" y="95.54175"/>
      </g>
     </g>
     <g id="text_8">
      <!-- 16 -->
      <g style="fill:#555555;" transform="translate(810.395182 110.140187)scale(0.1 -0.1)">
       <use xlink:href="#DejaVuSans-31"/>
       <use x="63.623047" xlink:href="#DejaVuSans-36"/>
      </g>
     </g>
    </g>
    <g id="text_9">
     <!-- mean_qscore -->
     <defs>
      <path d="M 52 44.1875 
Q 55.375 50.25 60.0625 53.125 
Q 64.75 56 71.09375 56 
Q 79.640625 56 84.28125 50.015625 
Q 88.921875 44.046875 88.921875 33.015625 
L 88.921875 0 
L 79.890625 0 
L 79.890625 32.71875 
Q 79.890625 40.578125 77.09375 44.375 
Q 74.3125 48.1875 68.609375 48.1875 
Q 61.625 48.1875 57.5625 43.546875 
Q 53.515625 38.921875 53.515625 30.90625 
L 53.515625 0 
L 44.484375 0 
L 44.484375 32.71875 
Q 44.484375 40.625 41.703125 44.40625 
Q 38.921875 48.1875 33.109375 48.1875 
Q 26.21875 48.1875 22.15625 43.53125 
Q 18.109375 38.875 18.109375 30.90625 
L 18.109375 0 
L 9.078125 0 
L 9.078125 54.6875 
L 18.109375 54.6875 
L 18.109375 46.1875 
Q 21.1875 51.21875 25.484375 53.609375 
Q 29.78125 56 35.6875 56 
Q 41.65625 56 45.828125 52.96875 
Q 50 49.953125 52 44.1875 
z
" id="DejaVuSans-6d"/>
      <path d="M 56.203125 29.59375 
L 56.203125 25.203125 
L 14.890625 25.203125 
Q 15.484375 15.921875 20.484375 11.0625 
Q 25.484375 6.203125 34.421875 6.203125 
Q 39.59375 6.203125 44.453125 7.46875 
Q 49.3125 8.734375 54.109375 11.28125 
L 54.109375 2.78125 
Q 49.265625 0.734375 44.1875 -0.34375 
Q 39.109375 -1.421875 33.890625 -1.421875 
Q 20.796875 -1.421875 13.15625 6.1875 
Q 5.515625 13.8125 5.515625 26.8125 
Q 5.515625 40.234375 12.765625 48.109375 
Q 20.015625 56 32.328125 56 
Q 43.359375 56 49.78125 48.890625 
Q 56.203125 41.796875 56.203125 29.59375 
z
M 47.21875 32.234375 
Q 47.125 39.59375 43.09375 43.984375 
Q 39.0625 48.390625 32.421875 48.390625 
Q 24.90625 48.390625 20.390625 44.140625 
Q 15.875 39.890625 15.1875 32.171875 
z
" id="DejaVuSans-65"/>
      <path d="M 34.28125 27.484375 
Q 23.390625 27.484375 19.1875 25 
Q 14.984375 22.515625 14.984375 16.5 
Q 14.984375 11.71875 18.140625 8.90625 
Q 21.296875 6.109375 26.703125 6.109375 
Q 34.1875 6.109375 38.703125 11.40625 
Q 43.21875 16.703125 43.21875 25.484375 
L 43.21875 27.484375 
z
M 52.203125 31.203125 
L 52.203125 0 
L 43.21875 0 
L 43.21875 8.296875 
Q 40.140625 3.328125 35.546875 0.953125 
Q 30.953125 -1.421875 24.3125 -1.421875 
Q 15.921875 -1.421875 10.953125 3.296875 
Q 6 8.015625 6 15.921875 
Q 6 25.140625 12.171875 29.828125 
Q 18.359375 34.515625 30.609375 34.515625 
L 43.21875 34.515625 
L 43.21875 35.40625 
Q 43.21875 41.609375 39.140625 45 
Q 35.0625 48.390625 27.6875 48.390625 
Q 23 48.390625 18.546875 47.265625 
Q 14.109375 46.140625 10.015625 43.890625 
L 10.015625 52.203125 
Q 14.9375 54.109375 19.578125 55.046875 
Q 24.21875 56 28.609375 56 
Q 40.484375 56 46.34375 49.84375 
Q 52.203125 43.703125 52.203125 31.203125 
z
" id="DejaVuSans-61"/>
      <path d="M 54.890625 33.015625 
L 54.890625 0 
L 45.90625 0 
L 45.90625 32.71875 
Q 45.90625 40.484375 42.875 44.328125 
Q 39.84375 48.1875 33.796875 48.1875 
Q 26.515625 48.1875 22.3125 43.546875 
Q 18.109375 38.921875 18.109375 30.90625 
L 18.109375 0 
L 9.078125 0 
L 9.078125 54.6875 
L 18.109375 54.6875 
L 18.109375 46.1875 
Q 21.34375 51.125 25.703125 53.5625 
Q 30.078125 56 35.796875 56 
Q 45.21875 56 50.046875 50.171875 
Q 54.890625 44.34375 54.890625 33.015625 
z
" id="DejaVuSans-6e"/>
      <path d="M 50.984375 -16.609375 
L 50.984375 -23.578125 
L -0.984375 -23.578125 
L -0.984375 -16.609375 
z
" id="DejaVuSans-5f"/>
      <path d="M 14.796875 27.296875 
Q 14.796875 17.390625 18.875 11.75 
Q 22.953125 6.109375 30.078125 6.109375 
Q 37.203125 6.109375 41.296875 11.75 
Q 45.40625 17.390625 45.40625 27.296875 
Q 45.40625 37.203125 41.296875 42.84375 
Q 37.203125 48.484375 30.078125 48.484375 
Q 22.953125 48.484375 18.875 42.84375 
Q 14.796875 37.203125 14.796875 27.296875 
z
M 45.40625 8.203125 
Q 42.578125 3.328125 38.25 0.953125 
Q 33.9375 -1.421875 27.875 -1.421875 
Q 17.96875 -1.421875 11.734375 6.484375 
Q 5.515625 14.40625 5.515625 27.296875 
Q 5.515625 40.1875 11.734375 48.09375 
Q 17.96875 56 27.875 56 
Q 33.9375 56 38.25 53.625 
Q 42.578125 51.265625 45.40625 46.390625 
L 45.40625 54.6875 
L 54.390625 54.6875 
L 54.390625 -20.796875 
L 45.40625 -20.796875 
z
" id="DejaVuSans-71"/>
      <path d="M 44.28125 53.078125 
L 44.28125 44.578125 
Q 40.484375 46.53125 36.375 47.5 
Q 32.28125 48.484375 27.875 48.484375 
Q 21.1875 48.484375 17.84375 46.4375 
Q 14.5 44.390625 14.5 40.28125 
Q 14.5 37.15625 16.890625 35.375 
Q 19.28125 33.59375 26.515625 31.984375 
L 29.59375 31.296875 
Q 39.15625 29.25 43.1875 25.515625 
Q 47.21875 21.78125 47.21875 15.09375 
Q 47.21875 7.46875 41.1875 3.015625 
Q 35.15625 -1.421875 24.609375 -1.421875 
Q 20.21875 -1.421875 15.453125 -0.5625 
Q 10.6875 0.296875 5.421875 2 
L 5.421875 11.28125 
Q 10.40625 8.6875 15.234375 7.390625 
Q 20.0625 6.109375 24.8125 6.109375 
Q 31.15625 6.109375 34.5625 8.28125 
Q 37.984375 10.453125 37.984375 14.40625 
Q 37.984375 18.0625 35.515625 20.015625 
Q 33.0625 21.96875 24.703125 23.78125 
L 21.578125 24.515625 
Q 13.234375 26.265625 9.515625 29.90625 
Q 5.8125 33.546875 5.8125 39.890625 
Q 5.8125 47.609375 11.28125 51.796875 
Q 16.75 56 26.8125 56 
Q 31.78125 56 36.171875 55.265625 
Q 40.578125 54.546875 44.28125 53.078125 
z
" id="DejaVuSans-73"/>
      <path d="M 48.78125 52.59375 
L 48.78125 44.1875 
Q 44.96875 46.296875 41.140625 47.34375 
Q 37.3125 48.390625 33.40625 48.390625 
Q 24.65625 48.390625 19.8125 42.84375 
Q 14.984375 37.3125 14.984375 27.296875 
Q 14.984375 17.28125 19.8125 11.734375 
Q 24.65625 6.203125 33.40625 6.203125 
Q 37.3125 6.203125 41.140625 7.25 
Q 44.96875 8.296875 48.78125 10.40625 
L 48.78125 2.09375 
Q 45.015625 0.34375 40.984375 -0.53125 
Q 36.96875 -1.421875 32.421875 -1.421875 
Q 20.0625 -1.421875 12.78125 6.34375 
Q 5.515625 14.109375 5.515625 27.296875 
Q 5.515625 40.671875 12.859375 48.328125 
Q 20.21875 56 33.015625 56 
Q 37.15625 56 41.109375 55.140625 
Q 45.0625 54.296875 48.78125 52.59375 
z
" id="DejaVuSans-63"/>
      <path d="M 30.609375 48.390625 
Q 23.390625 48.390625 19.1875 42.75 
Q 14.984375 37.109375 14.984375 27.296875 
Q 14.984375 17.484375 19.15625 11.84375 
Q 23.34375 6.203125 30.609375 6.203125 
Q 37.796875 6.203125 41.984375 11.859375 
Q 46.1875 17.53125 46.1875 27.296875 
Q 46.1875 37.015625 41.984375 42.703125 
Q 37.796875 48.390625 30.609375 48.390625 
z
M 30.609375 56 
Q 42.328125 56 49.015625 48.375 
Q 55.71875 40.765625 55.71875 27.296875 
Q 55.71875 13.875 49.015625 6.21875 
Q 42.328125 -1.421875 30.609375 -1.421875 
Q 18.84375 -1.421875 12.171875 6.21875 
Q 5.515625 13.875 5.515625 27.296875 
Q 5.515625 40.765625 12.171875 48.375 
Q 18.84375 56 30.609375 56 
z
" id="DejaVuSans-6f"/>
      <path d="M 41.109375 46.296875 
Q 39.59375 47.171875 37.8125 47.578125 
Q 36.03125 48 33.890625 48 
Q 26.265625 48 22.1875 43.046875 
Q 18.109375 38.09375 18.109375 28.8125 
L 18.109375 0 
L 9.078125 0 
L 9.078125 54.6875 
L 18.109375 54.6875 
L 18.109375 46.1875 
Q 20.953125 51.171875 25.484375 53.578125 
Q 30.03125 56 36.53125 56 
Q 37.453125 56 38.578125 55.875 
Q 39.703125 55.765625 41.0625 55.515625 
z
" id="DejaVuSans-72"/>
     </defs>
     <g style="fill:#555555;" transform="translate(521.795312 125.00425)scale(0.12 -0.12)">
      <use xlink:href="#DejaVuSans-6d"/>
      <use x="97.412109" xlink:href="#DejaVuSans-65"/>
      <use x="158.935547" xlink:href="#DejaVuSans-61"/>
      <use x="220.214844" xlink:href="#DejaVuSans-6e"/>
      <use x="283.59375" xlink:href="#DejaVuSans-5f"/>
      <use x="333.59375" xlink:href="#DejaVuSans-71"/>
      <use x="397.070312" xlink:href="#DejaVuSans-73"/>
      <use x="449.169922" xlink:href="#DejaVuSans-63"/>
      <use x="504.150391" xlink:href="#DejaVuSans-6f"/>
      <use x="565.332031" xlink:href="#DejaVuSans-72"/>
      <use x="606.414062" xlink:href="#DejaVuSans-65"/>
     </g>
    </g>
   </g>
   <g id="matplotlib.axis_2">
    <g id="ytick_1">
     <g id="line2d_17">
      <defs>
       <path d="M 0 0 
L -3.5 0 
" id="m0f947c10c9" style="stroke:#555555;stroke-width:0.8;"/>
      </defs>
      <g>
       <use style="fill:#555555;stroke:#555555;stroke-width:0.8;" x="277.7975" xlink:href="#m0f947c10c9" y="41.99175"/>
      </g>
     </g>
     <g id="text_10">
      <!-- ad3de3b63de71c4c6d5ea4470a82782cf51210d9 -->
      <defs>
       <path d="M 45.40625 46.390625 
L 45.40625 75.984375 
L 54.390625 75.984375 
L 54.390625 0 
L 45.40625 0 
L 45.40625 8.203125 
Q 42.578125 3.328125 38.25 0.953125 
Q 33.9375 -1.421875 27.875 -1.421875 
Q 17.96875 -1.421875 11.734375 6.484375 
Q 5.515625 14.40625 5.515625 27.296875 
Q 5.515625 40.1875 11.734375 48.09375 
Q 17.96875 56 27.875 56 
Q 33.9375 56 38.25 53.625 
Q 42.578125 51.265625 45.40625 46.390625 
z
M 14.796875 27.296875 
Q 14.796875 17.390625 18.875 11.75 
Q 22.953125 6.109375 30.078125 6.109375 
Q 37.203125 6.109375 41.296875 11.75 
Q 45.40625 17.390625 45.40625 27.296875 
Q 45.40625 37.203125 41.296875 42.84375 
Q 37.203125 48.484375 30.078125 48.484375 
Q 22.953125 48.484375 18.875 42.84375 
Q 14.796875 37.203125 14.796875 27.296875 
z
" id="DejaVuSans-64"/>
       <path d="M 40.578125 39.3125 
Q 47.65625 37.796875 51.625 33 
Q 55.609375 28.21875 55.609375 21.1875 
Q 55.609375 10.40625 48.1875 4.484375 
Q 40.765625 -1.421875 27.09375 -1.421875 
Q 22.515625 -1.421875 17.65625 -0.515625 
Q 12.796875 0.390625 7.625 2.203125 
L 7.625 11.71875 
Q 11.71875 9.328125 16.59375 8.109375 
Q 21.484375 6.890625 26.8125 6.890625 
Q 36.078125 6.890625 40.9375 10.546875 
Q 45.796875 14.203125 45.796875 21.1875 
Q 45.796875 27.640625 41.28125 31.265625 
Q 36.765625 34.90625 28.71875 34.90625 
L 20.21875 34.90625 
L 20.21875 43.015625 
L 29.109375 43.015625 
Q 36.375 43.015625 40.234375 45.921875 
Q 44.09375 48.828125 44.09375 54.296875 
Q 44.09375 59.90625 40.109375 62.90625 
Q 36.140625 65.921875 28.71875 65.921875 
Q 24.65625 65.921875 20.015625 65.03125 
Q 15.375 64.15625 9.8125 62.3125 
L 9.8125 71.09375 
Q 15.4375 72.65625 20.34375 73.4375 
Q 25.25 74.21875 29.59375 74.21875 
Q 40.828125 74.21875 47.359375 69.109375 
Q 53.90625 64.015625 53.90625 55.328125 
Q 53.90625 49.265625 50.4375 45.09375 
Q 46.96875 40.921875 40.578125 39.3125 
z
" id="DejaVuSans-33"/>
       <path d="M 48.6875 27.296875 
Q 48.6875 37.203125 44.609375 42.84375 
Q 40.53125 48.484375 33.40625 48.484375 
Q 26.265625 48.484375 22.1875 42.84375 
Q 18.109375 37.203125 18.109375 27.296875 
Q 18.109375 17.390625 22.1875 11.75 
Q 26.265625 6.109375 33.40625 6.109375 
Q 40.53125 6.109375 44.609375 11.75 
Q 48.6875 17.390625 48.6875 27.296875 
z
M 18.109375 46.390625 
Q 20.953125 51.265625 25.265625 53.625 
Q 29.59375 56 35.59375 56 
Q 45.5625 56 51.78125 48.09375 
Q 58.015625 40.1875 58.015625 27.296875 
Q 58.015625 14.40625 51.78125 6.484375 
Q 45.5625 -1.421875 35.59375 -1.421875 
Q 29.59375 -1.421875 25.265625 0.953125 
Q 20.953125 3.328125 18.109375 8.203125 
L 18.109375 0 
L 9.078125 0 
L 9.078125 75.984375 
L 18.109375 75.984375 
z
" id="DejaVuSans-62"/>
       <path d="M 8.203125 72.90625 
L 55.078125 72.90625 
L 55.078125 68.703125 
L 28.609375 0 
L 18.3125 0 
L 43.21875 64.59375 
L 8.203125 64.59375 
z
" id="DejaVuSans-37"/>
       <path d="M 10.796875 72.90625 
L 49.515625 72.90625 
L 49.515625 64.59375 
L 19.828125 64.59375 
L 19.828125 46.734375 
Q 21.96875 47.46875 24.109375 47.828125 
Q 26.265625 48.1875 28.421875 48.1875 
Q 40.625 48.1875 47.75 41.5 
Q 54.890625 34.8125 54.890625 23.390625 
Q 54.890625 11.625 47.5625 5.09375 
Q 40.234375 -1.421875 26.90625 -1.421875 
Q 22.3125 -1.421875 17.546875 -0.640625 
Q 12.796875 0.140625 7.71875 1.703125 
L 7.71875 11.625 
Q 12.109375 9.234375 16.796875 8.0625 
Q 21.484375 6.890625 26.703125 6.890625 
Q 35.15625 6.890625 40.078125 11.328125 
Q 45.015625 15.765625 45.015625 23.390625 
Q 45.015625 31 40.078125 35.4375 
Q 35.15625 39.890625 26.703125 39.890625 
Q 22.75 39.890625 18.8125 39.015625 
Q 14.890625 38.140625 10.796875 36.28125 
z
" id="DejaVuSans-35"/>
       <path d="M 37.109375 75.984375 
L 37.109375 68.5 
L 28.515625 68.5 
Q 23.6875 68.5 21.796875 66.546875 
Q 19.921875 64.59375 19.921875 59.515625 
L 19.921875 54.6875 
L 34.71875 54.6875 
L 34.71875 47.703125 
L 19.921875 47.703125 
L 19.921875 0 
L 10.890625 0 
L 10.890625 47.703125 
L 2.296875 47.703125 
L 2.296875 54.6875 
L 10.890625 54.6875 
L 10.890625 58.5 
Q 10.890625 67.625 15.140625 71.796875 
Q 19.390625 75.984375 28.609375 75.984375 
z
" id="DejaVuSans-66"/>
       <path d="M 10.984375 1.515625 
L 10.984375 10.5 
Q 14.703125 8.734375 18.5 7.8125 
Q 22.3125 6.890625 25.984375 6.890625 
Q 35.75 6.890625 40.890625 13.453125 
Q 46.046875 20.015625 46.78125 33.40625 
Q 43.953125 29.203125 39.59375 26.953125 
Q 35.25 24.703125 29.984375 24.703125 
Q 19.046875 24.703125 12.671875 31.3125 
Q 6.296875 37.9375 6.296875 49.421875 
Q 6.296875 60.640625 12.9375 67.421875 
Q 19.578125 74.21875 30.609375 74.21875 
Q 43.265625 74.21875 49.921875 64.515625 
Q 56.59375 54.828125 56.59375 36.375 
Q 56.59375 19.140625 48.40625 8.859375 
Q 40.234375 -1.421875 26.421875 -1.421875 
Q 22.703125 -1.421875 18.890625 -0.6875 
Q 15.09375 0.046875 10.984375 1.515625 
z
M 30.609375 32.421875 
Q 37.25 32.421875 41.125 36.953125 
Q 45.015625 41.5 45.015625 49.421875 
Q 45.015625 57.28125 41.125 61.84375 
Q 37.25 66.40625 30.609375 66.40625 
Q 23.96875 66.40625 20.09375 61.84375 
Q 16.21875 57.28125 16.21875 49.421875 
Q 16.21875 41.5 20.09375 36.953125 
Q 23.96875 32.421875 30.609375 32.421875 
z
" id="DejaVuSans-39"/>
      </defs>
      <g style="fill:#555555;" transform="translate(23.1475 45.790969)scale(0.1 -0.1)">
       <use xlink:href="#DejaVuSans-61"/>
       <use x="61.279297" xlink:href="#DejaVuSans-64"/>
       <use x="124.755859" xlink:href="#DejaVuSans-33"/>
       <use x="188.378906" xlink:href="#DejaVuSans-64"/>
       <use x="251.855469" xlink:href="#DejaVuSans-65"/>
       <use x="313.378906" xlink:href="#DejaVuSans-33"/>
       <use x="377.001953" xlink:href="#DejaVuSans-62"/>
       <use x="440.478516" xlink:href="#DejaVuSans-36"/>
       <use x="504.101562" xlink:href="#DejaVuSans-33"/>
       <use x="567.724609" xlink:href="#DejaVuSans-64"/>
       <use x="631.201172" xlink:href="#DejaVuSans-65"/>
       <use x="692.724609" xlink:href="#DejaVuSans-37"/>
       <use x="756.347656" xlink:href="#DejaVuSans-31"/>
       <use x="819.970703" xlink:href="#DejaVuSans-63"/>
       <use x="874.951172" xlink:href="#DejaVuSans-34"/>
       <use x="938.574219" xlink:href="#DejaVuSans-63"/>
       <use x="993.554688" xlink:href="#DejaVuSans-36"/>
       <use x="1057.177734" xlink:href="#DejaVuSans-64"/>
       <use x="1120.654297" xlink:href="#DejaVuSans-35"/>
       <use x="1184.277344" xlink:href="#DejaVuSans-65"/>
       <use x="1245.800781" xlink:href="#DejaVuSans-61"/>
       <use x="1307.080078" xlink:href="#DejaVuSans-34"/>
       <use x="1370.703125" xlink:href="#DejaVuSans-34"/>
       <use x="1434.326172" xlink:href="#DejaVuSans-37"/>
       <use x="1497.949219" xlink:href="#DejaVuSans-30"/>
       <use x="1561.572266" xlink:href="#DejaVuSans-61"/>
       <use x="1622.851562" xlink:href="#DejaVuSans-38"/>
       <use x="1686.474609" xlink:href="#DejaVuSans-32"/>
       <use x="1750.097656" xlink:href="#DejaVuSans-37"/>
       <use x="1813.720703" xlink:href="#DejaVuSans-38"/>
       <use x="1877.34375" xlink:href="#DejaVuSans-32"/>
       <use x="1940.966797" xlink:href="#DejaVuSans-63"/>
       <use x="1995.947266" xlink:href="#DejaVuSans-66"/>
       <use x="2031.152344" xlink:href="#DejaVuSans-35"/>
       <use x="2094.775391" xlink:href="#DejaVuSans-31"/>
       <use x="2158.398438" xlink:href="#DejaVuSans-32"/>
       <use x="2222.021484" xlink:href="#DejaVuSans-31"/>
       <use x="2285.644531" xlink:href="#DejaVuSans-30"/>
       <use x="2349.267578" xlink:href="#DejaVuSans-64"/>
       <use x="2412.744141" xlink:href="#DejaVuSans-39"/>
      </g>
     </g>
    </g>
    <g id="ytick_2">
     <g id="line2d_18">
      <g>
       <use style="fill:#555555;stroke:#555555;stroke-width:0.8;" x="277.7975" xlink:href="#m0f947c10c9" y="77.69175"/>
      </g>
     </g>
     <g id="text_11">
      <!-- 7082b6727942b3939a023beaf03ef24cec1722e5 -->
      <g style="fill:#555555;" transform="translate(25.058437 81.490969)scale(0.1 -0.1)">
       <use xlink:href="#DejaVuSans-37"/>
       <use x="63.623047" xlink:href="#DejaVuSans-30"/>
       <use x="127.246094" xlink:href="#DejaVuSans-38"/>
       <use x="190.869141" xlink:href="#DejaVuSans-32"/>
       <use x="254.492188" xlink:href="#DejaVuSans-62"/>
       <use x="317.96875" xlink:href="#DejaVuSans-36"/>
       <use x="381.591797" xlink:href="#DejaVuSans-37"/>
       <use x="445.214844" xlink:href="#DejaVuSans-32"/>
       <use x="508.837891" xlink:href="#DejaVuSans-37"/>
       <use x="572.460938" xlink:href="#DejaVuSans-39"/>
       <use x="636.083984" xlink:href="#DejaVuSans-34"/>
       <use x="699.707031" xlink:href="#DejaVuSans-32"/>
       <use x="763.330078" xlink:href="#DejaVuSans-62"/>
       <use x="826.806641" xlink:href="#DejaVuSans-33"/>
       <use x="890.429688" xlink:href="#DejaVuSans-39"/>
       <use x="954.052734" xlink:href="#DejaVuSans-33"/>
       <use x="1017.675781" xlink:href="#DejaVuSans-39"/>
       <use x="1081.298828" xlink:href="#DejaVuSans-61"/>
       <use x="1142.578125" xlink:href="#DejaVuSans-30"/>
       <use x="1206.201172" xlink:href="#DejaVuSans-32"/>
       <use x="1269.824219" xlink:href="#DejaVuSans-33"/>
       <use x="1333.447266" xlink:href="#DejaVuSans-62"/>
       <use x="1396.923828" xlink:href="#DejaVuSans-65"/>
       <use x="1458.447266" xlink:href="#DejaVuSans-61"/>
       <use x="1519.726562" xlink:href="#DejaVuSans-66"/>
       <use x="1554.931641" xlink:href="#DejaVuSans-30"/>
       <use x="1618.554688" xlink:href="#DejaVuSans-33"/>
       <use x="1682.177734" xlink:href="#DejaVuSans-65"/>
       <use x="1743.701172" xlink:href="#DejaVuSans-66"/>
       <use x="1778.90625" xlink:href="#DejaVuSans-32"/>
       <use x="1842.529297" xlink:href="#DejaVuSans-34"/>
       <use x="1906.152344" xlink:href="#DejaVuSans-63"/>
       <use x="1961.132812" xlink:href="#DejaVuSans-65"/>
       <use x="2022.65625" xlink:href="#DejaVuSans-63"/>
       <use x="2077.636719" xlink:href="#DejaVuSans-31"/>
       <use x="2141.259766" xlink:href="#DejaVuSans-37"/>
       <use x="2204.882812" xlink:href="#DejaVuSans-32"/>
       <use x="2268.505859" xlink:href="#DejaVuSans-32"/>
       <use x="2332.128906" xlink:href="#DejaVuSans-65"/>
       <use x="2393.652344" xlink:href="#DejaVuSans-35"/>
      </g>
     </g>
    </g>
    <g id="text_12">
     <!-- run_id -->
     <defs>
      <path d="M 8.5 21.578125 
L 8.5 54.6875 
L 17.484375 54.6875 
L 17.484375 21.921875 
Q 17.484375 14.15625 20.5 10.265625 
Q 23.53125 6.390625 29.59375 6.390625 
Q 36.859375 6.390625 41.078125 11.03125 
Q 45.3125 15.671875 45.3125 23.6875 
L 45.3125 54.6875 
L 54.296875 54.6875 
L 54.296875 0 
L 45.3125 0 
L 45.3125 8.40625 
Q 42.046875 3.421875 37.71875 1 
Q 33.40625 -1.421875 27.6875 -1.421875 
Q 18.265625 -1.421875 13.375 4.4375 
Q 8.5 10.296875 8.5 21.578125 
z
M 31.109375 56 
z
" id="DejaVuSans-75"/>
      <path d="M 9.421875 54.6875 
L 18.40625 54.6875 
L 18.40625 0 
L 9.421875 0 
z
M 9.421875 75.984375 
L 18.40625 75.984375 
L 18.40625 64.59375 
L 9.421875 64.59375 
z
" id="DejaVuSans-69"/>
     </defs>
     <g style="fill:#555555;" transform="translate(16.318125 78.38925)rotate(-90)scale(0.12 -0.12)">
      <use xlink:href="#DejaVuSans-72"/>
      <use x="41.113281" xlink:href="#DejaVuSans-75"/>
      <use x="104.492188" xlink:href="#DejaVuSans-6e"/>
      <use x="167.871094" xlink:href="#DejaVuSans-5f"/>
      <use x="217.871094" xlink:href="#DejaVuSans-69"/>
      <use x="245.654297" xlink:href="#DejaVuSans-64"/>
     </g>
    </g>
   </g>
   <g id="PolyCollection_1">
    <defs>
     <path d="M 303.6225 -93.041731 
L 303.6225 -93.042019 
L 308.839672 -93.042175 
L 314.056843 -93.042448 
L 319.274015 -93.042884 
L 324.491187 -93.043531 
L 329.708359 -93.044423 
L 334.92553 -93.045576 
L 340.142702 -93.04697 
L 345.359874 -93.048546 
L 350.577045 -93.050219 
L 355.794217 -93.051917 
L 361.011389 -93.053642 
L 366.228561 -93.055513 
L 371.445732 -93.057765 
L 376.662904 -93.060696 
L 381.880076 -93.064596 
L 387.097247 -93.069727 
L 392.314419 -93.076408 
L 397.531591 -93.085173 
L 402.748763 -93.096952 
L 407.965934 -93.113164 
L 413.183106 -93.135717 
L 418.400278 -93.167015 
L 423.617449 -93.210111 
L 428.834621 -93.269098 
L 434.051793 -93.349623 
L 439.268965 -93.459144 
L 444.486136 -93.606402 
L 449.703308 -93.799582 
L 454.92048 -94.043015 
L 460.137652 -94.332875 
L 465.354823 -94.653199 
L 470.571995 -94.974324 
L 475.789167 -95.256057 
L 481.006338 -95.456802 
L 486.22351 -95.547082 
L 491.440682 -95.522435 
L 496.657854 -95.409107 
L 501.875025 -95.258427 
L 507.092197 -95.131408 
L 512.309369 -95.080348 
L 517.52654 -95.135178 
L 522.743712 -95.298776 
L 527.960884 -95.550302 
L 533.178056 -95.852568 
L 538.395227 -96.159895 
L 543.612399 -96.425508 
L 548.829571 -96.609545 
L 554.046742 -96.688129 
L 559.263914 -96.661249 
L 564.481086 -96.555053 
L 569.698258 -96.415449 
L 574.915429 -96.294434 
L 580.132601 -96.235008 
L 585.349773 -96.261233 
L 590.566944 -96.376591 
L 595.784116 -96.569182 
L 601.001288 -96.819616 
L 606.21846 -97.107777 
L 611.435631 -97.416718 
L 616.652803 -97.734085 
L 621.869975 -98.05232 
L 627.087146 -98.368471 
L 632.304318 -98.68351 
L 637.52149 -99.000682 
L 642.738662 -99.323028 
L 647.955833 -99.651171 
L 653.173005 -99.982583 
L 658.390177 -100.312568 
L 663.607348 -100.635787 
L 668.82452 -100.946669 
L 674.041692 -101.237827 
L 679.258864 -101.497119 
L 684.476035 -101.705104 
L 689.693207 -101.834759 
L 694.910379 -101.854356 
L 700.127551 -101.732941 
L 705.344722 -101.446831 
L 710.561894 -100.985433 
L 715.779066 -100.35519 
L 720.996237 -99.580938 
L 726.213409 -98.704156 
L 731.430581 -97.777962 
L 736.647753 -96.859539 
L 741.864924 -96.001631 
L 747.082096 -95.245205 
L 752.299268 -94.614941 
L 757.516439 -94.118294 
L 762.733611 -93.747864 
L 767.950783 -93.486008 
L 773.167955 -93.310205 
L 778.385126 -93.197785 
L 783.602298 -93.129081 
L 788.81947 -93.08883 
L 794.036641 -93.066177 
L 799.253813 -93.05393 
L 804.470985 -93.047581 
L 809.688157 -93.044439 
L 814.905328 -93.042962 
L 820.1225 -93.042307 
L 820.1225 -93.041443 
L 820.1225 -93.041443 
L 814.905328 -93.040788 
L 809.688157 -93.039311 
L 804.470985 -93.036169 
L 799.253813 -93.02982 
L 794.036641 -93.017573 
L 788.81947 -92.99492 
L 783.602298 -92.954669 
L 778.385126 -92.885965 
L 773.167955 -92.773545 
L 767.950783 -92.597742 
L 762.733611 -92.335886 
L 757.516439 -91.965456 
L 752.299268 -91.468809 
L 747.082096 -90.838545 
L 741.864924 -90.082119 
L 736.647753 -89.224211 
L 731.430581 -88.305788 
L 726.213409 -87.379594 
L 720.996237 -86.502812 
L 715.779066 -85.72856 
L 710.561894 -85.098317 
L 705.344722 -84.636919 
L 700.127551 -84.350809 
L 694.910379 -84.229394 
L 689.693207 -84.248991 
L 684.476035 -84.378646 
L 679.258864 -84.586631 
L 674.041692 -84.845923 
L 668.82452 -85.137081 
L 663.607348 -85.447963 
L 658.390177 -85.771182 
L 653.173005 -86.101167 
L 647.955833 -86.432579 
L 642.738662 -86.760722 
L 637.52149 -87.083068 
L 632.304318 -87.40024 
L 627.087146 -87.715279 
L 621.869975 -88.03143 
L 616.652803 -88.349665 
L 611.435631 -88.667032 
L 606.21846 -88.975973 
L 601.001288 -89.264134 
L 595.784116 -89.514568 
L 590.566944 -89.707159 
L 585.349773 -89.822517 
L 580.132601 -89.848742 
L 574.915429 -89.789316 
L 569.698258 -89.668301 
L 564.481086 -89.528697 
L 559.263914 -89.422501 
L 554.046742 -89.395621 
L 548.829571 -89.474205 
L 543.612399 -89.658242 
L 538.395227 -89.923855 
L 533.178056 -90.231182 
L 527.960884 -90.533448 
L 522.743712 -90.784974 
L 517.52654 -90.948572 
L 512.309369 -91.003402 
L 507.092197 -90.952342 
L 501.875025 -90.825323 
L 496.657854 -90.674643 
L 491.440682 -90.561315 
L 486.22351 -90.536668 
L 481.006338 -90.626948 
L 475.789167 -90.827693 
L 470.571995 -91.109426 
L 465.354823 -91.430551 
L 460.137652 -91.750875 
L 454.92048 -92.040735 
L 449.703308 -92.284168 
L 444.486136 -92.477348 
L 439.268965 -92.624606 
L 434.051793 -92.734127 
L 428.834621 -92.814652 
L 423.617449 -92.873639 
L 418.400278 -92.916735 
L 413.183106 -92.948033 
L 407.965934 -92.970586 
L 402.748763 -92.986798 
L 397.531591 -92.998577 
L 392.314419 -93.007342 
L 387.097247 -93.014023 
L 381.880076 -93.019154 
L 376.662904 -93.023054 
L 371.445732 -93.025985 
L 366.228561 -93.028237 
L 361.011389 -93.030108 
L 355.794217 -93.031833 
L 350.577045 -93.033531 
L 345.359874 -93.035204 
L 340.142702 -93.03678 
L 334.92553 -93.038174 
L 329.708359 -93.039327 
L 324.491187 -93.040219 
L 319.274015 -93.040866 
L 314.056843 -93.041302 
L 308.839672 -93.041575 
L 303.6225 -93.041731 
z
" id="m5571a7cef0" style="stroke:#6a6a6a;"/>
    </defs>
    <g clip-path="url(#pe4a8edcdb1)">
     <use style="fill:#96cac1;stroke:#6a6a6a;" x="0" xlink:href="#m5571a7cef0" y="135.033625"/>
    </g>
   </g>
   <g id="PolyCollection_2">
    <defs>
     <path d="M 416.786547 -57.320342 
L 416.786547 -57.363408 
L 420.775373 -57.382161 
L 424.764198 -57.410162 
L 428.753024 -57.446768 
L 432.741849 -57.487927 
L 436.730675 -57.526311 
L 440.719501 -57.553339 
L 444.708326 -57.562556 
L 448.697152 -57.552709 
L 452.685977 -57.528683 
L 456.674803 -57.499573 
L 460.663628 -57.474808 
L 464.652454 -57.460328 
L 468.64128 -57.456681 
L 472.630105 -57.4598 
L 476.618931 -57.463916 
L 480.607756 -57.465105 
L 484.596582 -57.463764 
L 488.585407 -57.4649 
L 492.574233 -57.476231 
L 496.563058 -57.505144 
L 500.551884 -57.556092 
L 504.54071 -57.629717 
L 508.529535 -57.724118 
L 512.518361 -57.837584 
L 516.507186 -57.971273 
L 520.496012 -58.130327 
L 524.484837 -58.322756 
L 528.473663 -58.556498 
L 532.462489 -58.83547 
L 536.451314 -59.155174 
L 540.44014 -59.498597 
L 544.428965 -59.834336 
L 548.417791 -60.120074 
L 552.406616 -60.313091 
L 556.395442 -60.385082 
L 560.384268 -60.333971 
L 564.373093 -60.185281 
L 568.361919 -59.981253 
L 572.350744 -59.76353 
L 576.33957 -59.559113 
L 580.328395 -59.376632 
L 584.317221 -59.213196 
L 588.306047 -59.066158 
L 592.294872 -58.942391 
L 596.283698 -58.860161 
L 600.272523 -58.842959 
L 604.261349 -58.908488 
L 608.250174 -59.057989 
L 612.239 -59.271099 
L 616.227826 -59.509359 
L 620.216651 -59.727958 
L 624.205477 -59.891337 
L 628.194302 -59.986101 
L 632.183128 -60.02585 
L 636.171953 -60.046546 
L 640.160779 -60.095479 
L 644.149605 -60.218729 
L 648.13843 -60.450748 
L 652.127256 -60.807244 
L 656.116081 -61.281659 
L 660.104907 -61.846592 
L 664.093732 -62.462296 
L 668.082558 -63.092004 
L 672.071384 -63.718815 
L 676.060209 -64.355185 
L 680.049035 -65.037994 
L 684.03786 -65.809692 
L 688.026686 -66.693998 
L 692.015511 -67.67751 
L 696.004337 -68.705084 
L 699.993162 -69.690449 
L 703.981988 -70.537848 
L 707.970814 -71.166837 
L 711.959639 -71.530811 
L 715.948465 -71.621875 
L 719.93729 -71.461081 
L 723.926116 -71.080923 
L 727.914941 -70.510273 
L 731.903767 -69.768151 
L 735.892593 -68.865725 
L 739.881418 -67.812381 
L 743.870244 -66.623002 
L 747.859069 -65.325745 
L 751.847895 -63.968579 
L 755.83672 -62.620116 
L 759.825546 -61.36064 
L 763.814372 -60.264378 
L 767.803197 -59.380373 
L 771.792023 -58.721219 
L 775.780848 -58.264703 
L 779.769674 -57.966361 
L 783.758499 -57.775995 
L 787.747325 -57.650997 
L 791.736151 -57.562639 
L 795.724976 -57.495622 
L 799.713802 -57.443745 
L 803.702627 -57.404973 
L 807.691453 -57.377998 
L 811.680278 -57.360855 
L 811.680278 -57.322895 
L 811.680278 -57.322895 
L 807.691453 -57.305752 
L 803.702627 -57.278777 
L 799.713802 -57.240005 
L 795.724976 -57.188128 
L 791.736151 -57.121111 
L 787.747325 -57.032753 
L 783.758499 -56.907755 
L 779.769674 -56.717389 
L 775.780848 -56.419047 
L 771.792023 -55.962531 
L 767.803197 -55.303377 
L 763.814372 -54.419372 
L 759.825546 -53.32311 
L 755.83672 -52.063634 
L 751.847895 -50.715171 
L 747.859069 -49.358005 
L 743.870244 -48.060748 
L 739.881418 -46.871369 
L 735.892593 -45.818025 
L 731.903767 -44.915599 
L 727.914941 -44.173477 
L 723.926116 -43.602827 
L 719.93729 -43.222669 
L 715.948465 -43.061875 
L 711.959639 -43.152939 
L 707.970814 -43.516913 
L 703.981988 -44.145902 
L 699.993162 -44.993301 
L 696.004337 -45.978666 
L 692.015511 -47.00624 
L 688.026686 -47.989752 
L 684.03786 -48.874058 
L 680.049035 -49.645756 
L 676.060209 -50.328565 
L 672.071384 -50.964935 
L 668.082558 -51.591746 
L 664.093732 -52.221454 
L 660.104907 -52.837158 
L 656.116081 -53.402091 
L 652.127256 -53.876506 
L 648.13843 -54.233002 
L 644.149605 -54.465021 
L 640.160779 -54.588271 
L 636.171953 -54.637204 
L 632.183128 -54.6579 
L 628.194302 -54.697649 
L 624.205477 -54.792413 
L 620.216651 -54.955792 
L 616.227826 -55.174391 
L 612.239 -55.412651 
L 608.250174 -55.625761 
L 604.261349 -55.775262 
L 600.272523 -55.840791 
L 596.283698 -55.823589 
L 592.294872 -55.741359 
L 588.306047 -55.617592 
L 584.317221 -55.470554 
L 580.328395 -55.307118 
L 576.33957 -55.124637 
L 572.350744 -54.92022 
L 568.361919 -54.702497 
L 564.373093 -54.498469 
L 560.384268 -54.349779 
L 556.395442 -54.298668 
L 552.406616 -54.370659 
L 548.417791 -54.563676 
L 544.428965 -54.849414 
L 540.44014 -55.185153 
L 536.451314 -55.528576 
L 532.462489 -55.84828 
L 528.473663 -56.127252 
L 524.484837 -56.360994 
L 520.496012 -56.553423 
L 516.507186 -56.712477 
L 512.518361 -56.846166 
L 508.529535 -56.959632 
L 504.54071 -57.054033 
L 500.551884 -57.127658 
L 496.563058 -57.178606 
L 492.574233 -57.207519 
L 488.585407 -57.21885 
L 484.596582 -57.219986 
L 480.607756 -57.218645 
L 476.618931 -57.219834 
L 472.630105 -57.22395 
L 468.64128 -57.227069 
L 464.652454 -57.223422 
L 460.663628 -57.208942 
L 456.674803 -57.184177 
L 452.685977 -57.155067 
L 448.697152 -57.131041 
L 444.708326 -57.121194 
L 440.719501 -57.130411 
L 436.730675 -57.157439 
L 432.741849 -57.195823 
L 428.753024 -57.236982 
L 424.764198 -57.273588 
L 420.775373 -57.301589 
L 416.786547 -57.320342 
z
" id="m9cfb3bffa5" style="stroke:#6a6a6a;"/>
    </defs>
    <g clip-path="url(#pe4a8edcdb1)">
     <use style="fill:#f6f6bc;stroke:#6a6a6a;" x="0" xlink:href="#m9cfb3bffa5" y="135.033625"/>
    </g>
   </g>
   <g id="line2d_19">
    <path clip-path="url(#pe4a8edcdb1)" d="M 580.439811 38.830548 
L 580.439811 45.152952 
" style="fill:none;stroke:#6a6a6a;stroke-dasharray:1.5,1.5;stroke-dashoffset:0;"/>
   </g>
   <g id="line2d_20">
    <path clip-path="url(#pe4a8edcdb1)" d="M 653.978778 35.120449 
L 653.978778 48.863051 
" style="fill:none;stroke:#6a6a6a;stroke-dasharray:3,3;stroke-dashoffset:0;"/>
   </g>
   <g id="line2d_21">
    <path clip-path="url(#pe4a8edcdb1)" d="M 695.641122 33.267394 
L 695.641122 50.716106 
" style="fill:none;stroke:#6a6a6a;stroke-dasharray:1.5,1.5;stroke-dashoffset:0;"/>
   </g>
   <g id="line2d_22">
    <path clip-path="url(#pe4a8edcdb1)" d="M 665.115513 72.622533 
L 665.115513 82.760967 
" style="fill:none;stroke:#6a6a6a;stroke-dasharray:1.5,1.5;stroke-dashoffset:0;"/>
   </g>
   <g id="line2d_23">
    <path clip-path="url(#pe4a8edcdb1)" d="M 703.856746 64.627737 
L 703.856746 90.755763 
" style="fill:none;stroke:#6a6a6a;stroke-dasharray:3,3;stroke-dashoffset:0;"/>
   </g>
   <g id="line2d_24">
    <path clip-path="url(#pe4a8edcdb1)" d="M 726.130217 64.655036 
L 726.130217 90.728464 
" style="fill:none;stroke:#6a6a6a;stroke-dasharray:1.5,1.5;stroke-dashoffset:0;"/>
   </g>
   <g id="patch_3">
    <path d="M 277.7975 95.54175 
L 277.7975 24.14175 
" style="fill:none;stroke:#ffffff;stroke-linecap:square;stroke-linejoin:miter;"/>
   </g>
   <g id="patch_4">
    <path d="M 845.9475 95.54175 
L 845.9475 24.14175 
" style="fill:none;stroke:#ffffff;stroke-linecap:square;stroke-linejoin:miter;"/>
   </g>
   <g id="patch_5">
    <path d="M 277.7975 95.54175 
L 845.9475 95.54175 
" style="fill:none;stroke:#ffffff;stroke-linecap:square;stroke-linejoin:miter;"/>
   </g>
   <g id="patch_6">
    <path d="M 277.7975 24.14175 
L 845.9475 24.14175 
" style="fill:none;stroke:#ffffff;stroke-linecap:square;stroke-linejoin:miter;"/>
   </g>
   <g id="text_13">
    <!-- Quality score distribution -->
    <defs>
     <path d="M 39.40625 66.21875 
Q 28.65625 66.21875 22.328125 58.203125 
Q 16.015625 50.203125 16.015625 36.375 
Q 16.015625 22.609375 22.328125 14.59375 
Q 28.65625 6.59375 39.40625 6.59375 
Q 50.140625 6.59375 56.421875 14.59375 
Q 62.703125 22.609375 62.703125 36.375 
Q 62.703125 50.203125 56.421875 58.203125 
Q 50.140625 66.21875 39.40625 66.21875 
z
M 53.21875 1.3125 
L 66.21875 -12.890625 
L 54.296875 -12.890625 
L 43.5 -1.21875 
Q 41.890625 -1.3125 41.03125 -1.359375 
Q 40.1875 -1.421875 39.40625 -1.421875 
Q 24.03125 -1.421875 14.8125 8.859375 
Q 5.609375 19.140625 5.609375 36.375 
Q 5.609375 53.65625 14.8125 63.9375 
Q 24.03125 74.21875 39.40625 74.21875 
Q 54.734375 74.21875 63.90625 63.9375 
Q 73.09375 53.65625 73.09375 36.375 
Q 73.09375 23.6875 67.984375 14.640625 
Q 62.890625 5.609375 53.21875 1.3125 
z
" id="DejaVuSans-51"/>
     <path d="M 9.421875 75.984375 
L 18.40625 75.984375 
L 18.40625 0 
L 9.421875 0 
z
" id="DejaVuSans-6c"/>
     <path d="M 18.3125 70.21875 
L 18.3125 54.6875 
L 36.8125 54.6875 
L 36.8125 47.703125 
L 18.3125 47.703125 
L 18.3125 18.015625 
Q 18.3125 11.328125 20.140625 9.421875 
Q 21.96875 7.515625 27.59375 7.515625 
L 36.8125 7.515625 
L 36.8125 0 
L 27.59375 0 
Q 17.1875 0 13.234375 3.875 
Q 9.28125 7.765625 9.28125 18.015625 
L 9.28125 47.703125 
L 2.6875 47.703125 
L 2.6875 54.6875 
L 9.28125 54.6875 
L 9.28125 70.21875 
z
" id="DejaVuSans-74"/>
     <path d="M 32.171875 -5.078125 
Q 28.375 -14.84375 24.75 -17.8125 
Q 21.140625 -20.796875 15.09375 -20.796875 
L 7.90625 -20.796875 
L 7.90625 -13.28125 
L 13.1875 -13.28125 
Q 16.890625 -13.28125 18.9375 -11.515625 
Q 21 -9.765625 23.484375 -3.21875 
L 25.09375 0.875 
L 2.984375 54.6875 
L 12.5 54.6875 
L 29.59375 11.921875 
L 46.6875 54.6875 
L 56.203125 54.6875 
z
" id="DejaVuSans-79"/>
     <path id="DejaVuSans-20"/>
    </defs>
    <g transform="translate(471.0355 18.14175)scale(0.144 -0.144)">
     <use xlink:href="#DejaVuSans-51"/>
     <use x="78.710938" xlink:href="#DejaVuSans-75"/>
     <use x="142.089844" xlink:href="#DejaVuSans-61"/>
     <use x="203.369141" xlink:href="#DejaVuSans-6c"/>
     <use x="231.152344" xlink:href="#DejaVuSans-69"/>
     <use x="258.935547" xlink:href="#DejaVuSans-74"/>
     <use x="298.144531" xlink:href="#DejaVuSans-79"/>
     <use x="357.324219" xlink:href="#DejaVuSans-20"/>
     <use x="389.111328" xlink:href="#DejaVuSans-73"/>
     <use x="441.210938" xlink:href="#DejaVuSans-63"/>
     <use x="496.191406" xlink:href="#DejaVuSans-6f"/>
     <use x="557.373047" xlink:href="#DejaVuSans-72"/>
     <use x="598.455078" xlink:href="#DejaVuSans-65"/>
     <use x="659.978516" xlink:href="#DejaVuSans-20"/>
     <use x="691.765625" xlink:href="#DejaVuSans-64"/>
     <use x="755.242188" xlink:href="#DejaVuSans-69"/>
     <use x="783.025391" xlink:href="#DejaVuSans-73"/>
     <use x="835.125" xlink:href="#DejaVuSans-74"/>
     <use x="874.333984" xlink:href="#DejaVuSans-72"/>
     <use x="915.447266" xlink:href="#DejaVuSans-69"/>
     <use x="943.230469" xlink:href="#DejaVuSans-62"/>
     <use x="1006.707031" xlink:href="#DejaVuSans-75"/>
     <use x="1070.085938" xlink:href="#DejaVuSans-74"/>
     <use x="1109.294922" xlink:href="#DejaVuSans-69"/>
     <use x="1137.078125" xlink:href="#DejaVuSans-6f"/>
     <use x="1198.259766" xlink:href="#DejaVuSans-6e"/>
    </g>
   </g>
  </g>
 </g>
 <defs>
  <clipPath id="pe4a8edcdb1">
   <rect height="71.4" width="568.15" x="277.7975" y="24.14175"/>
  </clipPath>
 </defs>
</svg>
