<?xml version="1.0" encoding="utf-8" standalone="no"?>
<!DOCTYPE svg PUBLIC "-//W3C//DTD SVG 1.1//EN"
  "http://www.w3.org/Graphics/SVG/1.1/DTD/svg11.dtd">
<!-- Created with matplotlib (http://matplotlib.org/) -->
<svg height="281pt" version="1.1" viewBox="0 0 893 281" width="893pt" xmlns="http://www.w3.org/2000/svg" xmlns:xlink="http://www.w3.org/1999/xlink">
 <defs>
  <style type="text/css">
*{stroke-linecap:butt;stroke-linejoin:round;}
  </style>
 </defs>
 <g id="figure_1">
  <g id="patch_1">
   <path d="M 0 281.073625 
L 893.416875 281.073625 
L 893.416875 0 
L 0 0 
z
" style="fill:#ffffff;"/>
  </g>
  <g id="axes_1">
   <g id="patch_2">
    <path d="M 45.716875 241.58175 
L 882.716875 241.58175 
L 882.716875 24.14175 
L 45.716875 24.14175 
z
" style="fill:#e5e5e5;"/>
   </g>
   <g id="matplotlib.axis_1">
    <g id="xtick_1">
     <g id="line2d_1">
      <path clip-path="url(#p6e8fe91897)" d="M 45.716875 241.58175 
L 45.716875 24.14175 
" style="fill:none;stroke:#ffffff;stroke-linecap:square;stroke-width:0.8;"/>
     </g>
     <g id="line2d_2">
      <defs>
       <path d="M 0 0 
L 0 3.5 
" id="m39c58e4566" style="stroke:#555555;stroke-width:0.8;"/>
      </defs>
      <g>
       <use style="fill:#555555;stroke:#555555;stroke-width:0.8;" x="45.716875" xlink:href="#m39c58e4566" y="241.58175"/>
      </g>
     </g>
     <g id="text_1">
      <!-- 0.0 -->
      <defs>
       <path d="M 31.78125 66.40625 
Q 24.171875 66.40625 20.328125 58.90625 
Q 16.5 51.421875 16.5 36.375 
Q 16.5 21.390625 20.328125 13.890625 
Q 24.171875 6.390625 31.78125 6.390625 
Q 39.453125 6.390625 43.28125 13.890625 
Q 47.125 21.390625 47.125 36.375 
Q 47.125 51.421875 43.28125 58.90625 
Q 39.453125 66.40625 31.78125 66.40625 
z
M 31.78125 74.21875 
Q 44.046875 74.21875 50.515625 64.515625 
Q 56.984375 54.828125 56.984375 36.375 
Q 56.984375 17.96875 50.515625 8.265625 
Q 44.046875 -1.421875 31.78125 -1.421875 
Q 19.53125 -1.421875 13.0625 8.265625 
Q 6.59375 17.96875 6.59375 36.375 
Q 6.59375 54.828125 13.0625 64.515625 
Q 19.53125 74.21875 31.78125 74.21875 
z
" id="DejaVuSans-30"/>
       <path d="M 10.6875 12.40625 
L 21 12.40625 
L 21 0 
L 10.6875 0 
z
" id="DejaVuSans-2e"/>
      </defs>
      <g style="fill:#555555;" transform="translate(37.765313 256.180187)scale(0.1 -0.1)">
       <use xlink:href="#DejaVuSans-30"/>
       <use x="63.623047" xlink:href="#DejaVuSans-2e"/>
       <use x="95.410156" xlink:href="#DejaVuSans-30"/>
      </g>
     </g>
    </g>
    <g id="xtick_2">
     <g id="line2d_3">
      <path clip-path="url(#p6e8fe91897)" d="M 146.317837 241.58175 
L 146.317837 24.14175 
" style="fill:none;stroke:#ffffff;stroke-linecap:square;stroke-width:0.8;"/>
     </g>
     <g id="line2d_4">
      <g>
       <use style="fill:#555555;stroke:#555555;stroke-width:0.8;" x="146.317837" xlink:href="#m39c58e4566" y="241.58175"/>
      </g>
     </g>
     <g id="text_2">
      <!-- 2.5 -->
      <defs>
       <path d="M 19.1875 8.296875 
L 53.609375 8.296875 
L 53.609375 0 
L 7.328125 0 
L 7.328125 8.296875 
Q 12.9375 14.109375 22.625 23.890625 
Q 32.328125 33.6875 34.8125 36.53125 
Q 39.546875 41.84375 41.421875 45.53125 
Q 43.3125 49.21875 43.3125 52.78125 
Q 43.3125 58.59375 39.234375 62.25 
Q 35.15625 65.921875 28.609375 65.921875 
Q 23.96875 65.921875 18.8125 64.3125 
Q 13.671875 62.703125 7.8125 59.421875 
L 7.8125 69.390625 
Q 13.765625 71.78125 18.9375 73 
Q 24.125 74.21875 28.421875 74.21875 
Q 39.75 74.21875 46.484375 68.546875 
Q 53.21875 62.890625 53.21875 53.421875 
Q 53.21875 48.921875 51.53125 44.890625 
Q 49.859375 40.875 45.40625 35.40625 
Q 44.1875 33.984375 37.640625 27.21875 
Q 31.109375 20.453125 19.1875 8.296875 
z
" id="DejaVuSans-32"/>
       <path d="M 10.796875 72.90625 
L 49.515625 72.90625 
L 49.515625 64.59375 
L 19.828125 64.59375 
L 19.828125 46.734375 
Q 21.96875 47.46875 24.109375 47.828125 
Q 26.265625 48.1875 28.421875 48.1875 
Q 40.625 48.1875 47.75 41.5 
Q 54.890625 34.8125 54.890625 23.390625 
Q 54.890625 11.625 47.5625 5.09375 
Q 40.234375 -1.421875 26.90625 -1.421875 
Q 22.3125 -1.421875 17.546875 -0.640625 
Q 12.796875 0.140625 7.71875 1.703125 
L 7.71875 11.625 
Q 12.109375 9.234375 16.796875 8.0625 
Q 21.484375 6.890625 26.703125 6.890625 
Q 35.15625 6.890625 40.078125 11.328125 
Q 45.015625 15.765625 45.015625 23.390625 
Q 45.015625 31 40.078125 35.4375 
Q 35.15625 39.890625 26.703125 39.890625 
Q 22.75 39.890625 18.8125 39.015625 
Q 14.890625 38.140625 10.796875 36.28125 
z
" id="DejaVuSans-35"/>
      </defs>
      <g style="fill:#555555;" transform="translate(138.366274 256.180187)scale(0.1 -0.1)">
       <use xlink:href="#DejaVuSans-32"/>
       <use x="63.623047" xlink:href="#DejaVuSans-2e"/>
       <use x="95.410156" xlink:href="#DejaVuSans-35"/>
      </g>
     </g>
    </g>
    <g id="xtick_3">
     <g id="line2d_5">
      <path clip-path="url(#p6e8fe91897)" d="M 246.918798 241.58175 
L 246.918798 24.14175 
" style="fill:none;stroke:#ffffff;stroke-linecap:square;stroke-width:0.8;"/>
     </g>
     <g id="line2d_6">
      <g>
       <use style="fill:#555555;stroke:#555555;stroke-width:0.8;" x="246.918798" xlink:href="#m39c58e4566" y="241.58175"/>
      </g>
     </g>
     <g id="text_3">
      <!-- 5.0 -->
      <g style="fill:#555555;" transform="translate(238.967236 256.180187)scale(0.1 -0.1)">
       <use xlink:href="#DejaVuSans-35"/>
       <use x="63.623047" xlink:href="#DejaVuSans-2e"/>
       <use x="95.410156" xlink:href="#DejaVuSans-30"/>
      </g>
     </g>
    </g>
    <g id="xtick_4">
     <g id="line2d_7">
      <path clip-path="url(#p6e8fe91897)" d="M 347.51976 241.58175 
L 347.51976 24.14175 
" style="fill:none;stroke:#ffffff;stroke-linecap:square;stroke-width:0.8;"/>
     </g>
     <g id="line2d_8">
      <g>
       <use style="fill:#555555;stroke:#555555;stroke-width:0.8;" x="347.51976" xlink:href="#m39c58e4566" y="241.58175"/>
      </g>
     </g>
     <g id="text_4">
      <!-- 7.5 -->
      <defs>
       <path d="M 8.203125 72.90625 
L 55.078125 72.90625 
L 55.078125 68.703125 
L 28.609375 0 
L 18.3125 0 
L 43.21875 64.59375 
L 8.203125 64.59375 
z
" id="DejaVuSans-37"/>
      </defs>
      <g style="fill:#555555;" transform="translate(339.568197 256.180187)scale(0.1 -0.1)">
       <use xlink:href="#DejaVuSans-37"/>
       <use x="63.623047" xlink:href="#DejaVuSans-2e"/>
       <use x="95.410156" xlink:href="#DejaVuSans-35"/>
      </g>
     </g>
    </g>
    <g id="xtick_5">
     <g id="line2d_9">
      <path clip-path="url(#p6e8fe91897)" d="M 448.120721 241.58175 
L 448.120721 24.14175 
" style="fill:none;stroke:#ffffff;stroke-linecap:square;stroke-width:0.8;"/>
     </g>
     <g id="line2d_10">
      <g>
       <use style="fill:#555555;stroke:#555555;stroke-width:0.8;" x="448.120721" xlink:href="#m39c58e4566" y="241.58175"/>
      </g>
     </g>
     <g id="text_5">
      <!-- 10.0 -->
      <defs>
       <path d="M 12.40625 8.296875 
L 28.515625 8.296875 
L 28.515625 63.921875 
L 10.984375 60.40625 
L 10.984375 69.390625 
L 28.421875 72.90625 
L 38.28125 72.90625 
L 38.28125 8.296875 
L 54.390625 8.296875 
L 54.390625 0 
L 12.40625 0 
z
" id="DejaVuSans-31"/>
      </defs>
      <g style="fill:#555555;" transform="translate(436.987909 256.180187)scale(0.1 -0.1)">
       <use xlink:href="#DejaVuSans-31"/>
       <use x="63.623047" xlink:href="#DejaVuSans-30"/>
       <use x="127.246094" xlink:href="#DejaVuSans-2e"/>
       <use x="159.033203" xlink:href="#DejaVuSans-30"/>
      </g>
     </g>
    </g>
    <g id="xtick_6">
     <g id="line2d_11">
      <path clip-path="url(#p6e8fe91897)" d="M 548.721683 241.58175 
L 548.721683 24.14175 
" style="fill:none;stroke:#ffffff;stroke-linecap:square;stroke-width:0.8;"/>
     </g>
     <g id="line2d_12">
      <g>
       <use style="fill:#555555;stroke:#555555;stroke-width:0.8;" x="548.721683" xlink:href="#m39c58e4566" y="241.58175"/>
      </g>
     </g>
     <g id="text_6">
      <!-- 12.5 -->
      <g style="fill:#555555;" transform="translate(537.58887 256.180187)scale(0.1 -0.1)">
       <use xlink:href="#DejaVuSans-31"/>
       <use x="63.623047" xlink:href="#DejaVuSans-32"/>
       <use x="127.246094" xlink:href="#DejaVuSans-2e"/>
       <use x="159.033203" xlink:href="#DejaVuSans-35"/>
      </g>
     </g>
    </g>
    <g id="xtick_7">
     <g id="line2d_13">
      <path clip-path="url(#p6e8fe91897)" d="M 649.322644 241.58175 
L 649.322644 24.14175 
" style="fill:none;stroke:#ffffff;stroke-linecap:square;stroke-width:0.8;"/>
     </g>
     <g id="line2d_14">
      <g>
       <use style="fill:#555555;stroke:#555555;stroke-width:0.8;" x="649.322644" xlink:href="#m39c58e4566" y="241.58175"/>
      </g>
     </g>
     <g id="text_7">
      <!-- 15.0 -->
      <g style="fill:#555555;" transform="translate(638.189832 256.180187)scale(0.1 -0.1)">
       <use xlink:href="#DejaVuSans-31"/>
       <use x="63.623047" xlink:href="#DejaVuSans-35"/>
       <use x="127.246094" xlink:href="#DejaVuSans-2e"/>
       <use x="159.033203" xlink:href="#DejaVuSans-30"/>
      </g>
     </g>
    </g>
    <g id="xtick_8">
     <g id="line2d_15">
      <path clip-path="url(#p6e8fe91897)" d="M 749.923606 241.58175 
L 749.923606 24.14175 
" style="fill:none;stroke:#ffffff;stroke-linecap:square;stroke-width:0.8;"/>
     </g>
     <g id="line2d_16">
      <g>
       <use style="fill:#555555;stroke:#555555;stroke-width:0.8;" x="749.923606" xlink:href="#m39c58e4566" y="241.58175"/>
      </g>
     </g>
     <g id="text_8">
      <!-- 17.5 -->
      <g style="fill:#555555;" transform="translate(738.790793 256.180187)scale(0.1 -0.1)">
       <use xlink:href="#DejaVuSans-31"/>
       <use x="63.623047" xlink:href="#DejaVuSans-37"/>
       <use x="127.246094" xlink:href="#DejaVuSans-2e"/>
       <use x="159.033203" xlink:href="#DejaVuSans-35"/>
      </g>
     </g>
    </g>
    <g id="xtick_9">
     <g id="line2d_17">
      <path clip-path="url(#p6e8fe91897)" d="M 850.524567 241.58175 
L 850.524567 24.14175 
" style="fill:none;stroke:#ffffff;stroke-linecap:square;stroke-width:0.8;"/>
     </g>
     <g id="line2d_18">
      <g>
       <use style="fill:#555555;stroke:#555555;stroke-width:0.8;" x="850.524567" xlink:href="#m39c58e4566" y="241.58175"/>
      </g>
     </g>
     <g id="text_9">
      <!-- 20.0 -->
      <g style="fill:#555555;" transform="translate(839.391755 256.180187)scale(0.1 -0.1)">
       <use xlink:href="#DejaVuSans-32"/>
       <use x="63.623047" xlink:href="#DejaVuSans-30"/>
       <use x="127.246094" xlink:href="#DejaVuSans-2e"/>
       <use x="159.033203" xlink:href="#DejaVuSans-30"/>
      </g>
     </g>
    </g>
    <g id="text_10">
     <!-- Experiment time (h) -->
     <defs>
      <path d="M 9.8125 72.90625 
L 55.90625 72.90625 
L 55.90625 64.59375 
L 19.671875 64.59375 
L 19.671875 43.015625 
L 54.390625 43.015625 
L 54.390625 34.71875 
L 19.671875 34.71875 
L 19.671875 8.296875 
L 56.78125 8.296875 
L 56.78125 0 
L 9.8125 0 
z
" id="DejaVuSans-45"/>
      <path d="M 54.890625 54.6875 
L 35.109375 28.078125 
L 55.90625 0 
L 45.3125 0 
L 29.390625 21.484375 
L 13.484375 0 
L 2.875 0 
L 24.125 28.609375 
L 4.6875 54.6875 
L 15.28125 54.6875 
L 29.78125 35.203125 
L 44.28125 54.6875 
z
" id="DejaVuSans-78"/>
      <path d="M 18.109375 8.203125 
L 18.109375 -20.796875 
L 9.078125 -20.796875 
L 9.078125 54.6875 
L 18.109375 54.6875 
L 18.109375 46.390625 
Q 20.953125 51.265625 25.265625 53.625 
Q 29.59375 56 35.59375 56 
Q 45.5625 56 51.78125 48.09375 
Q 58.015625 40.1875 58.015625 27.296875 
Q 58.015625 14.40625 51.78125 6.484375 
Q 45.5625 -1.421875 35.59375 -1.421875 
Q 29.59375 -1.421875 25.265625 0.953125 
Q 20.953125 3.328125 18.109375 8.203125 
z
M 48.6875 27.296875 
Q 48.6875 37.203125 44.609375 42.84375 
Q 40.53125 48.484375 33.40625 48.484375 
Q 26.265625 48.484375 22.1875 42.84375 
Q 18.109375 37.203125 18.109375 27.296875 
Q 18.109375 17.390625 22.1875 11.75 
Q 26.265625 6.109375 33.40625 6.109375 
Q 40.53125 6.109375 44.609375 11.75 
Q 48.6875 17.390625 48.6875 27.296875 
z
" id="DejaVuSans-70"/>
      <path d="M 56.203125 29.59375 
L 56.203125 25.203125 
L 14.890625 25.203125 
Q 15.484375 15.921875 20.484375 11.0625 
Q 25.484375 6.203125 34.421875 6.203125 
Q 39.59375 6.203125 44.453125 7.46875 
Q 49.3125 8.734375 54.109375 11.28125 
L 54.109375 2.78125 
Q 49.265625 0.734375 44.1875 -0.34375 
Q 39.109375 -1.421875 33.890625 -1.421875 
Q 20.796875 -1.421875 13.15625 6.1875 
Q 5.515625 13.8125 5.515625 26.8125 
Q 5.515625 40.234375 12.765625 48.109375 
Q 20.015625 56 32.328125 56 
Q 43.359375 56 49.78125 48.890625 
Q 56.203125 41.796875 56.203125 29.59375 
z
M 47.21875 32.234375 
Q 47.125 39.59375 43.09375 43.984375 
Q 39.0625 48.390625 32.421875 48.390625 
Q 24.90625 48.390625 20.390625 44.140625 
Q 15.875 39.890625 15.1875 32.171875 
z
" id="DejaVuSans-65"/>
      <path d="M 41.109375 46.296875 
Q 39.59375 47.171875 37.8125 47.578125 
Q 36.03125 48 33.890625 48 
Q 26.265625 48 22.1875 43.046875 
Q 18.109375 38.09375 18.109375 28.8125 
L 18.109375 0 
L 9.078125 0 
L 9.078125 54.6875 
L 18.109375 54.6875 
L 18.109375 46.1875 
Q 20.953125 51.171875 25.484375 53.578125 
Q 30.03125 56 36.53125 56 
Q 37.453125 56 38.578125 55.875 
Q 39.703125 55.765625 41.0625 55.515625 
z
" id="DejaVuSans-72"/>
      <path d="M 9.421875 54.6875 
L 18.40625 54.6875 
L 18.40625 0 
L 9.421875 0 
z
M 9.421875 75.984375 
L 18.40625 75.984375 
L 18.40625 64.59375 
L 9.421875 64.59375 
z
" id="DejaVuSans-69"/>
      <path d="M 52 44.1875 
Q 55.375 50.25 60.0625 53.125 
Q 64.75 56 71.09375 56 
Q 79.640625 56 84.28125 50.015625 
Q 88.921875 44.046875 88.921875 33.015625 
L 88.921875 0 
L 79.890625 0 
L 79.890625 32.71875 
Q 79.890625 40.578125 77.09375 44.375 
Q 74.3125 48.1875 68.609375 48.1875 
Q 61.625 48.1875 57.5625 43.546875 
Q 53.515625 38.921875 53.515625 30.90625 
L 53.515625 0 
L 44.484375 0 
L 44.484375 32.71875 
Q 44.484375 40.625 41.703125 44.40625 
Q 38.921875 48.1875 33.109375 48.1875 
Q 26.21875 48.1875 22.15625 43.53125 
Q 18.109375 38.875 18.109375 30.90625 
L 18.109375 0 
L 9.078125 0 
L 9.078125 54.6875 
L 18.109375 54.6875 
L 18.109375 46.1875 
Q 21.1875 51.21875 25.484375 53.609375 
Q 29.78125 56 35.6875 56 
Q 41.65625 56 45.828125 52.96875 
Q 50 49.953125 52 44.1875 
z
" id="DejaVuSans-6d"/>
      <path d="M 54.890625 33.015625 
L 54.890625 0 
L 45.90625 0 
L 45.90625 32.71875 
Q 45.90625 40.484375 42.875 44.328125 
Q 39.84375 48.1875 33.796875 48.1875 
Q 26.515625 48.1875 22.3125 43.546875 
Q 18.109375 38.921875 18.109375 30.90625 
L 18.109375 0 
L 9.078125 0 
L 9.078125 54.6875 
L 18.109375 54.6875 
L 18.109375 46.1875 
Q 21.34375 51.125 25.703125 53.5625 
Q 30.078125 56 35.796875 56 
Q 45.21875 56 50.046875 50.171875 
Q 54.890625 44.34375 54.890625 33.015625 
z
" id="DejaVuSans-6e"/>
      <path d="M 18.3125 70.21875 
L 18.3125 54.6875 
L 36.8125 54.6875 
L 36.8125 47.703125 
L 18.3125 47.703125 
L 18.3125 18.015625 
Q 18.3125 11.328125 20.140625 9.421875 
Q 21.96875 7.515625 27.59375 7.515625 
L 36.8125 7.515625 
L 36.8125 0 
L 27.59375 0 
Q 17.1875 0 13.234375 3.875 
Q 9.28125 7.765625 9.28125 18.015625 
L 9.28125 47.703125 
L 2.6875 47.703125 
L 2.6875 54.6875 
L 9.28125 54.6875 
L 9.28125 70.21875 
z
" id="DejaVuSans-74"/>
      <path id="DejaVuSans-20"/>
      <path d="M 31 75.875 
Q 24.46875 64.65625 21.28125 53.65625 
Q 18.109375 42.671875 18.109375 31.390625 
Q 18.109375 20.125 21.3125 9.0625 
Q 24.515625 -2 31 -13.1875 
L 23.1875 -13.1875 
Q 15.875 -1.703125 12.234375 9.375 
Q 8.59375 20.453125 8.59375 31.390625 
Q 8.59375 42.28125 12.203125 53.3125 
Q 15.828125 64.359375 23.1875 75.875 
z
" id="DejaVuSans-28"/>
      <path d="M 54.890625 33.015625 
L 54.890625 0 
L 45.90625 0 
L 45.90625 32.71875 
Q 45.90625 40.484375 42.875 44.328125 
Q 39.84375 48.1875 33.796875 48.1875 
Q 26.515625 48.1875 22.3125 43.546875 
Q 18.109375 38.921875 18.109375 30.90625 
L 18.109375 0 
L 9.078125 0 
L 9.078125 75.984375 
L 18.109375 75.984375 
L 18.109375 46.1875 
Q 21.34375 51.125 25.703125 53.5625 
Q 30.078125 56 35.796875 56 
Q 45.21875 56 50.046875 50.171875 
Q 54.890625 44.34375 54.890625 33.015625 
z
" id="DejaVuSans-68"/>
      <path d="M 8.015625 75.875 
L 15.828125 75.875 
Q 23.140625 64.359375 26.78125 53.3125 
Q 30.421875 42.28125 30.421875 31.390625 
Q 30.421875 20.453125 26.78125 9.375 
Q 23.140625 -1.703125 15.828125 -13.1875 
L 8.015625 -13.1875 
Q 14.5 -2 17.703125 9.0625 
Q 20.90625 20.125 20.90625 31.390625 
Q 20.90625 42.671875 17.703125 53.65625 
Q 14.5 64.65625 8.015625 75.875 
z
" id="DejaVuSans-29"/>
     </defs>
     <g style="fill:#555555;" transform="translate(403.695625 271.378)scale(0.12 -0.12)">
      <use xlink:href="#DejaVuSans-45"/>
      <use x="63.183594" xlink:href="#DejaVuSans-78"/>
      <use x="122.363281" xlink:href="#DejaVuSans-70"/>
      <use x="185.839844" xlink:href="#DejaVuSans-65"/>
      <use x="247.363281" xlink:href="#DejaVuSans-72"/>
      <use x="288.476562" xlink:href="#DejaVuSans-69"/>
      <use x="316.259766" xlink:href="#DejaVuSans-6d"/>
      <use x="413.671875" xlink:href="#DejaVuSans-65"/>
      <use x="475.195312" xlink:href="#DejaVuSans-6e"/>
      <use x="538.574219" xlink:href="#DejaVuSans-74"/>
      <use x="577.783203" xlink:href="#DejaVuSans-20"/>
      <use x="609.570312" xlink:href="#DejaVuSans-74"/>
      <use x="648.779297" xlink:href="#DejaVuSans-69"/>
      <use x="676.5625" xlink:href="#DejaVuSans-6d"/>
      <use x="773.974609" xlink:href="#DejaVuSans-65"/>
      <use x="835.498047" xlink:href="#DejaVuSans-20"/>
      <use x="867.285156" xlink:href="#DejaVuSans-28"/>
      <use x="906.298828" xlink:href="#DejaVuSans-68"/>
      <use x="969.677734" xlink:href="#DejaVuSans-29"/>
     </g>
    </g>
   </g>
   <g id="matplotlib.axis_2">
    <g id="ytick_1">
     <g id="line2d_19">
      <path clip-path="url(#p6e8fe91897)" d="M 45.716875 241.58175 
L 882.716875 241.58175 
" style="fill:none;stroke:#ffffff;stroke-linecap:square;stroke-width:0.8;"/>
     </g>
     <g id="line2d_20">
      <defs>
       <path d="M 0 0 
L -3.5 0 
" id="ma867a3e5ee" style="stroke:#555555;stroke-width:0.8;"/>
      </defs>
      <g>
       <use style="fill:#555555;stroke:#555555;stroke-width:0.8;" x="45.716875" xlink:href="#ma867a3e5ee" y="241.58175"/>
      </g>
     </g>
     <g id="text_11">
      <!-- 0.0 -->
      <g style="fill:#555555;" transform="translate(22.81375 245.380969)scale(0.1 -0.1)">
       <use xlink:href="#DejaVuSans-30"/>
       <use x="63.623047" xlink:href="#DejaVuSans-2e"/>
       <use x="95.410156" xlink:href="#DejaVuSans-30"/>
      </g>
     </g>
    </g>
    <g id="ytick_2">
     <g id="line2d_21">
      <path clip-path="url(#p6e8fe91897)" d="M 45.716875 194.425929 
L 882.716875 194.425929 
" style="fill:none;stroke:#ffffff;stroke-linecap:square;stroke-width:0.8;"/>
     </g>
     <g id="line2d_22">
      <g>
       <use style="fill:#555555;stroke:#555555;stroke-width:0.8;" x="45.716875" xlink:href="#ma867a3e5ee" y="194.425929"/>
      </g>
     </g>
     <g id="text_12">
      <!-- 0.5 -->
      <g style="fill:#555555;" transform="translate(22.81375 198.225148)scale(0.1 -0.1)">
       <use xlink:href="#DejaVuSans-30"/>
       <use x="63.623047" xlink:href="#DejaVuSans-2e"/>
       <use x="95.410156" xlink:href="#DejaVuSans-35"/>
      </g>
     </g>
    </g>
    <g id="ytick_3">
     <g id="line2d_23">
      <path clip-path="url(#p6e8fe91897)" d="M 45.716875 147.270108 
L 882.716875 147.270108 
" style="fill:none;stroke:#ffffff;stroke-linecap:square;stroke-width:0.8;"/>
     </g>
     <g id="line2d_24">
      <g>
       <use style="fill:#555555;stroke:#555555;stroke-width:0.8;" x="45.716875" xlink:href="#ma867a3e5ee" y="147.270108"/>
      </g>
     </g>
     <g id="text_13">
      <!-- 1.0 -->
      <g style="fill:#555555;" transform="translate(22.81375 151.069326)scale(0.1 -0.1)">
       <use xlink:href="#DejaVuSans-31"/>
       <use x="63.623047" xlink:href="#DejaVuSans-2e"/>
       <use x="95.410156" xlink:href="#DejaVuSans-30"/>
      </g>
     </g>
    </g>
    <g id="ytick_4">
     <g id="line2d_25">
      <path clip-path="url(#p6e8fe91897)" d="M 45.716875 100.114286 
L 882.716875 100.114286 
" style="fill:none;stroke:#ffffff;stroke-linecap:square;stroke-width:0.8;"/>
     </g>
     <g id="line2d_26">
      <g>
       <use style="fill:#555555;stroke:#555555;stroke-width:0.8;" x="45.716875" xlink:href="#ma867a3e5ee" y="100.114286"/>
      </g>
     </g>
     <g id="text_14">
      <!-- 1.5 -->
      <g style="fill:#555555;" transform="translate(22.81375 103.913505)scale(0.1 -0.1)">
       <use xlink:href="#DejaVuSans-31"/>
       <use x="63.623047" xlink:href="#DejaVuSans-2e"/>
       <use x="95.410156" xlink:href="#DejaVuSans-35"/>
      </g>
     </g>
    </g>
    <g id="ytick_5">
     <g id="line2d_27">
      <path clip-path="url(#p6e8fe91897)" d="M 45.716875 52.958465 
L 882.716875 52.958465 
" style="fill:none;stroke:#ffffff;stroke-linecap:square;stroke-width:0.8;"/>
     </g>
     <g id="line2d_28">
      <g>
       <use style="fill:#555555;stroke:#555555;stroke-width:0.8;" x="45.716875" xlink:href="#ma867a3e5ee" y="52.958465"/>
      </g>
     </g>
     <g id="text_15">
      <!-- 2.0 -->
      <g style="fill:#555555;" transform="translate(22.81375 56.757684)scale(0.1 -0.1)">
       <use xlink:href="#DejaVuSans-32"/>
       <use x="63.623047" xlink:href="#DejaVuSans-2e"/>
       <use x="95.410156" xlink:href="#DejaVuSans-30"/>
      </g>
     </g>
    </g>
    <g id="text_16">
     <!-- bases count -->
     <defs>
      <path d="M 48.6875 27.296875 
Q 48.6875 37.203125 44.609375 42.84375 
Q 40.53125 48.484375 33.40625 48.484375 
Q 26.265625 48.484375 22.1875 42.84375 
Q 18.109375 37.203125 18.109375 27.296875 
Q 18.109375 17.390625 22.1875 11.75 
Q 26.265625 6.109375 33.40625 6.109375 
Q 40.53125 6.109375 44.609375 11.75 
Q 48.6875 17.390625 48.6875 27.296875 
z
M 18.109375 46.390625 
Q 20.953125 51.265625 25.265625 53.625 
Q 29.59375 56 35.59375 56 
Q 45.5625 56 51.78125 48.09375 
Q 58.015625 40.1875 58.015625 27.296875 
Q 58.015625 14.40625 51.78125 6.484375 
Q 45.5625 -1.421875 35.59375 -1.421875 
Q 29.59375 -1.421875 25.265625 0.953125 
Q 20.953125 3.328125 18.109375 8.203125 
L 18.109375 0 
L 9.078125 0 
L 9.078125 75.984375 
L 18.109375 75.984375 
z
" id="DejaVuSans-62"/>
      <path d="M 34.28125 27.484375 
Q 23.390625 27.484375 19.1875 25 
Q 14.984375 22.515625 14.984375 16.5 
Q 14.984375 11.71875 18.140625 8.90625 
Q 21.296875 6.109375 26.703125 6.109375 
Q 34.1875 6.109375 38.703125 11.40625 
Q 43.21875 16.703125 43.21875 25.484375 
L 43.21875 27.484375 
z
M 52.203125 31.203125 
L 52.203125 0 
L 43.21875 0 
L 43.21875 8.296875 
Q 40.140625 3.328125 35.546875 0.953125 
Q 30.953125 -1.421875 24.3125 -1.421875 
Q 15.921875 -1.421875 10.953125 3.296875 
Q 6 8.015625 6 15.921875 
Q 6 25.140625 12.171875 29.828125 
Q 18.359375 34.515625 30.609375 34.515625 
L 43.21875 34.515625 
L 43.21875 35.40625 
Q 43.21875 41.609375 39.140625 45 
Q 35.0625 48.390625 27.6875 48.390625 
Q 23 48.390625 18.546875 47.265625 
Q 14.109375 46.140625 10.015625 43.890625 
L 10.015625 52.203125 
Q 14.9375 54.109375 19.578125 55.046875 
Q 24.21875 56 28.609375 56 
Q 40.484375 56 46.34375 49.84375 
Q 52.203125 43.703125 52.203125 31.203125 
z
" id="DejaVuSans-61"/>
      <path d="M 44.28125 53.078125 
L 44.28125 44.578125 
Q 40.484375 46.53125 36.375 47.5 
Q 32.28125 48.484375 27.875 48.484375 
Q 21.1875 48.484375 17.84375 46.4375 
Q 14.5 44.390625 14.5 40.28125 
Q 14.5 37.15625 16.890625 35.375 
Q 19.28125 33.59375 26.515625 31.984375 
L 29.59375 31.296875 
Q 39.15625 29.25 43.1875 25.515625 
Q 47.21875 21.78125 47.21875 15.09375 
Q 47.21875 7.46875 41.1875 3.015625 
Q 35.15625 -1.421875 24.609375 -1.421875 
Q 20.21875 -1.421875 15.453125 -0.5625 
Q 10.6875 0.296875 5.421875 2 
L 5.421875 11.28125 
Q 10.40625 8.6875 15.234375 7.390625 
Q 20.0625 6.109375 24.8125 6.109375 
Q 31.15625 6.109375 34.5625 8.28125 
Q 37.984375 10.453125 37.984375 14.40625 
Q 37.984375 18.0625 35.515625 20.015625 
Q 33.0625 21.96875 24.703125 23.78125 
L 21.578125 24.515625 
Q 13.234375 26.265625 9.515625 29.90625 
Q 5.8125 33.546875 5.8125 39.890625 
Q 5.8125 47.609375 11.28125 51.796875 
Q 16.75 56 26.8125 56 
Q 31.78125 56 36.171875 55.265625 
Q 40.578125 54.546875 44.28125 53.078125 
z
" id="DejaVuSans-73"/>
      <path d="M 48.78125 52.59375 
L 48.78125 44.1875 
Q 44.96875 46.296875 41.140625 47.34375 
Q 37.3125 48.390625 33.40625 48.390625 
Q 24.65625 48.390625 19.8125 42.84375 
Q 14.984375 37.3125 14.984375 27.296875 
Q 14.984375 17.28125 19.8125 11.734375 
Q 24.65625 6.203125 33.40625 6.203125 
Q 37.3125 6.203125 41.140625 7.25 
Q 44.96875 8.296875 48.78125 10.40625 
L 48.78125 2.09375 
Q 45.015625 0.34375 40.984375 -0.53125 
Q 36.96875 -1.421875 32.421875 -1.421875 
Q 20.0625 -1.421875 12.78125 6.34375 
Q 5.515625 14.109375 5.515625 27.296875 
Q 5.515625 40.671875 12.859375 48.328125 
Q 20.21875 56 33.015625 56 
Q 37.15625 56 41.109375 55.140625 
Q 45.0625 54.296875 48.78125 52.59375 
z
" id="DejaVuSans-63"/>
      <path d="M 30.609375 48.390625 
Q 23.390625 48.390625 19.1875 42.75 
Q 14.984375 37.109375 14.984375 27.296875 
Q 14.984375 17.484375 19.15625 11.84375 
Q 23.34375 6.203125 30.609375 6.203125 
Q 37.796875 6.203125 41.984375 11.859375 
Q 46.1875 17.53125 46.1875 27.296875 
Q 46.1875 37.015625 41.984375 42.703125 
Q 37.796875 48.390625 30.609375 48.390625 
z
M 30.609375 56 
Q 42.328125 56 49.015625 48.375 
Q 55.71875 40.765625 55.71875 27.296875 
Q 55.71875 13.875 49.015625 6.21875 
Q 42.328125 -1.421875 30.609375 -1.421875 
Q 18.84375 -1.421875 12.171875 6.21875 
Q 5.515625 13.875 5.515625 27.296875 
Q 5.515625 40.765625 12.171875 48.375 
Q 18.84375 56 30.609375 56 
z
" id="DejaVuSans-6f"/>
      <path d="M 8.5 21.578125 
L 8.5 54.6875 
L 17.484375 54.6875 
L 17.484375 21.921875 
Q 17.484375 14.15625 20.5 10.265625 
Q 23.53125 6.390625 29.59375 6.390625 
Q 36.859375 6.390625 41.078125 11.03125 
Q 45.3125 15.671875 45.3125 23.6875 
L 45.3125 54.6875 
L 54.296875 54.6875 
L 54.296875 0 
L 45.3125 0 
L 45.3125 8.40625 
Q 42.046875 3.421875 37.71875 1 
Q 33.40625 -1.421875 27.6875 -1.421875 
Q 18.265625 -1.421875 13.375 4.4375 
Q 8.5 10.296875 8.5 21.578125 
z
M 31.109375 56 
z
" id="DejaVuSans-75"/>
     </defs>
     <g style="fill:#555555;" transform="translate(16.318125 169.125188)rotate(-90)scale(0.12 -0.12)">
      <use xlink:href="#DejaVuSans-62"/>
      <use x="63.476562" xlink:href="#DejaVuSans-61"/>
      <use x="124.755859" xlink:href="#DejaVuSans-73"/>
      <use x="176.855469" xlink:href="#DejaVuSans-65"/>
      <use x="238.378906" xlink:href="#DejaVuSans-73"/>
      <use x="290.478516" xlink:href="#DejaVuSans-20"/>
      <use x="322.265625" xlink:href="#DejaVuSans-63"/>
      <use x="377.246094" xlink:href="#DejaVuSans-6f"/>
      <use x="438.427734" xlink:href="#DejaVuSans-75"/>
      <use x="501.806641" xlink:href="#DejaVuSans-6e"/>
      <use x="565.185547" xlink:href="#DejaVuSans-74"/>
     </g>
    </g>
    <g id="text_17">
     <!-- 1e7 -->
     <g style="fill:#555555;" transform="translate(45.716875 21.14175)scale(0.1 -0.1)">
      <use xlink:href="#DejaVuSans-31"/>
      <use x="63.623047" xlink:href="#DejaVuSans-65"/>
      <use x="125.146484" xlink:href="#DejaVuSans-37"/>
     </g>
    </g>
   </g>
   <g id="PolyCollection_1">
    <defs>
     <path d="M 45.716875 -39.491875 
L 45.716875 -40.414912 
L 48.399567 -41.096795 
L 51.08226 -41.838481 
L 53.764952 -43.389162 
L 56.447644 -44.840901 
L 59.130337 -46.09717 
L 61.813029 -47.171285 
L 64.495721 -48.358169 
L 67.178413 -49.551532 
L 69.861106 -50.688563 
L 72.543798 -51.780767 
L 75.22649 -52.88211 
L 77.909183 -54.073606 
L 80.591875 -55.083645 
L 83.274567 -56.247093 
L 85.95726 -57.373919 
L 88.639952 -58.757716 
L 91.322644 -60.345556 
L 94.005337 -62.015655 
L 96.688029 -63.753753 
L 99.370721 -65.276838 
L 102.053413 -66.781948 
L 104.736106 -68.11211 
L 107.418798 -69.387242 
L 110.10149 -70.806311 
L 112.784183 -72.274979 
L 115.466875 -73.898035 
L 118.149567 -75.427233 
L 120.83226 -77.068199 
L 123.514952 -78.450166 
L 126.197644 -79.777508 
L 128.880337 -80.796979 
L 131.563029 -81.750008 
L 134.245721 -82.781504 
L 136.928413 -84.017307 
L 139.611106 -85.341225 
L 142.293798 -86.52942 
L 144.97649 -87.642533 
L 147.659183 -88.7987 
L 150.341875 -89.866741 
L 153.024567 -90.808509 
L 155.70726 -91.701659 
L 158.389952 -92.54024 
L 161.072644 -93.575273 
L 163.755337 -94.574986 
L 166.438029 -95.597334 
L 169.120721 -96.442894 
L 171.803413 -97.215325 
L 174.486106 -97.923115 
L 177.168798 -98.578374 
L 179.85149 -99.203415 
L 182.534183 -99.769577 
L 185.216875 -100.281953 
L 187.899567 -100.906221 
L 190.58226 -101.530705 
L 193.264952 -102.36476 
L 195.947644 -103.140879 
L 198.630337 -104.083684 
L 201.313029 -104.979635 
L 203.995721 -105.935879 
L 206.678413 -106.772141 
L 209.361106 -107.552004 
L 212.043798 -108.339685 
L 214.72649 -109.224045 
L 217.409183 -110.037002 
L 220.091875 -110.814583 
L 222.774567 -111.663237 
L 225.45726 -112.580012 
L 228.139952 -113.48165 
L 230.822644 -114.289411 
L 233.505337 -115.064086 
L 236.188029 -115.808639 
L 238.870721 -116.58124 
L 241.553413 -117.3086 
L 244.236106 -117.932198 
L 246.918798 -118.48278 
L 249.60149 -118.945756 
L 252.284183 -119.43793 
L 254.966875 -119.799257 
L 257.649567 -120.286235 
L 260.33226 -120.68805 
L 263.014952 -121.117592 
L 265.697644 -121.546088 
L 268.380337 -122.233497 
L 271.063029 -122.936308 
L 273.745721 -123.689697 
L 276.428413 -124.208656 
L 279.111106 -124.729398 
L 281.793798 -125.214745 
L 284.47649 -125.754113 
L 287.159183 -126.269149 
L 289.841875 -126.759013 
L 292.524567 -127.28149 
L 295.20726 -127.837816 
L 297.889952 -128.347994 
L 300.572644 -128.917778 
L 303.255337 -129.461532 
L 305.938029 -130.003975 
L 308.620721 -130.55053 
L 311.303413 -131.125274 
L 313.986106 -131.660559 
L 316.668798 -132.144708 
L 319.35149 -132.634977 
L 322.034183 -133.196716 
L 324.716875 -133.795586 
L 327.399567 -134.316827 
L 330.08226 -134.753896 
L 332.764952 -135.037123 
L 335.447644 -135.432893 
L 338.130337 -135.830831 
L 340.813029 -136.243888 
L 343.495721 -136.579439 
L 346.178413 -136.928779 
L 348.861106 -137.244487 
L 351.543798 -137.571503 
L 354.22649 -137.895803 
L 356.909183 -138.243257 
L 359.591875 -138.528917 
L 362.274567 -138.877003 
L 364.95726 -139.2665 
L 367.639952 -139.936132 
L 370.322644 -140.913672 
L 373.005337 -142.181287 
L 375.688029 -143.463435 
L 378.370721 -144.637718 
L 381.053413 -145.815416 
L 383.736106 -147.068007 
L 386.418798 -148.248355 
L 389.10149 -149.618467 
L 391.784183 -150.994474 
L 394.466875 -152.5086 
L 397.149567 -153.79238 
L 399.83226 -155.138188 
L 402.514952 -156.444763 
L 405.197644 -157.695439 
L 407.880337 -158.753323 
L 410.563029 -159.816602 
L 413.245721 -160.946012 
L 415.928413 -162.053287 
L 418.611106 -163.078483 
L 421.293798 -164.084798 
L 423.97649 -165.073042 
L 426.659183 -165.962524 
L 429.341875 -166.864567 
L 432.024567 -167.893026 
L 434.70726 -168.891457 
L 437.389952 -169.729519 
L 440.072644 -170.47692 
L 442.755337 -171.353764 
L 445.438029 -172.285865 
L 448.120721 -173.261613 
L 450.803413 -174.130195 
L 453.486106 -174.876766 
L 456.168798 -175.545728 
L 458.85149 -176.304427 
L 461.534183 -177.217798 
L 464.216875 -178.072818 
L 466.899567 -178.918029 
L 469.58226 -179.616048 
L 472.264952 -180.314445 
L 474.947644 -180.863254 
L 477.630337 -181.439536 
L 480.313029 -181.927627 
L 482.995721 -182.48764 
L 485.678413 -183.097619 
L 488.361106 -183.722359 
L 491.043798 -184.283315 
L 493.72649 -184.833736 
L 496.409183 -185.603753 
L 499.091875 -186.472288 
L 501.774567 -187.438332 
L 504.45726 -188.574202 
L 507.139952 -189.642942 
L 509.822644 -190.617002 
L 512.505337 -191.207468 
L 515.188029 -191.823615 
L 517.870721 -192.434217 
L 520.553413 -193.146704 
L 523.236106 -193.777592 
L 525.918798 -194.38562 
L 528.60149 -194.878436 
L 531.284183 -195.380994 
L 533.966875 -195.956484 
L 536.649567 -196.617684 
L 539.33226 -197.4091 
L 542.014952 -198.060624 
L 544.697644 -198.651958 
L 547.380337 -199.044964 
L 550.063029 -199.398378 
L 552.745721 -199.753602 
L 555.428413 -200.1106 
L 558.111106 -200.526175 
L 560.793798 -200.933158 
L 563.47649 -201.433661 
L 566.159183 -201.908114 
L 568.841875 -202.332705 
L 571.524567 -202.688798 
L 574.20726 -203.038873 
L 576.889952 -203.414148 
L 579.572644 -203.818425 
L 582.255337 -204.172141 
L 584.938029 -204.523583 
L 587.620721 -204.832756 
L 590.303413 -205.190178 
L 592.986106 -205.463927 
L 595.668798 -205.688804 
L 598.35149 -205.881398 
L 601.034183 -206.079377 
L 603.716875 -206.292012 
L 606.399567 -206.52001 
L 609.08226 -206.885175 
L 611.764952 -207.339701 
L 614.447644 -207.800404 
L 617.130337 -208.131126 
L 619.813029 -208.362567 
L 622.495721 -208.540241 
L 625.178413 -208.7979 
L 627.861106 -209.060756 
L 630.543798 -209.374805 
L 633.22649 -209.613988 
L 635.909183 -209.88388 
L 638.591875 -210.118424 
L 641.274567 -210.36304 
L 643.95726 -210.579824 
L 646.639952 -210.808719 
L 649.322644 -211.128813 
L 652.005337 -211.579188 
L 654.688029 -212.01537 
L 657.370721 -212.368709 
L 660.053413 -212.653426 
L 662.736106 -212.951602 
L 665.418798 -213.275581 
L 668.10149 -213.528299 
L 670.784183 -213.714451 
L 673.466875 -213.83451 
L 676.149567 -213.939648 
L 678.83226 -214.057934 
L 681.514952 -214.17274 
L 684.197644 -214.283018 
L 686.880337 -214.395409 
L 689.563029 -214.726198 
L 692.245721 -215.200916 
L 694.928413 -215.729042 
L 697.611106 -216.184662 
L 700.293798 -216.671885 
L 702.97649 -217.281091 
L 705.659183 -217.835097 
L 708.341875 -218.302128 
L 711.024567 -218.650279 
L 713.70726 -218.982699 
L 716.389952 -219.334171 
L 719.072644 -219.741946 
L 721.755337 -220.209468 
L 724.438029 -220.648592 
L 727.120721 -221.066883 
L 729.803413 -221.483467 
L 732.486106 -221.965013 
L 735.168798 -222.436562 
L 737.85149 -222.889823 
L 740.534183 -223.288601 
L 743.216875 -223.670903 
L 745.899567 -224.011783 
L 748.58226 -224.28589 
L 751.264952 -224.535345 
L 753.947644 -224.724694 
L 756.630337 -224.948703 
L 759.313029 -225.195649 
L 761.995721 -225.506698 
L 764.678413 -225.871335 
L 767.361106 -226.277592 
L 770.043798 -226.655008 
L 772.72649 -227.00431 
L 775.409183 -227.265365 
L 778.091875 -227.586222 
L 780.774567 -227.969184 
L 783.45726 -228.38524 
L 786.139952 -228.739588 
L 788.822644 -228.948007 
L 791.505337 -229.120805 
L 794.188029 -229.277428 
L 796.870721 -229.515046 
L 799.553413 -229.74362 
L 802.236106 -229.932281 
L 804.918798 -230.032327 
L 807.60149 -230.273538 
L 810.284183 -230.539903 
L 812.966875 -230.837814 
L 815.649567 -230.990033 
L 818.33226 -231.113025 
L 821.014952 -231.234697 
L 823.697644 -231.36596 
L 826.380337 -231.545736 
L 829.063029 -231.716808 
L 831.745721 -231.951371 
L 834.428413 -232.175248 
L 837.111106 -232.373708 
L 839.793798 -232.507234 
L 842.47649 -232.649843 
L 845.159183 -232.815643 
L 847.841875 -232.965683 
L 850.524567 -233.150081 
L 853.20726 -233.361085 
L 855.889952 -233.69458 
L 858.572644 -234.021408 
L 861.255337 -234.40916 
L 863.938029 -234.753917 
L 866.620721 -235.071804 
L 869.303413 -235.376675 
L 871.986106 -235.626394 
L 874.668798 -235.815309 
L 877.35149 -235.981477 
L 880.034183 -236.127453 
L 882.716875 -236.270156 
L 882.716875 -39.491875 
L 882.716875 -39.491875 
L 880.034183 -39.491875 
L 877.35149 -39.491875 
L 874.668798 -39.491875 
L 871.986106 -39.491875 
L 869.303413 -39.491875 
L 866.620721 -39.491875 
L 863.938029 -39.491875 
L 861.255337 -39.491875 
L 858.572644 -39.491875 
L 855.889952 -39.491875 
L 853.20726 -39.491875 
L 850.524567 -39.491875 
L 847.841875 -39.491875 
L 845.159183 -39.491875 
L 842.47649 -39.491875 
L 839.793798 -39.491875 
L 837.111106 -39.491875 
L 834.428413 -39.491875 
L 831.745721 -39.491875 
L 829.063029 -39.491875 
L 826.380337 -39.491875 
L 823.697644 -39.491875 
L 821.014952 -39.491875 
L 818.33226 -39.491875 
L 815.649567 -39.491875 
L 812.966875 -39.491875 
L 810.284183 -39.491875 
L 807.60149 -39.491875 
L 804.918798 -39.491875 
L 802.236106 -39.491875 
L 799.553413 -39.491875 
L 796.870721 -39.491875 
L 794.188029 -39.491875 
L 791.505337 -39.491875 
L 788.822644 -39.491875 
L 786.139952 -39.491875 
L 783.45726 -39.491875 
L 780.774567 -39.491875 
L 778.091875 -39.491875 
L 775.409183 -39.491875 
L 772.72649 -39.491875 
L 770.043798 -39.491875 
L 767.361106 -39.491875 
L 764.678413 -39.491875 
L 761.995721 -39.491875 
L 759.313029 -39.491875 
L 756.630337 -39.491875 
L 753.947644 -39.491875 
L 751.264952 -39.491875 
L 748.58226 -39.491875 
L 745.899567 -39.491875 
L 743.216875 -39.491875 
L 740.534183 -39.491875 
L 737.85149 -39.491875 
L 735.168798 -39.491875 
L 732.486106 -39.491875 
L 729.803413 -39.491875 
L 727.120721 -39.491875 
L 724.438029 -39.491875 
L 721.755337 -39.491875 
L 719.072644 -39.491875 
L 716.389952 -39.491875 
L 713.70726 -39.491875 
L 711.024567 -39.491875 
L 708.341875 -39.491875 
L 705.659183 -39.491875 
L 702.97649 -39.491875 
L 700.293798 -39.491875 
L 697.611106 -39.491875 
L 694.928413 -39.491875 
L 692.245721 -39.491875 
L 689.563029 -39.491875 
L 686.880337 -39.491875 
L 684.197644 -39.491875 
L 681.514952 -39.491875 
L 678.83226 -39.491875 
L 676.149567 -39.491875 
L 673.466875 -39.491875 
L 670.784183 -39.491875 
L 668.10149 -39.491875 
L 665.418798 -39.491875 
L 662.736106 -39.491875 
L 660.053413 -39.491875 
L 657.370721 -39.491875 
L 654.688029 -39.491875 
L 652.005337 -39.491875 
L 649.322644 -39.491875 
L 646.639952 -39.491875 
L 643.95726 -39.491875 
L 641.274567 -39.491875 
L 638.591875 -39.491875 
L 635.909183 -39.491875 
L 633.22649 -39.491875 
L 630.543798 -39.491875 
L 627.861106 -39.491875 
L 625.178413 -39.491875 
L 622.495721 -39.491875 
L 619.813029 -39.491875 
L 617.130337 -39.491875 
L 614.447644 -39.491875 
L 611.764952 -39.491875 
L 609.08226 -39.491875 
L 606.399567 -39.491875 
L 603.716875 -39.491875 
L 601.034183 -39.491875 
L 598.35149 -39.491875 
L 595.668798 -39.491875 
L 592.986106 -39.491875 
L 590.303413 -39.491875 
L 587.620721 -39.491875 
L 584.938029 -39.491875 
L 582.255337 -39.491875 
L 579.572644 -39.491875 
L 576.889952 -39.491875 
L 574.20726 -39.491875 
L 571.524567 -39.491875 
L 568.841875 -39.491875 
L 566.159183 -39.491875 
L 563.47649 -39.491875 
L 560.793798 -39.491875 
L 558.111106 -39.491875 
L 555.428413 -39.491875 
L 552.745721 -39.491875 
L 550.063029 -39.491875 
L 547.380337 -39.491875 
L 544.697644 -39.491875 
L 542.014952 -39.491875 
L 539.33226 -39.491875 
L 536.649567 -39.491875 
L 533.966875 -39.491875 
L 531.284183 -39.491875 
L 528.60149 -39.491875 
L 525.918798 -39.491875 
L 523.236106 -39.491875 
L 520.553413 -39.491875 
L 517.870721 -39.491875 
L 515.188029 -39.491875 
L 512.505337 -39.491875 
L 509.822644 -39.491875 
L 507.139952 -39.491875 
L 504.45726 -39.491875 
L 501.774567 -39.491875 
L 499.091875 -39.491875 
L 496.409183 -39.491875 
L 493.72649 -39.491875 
L 491.043798 -39.491875 
L 488.361106 -39.491875 
L 485.678413 -39.491875 
L 482.995721 -39.491875 
L 480.313029 -39.491875 
L 477.630337 -39.491875 
L 474.947644 -39.491875 
L 472.264952 -39.491875 
L 469.58226 -39.491875 
L 466.899567 -39.491875 
L 464.216875 -39.491875 
L 461.534183 -39.491875 
L 458.85149 -39.491875 
L 456.168798 -39.491875 
L 453.486106 -39.491875 
L 450.803413 -39.491875 
L 448.120721 -39.491875 
L 445.438029 -39.491875 
L 442.755337 -39.491875 
L 440.072644 -39.491875 
L 437.389952 -39.491875 
L 434.70726 -39.491875 
L 432.024567 -39.491875 
L 429.341875 -39.491875 
L 426.659183 -39.491875 
L 423.97649 -39.491875 
L 421.293798 -39.491875 
L 418.611106 -39.491875 
L 415.928413 -39.491875 
L 413.245721 -39.491875 
L 410.563029 -39.491875 
L 407.880337 -39.491875 
L 405.197644 -39.491875 
L 402.514952 -39.491875 
L 399.83226 -39.491875 
L 397.149567 -39.491875 
L 394.466875 -39.491875 
L 391.784183 -39.491875 
L 389.10149 -39.491875 
L 386.418798 -39.491875 
L 383.736106 -39.491875 
L 381.053413 -39.491875 
L 378.370721 -39.491875 
L 375.688029 -39.491875 
L 373.005337 -39.491875 
L 370.322644 -39.491875 
L 367.639952 -39.491875 
L 364.95726 -39.491875 
L 362.274567 -39.491875 
L 359.591875 -39.491875 
L 356.909183 -39.491875 
L 354.22649 -39.491875 
L 351.543798 -39.491875 
L 348.861106 -39.491875 
L 346.178413 -39.491875 
L 343.495721 -39.491875 
L 340.813029 -39.491875 
L 338.130337 -39.491875 
L 335.447644 -39.491875 
L 332.764952 -39.491875 
L 330.08226 -39.491875 
L 327.399567 -39.491875 
L 324.716875 -39.491875 
L 322.034183 -39.491875 
L 319.35149 -39.491875 
L 316.668798 -39.491875 
L 313.986106 -39.491875 
L 311.303413 -39.491875 
L 308.620721 -39.491875 
L 305.938029 -39.491875 
L 303.255337 -39.491875 
L 300.572644 -39.491875 
L 297.889952 -39.491875 
L 295.20726 -39.491875 
L 292.524567 -39.491875 
L 289.841875 -39.491875 
L 287.159183 -39.491875 
L 284.47649 -39.491875 
L 281.793798 -39.491875 
L 279.111106 -39.491875 
L 276.428413 -39.491875 
L 273.745721 -39.491875 
L 271.063029 -39.491875 
L 268.380337 -39.491875 
L 265.697644 -39.491875 
L 263.014952 -39.491875 
L 260.33226 -39.491875 
L 257.649567 -39.491875 
L 254.966875 -39.491875 
L 252.284183 -39.491875 
L 249.60149 -39.491875 
L 246.918798 -39.491875 
L 244.236106 -39.491875 
L 241.553413 -39.491875 
L 238.870721 -39.491875 
L 236.188029 -39.491875 
L 233.505337 -39.491875 
L 230.822644 -39.491875 
L 228.139952 -39.491875 
L 225.45726 -39.491875 
L 222.774567 -39.491875 
L 220.091875 -39.491875 
L 217.409183 -39.491875 
L 214.72649 -39.491875 
L 212.043798 -39.491875 
L 209.361106 -39.491875 
L 206.678413 -39.491875 
L 203.995721 -39.491875 
L 201.313029 -39.491875 
L 198.630337 -39.491875 
L 195.947644 -39.491875 
L 193.264952 -39.491875 
L 190.58226 -39.491875 
L 187.899567 -39.491875 
L 185.216875 -39.491875 
L 182.534183 -39.491875 
L 179.85149 -39.491875 
L 177.168798 -39.491875 
L 174.486106 -39.491875 
L 171.803413 -39.491875 
L 169.120721 -39.491875 
L 166.438029 -39.491875 
L 163.755337 -39.491875 
L 161.072644 -39.491875 
L 158.389952 -39.491875 
L 155.70726 -39.491875 
L 153.024567 -39.491875 
L 150.341875 -39.491875 
L 147.659183 -39.491875 
L 144.97649 -39.491875 
L 142.293798 -39.491875 
L 139.611106 -39.491875 
L 136.928413 -39.491875 
L 134.245721 -39.491875 
L 131.563029 -39.491875 
L 128.880337 -39.491875 
L 126.197644 -39.491875 
L 123.514952 -39.491875 
L 120.83226 -39.491875 
L 118.149567 -39.491875 
L 115.466875 -39.491875 
L 112.784183 -39.491875 
L 110.10149 -39.491875 
L 107.418798 -39.491875 
L 104.736106 -39.491875 
L 102.053413 -39.491875 
L 99.370721 -39.491875 
L 96.688029 -39.491875 
L 94.005337 -39.491875 
L 91.322644 -39.491875 
L 88.639952 -39.491875 
L 85.95726 -39.491875 
L 83.274567 -39.491875 
L 80.591875 -39.491875 
L 77.909183 -39.491875 
L 75.22649 -39.491875 
L 72.543798 -39.491875 
L 69.861106 -39.491875 
L 67.178413 -39.491875 
L 64.495721 -39.491875 
L 61.813029 -39.491875 
L 59.130337 -39.491875 
L 56.447644 -39.491875 
L 53.764952 -39.491875 
L 51.08226 -39.491875 
L 48.399567 -39.491875 
L 45.716875 -39.491875 
z
" id="mcd1a57e3ca" style="stroke:#ff4500;stroke-opacity:0.5;stroke-width:0.5;"/>
    </defs>
    <g clip-path="url(#p6e8fe91897)">
     <use style="fill:#ff4500;fill-opacity:0.5;stroke:#ff4500;stroke-opacity:0.5;stroke-width:0.5;" x="0" xlink:href="#mcd1a57e3ca" y="281.073625"/>
    </g>
   </g>
   <g id="LineCollection_1">
    <path clip-path="url(#p6e8fe91897)" d="M 45.716875 251.420664 
L 45.716875 34.964555 
" style="fill:none;stroke:#808080;stroke-width:0.5;"/>
   </g>
   <g id="patch_3">
    <path d="M 45.716875 241.58175 
L 45.716875 24.14175 
" style="fill:none;stroke:#ffffff;stroke-linecap:square;stroke-linejoin:miter;"/>
   </g>
   <g id="patch_4">
    <path d="M 882.716875 241.58175 
L 882.716875 24.14175 
" style="fill:none;stroke:#ffffff;stroke-linecap:square;stroke-linejoin:miter;"/>
   </g>
   <g id="patch_5">
    <path d="M 45.716875 241.58175 
L 882.716875 241.58175 
" style="fill:none;stroke:#ffffff;stroke-linecap:square;stroke-linejoin:miter;"/>
   </g>
   <g id="patch_6">
    <path d="M 45.716875 24.14175 
L 882.716875 24.14175 
" style="fill:none;stroke:#ffffff;stroke-linecap:square;stroke-linejoin:miter;"/>
   </g>
   <g id="text_18">
    <!-- Total bases over time -->
    <defs>
     <path d="M -0.296875 72.90625 
L 61.375 72.90625 
L 61.375 64.59375 
L 35.5 64.59375 
L 35.5 0 
L 25.59375 0 
L 25.59375 64.59375 
L -0.296875 64.59375 
z
" id="DejaVuSans-54"/>
     <path d="M 9.421875 75.984375 
L 18.40625 75.984375 
L 18.40625 0 
L 9.421875 0 
z
" id="DejaVuSans-6c"/>
     <path d="M 2.984375 54.6875 
L 12.5 54.6875 
L 29.59375 8.796875 
L 46.6875 54.6875 
L 56.203125 54.6875 
L 35.6875 0 
L 23.484375 0 
z
" id="DejaVuSans-76"/>
    </defs>
    <g transform="translate(386.094625 18.14175)scale(0.144 -0.144)">
     <use xlink:href="#DejaVuSans-54"/>
     <use x="60.818359" xlink:href="#DejaVuSans-6f"/>
     <use x="122" xlink:href="#DejaVuSans-74"/>
     <use x="161.208984" xlink:href="#DejaVuSans-61"/>
     <use x="222.488281" xlink:href="#DejaVuSans-6c"/>
     <use x="250.271484" xlink:href="#DejaVuSans-20"/>
     <use x="282.058594" xlink:href="#DejaVuSans-62"/>
     <use x="345.535156" xlink:href="#DejaVuSans-61"/>
     <use x="406.814453" xlink:href="#DejaVuSans-73"/>
     <use x="458.914062" xlink:href="#DejaVuSans-65"/>
     <use x="520.4375" xlink:href="#DejaVuSans-73"/>
     <use x="572.537109" xlink:href="#DejaVuSans-20"/>
     <use x="604.324219" xlink:href="#DejaVuSans-6f"/>
     <use x="665.505859" xlink:href="#DejaVuSans-76"/>
     <use x="724.685547" xlink:href="#DejaVuSans-65"/>
     <use x="786.208984" xlink:href="#DejaVuSans-72"/>
     <use x="827.322266" xlink:href="#DejaVuSans-20"/>
     <use x="859.109375" xlink:href="#DejaVuSans-74"/>
     <use x="898.318359" xlink:href="#DejaVuSans-69"/>
     <use x="926.101562" xlink:href="#DejaVuSans-6d"/>
     <use x="1023.513672" xlink:href="#DejaVuSans-65"/>
    </g>
   </g>
  </g>
 </g>
 <defs>
  <clipPath id="p6e8fe91897">
   <rect height="217.44" width="837" x="45.716875" y="24.14175"/>
  </clipPath>
 </defs>
</svg>
