<?xml version="1.0" encoding="utf-8" standalone="no"?>
<!DOCTYPE svg PUBLIC "-//W3C//DTD SVG 1.1//EN"
  "http://www.w3.org/Graphics/SVG/1.1/DTD/svg11.dtd">
<!-- Created with matplotlib (http://matplotlib.org/) -->
<svg height="135pt" version="1.1" viewBox="0 0 856 135" width="856pt" xmlns="http://www.w3.org/2000/svg" xmlns:xlink="http://www.w3.org/1999/xlink">
 <defs>
  <style type="text/css">
*{stroke-linecap:butt;stroke-linejoin:round;}
  </style>
 </defs>
 <g id="figure_1">
  <g id="patch_1">
   <path d="M 0 135.367375 
L 856.6475 135.367375 
L 856.6475 0 
L 0 0 
z
" style="fill:#ffffff;"/>
  </g>
  <g id="axes_1">
   <g id="patch_2">
    <path d="M 277.7975 95.54175 
L 845.9475 95.54175 
L 845.9475 24.14175 
L 277.7975 24.14175 
z
" style="fill:#e5e5e5;"/>
   </g>
   <g id="matplotlib.axis_1">
    <g id="xtick_1">
     <g id="line2d_1">
      <path clip-path="url(#p9c021aea55)" d="M 303.570743 95.54175 
L 303.570743 24.14175 
" style="fill:none;stroke:#ffffff;stroke-linecap:square;stroke-width:0.8;"/>
     </g>
     <g id="line2d_2">
      <defs>
       <path d="M 0 0 
L 0 3.5 
" id="m7594d9a30f" style="stroke:#555555;stroke-width:0.8;"/>
      </defs>
      <g>
       <use style="fill:#555555;stroke:#555555;stroke-width:0.8;" x="303.570743" xlink:href="#m7594d9a30f" y="95.54175"/>
      </g>
     </g>
     <g id="text_1">
      <!-- 0 -->
      <defs>
       <path d="M 31.78125 66.40625 
Q 24.171875 66.40625 20.328125 58.90625 
Q 16.5 51.421875 16.5 36.375 
Q 16.5 21.390625 20.328125 13.890625 
Q 24.171875 6.390625 31.78125 6.390625 
Q 39.453125 6.390625 43.28125 13.890625 
Q 47.125 21.390625 47.125 36.375 
Q 47.125 51.421875 43.28125 58.90625 
Q 39.453125 66.40625 31.78125 66.40625 
z
M 31.78125 74.21875 
Q 44.046875 74.21875 50.515625 64.515625 
Q 56.984375 54.828125 56.984375 36.375 
Q 56.984375 17.96875 50.515625 8.265625 
Q 44.046875 -1.421875 31.78125 -1.421875 
Q 19.53125 -1.421875 13.0625 8.265625 
Q 6.59375 17.96875 6.59375 36.375 
Q 6.59375 54.828125 13.0625 64.515625 
Q 19.53125 74.21875 31.78125 74.21875 
z
" id="DejaVuSans-30"/>
      </defs>
      <g style="fill:#555555;" transform="translate(300.389493 110.140188)scale(0.1 -0.1)">
       <use xlink:href="#DejaVuSans-30"/>
      </g>
     </g>
    </g>
    <g id="xtick_2">
     <g id="line2d_3">
      <path clip-path="url(#p9c021aea55)" d="M 407.083981 95.54175 
L 407.083981 24.14175 
" style="fill:none;stroke:#ffffff;stroke-linecap:square;stroke-width:0.8;"/>
     </g>
     <g id="line2d_4">
      <g>
       <use style="fill:#555555;stroke:#555555;stroke-width:0.8;" x="407.083981" xlink:href="#m7594d9a30f" y="95.54175"/>
      </g>
     </g>
     <g id="text_2">
      <!-- 10000 -->
      <defs>
       <path d="M 12.40625 8.296875 
L 28.515625 8.296875 
L 28.515625 63.921875 
L 10.984375 60.40625 
L 10.984375 69.390625 
L 28.421875 72.90625 
L 38.28125 72.90625 
L 38.28125 8.296875 
L 54.390625 8.296875 
L 54.390625 0 
L 12.40625 0 
z
" id="DejaVuSans-31"/>
      </defs>
      <g style="fill:#555555;" transform="translate(391.177731 110.140188)scale(0.1 -0.1)">
       <use xlink:href="#DejaVuSans-31"/>
       <use x="63.623047" xlink:href="#DejaVuSans-30"/>
       <use x="127.246094" xlink:href="#DejaVuSans-30"/>
       <use x="190.869141" xlink:href="#DejaVuSans-30"/>
       <use x="254.492188" xlink:href="#DejaVuSans-30"/>
      </g>
     </g>
    </g>
    <g id="xtick_3">
     <g id="line2d_5">
      <path clip-path="url(#p9c021aea55)" d="M 510.597218 95.54175 
L 510.597218 24.14175 
" style="fill:none;stroke:#ffffff;stroke-linecap:square;stroke-width:0.8;"/>
     </g>
     <g id="line2d_6">
      <g>
       <use style="fill:#555555;stroke:#555555;stroke-width:0.8;" x="510.597218" xlink:href="#m7594d9a30f" y="95.54175"/>
      </g>
     </g>
     <g id="text_3">
      <!-- 20000 -->
      <defs>
       <path d="M 19.1875 8.296875 
L 53.609375 8.296875 
L 53.609375 0 
L 7.328125 0 
L 7.328125 8.296875 
Q 12.9375 14.109375 22.625 23.890625 
Q 32.328125 33.6875 34.8125 36.53125 
Q 39.546875 41.84375 41.421875 45.53125 
Q 43.3125 49.21875 43.3125 52.78125 
Q 43.3125 58.59375 39.234375 62.25 
Q 35.15625 65.921875 28.609375 65.921875 
Q 23.96875 65.921875 18.8125 64.3125 
Q 13.671875 62.703125 7.8125 59.421875 
L 7.8125 69.390625 
Q 13.765625 71.78125 18.9375 73 
Q 24.125 74.21875 28.421875 74.21875 
Q 39.75 74.21875 46.484375 68.546875 
Q 53.21875 62.890625 53.21875 53.421875 
Q 53.21875 48.921875 51.53125 44.890625 
Q 49.859375 40.875 45.40625 35.40625 
Q 44.1875 33.984375 37.640625 27.21875 
Q 31.109375 20.453125 19.1875 8.296875 
z
" id="DejaVuSans-32"/>
      </defs>
      <g style="fill:#555555;" transform="translate(494.690968 110.140188)scale(0.1 -0.1)">
       <use xlink:href="#DejaVuSans-32"/>
       <use x="63.623047" xlink:href="#DejaVuSans-30"/>
       <use x="127.246094" xlink:href="#DejaVuSans-30"/>
       <use x="190.869141" xlink:href="#DejaVuSans-30"/>
       <use x="254.492188" xlink:href="#DejaVuSans-30"/>
      </g>
     </g>
    </g>
    <g id="xtick_4">
     <g id="line2d_7">
      <path clip-path="url(#p9c021aea55)" d="M 614.110455 95.54175 
L 614.110455 24.14175 
" style="fill:none;stroke:#ffffff;stroke-linecap:square;stroke-width:0.8;"/>
     </g>
     <g id="line2d_8">
      <g>
       <use style="fill:#555555;stroke:#555555;stroke-width:0.8;" x="614.110455" xlink:href="#m7594d9a30f" y="95.54175"/>
      </g>
     </g>
     <g id="text_4">
      <!-- 30000 -->
      <defs>
       <path d="M 40.578125 39.3125 
Q 47.65625 37.796875 51.625 33 
Q 55.609375 28.21875 55.609375 21.1875 
Q 55.609375 10.40625 48.1875 4.484375 
Q 40.765625 -1.421875 27.09375 -1.421875 
Q 22.515625 -1.421875 17.65625 -0.515625 
Q 12.796875 0.390625 7.625 2.203125 
L 7.625 11.71875 
Q 11.71875 9.328125 16.59375 8.109375 
Q 21.484375 6.890625 26.8125 6.890625 
Q 36.078125 6.890625 40.9375 10.546875 
Q 45.796875 14.203125 45.796875 21.1875 
Q 45.796875 27.640625 41.28125 31.265625 
Q 36.765625 34.90625 28.71875 34.90625 
L 20.21875 34.90625 
L 20.21875 43.015625 
L 29.109375 43.015625 
Q 36.375 43.015625 40.234375 45.921875 
Q 44.09375 48.828125 44.09375 54.296875 
Q 44.09375 59.90625 40.109375 62.90625 
Q 36.140625 65.921875 28.71875 65.921875 
Q 24.65625 65.921875 20.015625 65.03125 
Q 15.375 64.15625 9.8125 62.3125 
L 9.8125 71.09375 
Q 15.4375 72.65625 20.34375 73.4375 
Q 25.25 74.21875 29.59375 74.21875 
Q 40.828125 74.21875 47.359375 69.109375 
Q 53.90625 64.015625 53.90625 55.328125 
Q 53.90625 49.265625 50.4375 45.09375 
Q 46.96875 40.921875 40.578125 39.3125 
z
" id="DejaVuSans-33"/>
      </defs>
      <g style="fill:#555555;" transform="translate(598.204205 110.140188)scale(0.1 -0.1)">
       <use xlink:href="#DejaVuSans-33"/>
       <use x="63.623047" xlink:href="#DejaVuSans-30"/>
       <use x="127.246094" xlink:href="#DejaVuSans-30"/>
       <use x="190.869141" xlink:href="#DejaVuSans-30"/>
       <use x="254.492188" xlink:href="#DejaVuSans-30"/>
      </g>
     </g>
    </g>
    <g id="xtick_5">
     <g id="line2d_9">
      <path clip-path="url(#p9c021aea55)" d="M 717.623692 95.54175 
L 717.623692 24.14175 
" style="fill:none;stroke:#ffffff;stroke-linecap:square;stroke-width:0.8;"/>
     </g>
     <g id="line2d_10">
      <g>
       <use style="fill:#555555;stroke:#555555;stroke-width:0.8;" x="717.623692" xlink:href="#m7594d9a30f" y="95.54175"/>
      </g>
     </g>
     <g id="text_5">
      <!-- 40000 -->
      <defs>
       <path d="M 37.796875 64.3125 
L 12.890625 25.390625 
L 37.796875 25.390625 
z
M 35.203125 72.90625 
L 47.609375 72.90625 
L 47.609375 25.390625 
L 58.015625 25.390625 
L 58.015625 17.1875 
L 47.609375 17.1875 
L 47.609375 0 
L 37.796875 0 
L 37.796875 17.1875 
L 4.890625 17.1875 
L 4.890625 26.703125 
z
" id="DejaVuSans-34"/>
      </defs>
      <g style="fill:#555555;" transform="translate(701.717442 110.140188)scale(0.1 -0.1)">
       <use xlink:href="#DejaVuSans-34"/>
       <use x="63.623047" xlink:href="#DejaVuSans-30"/>
       <use x="127.246094" xlink:href="#DejaVuSans-30"/>
       <use x="190.869141" xlink:href="#DejaVuSans-30"/>
       <use x="254.492188" xlink:href="#DejaVuSans-30"/>
      </g>
     </g>
    </g>
    <g id="xtick_6">
     <g id="line2d_11">
      <path clip-path="url(#p9c021aea55)" d="M 821.13693 95.54175 
L 821.13693 24.14175 
" style="fill:none;stroke:#ffffff;stroke-linecap:square;stroke-width:0.8;"/>
     </g>
     <g id="line2d_12">
      <g>
       <use style="fill:#555555;stroke:#555555;stroke-width:0.8;" x="821.13693" xlink:href="#m7594d9a30f" y="95.54175"/>
      </g>
     </g>
     <g id="text_6">
      <!-- 50000 -->
      <defs>
       <path d="M 10.796875 72.90625 
L 49.515625 72.90625 
L 49.515625 64.59375 
L 19.828125 64.59375 
L 19.828125 46.734375 
Q 21.96875 47.46875 24.109375 47.828125 
Q 26.265625 48.1875 28.421875 48.1875 
Q 40.625 48.1875 47.75 41.5 
Q 54.890625 34.8125 54.890625 23.390625 
Q 54.890625 11.625 47.5625 5.09375 
Q 40.234375 -1.421875 26.90625 -1.421875 
Q 22.3125 -1.421875 17.546875 -0.640625 
Q 12.796875 0.140625 7.71875 1.703125 
L 7.71875 11.625 
Q 12.109375 9.234375 16.796875 8.0625 
Q 21.484375 6.890625 26.703125 6.890625 
Q 35.15625 6.890625 40.078125 11.328125 
Q 45.015625 15.765625 45.015625 23.390625 
Q 45.015625 31 40.078125 35.4375 
Q 35.15625 39.890625 26.703125 39.890625 
Q 22.75 39.890625 18.8125 39.015625 
Q 14.890625 38.140625 10.796875 36.28125 
z
" id="DejaVuSans-35"/>
      </defs>
      <g style="fill:#555555;" transform="translate(805.23068 110.140188)scale(0.1 -0.1)">
       <use xlink:href="#DejaVuSans-35"/>
       <use x="63.623047" xlink:href="#DejaVuSans-30"/>
       <use x="127.246094" xlink:href="#DejaVuSans-30"/>
       <use x="190.869141" xlink:href="#DejaVuSans-30"/>
       <use x="254.492188" xlink:href="#DejaVuSans-30"/>
      </g>
     </g>
    </g>
    <g id="text_7">
     <!-- num_bases -->
     <defs>
      <path d="M 54.890625 33.015625 
L 54.890625 0 
L 45.90625 0 
L 45.90625 32.71875 
Q 45.90625 40.484375 42.875 44.328125 
Q 39.84375 48.1875 33.796875 48.1875 
Q 26.515625 48.1875 22.3125 43.546875 
Q 18.109375 38.921875 18.109375 30.90625 
L 18.109375 0 
L 9.078125 0 
L 9.078125 54.6875 
L 18.109375 54.6875 
L 18.109375 46.1875 
Q 21.34375 51.125 25.703125 53.5625 
Q 30.078125 56 35.796875 56 
Q 45.21875 56 50.046875 50.171875 
Q 54.890625 44.34375 54.890625 33.015625 
z
" id="DejaVuSans-6e"/>
      <path d="M 8.5 21.578125 
L 8.5 54.6875 
L 17.484375 54.6875 
L 17.484375 21.921875 
Q 17.484375 14.15625 20.5 10.265625 
Q 23.53125 6.390625 29.59375 6.390625 
Q 36.859375 6.390625 41.078125 11.03125 
Q 45.3125 15.671875 45.3125 23.6875 
L 45.3125 54.6875 
L 54.296875 54.6875 
L 54.296875 0 
L 45.3125 0 
L 45.3125 8.40625 
Q 42.046875 3.421875 37.71875 1 
Q 33.40625 -1.421875 27.6875 -1.421875 
Q 18.265625 -1.421875 13.375 4.4375 
Q 8.5 10.296875 8.5 21.578125 
z
M 31.109375 56 
z
" id="DejaVuSans-75"/>
      <path d="M 52 44.1875 
Q 55.375 50.25 60.0625 53.125 
Q 64.75 56 71.09375 56 
Q 79.640625 56 84.28125 50.015625 
Q 88.921875 44.046875 88.921875 33.015625 
L 88.921875 0 
L 79.890625 0 
L 79.890625 32.71875 
Q 79.890625 40.578125 77.09375 44.375 
Q 74.3125 48.1875 68.609375 48.1875 
Q 61.625 48.1875 57.5625 43.546875 
Q 53.515625 38.921875 53.515625 30.90625 
L 53.515625 0 
L 44.484375 0 
L 44.484375 32.71875 
Q 44.484375 40.625 41.703125 44.40625 
Q 38.921875 48.1875 33.109375 48.1875 
Q 26.21875 48.1875 22.15625 43.53125 
Q 18.109375 38.875 18.109375 30.90625 
L 18.109375 0 
L 9.078125 0 
L 9.078125 54.6875 
L 18.109375 54.6875 
L 18.109375 46.1875 
Q 21.1875 51.21875 25.484375 53.609375 
Q 29.78125 56 35.6875 56 
Q 41.65625 56 45.828125 52.96875 
Q 50 49.953125 52 44.1875 
z
" id="DejaVuSans-6d"/>
      <path d="M 50.984375 -16.609375 
L 50.984375 -23.578125 
L -0.984375 -23.578125 
L -0.984375 -16.609375 
z
" id="DejaVuSans-5f"/>
      <path d="M 48.6875 27.296875 
Q 48.6875 37.203125 44.609375 42.84375 
Q 40.53125 48.484375 33.40625 48.484375 
Q 26.265625 48.484375 22.1875 42.84375 
Q 18.109375 37.203125 18.109375 27.296875 
Q 18.109375 17.390625 22.1875 11.75 
Q 26.265625 6.109375 33.40625 6.109375 
Q 40.53125 6.109375 44.609375 11.75 
Q 48.6875 17.390625 48.6875 27.296875 
z
M 18.109375 46.390625 
Q 20.953125 51.265625 25.265625 53.625 
Q 29.59375 56 35.59375 56 
Q 45.5625 56 51.78125 48.09375 
Q 58.015625 40.1875 58.015625 27.296875 
Q 58.015625 14.40625 51.78125 6.484375 
Q 45.5625 -1.421875 35.59375 -1.421875 
Q 29.59375 -1.421875 25.265625 0.953125 
Q 20.953125 3.328125 18.109375 8.203125 
L 18.109375 0 
L 9.078125 0 
L 9.078125 75.984375 
L 18.109375 75.984375 
z
" id="DejaVuSans-62"/>
      <path d="M 34.28125 27.484375 
Q 23.390625 27.484375 19.1875 25 
Q 14.984375 22.515625 14.984375 16.5 
Q 14.984375 11.71875 18.140625 8.90625 
Q 21.296875 6.109375 26.703125 6.109375 
Q 34.1875 6.109375 38.703125 11.40625 
Q 43.21875 16.703125 43.21875 25.484375 
L 43.21875 27.484375 
z
M 52.203125 31.203125 
L 52.203125 0 
L 43.21875 0 
L 43.21875 8.296875 
Q 40.140625 3.328125 35.546875 0.953125 
Q 30.953125 -1.421875 24.3125 -1.421875 
Q 15.921875 -1.421875 10.953125 3.296875 
Q 6 8.015625 6 15.921875 
Q 6 25.140625 12.171875 29.828125 
Q 18.359375 34.515625 30.609375 34.515625 
L 43.21875 34.515625 
L 43.21875 35.40625 
Q 43.21875 41.609375 39.140625 45 
Q 35.0625 48.390625 27.6875 48.390625 
Q 23 48.390625 18.546875 47.265625 
Q 14.109375 46.140625 10.015625 43.890625 
L 10.015625 52.203125 
Q 14.9375 54.109375 19.578125 55.046875 
Q 24.21875 56 28.609375 56 
Q 40.484375 56 46.34375 49.84375 
Q 52.203125 43.703125 52.203125 31.203125 
z
" id="DejaVuSans-61"/>
      <path d="M 44.28125 53.078125 
L 44.28125 44.578125 
Q 40.484375 46.53125 36.375 47.5 
Q 32.28125 48.484375 27.875 48.484375 
Q 21.1875 48.484375 17.84375 46.4375 
Q 14.5 44.390625 14.5 40.28125 
Q 14.5 37.15625 16.890625 35.375 
Q 19.28125 33.59375 26.515625 31.984375 
L 29.59375 31.296875 
Q 39.15625 29.25 43.1875 25.515625 
Q 47.21875 21.78125 47.21875 15.09375 
Q 47.21875 7.46875 41.1875 3.015625 
Q 35.15625 -1.421875 24.609375 -1.421875 
Q 20.21875 -1.421875 15.453125 -0.5625 
Q 10.6875 0.296875 5.421875 2 
L 5.421875 11.28125 
Q 10.40625 8.6875 15.234375 7.390625 
Q 20.0625 6.109375 24.8125 6.109375 
Q 31.15625 6.109375 34.5625 8.28125 
Q 37.984375 10.453125 37.984375 14.40625 
Q 37.984375 18.0625 35.515625 20.015625 
Q 33.0625 21.96875 24.703125 23.78125 
L 21.578125 24.515625 
Q 13.234375 26.265625 9.515625 29.90625 
Q 5.8125 33.546875 5.8125 39.890625 
Q 5.8125 47.609375 11.28125 51.796875 
Q 16.75 56 26.8125 56 
Q 31.78125 56 36.171875 55.265625 
Q 40.578125 54.546875 44.28125 53.078125 
z
" id="DejaVuSans-73"/>
      <path d="M 56.203125 29.59375 
L 56.203125 25.203125 
L 14.890625 25.203125 
Q 15.484375 15.921875 20.484375 11.0625 
Q 25.484375 6.203125 34.421875 6.203125 
Q 39.59375 6.203125 44.453125 7.46875 
Q 49.3125 8.734375 54.109375 11.28125 
L 54.109375 2.78125 
Q 49.265625 0.734375 44.1875 -0.34375 
Q 39.109375 -1.421875 33.890625 -1.421875 
Q 20.796875 -1.421875 13.15625 6.1875 
Q 5.515625 13.8125 5.515625 26.8125 
Q 5.515625 40.234375 12.765625 48.109375 
Q 20.015625 56 32.328125 56 
Q 43.359375 56 49.78125 48.890625 
Q 56.203125 41.796875 56.203125 29.59375 
z
M 47.21875 32.234375 
Q 47.125 39.59375 43.09375 43.984375 
Q 39.0625 48.390625 32.421875 48.390625 
Q 24.90625 48.390625 20.390625 44.140625 
Q 15.875 39.890625 15.1875 32.171875 
z
" id="DejaVuSans-65"/>
     </defs>
     <g style="fill:#555555;" transform="translate(527.994062 125.338)scale(0.12 -0.12)">
      <use xlink:href="#DejaVuSans-6e"/>
      <use x="63.378906" xlink:href="#DejaVuSans-75"/>
      <use x="126.757812" xlink:href="#DejaVuSans-6d"/>
      <use x="224.169922" xlink:href="#DejaVuSans-5f"/>
      <use x="274.169922" xlink:href="#DejaVuSans-62"/>
      <use x="337.646484" xlink:href="#DejaVuSans-61"/>
      <use x="398.925781" xlink:href="#DejaVuSans-73"/>
      <use x="451.025391" xlink:href="#DejaVuSans-65"/>
      <use x="512.548828" xlink:href="#DejaVuSans-73"/>
     </g>
    </g>
   </g>
   <g id="matplotlib.axis_2">
    <g id="ytick_1">
     <g id="line2d_13">
      <defs>
       <path d="M 0 0 
L -3.5 0 
" id="m8a2afca6ba" style="stroke:#555555;stroke-width:0.8;"/>
      </defs>
      <g>
       <use style="fill:#555555;stroke:#555555;stroke-width:0.8;" x="277.7975" xlink:href="#m8a2afca6ba" y="41.99175"/>
      </g>
     </g>
     <g id="text_8">
      <!-- ad3de3b63de71c4c6d5ea4470a82782cf51210d9 -->
      <defs>
       <path d="M 45.40625 46.390625 
L 45.40625 75.984375 
L 54.390625 75.984375 
L 54.390625 0 
L 45.40625 0 
L 45.40625 8.203125 
Q 42.578125 3.328125 38.25 0.953125 
Q 33.9375 -1.421875 27.875 -1.421875 
Q 17.96875 -1.421875 11.734375 6.484375 
Q 5.515625 14.40625 5.515625 27.296875 
Q 5.515625 40.1875 11.734375 48.09375 
Q 17.96875 56 27.875 56 
Q 33.9375 56 38.25 53.625 
Q 42.578125 51.265625 45.40625 46.390625 
z
M 14.796875 27.296875 
Q 14.796875 17.390625 18.875 11.75 
Q 22.953125 6.109375 30.078125 6.109375 
Q 37.203125 6.109375 41.296875 11.75 
Q 45.40625 17.390625 45.40625 27.296875 
Q 45.40625 37.203125 41.296875 42.84375 
Q 37.203125 48.484375 30.078125 48.484375 
Q 22.953125 48.484375 18.875 42.84375 
Q 14.796875 37.203125 14.796875 27.296875 
z
" id="DejaVuSans-64"/>
       <path d="M 33.015625 40.375 
Q 26.375 40.375 22.484375 35.828125 
Q 18.609375 31.296875 18.609375 23.390625 
Q 18.609375 15.53125 22.484375 10.953125 
Q 26.375 6.390625 33.015625 6.390625 
Q 39.65625 6.390625 43.53125 10.953125 
Q 47.40625 15.53125 47.40625 23.390625 
Q 47.40625 31.296875 43.53125 35.828125 
Q 39.65625 40.375 33.015625 40.375 
z
M 52.59375 71.296875 
L 52.59375 62.3125 
Q 48.875 64.0625 45.09375 64.984375 
Q 41.3125 65.921875 37.59375 65.921875 
Q 27.828125 65.921875 22.671875 59.328125 
Q 17.53125 52.734375 16.796875 39.40625 
Q 19.671875 43.65625 24.015625 45.921875 
Q 28.375 48.1875 33.59375 48.1875 
Q 44.578125 48.1875 50.953125 41.515625 
Q 57.328125 34.859375 57.328125 23.390625 
Q 57.328125 12.15625 50.6875 5.359375 
Q 44.046875 -1.421875 33.015625 -1.421875 
Q 20.359375 -1.421875 13.671875 8.265625 
Q 6.984375 17.96875 6.984375 36.375 
Q 6.984375 53.65625 15.1875 63.9375 
Q 23.390625 74.21875 37.203125 74.21875 
Q 40.921875 74.21875 44.703125 73.484375 
Q 48.484375 72.75 52.59375 71.296875 
z
" id="DejaVuSans-36"/>
       <path d="M 8.203125 72.90625 
L 55.078125 72.90625 
L 55.078125 68.703125 
L 28.609375 0 
L 18.3125 0 
L 43.21875 64.59375 
L 8.203125 64.59375 
z
" id="DejaVuSans-37"/>
       <path d="M 48.78125 52.59375 
L 48.78125 44.1875 
Q 44.96875 46.296875 41.140625 47.34375 
Q 37.3125 48.390625 33.40625 48.390625 
Q 24.65625 48.390625 19.8125 42.84375 
Q 14.984375 37.3125 14.984375 27.296875 
Q 14.984375 17.28125 19.8125 11.734375 
Q 24.65625 6.203125 33.40625 6.203125 
Q 37.3125 6.203125 41.140625 7.25 
Q 44.96875 8.296875 48.78125 10.40625 
L 48.78125 2.09375 
Q 45.015625 0.34375 40.984375 -0.53125 
Q 36.96875 -1.421875 32.421875 -1.421875 
Q 20.0625 -1.421875 12.78125 6.34375 
Q 5.515625 14.109375 5.515625 27.296875 
Q 5.515625 40.671875 12.859375 48.328125 
Q 20.21875 56 33.015625 56 
Q 37.15625 56 41.109375 55.140625 
Q 45.0625 54.296875 48.78125 52.59375 
z
" id="DejaVuSans-63"/>
       <path d="M 31.78125 34.625 
Q 24.75 34.625 20.71875 30.859375 
Q 16.703125 27.09375 16.703125 20.515625 
Q 16.703125 13.921875 20.71875 10.15625 
Q 24.75 6.390625 31.78125 6.390625 
Q 38.8125 6.390625 42.859375 10.171875 
Q 46.921875 13.96875 46.921875 20.515625 
Q 46.921875 27.09375 42.890625 30.859375 
Q 38.875 34.625 31.78125 34.625 
z
M 21.921875 38.8125 
Q 15.578125 40.375 12.03125 44.71875 
Q 8.5 49.078125 8.5 55.328125 
Q 8.5 64.0625 14.71875 69.140625 
Q 20.953125 74.21875 31.78125 74.21875 
Q 42.671875 74.21875 48.875 69.140625 
Q 55.078125 64.0625 55.078125 55.328125 
Q 55.078125 49.078125 51.53125 44.71875 
Q 48 40.375 41.703125 38.8125 
Q 48.828125 37.15625 52.796875 32.3125 
Q 56.78125 27.484375 56.78125 20.515625 
Q 56.78125 9.90625 50.3125 4.234375 
Q 43.84375 -1.421875 31.78125 -1.421875 
Q 19.734375 -1.421875 13.25 4.234375 
Q 6.78125 9.90625 6.78125 20.515625 
Q 6.78125 27.484375 10.78125 32.3125 
Q 14.796875 37.15625 21.921875 38.8125 
z
M 18.3125 54.390625 
Q 18.3125 48.734375 21.84375 45.5625 
Q 25.390625 42.390625 31.78125 42.390625 
Q 38.140625 42.390625 41.71875 45.5625 
Q 45.3125 48.734375 45.3125 54.390625 
Q 45.3125 60.0625 41.71875 63.234375 
Q 38.140625 66.40625 31.78125 66.40625 
Q 25.390625 66.40625 21.84375 63.234375 
Q 18.3125 60.0625 18.3125 54.390625 
z
" id="DejaVuSans-38"/>
       <path d="M 37.109375 75.984375 
L 37.109375 68.5 
L 28.515625 68.5 
Q 23.6875 68.5 21.796875 66.546875 
Q 19.921875 64.59375 19.921875 59.515625 
L 19.921875 54.6875 
L 34.71875 54.6875 
L 34.71875 47.703125 
L 19.921875 47.703125 
L 19.921875 0 
L 10.890625 0 
L 10.890625 47.703125 
L 2.296875 47.703125 
L 2.296875 54.6875 
L 10.890625 54.6875 
L 10.890625 58.5 
Q 10.890625 67.625 15.140625 71.796875 
Q 19.390625 75.984375 28.609375 75.984375 
z
" id="DejaVuSans-66"/>
       <path d="M 10.984375 1.515625 
L 10.984375 10.5 
Q 14.703125 8.734375 18.5 7.8125 
Q 22.3125 6.890625 25.984375 6.890625 
Q 35.75 6.890625 40.890625 13.453125 
Q 46.046875 20.015625 46.78125 33.40625 
Q 43.953125 29.203125 39.59375 26.953125 
Q 35.25 24.703125 29.984375 24.703125 
Q 19.046875 24.703125 12.671875 31.3125 
Q 6.296875 37.9375 6.296875 49.421875 
Q 6.296875 60.640625 12.9375 67.421875 
Q 19.578125 74.21875 30.609375 74.21875 
Q 43.265625 74.21875 49.921875 64.515625 
Q 56.59375 54.828125 56.59375 36.375 
Q 56.59375 19.140625 48.40625 8.859375 
Q 40.234375 -1.421875 26.421875 -1.421875 
Q 22.703125 -1.421875 18.890625 -0.6875 
Q 15.09375 0.046875 10.984375 1.515625 
z
M 30.609375 32.421875 
Q 37.25 32.421875 41.125 36.953125 
Q 45.015625 41.5 45.015625 49.421875 
Q 45.015625 57.28125 41.125 61.84375 
Q 37.25 66.40625 30.609375 66.40625 
Q 23.96875 66.40625 20.09375 61.84375 
Q 16.21875 57.28125 16.21875 49.421875 
Q 16.21875 41.5 20.09375 36.953125 
Q 23.96875 32.421875 30.609375 32.421875 
z
" id="DejaVuSans-39"/>
      </defs>
      <g style="fill:#555555;" transform="translate(23.1475 45.790969)scale(0.1 -0.1)">
       <use xlink:href="#DejaVuSans-61"/>
       <use x="61.279297" xlink:href="#DejaVuSans-64"/>
       <use x="124.755859" xlink:href="#DejaVuSans-33"/>
       <use x="188.378906" xlink:href="#DejaVuSans-64"/>
       <use x="251.855469" xlink:href="#DejaVuSans-65"/>
       <use x="313.378906" xlink:href="#DejaVuSans-33"/>
       <use x="377.001953" xlink:href="#DejaVuSans-62"/>
       <use x="440.478516" xlink:href="#DejaVuSans-36"/>
       <use x="504.101562" xlink:href="#DejaVuSans-33"/>
       <use x="567.724609" xlink:href="#DejaVuSans-64"/>
       <use x="631.201172" xlink:href="#DejaVuSans-65"/>
       <use x="692.724609" xlink:href="#DejaVuSans-37"/>
       <use x="756.347656" xlink:href="#DejaVuSans-31"/>
       <use x="819.970703" xlink:href="#DejaVuSans-63"/>
       <use x="874.951172" xlink:href="#DejaVuSans-34"/>
       <use x="938.574219" xlink:href="#DejaVuSans-63"/>
       <use x="993.554688" xlink:href="#DejaVuSans-36"/>
       <use x="1057.177734" xlink:href="#DejaVuSans-64"/>
       <use x="1120.654297" xlink:href="#DejaVuSans-35"/>
       <use x="1184.277344" xlink:href="#DejaVuSans-65"/>
       <use x="1245.800781" xlink:href="#DejaVuSans-61"/>
       <use x="1307.080078" xlink:href="#DejaVuSans-34"/>
       <use x="1370.703125" xlink:href="#DejaVuSans-34"/>
       <use x="1434.326172" xlink:href="#DejaVuSans-37"/>
       <use x="1497.949219" xlink:href="#DejaVuSans-30"/>
       <use x="1561.572266" xlink:href="#DejaVuSans-61"/>
       <use x="1622.851562" xlink:href="#DejaVuSans-38"/>
       <use x="1686.474609" xlink:href="#DejaVuSans-32"/>
       <use x="1750.097656" xlink:href="#DejaVuSans-37"/>
       <use x="1813.720703" xlink:href="#DejaVuSans-38"/>
       <use x="1877.34375" xlink:href="#DejaVuSans-32"/>
       <use x="1940.966797" xlink:href="#DejaVuSans-63"/>
       <use x="1995.947266" xlink:href="#DejaVuSans-66"/>
       <use x="2031.152344" xlink:href="#DejaVuSans-35"/>
       <use x="2094.775391" xlink:href="#DejaVuSans-31"/>
       <use x="2158.398438" xlink:href="#DejaVuSans-32"/>
       <use x="2222.021484" xlink:href="#DejaVuSans-31"/>
       <use x="2285.644531" xlink:href="#DejaVuSans-30"/>
       <use x="2349.267578" xlink:href="#DejaVuSans-64"/>
       <use x="2412.744141" xlink:href="#DejaVuSans-39"/>
      </g>
     </g>
    </g>
    <g id="ytick_2">
     <g id="line2d_14">
      <g>
       <use style="fill:#555555;stroke:#555555;stroke-width:0.8;" x="277.7975" xlink:href="#m8a2afca6ba" y="77.69175"/>
      </g>
     </g>
     <g id="text_9">
      <!-- 7082b6727942b3939a023beaf03ef24cec1722e5 -->
      <g style="fill:#555555;" transform="translate(25.058437 81.490969)scale(0.1 -0.1)">
       <use xlink:href="#DejaVuSans-37"/>
       <use x="63.623047" xlink:href="#DejaVuSans-30"/>
       <use x="127.246094" xlink:href="#DejaVuSans-38"/>
       <use x="190.869141" xlink:href="#DejaVuSans-32"/>
       <use x="254.492188" xlink:href="#DejaVuSans-62"/>
       <use x="317.96875" xlink:href="#DejaVuSans-36"/>
       <use x="381.591797" xlink:href="#DejaVuSans-37"/>
       <use x="445.214844" xlink:href="#DejaVuSans-32"/>
       <use x="508.837891" xlink:href="#DejaVuSans-37"/>
       <use x="572.460938" xlink:href="#DejaVuSans-39"/>
       <use x="636.083984" xlink:href="#DejaVuSans-34"/>
       <use x="699.707031" xlink:href="#DejaVuSans-32"/>
       <use x="763.330078" xlink:href="#DejaVuSans-62"/>
       <use x="826.806641" xlink:href="#DejaVuSans-33"/>
       <use x="890.429688" xlink:href="#DejaVuSans-39"/>
       <use x="954.052734" xlink:href="#DejaVuSans-33"/>
       <use x="1017.675781" xlink:href="#DejaVuSans-39"/>
       <use x="1081.298828" xlink:href="#DejaVuSans-61"/>
       <use x="1142.578125" xlink:href="#DejaVuSans-30"/>
       <use x="1206.201172" xlink:href="#DejaVuSans-32"/>
       <use x="1269.824219" xlink:href="#DejaVuSans-33"/>
       <use x="1333.447266" xlink:href="#DejaVuSans-62"/>
       <use x="1396.923828" xlink:href="#DejaVuSans-65"/>
       <use x="1458.447266" xlink:href="#DejaVuSans-61"/>
       <use x="1519.726562" xlink:href="#DejaVuSans-66"/>
       <use x="1554.931641" xlink:href="#DejaVuSans-30"/>
       <use x="1618.554688" xlink:href="#DejaVuSans-33"/>
       <use x="1682.177734" xlink:href="#DejaVuSans-65"/>
       <use x="1743.701172" xlink:href="#DejaVuSans-66"/>
       <use x="1778.90625" xlink:href="#DejaVuSans-32"/>
       <use x="1842.529297" xlink:href="#DejaVuSans-34"/>
       <use x="1906.152344" xlink:href="#DejaVuSans-63"/>
       <use x="1961.132812" xlink:href="#DejaVuSans-65"/>
       <use x="2022.65625" xlink:href="#DejaVuSans-63"/>
       <use x="2077.636719" xlink:href="#DejaVuSans-31"/>
       <use x="2141.259766" xlink:href="#DejaVuSans-37"/>
       <use x="2204.882812" xlink:href="#DejaVuSans-32"/>
       <use x="2268.505859" xlink:href="#DejaVuSans-32"/>
       <use x="2332.128906" xlink:href="#DejaVuSans-65"/>
       <use x="2393.652344" xlink:href="#DejaVuSans-35"/>
      </g>
     </g>
    </g>
    <g id="text_10">
     <!-- run_id -->
     <defs>
      <path d="M 41.109375 46.296875 
Q 39.59375 47.171875 37.8125 47.578125 
Q 36.03125 48 33.890625 48 
Q 26.265625 48 22.1875 43.046875 
Q 18.109375 38.09375 18.109375 28.8125 
L 18.109375 0 
L 9.078125 0 
L 9.078125 54.6875 
L 18.109375 54.6875 
L 18.109375 46.1875 
Q 20.953125 51.171875 25.484375 53.578125 
Q 30.03125 56 36.53125 56 
Q 37.453125 56 38.578125 55.875 
Q 39.703125 55.765625 41.0625 55.515625 
z
" id="DejaVuSans-72"/>
      <path d="M 9.421875 54.6875 
L 18.40625 54.6875 
L 18.40625 0 
L 9.421875 0 
z
M 9.421875 75.984375 
L 18.40625 75.984375 
L 18.40625 64.59375 
L 9.421875 64.59375 
z
" id="DejaVuSans-69"/>
     </defs>
     <g style="fill:#555555;" transform="translate(16.318125 78.38925)rotate(-90)scale(0.12 -0.12)">
      <use xlink:href="#DejaVuSans-72"/>
      <use x="41.113281" xlink:href="#DejaVuSans-75"/>
      <use x="104.492188" xlink:href="#DejaVuSans-6e"/>
      <use x="167.871094" xlink:href="#DejaVuSans-5f"/>
      <use x="217.871094" xlink:href="#DejaVuSans-69"/>
      <use x="245.654297" xlink:href="#DejaVuSans-64"/>
     </g>
    </g>
   </g>
   <g id="PolyCollection_1">
    <defs>
     <path d="M 303.6225 -87.573255 
L 303.6225 -99.177995 
L 308.839672 -100.046917 
L 314.056843 -100.824756 
L 319.274015 -101.456277 
L 324.491187 -101.894037 
L 329.708359 -102.104514 
L 334.92553 -102.072889 
L 340.142702 -101.805519 
L 345.359874 -101.329475 
L 350.577045 -100.689028 
L 355.794217 -99.939595 
L 361.011389 -99.140262 
L 366.228561 -98.346306 
L 371.445732 -97.603097 
L 376.662904 -96.942367 
L 381.880076 -96.381195 
L 387.097247 -95.923402 
L 392.314419 -95.562604 
L 397.531591 -95.285946 
L 402.748763 -95.077679 
L 407.965934 -94.921986 
L 413.183106 -94.80482 
L 418.400278 -94.714792 
L 423.617449 -94.643332 
L 428.834621 -94.584389 
L 434.051793 -94.533935 
L 439.268965 -94.489428 
L 444.486136 -94.449344 
L 449.703308 -94.412813 
L 454.92048 -94.379347 
L 460.137652 -94.348658 
L 465.354823 -94.320526 
L 470.571995 -94.294713 
L 475.789167 -94.27092 
L 481.006338 -94.24877 
L 486.22351 -94.227821 
L 491.440682 -94.207601 
L 496.657854 -94.187658 
L 501.875025 -94.167606 
L 507.092197 -94.14716 
L 512.309369 -94.126153 
L 517.52654 -94.104529 
L 522.743712 -94.08233 
L 527.960884 -94.05966 
L 533.178056 -94.036662 
L 538.395227 -94.013499 
L 543.612399 -93.990336 
L 548.829571 -93.967332 
L 554.046742 -93.94464 
L 559.263914 -93.922399 
L 564.481086 -93.900734 
L 569.698258 -93.879751 
L 574.915429 -93.859534 
L 580.132601 -93.840153 
L 585.349773 -93.821656 
L 590.566944 -93.80408 
L 595.784116 -93.787449 
L 601.001288 -93.77177 
L 606.21846 -93.757032 
L 611.435631 -93.743201 
L 616.652803 -93.730218 
L 621.869975 -93.718001 
L 627.087146 -93.706455 
L 632.304318 -93.695489 
L 637.52149 -93.685028 
L 642.738662 -93.675037 
L 647.955833 -93.665525 
L 653.173005 -93.656557 
L 658.390177 -93.648243 
L 663.607348 -93.640726 
L 668.82452 -93.634162 
L 674.041692 -93.62869 
L 679.258864 -93.624406 
L 684.476035 -93.621349 
L 689.693207 -93.619489 
L 694.910379 -93.618743 
L 700.127551 -93.619017 
L 705.344722 -93.62027 
L 710.561894 -93.622605 
L 715.779066 -93.626375 
L 720.996237 -93.632269 
L 726.213409 -93.641375 
L 731.430581 -93.655157 
L 736.647753 -93.675333 
L 741.864924 -93.70363 
L 747.082096 -93.741402 
L 752.299268 -93.789184 
L 757.516439 -93.846228 
L 762.733611 -93.910162 
L 767.950783 -93.976885 
L 773.167955 -94.040796 
L 778.385126 -94.095405 
L 783.602298 -94.134238 
L 788.81947 -94.151902 
L 794.036641 -94.145059 
L 799.253813 -94.113078 
L 804.470985 -94.058204 
L 809.688157 -93.98519 
L 814.905328 -93.900468 
L 820.1225 -93.811091 
L 820.1225 -92.940159 
L 820.1225 -92.940159 
L 814.905328 -92.850782 
L 809.688157 -92.76606 
L 804.470985 -92.693046 
L 799.253813 -92.638172 
L 794.036641 -92.606191 
L 788.81947 -92.599348 
L 783.602298 -92.617012 
L 778.385126 -92.655845 
L 773.167955 -92.710454 
L 767.950783 -92.774365 
L 762.733611 -92.841088 
L 757.516439 -92.905022 
L 752.299268 -92.962066 
L 747.082096 -93.009848 
L 741.864924 -93.04762 
L 736.647753 -93.075917 
L 731.430581 -93.096093 
L 726.213409 -93.109875 
L 720.996237 -93.118981 
L 715.779066 -93.124875 
L 710.561894 -93.128645 
L 705.344722 -93.13098 
L 700.127551 -93.132233 
L 694.910379 -93.132507 
L 689.693207 -93.131761 
L 684.476035 -93.129901 
L 679.258864 -93.126844 
L 674.041692 -93.12256 
L 668.82452 -93.117088 
L 663.607348 -93.110524 
L 658.390177 -93.103007 
L 653.173005 -93.094693 
L 647.955833 -93.085725 
L 642.738662 -93.076213 
L 637.52149 -93.066222 
L 632.304318 -93.055761 
L 627.087146 -93.044795 
L 621.869975 -93.033249 
L 616.652803 -93.021032 
L 611.435631 -93.008049 
L 606.21846 -92.994218 
L 601.001288 -92.97948 
L 595.784116 -92.963801 
L 590.566944 -92.94717 
L 585.349773 -92.929594 
L 580.132601 -92.911097 
L 574.915429 -92.891716 
L 569.698258 -92.871499 
L 564.481086 -92.850516 
L 559.263914 -92.828851 
L 554.046742 -92.80661 
L 548.829571 -92.783918 
L 543.612399 -92.760914 
L 538.395227 -92.737751 
L 533.178056 -92.714588 
L 527.960884 -92.69159 
L 522.743712 -92.66892 
L 517.52654 -92.646721 
L 512.309369 -92.625097 
L 507.092197 -92.60409 
L 501.875025 -92.583644 
L 496.657854 -92.563592 
L 491.440682 -92.543649 
L 486.22351 -92.523429 
L 481.006338 -92.50248 
L 475.789167 -92.48033 
L 470.571995 -92.456537 
L 465.354823 -92.430724 
L 460.137652 -92.402592 
L 454.92048 -92.371903 
L 449.703308 -92.338437 
L 444.486136 -92.301906 
L 439.268965 -92.261822 
L 434.051793 -92.217315 
L 428.834621 -92.166861 
L 423.617449 -92.107918 
L 418.400278 -92.036458 
L 413.183106 -91.94643 
L 407.965934 -91.829264 
L 402.748763 -91.673571 
L 397.531591 -91.465304 
L 392.314419 -91.188646 
L 387.097247 -90.827848 
L 381.880076 -90.370055 
L 376.662904 -89.808883 
L 371.445732 -89.148153 
L 366.228561 -88.404944 
L 361.011389 -87.610988 
L 355.794217 -86.811655 
L 350.577045 -86.062222 
L 345.359874 -85.421775 
L 340.142702 -84.945731 
L 334.92553 -84.678361 
L 329.708359 -84.646736 
L 324.491187 -84.857213 
L 319.274015 -85.294973 
L 314.056843 -85.926494 
L 308.839672 -86.704333 
L 303.6225 -87.573255 
z
" id="m5cfc776e98" style="stroke:#6a6a6a;"/>
    </defs>
    <g clip-path="url(#p9c021aea55)">
     <use style="fill:#96cac1;stroke:#6a6a6a;" x="0" xlink:href="#m5cfc776e98" y="135.367375"/>
    </g>
   </g>
   <g id="PolyCollection_2">
    <defs>
     <path d="M 303.788121 -51.961751 
L 303.788121 -63.389499 
L 308.585803 -65.187457 
L 313.383485 -67.036004 
L 318.181166 -68.800481 
L 322.978848 -70.328898 
L 327.77653 -71.443393 
L 332.574211 -71.955625 
L 337.371893 -71.721605 
L 342.169575 -70.715232 
L 346.967257 -69.072073 
L 351.764938 -67.065264 
L 356.56262 -65.01906 
L 361.360302 -63.206377 
L 366.157983 -61.782206 
L 370.955665 -60.775506 
L 375.753347 -60.126008 
L 380.551029 -59.735091 
L 385.34871 -59.505815 
L 390.146392 -59.363264 
L 394.944074 -59.258786 
L 399.741755 -59.165679 
L 404.539437 -59.072426 
L 409.337119 -58.976729 
L 414.1348 -58.881617 
L 418.932482 -58.793507 
L 423.730164 -58.721167 
L 428.527846 -58.674151 
L 433.325527 -58.659968 
L 438.123209 -58.680698 
L 442.920891 -58.730847 
L 447.718572 -58.797991 
L 452.516254 -58.866218 
L 457.313936 -58.920713 
L 462.111618 -58.951427 
L 466.909299 -58.954534 
L 471.706981 -58.931641 
L 476.504663 -58.887461 
L 481.302344 -58.826931 
L 486.100026 -58.752938 
L 490.897708 -58.66584 
L 495.69539 -58.565298 
L 500.493071 -58.45344 
L 505.290753 -58.337094 
L 510.088435 -58.227091 
L 514.886116 -58.134604 
L 519.683798 -58.066695 
L 524.48148 -58.023834 
L 529.279162 -58.000761 
L 534.076843 -57.989784 
L 538.874525 -57.984202 
L 543.672207 -57.979958 
L 548.469888 -57.975176 
L 553.26757 -57.96876 
L 558.065252 -57.959577 
L 562.862933 -57.946801 
L 567.660615 -57.930783 
L 572.458297 -57.913334 
L 577.255979 -57.896905 
L 582.05366 -57.883204 
L 586.851342 -57.872256 
L 591.649024 -57.862571 
L 596.446705 -57.852252 
L 601.244387 -57.840376 
L 606.042069 -57.827879 
L 610.839751 -57.817548 
L 615.637432 -57.813126 
L 620.435114 -57.817918 
L 625.232796 -57.833428 
L 630.030477 -57.85848 
L 634.828159 -57.88904 
L 639.625841 -57.918853 
L 644.423523 -57.940916 
L 649.221204 -57.94964 
L 654.018886 -57.943073 
L 658.816568 -57.924161 
L 663.614249 -57.900074 
L 668.411931 -57.879465 
L 673.209613 -57.86869 
L 678.007294 -57.868856 
L 682.804976 -57.87533 
L 687.602658 -57.88015 
L 692.40034 -57.876138 
L 697.198021 -57.860456 
L 701.995703 -57.835704 
L 706.793385 -57.808114 
L 711.591066 -57.784124 
L 716.388748 -57.767362 
L 721.18643 -57.75756 
L 725.984112 -57.751614 
L 730.781793 -57.745823 
L 735.579475 -57.737947 
L 740.377157 -57.728095 
L 745.174838 -57.718311 
L 749.97252 -57.711335 
L 754.770202 -57.709281 
L 759.567884 -57.71273 
L 764.365565 -57.720428 
L 769.163247 -57.729619 
L 773.960929 -57.736927 
L 778.75861 -57.739535 
L 778.75861 -57.611715 
L 778.75861 -57.611715 
L 773.960929 -57.614323 
L 769.163247 -57.621631 
L 764.365565 -57.630822 
L 759.567884 -57.63852 
L 754.770202 -57.641969 
L 749.97252 -57.639915 
L 745.174838 -57.632939 
L 740.377157 -57.623155 
L 735.579475 -57.613303 
L 730.781793 -57.605427 
L 725.984112 -57.599636 
L 721.18643 -57.59369 
L 716.388748 -57.583888 
L 711.591066 -57.567126 
L 706.793385 -57.543136 
L 701.995703 -57.515546 
L 697.198021 -57.490794 
L 692.40034 -57.475112 
L 687.602658 -57.4711 
L 682.804976 -57.47592 
L 678.007294 -57.482394 
L 673.209613 -57.48256 
L 668.411931 -57.471785 
L 663.614249 -57.451176 
L 658.816568 -57.427089 
L 654.018886 -57.408177 
L 649.221204 -57.40161 
L 644.423523 -57.410334 
L 639.625841 -57.432397 
L 634.828159 -57.46221 
L 630.030477 -57.49277 
L 625.232796 -57.517822 
L 620.435114 -57.533332 
L 615.637432 -57.538124 
L 610.839751 -57.533702 
L 606.042069 -57.523371 
L 601.244387 -57.510874 
L 596.446705 -57.498998 
L 591.649024 -57.488679 
L 586.851342 -57.478994 
L 582.05366 -57.468046 
L 577.255979 -57.454345 
L 572.458297 -57.437916 
L 567.660615 -57.420467 
L 562.862933 -57.404449 
L 558.065252 -57.391673 
L 553.26757 -57.38249 
L 548.469888 -57.376074 
L 543.672207 -57.371292 
L 538.874525 -57.367048 
L 534.076843 -57.361466 
L 529.279162 -57.350489 
L 524.48148 -57.327416 
L 519.683798 -57.284555 
L 514.886116 -57.216646 
L 510.088435 -57.124159 
L 505.290753 -57.014156 
L 500.493071 -56.89781 
L 495.69539 -56.785952 
L 490.897708 -56.68541 
L 486.100026 -56.598312 
L 481.302344 -56.524319 
L 476.504663 -56.463789 
L 471.706981 -56.419609 
L 466.909299 -56.396716 
L 462.111618 -56.399823 
L 457.313936 -56.430537 
L 452.516254 -56.485032 
L 447.718572 -56.553259 
L 442.920891 -56.620403 
L 438.123209 -56.670552 
L 433.325527 -56.691282 
L 428.527846 -56.677099 
L 423.730164 -56.630083 
L 418.932482 -56.557743 
L 414.1348 -56.469633 
L 409.337119 -56.374521 
L 404.539437 -56.278824 
L 399.741755 -56.185571 
L 394.944074 -56.092464 
L 390.146392 -55.987986 
L 385.34871 -55.845435 
L 380.551029 -55.616159 
L 375.753347 -55.225242 
L 370.955665 -54.575744 
L 366.157983 -53.569044 
L 361.360302 -52.144873 
L 356.56262 -50.33219 
L 351.764938 -48.285986 
L 346.967257 -46.279177 
L 342.169575 -44.636018 
L 337.371893 -43.629645 
L 332.574211 -43.395625 
L 327.77653 -43.907857 
L 322.978848 -45.022352 
L 318.181166 -46.550769 
L 313.383485 -48.315246 
L 308.585803 -50.163793 
L 303.788121 -51.961751 
z
" id="m3ae6356884" style="stroke:#6a6a6a;"/>
    </defs>
    <g clip-path="url(#p9c021aea55)">
     <use style="fill:#f6f6bc;stroke:#6a6a6a;" x="0" xlink:href="#m3ae6356884" y="135.367375"/>
    </g>
   </g>
   <g id="line2d_15">
    <path clip-path="url(#p9c021aea55)" d="M 324.946227 33.558522 
L 324.946227 50.424978 
" style="fill:none;stroke:#6a6a6a;stroke-dasharray:1.5,1.5;stroke-dashoffset:0;"/>
   </g>
   <g id="line2d_16">
    <path clip-path="url(#p9c021aea55)" d="M 339.976349 33.646155 
L 339.976349 50.337345 
" style="fill:none;stroke:#6a6a6a;stroke-dasharray:3,3;stroke-dashoffset:0;"/>
   </g>
   <g id="line2d_17">
    <path clip-path="url(#p9c021aea55)" d="M 413.693301 40.576847 
L 413.693301 43.406653 
" style="fill:none;stroke:#6a6a6a;stroke-dasharray:1.5,1.5;stroke-dashoffset:0;"/>
   </g>
   <g id="line2d_18">
    <path clip-path="url(#p9c021aea55)" d="M 325.898549 64.061659 
L 325.898549 91.321841 
" style="fill:none;stroke:#6a6a6a;stroke-dasharray:1.5,1.5;stroke-dashoffset:0;"/>
   </g>
   <g id="line2d_19">
    <path clip-path="url(#p9c021aea55)" d="M 339.655458 63.78623 
L 339.655458 91.59727 
" style="fill:none;stroke:#6a6a6a;stroke-dasharray:3,3;stroke-dashoffset:0;"/>
   </g>
   <g id="line2d_20">
    <path clip-path="url(#p9c021aea55)" d="M 361.579562 72.216306 
L 361.579562 83.167194 
" style="fill:none;stroke:#6a6a6a;stroke-dasharray:1.5,1.5;stroke-dashoffset:0;"/>
   </g>
   <g id="patch_3">
    <path d="M 277.7975 95.54175 
L 277.7975 24.14175 
" style="fill:none;stroke:#ffffff;stroke-linecap:square;stroke-linejoin:miter;"/>
   </g>
   <g id="patch_4">
    <path d="M 845.9475 95.54175 
L 845.9475 24.14175 
" style="fill:none;stroke:#ffffff;stroke-linecap:square;stroke-linejoin:miter;"/>
   </g>
   <g id="patch_5">
    <path d="M 277.7975 95.54175 
L 845.9475 95.54175 
" style="fill:none;stroke:#ffffff;stroke-linecap:square;stroke-linejoin:miter;"/>
   </g>
   <g id="patch_6">
    <path d="M 277.7975 24.14175 
L 845.9475 24.14175 
" style="fill:none;stroke:#ffffff;stroke-linecap:square;stroke-linejoin:miter;"/>
   </g>
   <g id="text_11">
    <!-- Read length distribution -->
    <defs>
     <path d="M 44.390625 34.1875 
Q 47.5625 33.109375 50.5625 29.59375 
Q 53.5625 26.078125 56.59375 19.921875 
L 66.609375 0 
L 56 0 
L 46.6875 18.703125 
Q 43.0625 26.03125 39.671875 28.421875 
Q 36.28125 30.8125 30.421875 30.8125 
L 19.671875 30.8125 
L 19.671875 0 
L 9.8125 0 
L 9.8125 72.90625 
L 32.078125 72.90625 
Q 44.578125 72.90625 50.734375 67.671875 
Q 56.890625 62.453125 56.890625 51.90625 
Q 56.890625 45.015625 53.6875 40.46875 
Q 50.484375 35.9375 44.390625 34.1875 
z
M 19.671875 64.796875 
L 19.671875 38.921875 
L 32.078125 38.921875 
Q 39.203125 38.921875 42.84375 42.21875 
Q 46.484375 45.515625 46.484375 51.90625 
Q 46.484375 58.296875 42.84375 61.546875 
Q 39.203125 64.796875 32.078125 64.796875 
z
" id="DejaVuSans-52"/>
     <path id="DejaVuSans-20"/>
     <path d="M 9.421875 75.984375 
L 18.40625 75.984375 
L 18.40625 0 
L 9.421875 0 
z
" id="DejaVuSans-6c"/>
     <path d="M 45.40625 27.984375 
Q 45.40625 37.75 41.375 43.109375 
Q 37.359375 48.484375 30.078125 48.484375 
Q 22.859375 48.484375 18.828125 43.109375 
Q 14.796875 37.75 14.796875 27.984375 
Q 14.796875 18.265625 18.828125 12.890625 
Q 22.859375 7.515625 30.078125 7.515625 
Q 37.359375 7.515625 41.375 12.890625 
Q 45.40625 18.265625 45.40625 27.984375 
z
M 54.390625 6.78125 
Q 54.390625 -7.171875 48.1875 -13.984375 
Q 42 -20.796875 29.203125 -20.796875 
Q 24.46875 -20.796875 20.265625 -20.09375 
Q 16.0625 -19.390625 12.109375 -17.921875 
L 12.109375 -9.1875 
Q 16.0625 -11.328125 19.921875 -12.34375 
Q 23.78125 -13.375 27.78125 -13.375 
Q 36.625 -13.375 41.015625 -8.765625 
Q 45.40625 -4.15625 45.40625 5.171875 
L 45.40625 9.625 
Q 42.625 4.78125 38.28125 2.390625 
Q 33.9375 0 27.875 0 
Q 17.828125 0 11.671875 7.65625 
Q 5.515625 15.328125 5.515625 27.984375 
Q 5.515625 40.671875 11.671875 48.328125 
Q 17.828125 56 27.875 56 
Q 33.9375 56 38.28125 53.609375 
Q 42.625 51.21875 45.40625 46.390625 
L 45.40625 54.6875 
L 54.390625 54.6875 
z
" id="DejaVuSans-67"/>
     <path d="M 18.3125 70.21875 
L 18.3125 54.6875 
L 36.8125 54.6875 
L 36.8125 47.703125 
L 18.3125 47.703125 
L 18.3125 18.015625 
Q 18.3125 11.328125 20.140625 9.421875 
Q 21.96875 7.515625 27.59375 7.515625 
L 36.8125 7.515625 
L 36.8125 0 
L 27.59375 0 
Q 17.1875 0 13.234375 3.875 
Q 9.28125 7.765625 9.28125 18.015625 
L 9.28125 47.703125 
L 2.6875 47.703125 
L 2.6875 54.6875 
L 9.28125 54.6875 
L 9.28125 70.21875 
z
" id="DejaVuSans-74"/>
     <path d="M 54.890625 33.015625 
L 54.890625 0 
L 45.90625 0 
L 45.90625 32.71875 
Q 45.90625 40.484375 42.875 44.328125 
Q 39.84375 48.1875 33.796875 48.1875 
Q 26.515625 48.1875 22.3125 43.546875 
Q 18.109375 38.921875 18.109375 30.90625 
L 18.109375 0 
L 9.078125 0 
L 9.078125 75.984375 
L 18.109375 75.984375 
L 18.109375 46.1875 
Q 21.34375 51.125 25.703125 53.5625 
Q 30.078125 56 35.796875 56 
Q 45.21875 56 50.046875 50.171875 
Q 54.890625 44.34375 54.890625 33.015625 
z
" id="DejaVuSans-68"/>
     <path d="M 30.609375 48.390625 
Q 23.390625 48.390625 19.1875 42.75 
Q 14.984375 37.109375 14.984375 27.296875 
Q 14.984375 17.484375 19.15625 11.84375 
Q 23.34375 6.203125 30.609375 6.203125 
Q 37.796875 6.203125 41.984375 11.859375 
Q 46.1875 17.53125 46.1875 27.296875 
Q 46.1875 37.015625 41.984375 42.703125 
Q 37.796875 48.390625 30.609375 48.390625 
z
M 30.609375 56 
Q 42.328125 56 49.015625 48.375 
Q 55.71875 40.765625 55.71875 27.296875 
Q 55.71875 13.875 49.015625 6.21875 
Q 42.328125 -1.421875 30.609375 -1.421875 
Q 18.84375 -1.421875 12.171875 6.21875 
Q 5.515625 13.875 5.515625 27.296875 
Q 5.515625 40.765625 12.171875 48.375 
Q 18.84375 56 30.609375 56 
z
" id="DejaVuSans-6f"/>
    </defs>
    <g transform="translate(474.904375 18.14175)scale(0.144 -0.144)">
     <use xlink:href="#DejaVuSans-52"/>
     <use x="69.419922" xlink:href="#DejaVuSans-65"/>
     <use x="130.943359" xlink:href="#DejaVuSans-61"/>
     <use x="192.222656" xlink:href="#DejaVuSans-64"/>
     <use x="255.699219" xlink:href="#DejaVuSans-20"/>
     <use x="287.486328" xlink:href="#DejaVuSans-6c"/>
     <use x="315.269531" xlink:href="#DejaVuSans-65"/>
     <use x="376.792969" xlink:href="#DejaVuSans-6e"/>
     <use x="440.171875" xlink:href="#DejaVuSans-67"/>
     <use x="503.648438" xlink:href="#DejaVuSans-74"/>
     <use x="542.857422" xlink:href="#DejaVuSans-68"/>
     <use x="606.236328" xlink:href="#DejaVuSans-20"/>
     <use x="638.023438" xlink:href="#DejaVuSans-64"/>
     <use x="701.5" xlink:href="#DejaVuSans-69"/>
     <use x="729.283203" xlink:href="#DejaVuSans-73"/>
     <use x="781.382812" xlink:href="#DejaVuSans-74"/>
     <use x="820.591797" xlink:href="#DejaVuSans-72"/>
     <use x="861.705078" xlink:href="#DejaVuSans-69"/>
     <use x="889.488281" xlink:href="#DejaVuSans-62"/>
     <use x="952.964844" xlink:href="#DejaVuSans-75"/>
     <use x="1016.34375" xlink:href="#DejaVuSans-74"/>
     <use x="1055.552734" xlink:href="#DejaVuSans-69"/>
     <use x="1083.335938" xlink:href="#DejaVuSans-6f"/>
     <use x="1144.517578" xlink:href="#DejaVuSans-6e"/>
    </g>
   </g>
  </g>
 </g>
 <defs>
  <clipPath id="p9c021aea55">
   <rect height="71.4" width="568.15" x="277.7975" y="24.14175"/>
  </clipPath>
 </defs>
</svg>
