<?xml version="1.0" encoding="utf-8" standalone="no"?>
<!DOCTYPE svg PUBLIC "-//W3C//DTD SVG 1.1//EN"
  "http://www.w3.org/Graphics/SVG/1.1/DTD/svg11.dtd">
<!-- Created with matplotlib (http://matplotlib.org/) -->
<svg height="281pt" version="1.1" viewBox="0 0 922 281" width="922pt" xmlns="http://www.w3.org/2000/svg" xmlns:xlink="http://www.w3.org/1999/xlink">
 <defs>
  <style type="text/css">
*{stroke-linecap:butt;stroke-linejoin:round;}
  </style>
 </defs>
 <g id="figure_1">
  <g id="patch_1">
   <path d="M 0 281.073625 
L 922.05125 281.073625 
L 922.05125 0 
L 0 0 
z
" style="fill:#ffffff;"/>
  </g>
  <g id="axes_1">
   <g id="patch_2">
    <path d="M 74.35125 241.58175 
L 911.35125 241.58175 
L 911.35125 24.14175 
L 74.35125 24.14175 
z
" style="fill:#e5e5e5;"/>
   </g>
   <g id="matplotlib.axis_1">
    <g id="xtick_1">
     <g id="line2d_1">
      <path clip-path="url(#p114ef16af3)" d="M 74.35125 241.58175 
L 74.35125 24.14175 
" style="fill:none;stroke:#ffffff;stroke-linecap:square;stroke-width:0.8;"/>
     </g>
     <g id="line2d_2">
      <defs>
       <path d="M 0 0 
L 0 3.5 
" id="mdd98a77d9b" style="stroke:#555555;stroke-width:0.8;"/>
      </defs>
      <g>
       <use style="fill:#555555;stroke:#555555;stroke-width:0.8;" x="74.35125" xlink:href="#mdd98a77d9b" y="241.58175"/>
      </g>
     </g>
     <g id="text_1">
      <!-- 0 -->
      <defs>
       <path d="M 31.78125 66.40625 
Q 24.171875 66.40625 20.328125 58.90625 
Q 16.5 51.421875 16.5 36.375 
Q 16.5 21.390625 20.328125 13.890625 
Q 24.171875 6.390625 31.78125 6.390625 
Q 39.453125 6.390625 43.28125 13.890625 
Q 47.125 21.390625 47.125 36.375 
Q 47.125 51.421875 43.28125 58.90625 
Q 39.453125 66.40625 31.78125 66.40625 
z
M 31.78125 74.21875 
Q 44.046875 74.21875 50.515625 64.515625 
Q 56.984375 54.828125 56.984375 36.375 
Q 56.984375 17.96875 50.515625 8.265625 
Q 44.046875 -1.421875 31.78125 -1.421875 
Q 19.53125 -1.421875 13.0625 8.265625 
Q 6.59375 17.96875 6.59375 36.375 
Q 6.59375 54.828125 13.0625 64.515625 
Q 19.53125 74.21875 31.78125 74.21875 
z
" id="DejaVuSans-30"/>
      </defs>
      <g style="fill:#555555;" transform="translate(71.17 256.180187)scale(0.1 -0.1)">
       <use xlink:href="#DejaVuSans-30"/>
      </g>
     </g>
    </g>
    <g id="xtick_2">
     <g id="line2d_3">
      <path clip-path="url(#p114ef16af3)" d="M 249.700412 241.58175 
L 249.700412 24.14175 
" style="fill:none;stroke:#ffffff;stroke-linecap:square;stroke-width:0.8;"/>
     </g>
     <g id="line2d_4">
      <g>
       <use style="fill:#555555;stroke:#555555;stroke-width:0.8;" x="249.700412" xlink:href="#mdd98a77d9b" y="241.58175"/>
      </g>
     </g>
     <g id="text_2">
      <!-- 10 -->
      <defs>
       <path d="M 12.40625 8.296875 
L 28.515625 8.296875 
L 28.515625 63.921875 
L 10.984375 60.40625 
L 10.984375 69.390625 
L 28.421875 72.90625 
L 38.28125 72.90625 
L 38.28125 8.296875 
L 54.390625 8.296875 
L 54.390625 0 
L 12.40625 0 
z
" id="DejaVuSans-31"/>
      </defs>
      <g style="fill:#555555;" transform="translate(243.337912 256.180187)scale(0.1 -0.1)">
       <use xlink:href="#DejaVuSans-31"/>
       <use x="63.623047" xlink:href="#DejaVuSans-30"/>
      </g>
     </g>
    </g>
    <g id="xtick_3">
     <g id="line2d_5">
      <path clip-path="url(#p114ef16af3)" d="M 425.049574 241.58175 
L 425.049574 24.14175 
" style="fill:none;stroke:#ffffff;stroke-linecap:square;stroke-width:0.8;"/>
     </g>
     <g id="line2d_6">
      <g>
       <use style="fill:#555555;stroke:#555555;stroke-width:0.8;" x="425.049574" xlink:href="#mdd98a77d9b" y="241.58175"/>
      </g>
     </g>
     <g id="text_3">
      <!-- 20 -->
      <defs>
       <path d="M 19.1875 8.296875 
L 53.609375 8.296875 
L 53.609375 0 
L 7.328125 0 
L 7.328125 8.296875 
Q 12.9375 14.109375 22.625 23.890625 
Q 32.328125 33.6875 34.8125 36.53125 
Q 39.546875 41.84375 41.421875 45.53125 
Q 43.3125 49.21875 43.3125 52.78125 
Q 43.3125 58.59375 39.234375 62.25 
Q 35.15625 65.921875 28.609375 65.921875 
Q 23.96875 65.921875 18.8125 64.3125 
Q 13.671875 62.703125 7.8125 59.421875 
L 7.8125 69.390625 
Q 13.765625 71.78125 18.9375 73 
Q 24.125 74.21875 28.421875 74.21875 
Q 39.75 74.21875 46.484375 68.546875 
Q 53.21875 62.890625 53.21875 53.421875 
Q 53.21875 48.921875 51.53125 44.890625 
Q 49.859375 40.875 45.40625 35.40625 
Q 44.1875 33.984375 37.640625 27.21875 
Q 31.109375 20.453125 19.1875 8.296875 
z
" id="DejaVuSans-32"/>
      </defs>
      <g style="fill:#555555;" transform="translate(418.687074 256.180187)scale(0.1 -0.1)">
       <use xlink:href="#DejaVuSans-32"/>
       <use x="63.623047" xlink:href="#DejaVuSans-30"/>
      </g>
     </g>
    </g>
    <g id="xtick_4">
     <g id="line2d_7">
      <path clip-path="url(#p114ef16af3)" d="M 600.398736 241.58175 
L 600.398736 24.14175 
" style="fill:none;stroke:#ffffff;stroke-linecap:square;stroke-width:0.8;"/>
     </g>
     <g id="line2d_8">
      <g>
       <use style="fill:#555555;stroke:#555555;stroke-width:0.8;" x="600.398736" xlink:href="#mdd98a77d9b" y="241.58175"/>
      </g>
     </g>
     <g id="text_4">
      <!-- 30 -->
      <defs>
       <path d="M 40.578125 39.3125 
Q 47.65625 37.796875 51.625 33 
Q 55.609375 28.21875 55.609375 21.1875 
Q 55.609375 10.40625 48.1875 4.484375 
Q 40.765625 -1.421875 27.09375 -1.421875 
Q 22.515625 -1.421875 17.65625 -0.515625 
Q 12.796875 0.390625 7.625 2.203125 
L 7.625 11.71875 
Q 11.71875 9.328125 16.59375 8.109375 
Q 21.484375 6.890625 26.8125 6.890625 
Q 36.078125 6.890625 40.9375 10.546875 
Q 45.796875 14.203125 45.796875 21.1875 
Q 45.796875 27.640625 41.28125 31.265625 
Q 36.765625 34.90625 28.71875 34.90625 
L 20.21875 34.90625 
L 20.21875 43.015625 
L 29.109375 43.015625 
Q 36.375 43.015625 40.234375 45.921875 
Q 44.09375 48.828125 44.09375 54.296875 
Q 44.09375 59.90625 40.109375 62.90625 
Q 36.140625 65.921875 28.71875 65.921875 
Q 24.65625 65.921875 20.015625 65.03125 
Q 15.375 64.15625 9.8125 62.3125 
L 9.8125 71.09375 
Q 15.4375 72.65625 20.34375 73.4375 
Q 25.25 74.21875 29.59375 74.21875 
Q 40.828125 74.21875 47.359375 69.109375 
Q 53.90625 64.015625 53.90625 55.328125 
Q 53.90625 49.265625 50.4375 45.09375 
Q 46.96875 40.921875 40.578125 39.3125 
z
" id="DejaVuSans-33"/>
      </defs>
      <g style="fill:#555555;" transform="translate(594.036236 256.180187)scale(0.1 -0.1)">
       <use xlink:href="#DejaVuSans-33"/>
       <use x="63.623047" xlink:href="#DejaVuSans-30"/>
      </g>
     </g>
    </g>
    <g id="xtick_5">
     <g id="line2d_9">
      <path clip-path="url(#p114ef16af3)" d="M 775.747898 241.58175 
L 775.747898 24.14175 
" style="fill:none;stroke:#ffffff;stroke-linecap:square;stroke-width:0.8;"/>
     </g>
     <g id="line2d_10">
      <g>
       <use style="fill:#555555;stroke:#555555;stroke-width:0.8;" x="775.747898" xlink:href="#mdd98a77d9b" y="241.58175"/>
      </g>
     </g>
     <g id="text_5">
      <!-- 40 -->
      <defs>
       <path d="M 37.796875 64.3125 
L 12.890625 25.390625 
L 37.796875 25.390625 
z
M 35.203125 72.90625 
L 47.609375 72.90625 
L 47.609375 25.390625 
L 58.015625 25.390625 
L 58.015625 17.1875 
L 47.609375 17.1875 
L 47.609375 0 
L 37.796875 0 
L 37.796875 17.1875 
L 4.890625 17.1875 
L 4.890625 26.703125 
z
" id="DejaVuSans-34"/>
      </defs>
      <g style="fill:#555555;" transform="translate(769.385398 256.180187)scale(0.1 -0.1)">
       <use xlink:href="#DejaVuSans-34"/>
       <use x="63.623047" xlink:href="#DejaVuSans-30"/>
      </g>
     </g>
    </g>
    <g id="text_6">
     <!-- Experiment time (h) -->
     <defs>
      <path d="M 9.8125 72.90625 
L 55.90625 72.90625 
L 55.90625 64.59375 
L 19.671875 64.59375 
L 19.671875 43.015625 
L 54.390625 43.015625 
L 54.390625 34.71875 
L 19.671875 34.71875 
L 19.671875 8.296875 
L 56.78125 8.296875 
L 56.78125 0 
L 9.8125 0 
z
" id="DejaVuSans-45"/>
      <path d="M 54.890625 54.6875 
L 35.109375 28.078125 
L 55.90625 0 
L 45.3125 0 
L 29.390625 21.484375 
L 13.484375 0 
L 2.875 0 
L 24.125 28.609375 
L 4.6875 54.6875 
L 15.28125 54.6875 
L 29.78125 35.203125 
L 44.28125 54.6875 
z
" id="DejaVuSans-78"/>
      <path d="M 18.109375 8.203125 
L 18.109375 -20.796875 
L 9.078125 -20.796875 
L 9.078125 54.6875 
L 18.109375 54.6875 
L 18.109375 46.390625 
Q 20.953125 51.265625 25.265625 53.625 
Q 29.59375 56 35.59375 56 
Q 45.5625 56 51.78125 48.09375 
Q 58.015625 40.1875 58.015625 27.296875 
Q 58.015625 14.40625 51.78125 6.484375 
Q 45.5625 -1.421875 35.59375 -1.421875 
Q 29.59375 -1.421875 25.265625 0.953125 
Q 20.953125 3.328125 18.109375 8.203125 
z
M 48.6875 27.296875 
Q 48.6875 37.203125 44.609375 42.84375 
Q 40.53125 48.484375 33.40625 48.484375 
Q 26.265625 48.484375 22.1875 42.84375 
Q 18.109375 37.203125 18.109375 27.296875 
Q 18.109375 17.390625 22.1875 11.75 
Q 26.265625 6.109375 33.40625 6.109375 
Q 40.53125 6.109375 44.609375 11.75 
Q 48.6875 17.390625 48.6875 27.296875 
z
" id="DejaVuSans-70"/>
      <path d="M 56.203125 29.59375 
L 56.203125 25.203125 
L 14.890625 25.203125 
Q 15.484375 15.921875 20.484375 11.0625 
Q 25.484375 6.203125 34.421875 6.203125 
Q 39.59375 6.203125 44.453125 7.46875 
Q 49.3125 8.734375 54.109375 11.28125 
L 54.109375 2.78125 
Q 49.265625 0.734375 44.1875 -0.34375 
Q 39.109375 -1.421875 33.890625 -1.421875 
Q 20.796875 -1.421875 13.15625 6.1875 
Q 5.515625 13.8125 5.515625 26.8125 
Q 5.515625 40.234375 12.765625 48.109375 
Q 20.015625 56 32.328125 56 
Q 43.359375 56 49.78125 48.890625 
Q 56.203125 41.796875 56.203125 29.59375 
z
M 47.21875 32.234375 
Q 47.125 39.59375 43.09375 43.984375 
Q 39.0625 48.390625 32.421875 48.390625 
Q 24.90625 48.390625 20.390625 44.140625 
Q 15.875 39.890625 15.1875 32.171875 
z
" id="DejaVuSans-65"/>
      <path d="M 41.109375 46.296875 
Q 39.59375 47.171875 37.8125 47.578125 
Q 36.03125 48 33.890625 48 
Q 26.265625 48 22.1875 43.046875 
Q 18.109375 38.09375 18.109375 28.8125 
L 18.109375 0 
L 9.078125 0 
L 9.078125 54.6875 
L 18.109375 54.6875 
L 18.109375 46.1875 
Q 20.953125 51.171875 25.484375 53.578125 
Q 30.03125 56 36.53125 56 
Q 37.453125 56 38.578125 55.875 
Q 39.703125 55.765625 41.0625 55.515625 
z
" id="DejaVuSans-72"/>
      <path d="M 9.421875 54.6875 
L 18.40625 54.6875 
L 18.40625 0 
L 9.421875 0 
z
M 9.421875 75.984375 
L 18.40625 75.984375 
L 18.40625 64.59375 
L 9.421875 64.59375 
z
" id="DejaVuSans-69"/>
      <path d="M 52 44.1875 
Q 55.375 50.25 60.0625 53.125 
Q 64.75 56 71.09375 56 
Q 79.640625 56 84.28125 50.015625 
Q 88.921875 44.046875 88.921875 33.015625 
L 88.921875 0 
L 79.890625 0 
L 79.890625 32.71875 
Q 79.890625 40.578125 77.09375 44.375 
Q 74.3125 48.1875 68.609375 48.1875 
Q 61.625 48.1875 57.5625 43.546875 
Q 53.515625 38.921875 53.515625 30.90625 
L 53.515625 0 
L 44.484375 0 
L 44.484375 32.71875 
Q 44.484375 40.625 41.703125 44.40625 
Q 38.921875 48.1875 33.109375 48.1875 
Q 26.21875 48.1875 22.15625 43.53125 
Q 18.109375 38.875 18.109375 30.90625 
L 18.109375 0 
L 9.078125 0 
L 9.078125 54.6875 
L 18.109375 54.6875 
L 18.109375 46.1875 
Q 21.1875 51.21875 25.484375 53.609375 
Q 29.78125 56 35.6875 56 
Q 41.65625 56 45.828125 52.96875 
Q 50 49.953125 52 44.1875 
z
" id="DejaVuSans-6d"/>
      <path d="M 54.890625 33.015625 
L 54.890625 0 
L 45.90625 0 
L 45.90625 32.71875 
Q 45.90625 40.484375 42.875 44.328125 
Q 39.84375 48.1875 33.796875 48.1875 
Q 26.515625 48.1875 22.3125 43.546875 
Q 18.109375 38.921875 18.109375 30.90625 
L 18.109375 0 
L 9.078125 0 
L 9.078125 54.6875 
L 18.109375 54.6875 
L 18.109375 46.1875 
Q 21.34375 51.125 25.703125 53.5625 
Q 30.078125 56 35.796875 56 
Q 45.21875 56 50.046875 50.171875 
Q 54.890625 44.34375 54.890625 33.015625 
z
" id="DejaVuSans-6e"/>
      <path d="M 18.3125 70.21875 
L 18.3125 54.6875 
L 36.8125 54.6875 
L 36.8125 47.703125 
L 18.3125 47.703125 
L 18.3125 18.015625 
Q 18.3125 11.328125 20.140625 9.421875 
Q 21.96875 7.515625 27.59375 7.515625 
L 36.8125 7.515625 
L 36.8125 0 
L 27.59375 0 
Q 17.1875 0 13.234375 3.875 
Q 9.28125 7.765625 9.28125 18.015625 
L 9.28125 47.703125 
L 2.6875 47.703125 
L 2.6875 54.6875 
L 9.28125 54.6875 
L 9.28125 70.21875 
z
" id="DejaVuSans-74"/>
      <path id="DejaVuSans-20"/>
      <path d="M 31 75.875 
Q 24.46875 64.65625 21.28125 53.65625 
Q 18.109375 42.671875 18.109375 31.390625 
Q 18.109375 20.125 21.3125 9.0625 
Q 24.515625 -2 31 -13.1875 
L 23.1875 -13.1875 
Q 15.875 -1.703125 12.234375 9.375 
Q 8.59375 20.453125 8.59375 31.390625 
Q 8.59375 42.28125 12.203125 53.3125 
Q 15.828125 64.359375 23.1875 75.875 
z
" id="DejaVuSans-28"/>
      <path d="M 54.890625 33.015625 
L 54.890625 0 
L 45.90625 0 
L 45.90625 32.71875 
Q 45.90625 40.484375 42.875 44.328125 
Q 39.84375 48.1875 33.796875 48.1875 
Q 26.515625 48.1875 22.3125 43.546875 
Q 18.109375 38.921875 18.109375 30.90625 
L 18.109375 0 
L 9.078125 0 
L 9.078125 75.984375 
L 18.109375 75.984375 
L 18.109375 46.1875 
Q 21.34375 51.125 25.703125 53.5625 
Q 30.078125 56 35.796875 56 
Q 45.21875 56 50.046875 50.171875 
Q 54.890625 44.34375 54.890625 33.015625 
z
" id="DejaVuSans-68"/>
      <path d="M 8.015625 75.875 
L 15.828125 75.875 
Q 23.140625 64.359375 26.78125 53.3125 
Q 30.421875 42.28125 30.421875 31.390625 
Q 30.421875 20.453125 26.78125 9.375 
Q 23.140625 -1.703125 15.828125 -13.1875 
L 8.015625 -13.1875 
Q 14.5 -2 17.703125 9.0625 
Q 20.90625 20.125 20.90625 31.390625 
Q 20.90625 42.671875 17.703125 53.65625 
Q 14.5 64.65625 8.015625 75.875 
z
" id="DejaVuSans-29"/>
     </defs>
     <g style="fill:#555555;" transform="translate(432.33 271.378)scale(0.12 -0.12)">
      <use xlink:href="#DejaVuSans-45"/>
      <use x="63.183594" xlink:href="#DejaVuSans-78"/>
      <use x="122.363281" xlink:href="#DejaVuSans-70"/>
      <use x="185.839844" xlink:href="#DejaVuSans-65"/>
      <use x="247.363281" xlink:href="#DejaVuSans-72"/>
      <use x="288.476562" xlink:href="#DejaVuSans-69"/>
      <use x="316.259766" xlink:href="#DejaVuSans-6d"/>
      <use x="413.671875" xlink:href="#DejaVuSans-65"/>
      <use x="475.195312" xlink:href="#DejaVuSans-6e"/>
      <use x="538.574219" xlink:href="#DejaVuSans-74"/>
      <use x="577.783203" xlink:href="#DejaVuSans-20"/>
      <use x="609.570312" xlink:href="#DejaVuSans-74"/>
      <use x="648.779297" xlink:href="#DejaVuSans-69"/>
      <use x="676.5625" xlink:href="#DejaVuSans-6d"/>
      <use x="773.974609" xlink:href="#DejaVuSans-65"/>
      <use x="835.498047" xlink:href="#DejaVuSans-20"/>
      <use x="867.285156" xlink:href="#DejaVuSans-28"/>
      <use x="906.298828" xlink:href="#DejaVuSans-68"/>
      <use x="969.677734" xlink:href="#DejaVuSans-29"/>
     </g>
    </g>
   </g>
   <g id="matplotlib.axis_2">
    <g id="ytick_1">
     <g id="line2d_11">
      <path clip-path="url(#p114ef16af3)" d="M 74.35125 241.58175 
L 911.35125 241.58175 
" style="fill:none;stroke:#ffffff;stroke-linecap:square;stroke-width:0.8;"/>
     </g>
     <g id="line2d_12">
      <defs>
       <path d="M 0 0 
L -3.5 0 
" id="maded9a4067" style="stroke:#555555;stroke-width:0.8;"/>
      </defs>
      <g>
       <use style="fill:#555555;stroke:#555555;stroke-width:0.8;" x="74.35125" xlink:href="#maded9a4067" y="241.58175"/>
      </g>
     </g>
     <g id="text_7">
      <!-- 0 -->
      <g style="fill:#555555;" transform="translate(60.98875 245.380969)scale(0.1 -0.1)">
       <use xlink:href="#DejaVuSans-30"/>
      </g>
     </g>
    </g>
    <g id="ytick_2">
     <g id="line2d_13">
      <path clip-path="url(#p114ef16af3)" d="M 74.35125 208.261069 
L 911.35125 208.261069 
" style="fill:none;stroke:#ffffff;stroke-linecap:square;stroke-width:0.8;"/>
     </g>
     <g id="line2d_14">
      <g>
       <use style="fill:#555555;stroke:#555555;stroke-width:0.8;" x="74.35125" xlink:href="#maded9a4067" y="208.261069"/>
      </g>
     </g>
     <g id="text_8">
      <!-- 1000000 -->
      <g style="fill:#555555;" transform="translate(22.81375 212.060288)scale(0.1 -0.1)">
       <use xlink:href="#DejaVuSans-31"/>
       <use x="63.623047" xlink:href="#DejaVuSans-30"/>
       <use x="127.246094" xlink:href="#DejaVuSans-30"/>
       <use x="190.869141" xlink:href="#DejaVuSans-30"/>
       <use x="254.492188" xlink:href="#DejaVuSans-30"/>
       <use x="318.115234" xlink:href="#DejaVuSans-30"/>
       <use x="381.738281" xlink:href="#DejaVuSans-30"/>
      </g>
     </g>
    </g>
    <g id="ytick_3">
     <g id="line2d_15">
      <path clip-path="url(#p114ef16af3)" d="M 74.35125 174.940388 
L 911.35125 174.940388 
" style="fill:none;stroke:#ffffff;stroke-linecap:square;stroke-width:0.8;"/>
     </g>
     <g id="line2d_16">
      <g>
       <use style="fill:#555555;stroke:#555555;stroke-width:0.8;" x="74.35125" xlink:href="#maded9a4067" y="174.940388"/>
      </g>
     </g>
     <g id="text_9">
      <!-- 2000000 -->
      <g style="fill:#555555;" transform="translate(22.81375 178.739607)scale(0.1 -0.1)">
       <use xlink:href="#DejaVuSans-32"/>
       <use x="63.623047" xlink:href="#DejaVuSans-30"/>
       <use x="127.246094" xlink:href="#DejaVuSans-30"/>
       <use x="190.869141" xlink:href="#DejaVuSans-30"/>
       <use x="254.492188" xlink:href="#DejaVuSans-30"/>
       <use x="318.115234" xlink:href="#DejaVuSans-30"/>
       <use x="381.738281" xlink:href="#DejaVuSans-30"/>
      </g>
     </g>
    </g>
    <g id="ytick_4">
     <g id="line2d_17">
      <path clip-path="url(#p114ef16af3)" d="M 74.35125 141.619707 
L 911.35125 141.619707 
" style="fill:none;stroke:#ffffff;stroke-linecap:square;stroke-width:0.8;"/>
     </g>
     <g id="line2d_18">
      <g>
       <use style="fill:#555555;stroke:#555555;stroke-width:0.8;" x="74.35125" xlink:href="#maded9a4067" y="141.619707"/>
      </g>
     </g>
     <g id="text_10">
      <!-- 3000000 -->
      <g style="fill:#555555;" transform="translate(22.81375 145.418926)scale(0.1 -0.1)">
       <use xlink:href="#DejaVuSans-33"/>
       <use x="63.623047" xlink:href="#DejaVuSans-30"/>
       <use x="127.246094" xlink:href="#DejaVuSans-30"/>
       <use x="190.869141" xlink:href="#DejaVuSans-30"/>
       <use x="254.492188" xlink:href="#DejaVuSans-30"/>
       <use x="318.115234" xlink:href="#DejaVuSans-30"/>
       <use x="381.738281" xlink:href="#DejaVuSans-30"/>
      </g>
     </g>
    </g>
    <g id="ytick_5">
     <g id="line2d_19">
      <path clip-path="url(#p114ef16af3)" d="M 74.35125 108.299026 
L 911.35125 108.299026 
" style="fill:none;stroke:#ffffff;stroke-linecap:square;stroke-width:0.8;"/>
     </g>
     <g id="line2d_20">
      <g>
       <use style="fill:#555555;stroke:#555555;stroke-width:0.8;" x="74.35125" xlink:href="#maded9a4067" y="108.299026"/>
      </g>
     </g>
     <g id="text_11">
      <!-- 4000000 -->
      <g style="fill:#555555;" transform="translate(22.81375 112.098245)scale(0.1 -0.1)">
       <use xlink:href="#DejaVuSans-34"/>
       <use x="63.623047" xlink:href="#DejaVuSans-30"/>
       <use x="127.246094" xlink:href="#DejaVuSans-30"/>
       <use x="190.869141" xlink:href="#DejaVuSans-30"/>
       <use x="254.492188" xlink:href="#DejaVuSans-30"/>
       <use x="318.115234" xlink:href="#DejaVuSans-30"/>
       <use x="381.738281" xlink:href="#DejaVuSans-30"/>
      </g>
     </g>
    </g>
    <g id="ytick_6">
     <g id="line2d_21">
      <path clip-path="url(#p114ef16af3)" d="M 74.35125 74.978345 
L 911.35125 74.978345 
" style="fill:none;stroke:#ffffff;stroke-linecap:square;stroke-width:0.8;"/>
     </g>
     <g id="line2d_22">
      <g>
       <use style="fill:#555555;stroke:#555555;stroke-width:0.8;" x="74.35125" xlink:href="#maded9a4067" y="74.978345"/>
      </g>
     </g>
     <g id="text_12">
      <!-- 5000000 -->
      <defs>
       <path d="M 10.796875 72.90625 
L 49.515625 72.90625 
L 49.515625 64.59375 
L 19.828125 64.59375 
L 19.828125 46.734375 
Q 21.96875 47.46875 24.109375 47.828125 
Q 26.265625 48.1875 28.421875 48.1875 
Q 40.625 48.1875 47.75 41.5 
Q 54.890625 34.8125 54.890625 23.390625 
Q 54.890625 11.625 47.5625 5.09375 
Q 40.234375 -1.421875 26.90625 -1.421875 
Q 22.3125 -1.421875 17.546875 -0.640625 
Q 12.796875 0.140625 7.71875 1.703125 
L 7.71875 11.625 
Q 12.109375 9.234375 16.796875 8.0625 
Q 21.484375 6.890625 26.703125 6.890625 
Q 35.15625 6.890625 40.078125 11.328125 
Q 45.015625 15.765625 45.015625 23.390625 
Q 45.015625 31 40.078125 35.4375 
Q 35.15625 39.890625 26.703125 39.890625 
Q 22.75 39.890625 18.8125 39.015625 
Q 14.890625 38.140625 10.796875 36.28125 
z
" id="DejaVuSans-35"/>
      </defs>
      <g style="fill:#555555;" transform="translate(22.81375 78.777564)scale(0.1 -0.1)">
       <use xlink:href="#DejaVuSans-35"/>
       <use x="63.623047" xlink:href="#DejaVuSans-30"/>
       <use x="127.246094" xlink:href="#DejaVuSans-30"/>
       <use x="190.869141" xlink:href="#DejaVuSans-30"/>
       <use x="254.492188" xlink:href="#DejaVuSans-30"/>
       <use x="318.115234" xlink:href="#DejaVuSans-30"/>
       <use x="381.738281" xlink:href="#DejaVuSans-30"/>
      </g>
     </g>
    </g>
    <g id="ytick_7">
     <g id="line2d_23">
      <path clip-path="url(#p114ef16af3)" d="M 74.35125 41.657664 
L 911.35125 41.657664 
" style="fill:none;stroke:#ffffff;stroke-linecap:square;stroke-width:0.8;"/>
     </g>
     <g id="line2d_24">
      <g>
       <use style="fill:#555555;stroke:#555555;stroke-width:0.8;" x="74.35125" xlink:href="#maded9a4067" y="41.657664"/>
      </g>
     </g>
     <g id="text_13">
      <!-- 6000000 -->
      <defs>
       <path d="M 33.015625 40.375 
Q 26.375 40.375 22.484375 35.828125 
Q 18.609375 31.296875 18.609375 23.390625 
Q 18.609375 15.53125 22.484375 10.953125 
Q 26.375 6.390625 33.015625 6.390625 
Q 39.65625 6.390625 43.53125 10.953125 
Q 47.40625 15.53125 47.40625 23.390625 
Q 47.40625 31.296875 43.53125 35.828125 
Q 39.65625 40.375 33.015625 40.375 
z
M 52.59375 71.296875 
L 52.59375 62.3125 
Q 48.875 64.0625 45.09375 64.984375 
Q 41.3125 65.921875 37.59375 65.921875 
Q 27.828125 65.921875 22.671875 59.328125 
Q 17.53125 52.734375 16.796875 39.40625 
Q 19.671875 43.65625 24.015625 45.921875 
Q 28.375 48.1875 33.59375 48.1875 
Q 44.578125 48.1875 50.953125 41.515625 
Q 57.328125 34.859375 57.328125 23.390625 
Q 57.328125 12.15625 50.6875 5.359375 
Q 44.046875 -1.421875 33.015625 -1.421875 
Q 20.359375 -1.421875 13.671875 8.265625 
Q 6.984375 17.96875 6.984375 36.375 
Q 6.984375 53.65625 15.1875 63.9375 
Q 23.390625 74.21875 37.203125 74.21875 
Q 40.921875 74.21875 44.703125 73.484375 
Q 48.484375 72.75 52.59375 71.296875 
z
" id="DejaVuSans-36"/>
      </defs>
      <g style="fill:#555555;" transform="translate(22.81375 45.456883)scale(0.1 -0.1)">
       <use xlink:href="#DejaVuSans-36"/>
       <use x="63.623047" xlink:href="#DejaVuSans-30"/>
       <use x="127.246094" xlink:href="#DejaVuSans-30"/>
       <use x="190.869141" xlink:href="#DejaVuSans-30"/>
       <use x="254.492188" xlink:href="#DejaVuSans-30"/>
       <use x="318.115234" xlink:href="#DejaVuSans-30"/>
       <use x="381.738281" xlink:href="#DejaVuSans-30"/>
      </g>
     </g>
    </g>
    <g id="text_14">
     <!-- bases count -->
     <defs>
      <path d="M 48.6875 27.296875 
Q 48.6875 37.203125 44.609375 42.84375 
Q 40.53125 48.484375 33.40625 48.484375 
Q 26.265625 48.484375 22.1875 42.84375 
Q 18.109375 37.203125 18.109375 27.296875 
Q 18.109375 17.390625 22.1875 11.75 
Q 26.265625 6.109375 33.40625 6.109375 
Q 40.53125 6.109375 44.609375 11.75 
Q 48.6875 17.390625 48.6875 27.296875 
z
M 18.109375 46.390625 
Q 20.953125 51.265625 25.265625 53.625 
Q 29.59375 56 35.59375 56 
Q 45.5625 56 51.78125 48.09375 
Q 58.015625 40.1875 58.015625 27.296875 
Q 58.015625 14.40625 51.78125 6.484375 
Q 45.5625 -1.421875 35.59375 -1.421875 
Q 29.59375 -1.421875 25.265625 0.953125 
Q 20.953125 3.328125 18.109375 8.203125 
L 18.109375 0 
L 9.078125 0 
L 9.078125 75.984375 
L 18.109375 75.984375 
z
" id="DejaVuSans-62"/>
      <path d="M 34.28125 27.484375 
Q 23.390625 27.484375 19.1875 25 
Q 14.984375 22.515625 14.984375 16.5 
Q 14.984375 11.71875 18.140625 8.90625 
Q 21.296875 6.109375 26.703125 6.109375 
Q 34.1875 6.109375 38.703125 11.40625 
Q 43.21875 16.703125 43.21875 25.484375 
L 43.21875 27.484375 
z
M 52.203125 31.203125 
L 52.203125 0 
L 43.21875 0 
L 43.21875 8.296875 
Q 40.140625 3.328125 35.546875 0.953125 
Q 30.953125 -1.421875 24.3125 -1.421875 
Q 15.921875 -1.421875 10.953125 3.296875 
Q 6 8.015625 6 15.921875 
Q 6 25.140625 12.171875 29.828125 
Q 18.359375 34.515625 30.609375 34.515625 
L 43.21875 34.515625 
L 43.21875 35.40625 
Q 43.21875 41.609375 39.140625 45 
Q 35.0625 48.390625 27.6875 48.390625 
Q 23 48.390625 18.546875 47.265625 
Q 14.109375 46.140625 10.015625 43.890625 
L 10.015625 52.203125 
Q 14.9375 54.109375 19.578125 55.046875 
Q 24.21875 56 28.609375 56 
Q 40.484375 56 46.34375 49.84375 
Q 52.203125 43.703125 52.203125 31.203125 
z
" id="DejaVuSans-61"/>
      <path d="M 44.28125 53.078125 
L 44.28125 44.578125 
Q 40.484375 46.53125 36.375 47.5 
Q 32.28125 48.484375 27.875 48.484375 
Q 21.1875 48.484375 17.84375 46.4375 
Q 14.5 44.390625 14.5 40.28125 
Q 14.5 37.15625 16.890625 35.375 
Q 19.28125 33.59375 26.515625 31.984375 
L 29.59375 31.296875 
Q 39.15625 29.25 43.1875 25.515625 
Q 47.21875 21.78125 47.21875 15.09375 
Q 47.21875 7.46875 41.1875 3.015625 
Q 35.15625 -1.421875 24.609375 -1.421875 
Q 20.21875 -1.421875 15.453125 -0.5625 
Q 10.6875 0.296875 5.421875 2 
L 5.421875 11.28125 
Q 10.40625 8.6875 15.234375 7.390625 
Q 20.0625 6.109375 24.8125 6.109375 
Q 31.15625 6.109375 34.5625 8.28125 
Q 37.984375 10.453125 37.984375 14.40625 
Q 37.984375 18.0625 35.515625 20.015625 
Q 33.0625 21.96875 24.703125 23.78125 
L 21.578125 24.515625 
Q 13.234375 26.265625 9.515625 29.90625 
Q 5.8125 33.546875 5.8125 39.890625 
Q 5.8125 47.609375 11.28125 51.796875 
Q 16.75 56 26.8125 56 
Q 31.78125 56 36.171875 55.265625 
Q 40.578125 54.546875 44.28125 53.078125 
z
" id="DejaVuSans-73"/>
      <path d="M 48.78125 52.59375 
L 48.78125 44.1875 
Q 44.96875 46.296875 41.140625 47.34375 
Q 37.3125 48.390625 33.40625 48.390625 
Q 24.65625 48.390625 19.8125 42.84375 
Q 14.984375 37.3125 14.984375 27.296875 
Q 14.984375 17.28125 19.8125 11.734375 
Q 24.65625 6.203125 33.40625 6.203125 
Q 37.3125 6.203125 41.140625 7.25 
Q 44.96875 8.296875 48.78125 10.40625 
L 48.78125 2.09375 
Q 45.015625 0.34375 40.984375 -0.53125 
Q 36.96875 -1.421875 32.421875 -1.421875 
Q 20.0625 -1.421875 12.78125 6.34375 
Q 5.515625 14.109375 5.515625 27.296875 
Q 5.515625 40.671875 12.859375 48.328125 
Q 20.21875 56 33.015625 56 
Q 37.15625 56 41.109375 55.140625 
Q 45.0625 54.296875 48.78125 52.59375 
z
" id="DejaVuSans-63"/>
      <path d="M 30.609375 48.390625 
Q 23.390625 48.390625 19.1875 42.75 
Q 14.984375 37.109375 14.984375 27.296875 
Q 14.984375 17.484375 19.15625 11.84375 
Q 23.34375 6.203125 30.609375 6.203125 
Q 37.796875 6.203125 41.984375 11.859375 
Q 46.1875 17.53125 46.1875 27.296875 
Q 46.1875 37.015625 41.984375 42.703125 
Q 37.796875 48.390625 30.609375 48.390625 
z
M 30.609375 56 
Q 42.328125 56 49.015625 48.375 
Q 55.71875 40.765625 55.71875 27.296875 
Q 55.71875 13.875 49.015625 6.21875 
Q 42.328125 -1.421875 30.609375 -1.421875 
Q 18.84375 -1.421875 12.171875 6.21875 
Q 5.515625 13.875 5.515625 27.296875 
Q 5.515625 40.765625 12.171875 48.375 
Q 18.84375 56 30.609375 56 
z
" id="DejaVuSans-6f"/>
      <path d="M 8.5 21.578125 
L 8.5 54.6875 
L 17.484375 54.6875 
L 17.484375 21.921875 
Q 17.484375 14.15625 20.5 10.265625 
Q 23.53125 6.390625 29.59375 6.390625 
Q 36.859375 6.390625 41.078125 11.03125 
Q 45.3125 15.671875 45.3125 23.6875 
L 45.3125 54.6875 
L 54.296875 54.6875 
L 54.296875 0 
L 45.3125 0 
L 45.3125 8.40625 
Q 42.046875 3.421875 37.71875 1 
Q 33.40625 -1.421875 27.6875 -1.421875 
Q 18.265625 -1.421875 13.375 4.4375 
Q 8.5 10.296875 8.5 21.578125 
z
M 31.109375 56 
z
" id="DejaVuSans-75"/>
     </defs>
     <g style="fill:#555555;" transform="translate(16.318125 169.125188)rotate(-90)scale(0.12 -0.12)">
      <use xlink:href="#DejaVuSans-62"/>
      <use x="63.476562" xlink:href="#DejaVuSans-61"/>
      <use x="124.755859" xlink:href="#DejaVuSans-73"/>
      <use x="176.855469" xlink:href="#DejaVuSans-65"/>
      <use x="238.378906" xlink:href="#DejaVuSans-73"/>
      <use x="290.478516" xlink:href="#DejaVuSans-20"/>
      <use x="322.265625" xlink:href="#DejaVuSans-63"/>
      <use x="377.246094" xlink:href="#DejaVuSans-6f"/>
      <use x="438.427734" xlink:href="#DejaVuSans-75"/>
      <use x="501.806641" xlink:href="#DejaVuSans-6e"/>
      <use x="565.185547" xlink:href="#DejaVuSans-74"/>
     </g>
    </g>
   </g>
   <g id="PolyCollection_1">
    <defs>
     <path d="M 74.35125 -39.491875 
L 74.35125 -221.231199 
L 75.520244 -236.270156 
L 76.689239 -227.905598 
L 77.858233 -234.741503 
L 79.027228 -232.659327 
L 80.196222 -233.995719 
L 81.365216 -227.337347 
L 82.534211 -231.617789 
L 83.703205 -225.881367 
L 84.8722 -228.378319 
L 86.041194 -224.929162 
L 87.210189 -227.878209 
L 88.379183 -222.814065 
L 89.548177 -220.523868 
L 90.717172 -210.979825 
L 91.886166 -211.086818 
L 93.055161 -208.946531 
L 94.224155 -208.302442 
L 95.393149 -210.206519 
L 96.562144 -208.345392 
L 97.731138 -203.267154 
L 98.900133 -197.58801 
L 100.069127 -193.814743 
L 101.238122 -188.118006 
L 102.407116 -187.030486 
L 103.57611 -184.230716 
L 104.745105 -180.401136 
L 105.914099 -179.279296 
L 107.083094 -177.103289 
L 108.252088 -174.748616 
L 109.421082 -177.311909 
L 110.590077 -179.033522 
L 111.759071 -179.141415 
L 112.928066 -174.325977 
L 114.09706 -177.770435 
L 115.266054 -178.687154 
L 116.435049 -177.154103 
L 117.604043 -170.402366 
L 118.773038 -171.115896 
L 119.942032 -168.526879 
L 121.111027 -160.434918 
L 122.280021 -154.439894 
L 123.449015 -157.197847 
L 124.61801 -153.208895 
L 125.787004 -146.552023 
L 126.955999 -147.383174 
L 128.124993 -147.001552 
L 129.293987 -141.726755 
L 130.462982 -141.637589 
L 131.631976 -139.120278 
L 132.800971 -134.17179 
L 133.969965 -130.73213 
L 135.138959 -126.109385 
L 136.307954 -124.580033 
L 137.476948 -125.398555 
L 138.645943 -125.556628 
L 139.814937 -126.136908 
L 140.983932 -128.561787 
L 142.152926 -126.035313 
L 143.32192 -119.134933 
L 144.490915 -115.986829 
L 145.659909 -114.620914 
L 146.828904 -115.487119 
L 147.997898 -116.623554 
L 149.166892 -119.861924 
L 150.335887 -121.957095 
L 151.504881 -118.521933 
L 152.673876 -116.14177 
L 153.84287 -112.442874 
L 155.011865 -114.938793 
L 156.180859 -110.579116 
L 157.349853 -111.507063 
L 158.518848 -112.413319 
L 159.687842 -110.587279 
L 160.856837 -106.381309 
L 162.025831 -107.732263 
L 163.194825 -106.54668 
L 164.36382 -101.642509 
L 165.532814 -100.675343 
L 166.701809 -101.514391 
L 167.870803 -98.498703 
L 169.039797 -96.949757 
L 170.208792 -96.912638 
L 171.377786 -95.422304 
L 172.546781 -93.746241 
L 173.715775 -92.772477 
L 174.88477 -89.708174 
L 176.053764 -88.042573 
L 177.222758 -84.951313 
L 178.391753 -84.156082 
L 179.560747 -83.171922 
L 180.729742 -85.37162 
L 181.898736 -86.409426 
L 183.06773 -88.326832 
L 184.236725 -87.202925 
L 185.405719 -87.873637 
L 186.574714 -85.712324 
L 187.743708 -84.611442 
L 188.912703 -83.974184 
L 190.081697 -82.568751 
L 191.250691 -81.303432 
L 192.419686 -80.022885 
L 193.58868 -78.249392 
L 194.757675 -77.7013 
L 195.926669 -75.797956 
L 197.095663 -74.884136 
L 198.264658 -74.695341 
L 199.433652 -75.634151 
L 200.602647 -75.322503 
L 201.771641 -75.289815 
L 202.940635 -75.178158 
L 204.10963 -73.652604 
L 205.278624 -70.166827 
L 206.447619 -68.164421 
L 207.616613 -67.347398 
L 208.785608 -64.153677 
L 209.954602 -63.835498 
L 211.123596 -64.247308 
L 212.292591 -62.69823 
L 213.461585 -60.396537 
L 214.63058 -67.211816 
L 215.799574 -78.167656 
L 216.968568 -85.009058 
L 218.137563 -93.154732 
L 219.306557 -103.672205 
L 220.475552 -105.007498 
L 221.644546 -100.202489 
L 222.813541 -97.357669 
L 223.982535 -92.175304 
L 225.151529 -89.708274 
L 226.320524 -87.794234 
L 227.489518 -85.623758 
L 228.658513 -84.865046 
L 229.827507 -88.776694 
L 230.996501 -87.604639 
L 232.165496 -86.762392 
L 233.33449 -86.16292 
L 234.503485 -87.640792 
L 235.672479 -86.09368 
L 236.841473 -86.350849 
L 238.010468 -87.431305 
L 239.179462 -87.015263 
L 240.348457 -83.6693 
L 241.517451 -84.010304 
L 242.686446 -83.571237 
L 243.85544 -79.317753 
L 245.024434 -79.150616 
L 246.193429 -79.675317 
L 247.362423 -77.714895 
L 248.531418 -76.114202 
L 249.700412 -77.561819 
L 250.869406 -79.186103 
L 252.038401 -78.393837 
L 253.207395 -78.815243 
L 254.37639 -77.355531 
L 255.545384 -77.529198 
L 256.714378 -74.070045 
L 257.883373 -72.462456 
L 259.052367 -71.121498 
L 260.221362 -71.838059 
L 261.390356 -70.898383 
L 262.559351 -71.531143 
L 263.728345 -72.804292 
L 264.897339 -71.042128 
L 266.066334 -68.884014 
L 267.235328 -68.921633 
L 268.404323 -67.426335 
L 269.573317 -66.323587 
L 270.742311 -67.635289 
L 271.911306 -68.159223 
L 273.0803 -65.62192 
L 274.249295 -66.075581 
L 275.418289 -66.22759 
L 276.587284 -64.826988 
L 277.756278 -64.358066 
L 278.925272 -65.378246 
L 280.094267 -64.370295 
L 281.263261 -63.186544 
L 282.432256 -64.427673 
L 283.60125 -65.114679 
L 284.770244 -64.106429 
L 285.939239 -65.904846 
L 287.108233 -66.554799 
L 288.277228 -65.904046 
L 289.446222 -66.118798 
L 290.615216 -66.64933 
L 291.784211 -64.884666 
L 292.953205 -64.437236 
L 294.1222 -63.162654 
L 295.291194 -60.703687 
L 296.460189 -61.478127 
L 297.629183 -60.08079 
L 298.798177 -60.987579 
L 299.967172 -60.963055 
L 301.136166 -60.921471 
L 302.305161 -59.665948 
L 303.474155 -59.867371 
L 304.643149 -57.263893 
L 305.812144 -57.665274 
L 306.981138 -57.990917 
L 308.150133 -57.105987 
L 309.319127 -56.861446 
L 310.488122 -56.984566 
L 311.657116 -55.523554 
L 312.82611 -54.809959 
L 313.995105 -53.212932 
L 315.164099 -52.031847 
L 316.333094 -51.050286 
L 317.502088 -49.556487 
L 318.671082 -48.828563 
L 319.840077 -49.679407 
L 321.009071 -51.334578 
L 322.178066 -52.2429 
L 323.34706 -53.486394 
L 324.516054 -53.903836 
L 325.685049 -54.071072 
L 326.854043 -53.1218 
L 328.023038 -53.018139 
L 329.192032 -51.888534 
L 330.361027 -51.842019 
L 331.530021 -51.436439 
L 332.699015 -50.264751 
L 333.86801 -48.340182 
L 335.037004 -47.43126 
L 336.205999 -46.705369 
L 337.374993 -45.138631 
L 338.543987 -45.144495 
L 339.712982 -45.877717 
L 340.881976 -46.859178 
L 342.050971 -45.813641 
L 343.219965 -45.910005 
L 344.388959 -45.4826 
L 345.557954 -44.68367 
L 346.726948 -43.241451 
L 347.895943 -43.276438 
L 349.064937 -42.771963 
L 350.233932 -42.549414 
L 351.402926 -42.99771 
L 352.57192 -43.44714 
L 353.740915 -43.103404 
L 354.909909 -47.326134 
L 356.078904 -50.576166 
L 357.247898 -52.025216 
L 358.416892 -56.22712 
L 359.585887 -59.132117 
L 360.754881 -57.636652 
L 361.923876 -55.716514 
L 363.09287 -57.525727 
L 364.261865 -55.475606 
L 365.430859 -54.820421 
L 366.599853 -54.473753 
L 367.768848 -55.542747 
L 368.937842 -54.77877 
L 370.106837 -54.708864 
L 371.275831 -54.687472 
L 372.444825 -53.925061 
L 373.61382 -53.341116 
L 374.782814 -51.6278 
L 375.951809 -51.001805 
L 377.120803 -50.667765 
L 378.289797 -50.130269 
L 379.458792 -50.281278 
L 380.627786 -49.660914 
L 381.796781 -49.042682 
L 382.965775 -47.810283 
L 384.13477 -48.868348 
L 385.303764 -47.868761 
L 386.472758 -49.220381 
L 387.641753 -50.051599 
L 388.810747 -51.264105 
L 389.979742 -50.7503 
L 391.148736 -50.995407 
L 392.31773 -51.445336 
L 393.486725 -50.62738 
L 394.655719 -50.064594 
L 395.824714 -49.514036 
L 396.993708 -49.233076 
L 398.162703 -47.763467 
L 399.331697 -48.794343 
L 400.500691 -48.286969 
L 401.669686 -48.357375 
L 402.83868 -48.210764 
L 404.007675 -48.5558 
L 405.176669 -47.719984 
L 406.345663 -47.937035 
L 407.514658 -48.106904 
L 408.683652 -47.487806 
L 409.852647 -47.823678 
L 411.021641 -47.005589 
L 412.190635 -46.965304 
L 413.35963 -45.715812 
L 414.528624 -45.680059 
L 415.697619 -44.0794 
L 416.866613 -44.553653 
L 418.035608 -44.400111 
L 419.204602 -45.02754 
L 420.373596 -44.578277 
L 421.542591 -45.354049 
L 422.711585 -45.461841 
L 423.88058 -45.165221 
L 425.049574 -44.941339 
L 426.218568 -45.510156 
L 427.387563 -45.168486 
L 428.556557 -44.738616 
L 429.725552 -44.744447 
L 430.894546 -44.291552 
L 432.063541 -44.894723 
L 433.232535 -44.725754 
L 434.401529 -44.238806 
L 435.570524 -43.879509 
L 436.739518 -43.546136 
L 437.908513 -42.212042 
L 439.077507 -42.09512 
L 440.246501 -42.107748 
L 441.415496 -41.905025 
L 442.58449 -42.251694 
L 443.753485 -42.089389 
L 444.922479 -41.799732 
L 446.091473 -41.462593 
L 447.260468 -41.796433 
L 448.429462 -41.230848 
L 449.598457 -41.977798 
L 450.767451 -42.04254 
L 451.936446 -41.948642 
L 453.10544 -41.432805 
L 454.274434 -41.323446 
L 455.443429 -40.545941 
L 456.612423 -40.281442 
L 457.781418 -40.213668 
L 458.950412 -40.442148 
L 460.119406 -41.228382 
L 461.288401 -41.860242 
L 462.457395 -41.969734 
L 463.62639 -42.203912 
L 464.795384 -42.284548 
L 465.964378 -42.008586 
L 467.133373 -41.364731 
L 468.302367 -41.231381 
L 469.471362 -41.468458 
L 470.640356 -41.154644 
L 471.809351 -40.862688 
L 472.978345 -40.85599 
L 474.147339 -41.048917 
L 475.316334 -40.976678 
L 476.485328 -40.925197 
L 477.654323 -40.885046 
L 478.823317 -41.412446 
L 479.992311 -41.322247 
L 481.161306 -40.87455 
L 482.3303 -40.82077 
L 483.499295 -40.975478 
L 484.668289 -40.429386 
L 485.837284 -40.430419 
L 487.006278 -40.46104 
L 488.175272 -40.634275 
L 489.344267 -40.355047 
L 490.513261 -40.367476 
L 491.682256 -40.232094 
L 492.85125 -40.3925 
L 494.020244 -40.458874 
L 495.189239 -40.780386 
L 496.358233 -40.674559 
L 497.527228 -40.572998 
L 498.696222 -40.71581 
L 499.865216 -40.740634 
L 501.034211 -40.408694 
L 502.203205 -40.473336 
L 503.3722 -40.473802 
L 504.541194 -40.10211 
L 505.710189 -39.841642 
L 506.879183 -39.913348 
L 508.048177 -39.810654 
L 509.217172 -39.764738 
L 510.386166 -39.735649 
L 511.555161 -39.991952 
L 512.724155 -39.948935 
L 513.893149 -40.020174 
L 515.062144 -40.205804 
L 516.231138 -40.365743 
L 517.400133 -40.432151 
L 518.569127 -40.407494 
L 519.738122 -40.525449 
L 520.907116 -40.441914 
L 522.07611 -40.296536 
L 523.245105 -40.002281 
L 524.414099 -40.094213 
L 525.583094 -40.012511 
L 526.752088 -39.92711 
L 527.921082 -40.078152 
L 529.090077 -40.183546 
L 530.259071 -40.159122 
L 531.428066 -40.178714 
L 532.59706 -40.292304 
L 533.766054 -40.279009 
L 534.935049 -40.359612 
L 536.104043 -40.319761 
L 537.273038 -40.184879 
L 538.442032 -40.087949 
L 539.611027 -39.978757 
L 540.780021 -39.875096 
L 541.949015 -39.810654 
L 543.11801 -39.873497 
L 544.287004 -39.843675 
L 545.455999 -39.886925 
L 546.624993 -39.803557 
L 547.793987 -39.795526 
L 548.962982 -39.76967 
L 550.131976 -40.052829 
L 551.300971 -40.042966 
L 552.469965 -40.113006 
L 553.638959 -40.304133 
L 554.807954 -40.475468 
L 555.976948 -40.218766 
L 557.145943 -40.18068 
L 558.314937 -40.155989 
L 559.483932 -40.26848 
L 560.652926 -40.107941 
L 561.82192 -40.141595 
L 562.990915 -40.138896 
L 564.159909 -40.050663 
L 565.328904 -39.846574 
L 566.497898 -40.202972 
L 567.666892 -40.100311 
L 568.835887 -40.217266 
L 570.004881 -40.392766 
L 571.173876 -40.294137 
L 572.34287 -40.020108 
L 573.511865 -40.178181 
L 574.680859 -40.050463 
L 575.849853 -40.041633 
L 577.018848 -40.208103 
L 578.187842 -40.146526 
L 579.356837 -39.998849 
L 580.525831 -40.03047 
L 581.694825 -39.83811 
L 582.86382 -39.689067 
L 584.032814 -39.674406 
L 585.201809 -39.699796 
L 586.370803 -39.781198 
L 587.539797 -39.997383 
L 588.708792 -39.965062 
L 589.877786 -39.923211 
L 591.046781 -40.02394 
L 592.215775 -40.015743 
L 593.38477 -39.851938 
L 594.553764 -40.001415 
L 595.722758 -40.004147 
L 596.891753 -39.884559 
L 598.060747 -39.821716 
L 599.229742 -39.799292 
L 600.398736 -39.935173 
L 601.56773 -40.190243 
L 602.736725 -40.381271 
L 603.905719 -40.381437 
L 605.074714 -40.670228 
L 606.243708 -40.429752 
L 607.412703 -40.161188 
L 608.581697 -39.965129 
L 609.750691 -39.897654 
L 610.919686 -39.659745 
L 612.08868 -39.679271 
L 613.257675 -39.691533 
L 614.426669 -39.748677 
L 615.595663 -39.765838 
L 616.764658 -39.700996 
L 617.933652 -39.661111 
L 619.102647 -39.733383 
L 620.271641 -39.666542 
L 621.440635 -39.712558 
L 622.60963 -39.786663 
L 623.778624 -39.777367 
L 624.947619 -39.771469 
L 626.116613 -39.848573 
L 627.285608 -39.798225 
L 628.454602 -39.778433 
L 629.623596 -39.756641 
L 630.792591 -39.749977 
L 631.961585 -39.762172 
L 633.13058 -39.769036 
L 634.299574 -39.836178 
L 635.468568 -39.926677 
L 636.637563 -39.937439 
L 637.806557 -39.907151 
L 638.975552 -40.058093 
L 640.144546 -39.957998 
L 641.313541 -39.99595 
L 642.482535 -39.954599 
L 643.651529 -40.159955 
L 644.820524 -39.993784 
L 645.989518 -39.974992 
L 647.158513 -39.857136 
L 648.327507 -39.84634 
L 649.496501 -39.643784 
L 650.665496 -39.659345 
L 651.83449 -39.720921 
L 653.003485 -39.836477 
L 654.172479 -39.867432 
L 655.341473 -39.994084 
L 656.510468 -40.009545 
L 657.679462 -40.014743 
L 658.848457 -39.936806 
L 660.017451 -40.013677 
L 661.186446 -39.847407 
L 662.35544 -39.836711 
L 663.524434 -39.927143 
L 664.693429 -39.993351 
L 665.862423 -39.949601 
L 667.031418 -40.181446 
L 668.200412 -40.351782 
L 669.369406 -40.375906 
L 670.538401 -40.279743 
L 671.707395 -40.183013 
L 672.87639 -39.942571 
L 674.045384 -39.868565 
L 675.214378 -39.761972 
L 676.383373 -39.769436 
L 677.552367 -39.804056 
L 678.721362 -39.815585 
L 679.890356 -39.749011 
L 681.059351 -39.666076 
L 682.228345 -39.704794 
L 683.397339 -39.730151 
L 684.566334 -39.919613 
L 685.735328 -40.225996 
L 686.904323 -40.335954 
L 688.073317 -40.433984 
L 689.242311 -40.530347 
L 690.411306 -40.448279 
L 691.5803 -40.142894 
L 692.749295 -40.050996 
L 693.918289 -39.888491 
L 695.087284 -39.787963 
L 696.256278 -39.65418 
L 697.425272 -39.614695 
L 698.594267 -39.586272 
L 699.763261 -39.589471 
L 700.932256 -39.526962 
L 702.10125 -39.52313 
L 703.270244 -39.519764 
L 704.439239 -39.538124 
L 705.608233 -39.534892 
L 706.777228 -39.53989 
L 707.946222 -39.53989 
L 709.115216 -39.562948 
L 710.284211 -39.551319 
L 711.453205 -39.551319 
L 712.6222 -39.59357 
L 713.791194 -39.638319 
L 714.960189 -39.654913 
L 716.129183 -39.711192 
L 717.298177 -39.787929 
L 718.467172 -39.757341 
L 719.636166 -39.745712 
L 720.805161 -39.700429 
L 721.974155 -39.637486 
L 723.143149 -39.608764 
L 724.312144 -39.650415 
L 725.481138 -39.675905 
L 726.650133 -39.706593 
L 727.819127 -39.715757 
L 728.988122 -39.667675 
L 730.157116 -39.627324 
L 731.32611 -39.568712 
L 732.495105 -39.532726 
L 733.664099 -39.544288 
L 734.833094 -39.54782 
L 736.002088 -39.53156 
L 737.171082 -39.53156 
L 738.340077 -39.525462 
L 739.509071 -39.504737 
L 740.678066 -39.501238 
L 741.84706 -39.647316 
L 743.016054 -39.693832 
L 744.185049 -39.862168 
L 745.354043 -39.934873 
L 746.523038 -40.038501 
L 747.692032 -39.928343 
L 748.861027 -40.027205 
L 750.030021 -39.975291 
L 751.199015 -39.944003 
L 752.36801 -39.897388 
L 753.537004 -39.877562 
L 754.705999 -39.755608 
L 755.874993 -39.63732 
L 757.043987 -39.616061 
L 758.212982 -39.563914 
L 759.381976 -39.546987 
L 760.550971 -39.523563 
L 761.719965 -39.523296 
L 762.888959 -39.510168 
L 764.057954 -39.55885 
L 765.226948 -39.562348 
L 766.395943 -39.578742 
L 767.564937 -39.57551 
L 768.733932 -39.572478 
L 769.902926 -39.55705 
L 771.07192 -39.570112 
L 772.240915 -39.752809 
L 773.409909 -39.756674 
L 774.578904 -39.768103 
L 775.747898 -39.759573 
L 776.916892 -39.85577 
L 778.085887 -39.725853 
L 779.254881 -39.893756 
L 780.423876 -39.989319 
L 781.59287 -40.001115 
L 782.761865 -40.093713 
L 783.930859 -40.194275 
L 785.099853 -40.046564 
L 786.268848 -40.032503 
L 787.437842 -40.084617 
L 788.606837 -39.999149 
L 789.775831 -39.919213 
L 790.944825 -40.138496 
L 792.11382 -40.079818 
L 793.282814 -40.130766 
L 794.451809 -40.082751 
L 795.620803 -40.139496 
L 796.789797 -39.974025 
L 797.958792 -40.003148 
L 799.127786 -39.888891 
L 800.296781 -39.932308 
L 801.465775 -39.897588 
L 802.63477 -40.057627 
L 803.803764 -40.091914 
L 804.972758 -40.122835 
L 806.141753 -40.142195 
L 807.310747 -40.097245 
L 808.479742 -39.964329 
L 809.648736 -40.04993 
L 810.81773 -40.039134 
L 811.986725 -39.997716 
L 813.155719 -40.066124 
L 814.324714 -40.10141 
L 815.493708 -39.962263 
L 816.662703 -39.963096 
L 817.831697 -40.026805 
L 819.000691 -39.922145 
L 820.169686 -39.839143 
L 821.33868 -39.790995 
L 822.507675 -39.754842 
L 823.676669 -39.650215 
L 824.845663 -39.685368 
L 826.014658 -39.662077 
L 827.183652 -39.748644 
L 828.352647 -39.864367 
L 829.521641 -39.950068 
L 830.690635 -40.027505 
L 831.85963 -39.993418 
L 833.028624 -39.942537 
L 834.197619 -39.870598 
L 835.366613 -39.819751 
L 836.535608 -39.686001 
L 837.704602 -39.701995 
L 838.873596 -39.786763 
L 840.042591 -39.751443 
L 841.211585 -39.677838 
L 842.38058 -39.699763 
L 843.549574 -39.688234 
L 844.718568 -39.65558 
L 845.887563 -39.64485 
L 847.056557 -39.651681 
L 848.225552 -39.634754 
L 849.394546 -39.63682 
L 850.563541 -39.583207 
L 851.732535 -39.585073 
L 852.901529 -39.563848 
L 854.070524 -39.54932 
L 855.239518 -39.551986 
L 856.408513 -39.53979 
L 857.577507 -39.536725 
L 858.746501 -39.536725 
L 859.915496 -39.536725 
L 861.08449 -39.525362 
L 862.253485 -39.503371 
L 863.422479 -39.499372 
L 864.591473 -39.499372 
L 865.760468 -39.499372 
L 866.929462 -39.499372 
L 868.098457 -39.499372 
L 869.267451 -39.491875 
L 870.436446 -39.491875 
L 871.60544 -39.491875 
L 872.774434 -39.491875 
L 873.943429 -39.495574 
L 875.112423 -39.495574 
L 876.281418 -39.514167 
L 877.450412 -39.527328 
L 878.619406 -39.534725 
L 879.788401 -39.531027 
L 880.957395 -39.570845 
L 882.12639 -39.556984 
L 883.295384 -39.543855 
L 884.464378 -39.558816 
L 885.633373 -39.558816 
L 886.802367 -39.518965 
L 887.971362 -39.562748 
L 889.140356 -39.602033 
L 890.309351 -39.579675 
L 891.478345 -39.608331 
L 892.647339 -39.608331 
L 893.816334 -39.569546 
L 894.985328 -39.55735 
L 896.154323 -39.593037 
L 897.323317 -39.572078 
L 898.492311 -39.580175 
L 899.661306 -39.59297 
L 900.8303 -39.56588 
L 901.999295 -39.530194 
L 903.168289 -39.529527 
L 904.337284 -39.52143 
L 905.506278 -39.506703 
L 906.675272 -39.506703 
L 907.844267 -39.506703 
L 909.013261 -39.499672 
L 910.182256 -51.032393 
L 911.35125 -55.209673 
L 911.35125 -39.491875 
L 911.35125 -39.491875 
L 910.182256 -39.491875 
L 909.013261 -39.491875 
L 907.844267 -39.491875 
L 906.675272 -39.491875 
L 905.506278 -39.491875 
L 904.337284 -39.491875 
L 903.168289 -39.491875 
L 901.999295 -39.491875 
L 900.8303 -39.491875 
L 899.661306 -39.491875 
L 898.492311 -39.491875 
L 897.323317 -39.491875 
L 896.154323 -39.491875 
L 894.985328 -39.491875 
L 893.816334 -39.491875 
L 892.647339 -39.491875 
L 891.478345 -39.491875 
L 890.309351 -39.491875 
L 889.140356 -39.491875 
L 887.971362 -39.491875 
L 886.802367 -39.491875 
L 885.633373 -39.491875 
L 884.464378 -39.491875 
L 883.295384 -39.491875 
L 882.12639 -39.491875 
L 880.957395 -39.491875 
L 879.788401 -39.491875 
L 878.619406 -39.491875 
L 877.450412 -39.491875 
L 876.281418 -39.491875 
L 875.112423 -39.491875 
L 873.943429 -39.491875 
L 872.774434 -39.491875 
L 871.60544 -39.491875 
L 870.436446 -39.491875 
L 869.267451 -39.491875 
L 868.098457 -39.491875 
L 866.929462 -39.491875 
L 865.760468 -39.491875 
L 864.591473 -39.491875 
L 863.422479 -39.491875 
L 862.253485 -39.491875 
L 861.08449 -39.491875 
L 859.915496 -39.491875 
L 858.746501 -39.491875 
L 857.577507 -39.491875 
L 856.408513 -39.491875 
L 855.239518 -39.491875 
L 854.070524 -39.491875 
L 852.901529 -39.491875 
L 851.732535 -39.491875 
L 850.563541 -39.491875 
L 849.394546 -39.491875 
L 848.225552 -39.491875 
L 847.056557 -39.491875 
L 845.887563 -39.491875 
L 844.718568 -39.491875 
L 843.549574 -39.491875 
L 842.38058 -39.491875 
L 841.211585 -39.491875 
L 840.042591 -39.491875 
L 838.873596 -39.491875 
L 837.704602 -39.491875 
L 836.535608 -39.491875 
L 835.366613 -39.491875 
L 834.197619 -39.491875 
L 833.028624 -39.491875 
L 831.85963 -39.491875 
L 830.690635 -39.491875 
L 829.521641 -39.491875 
L 828.352647 -39.491875 
L 827.183652 -39.491875 
L 826.014658 -39.491875 
L 824.845663 -39.491875 
L 823.676669 -39.491875 
L 822.507675 -39.491875 
L 821.33868 -39.491875 
L 820.169686 -39.491875 
L 819.000691 -39.491875 
L 817.831697 -39.491875 
L 816.662703 -39.491875 
L 815.493708 -39.491875 
L 814.324714 -39.491875 
L 813.155719 -39.491875 
L 811.986725 -39.491875 
L 810.81773 -39.491875 
L 809.648736 -39.491875 
L 808.479742 -39.491875 
L 807.310747 -39.491875 
L 806.141753 -39.491875 
L 804.972758 -39.491875 
L 803.803764 -39.491875 
L 802.63477 -39.491875 
L 801.465775 -39.491875 
L 800.296781 -39.491875 
L 799.127786 -39.491875 
L 797.958792 -39.491875 
L 796.789797 -39.491875 
L 795.620803 -39.491875 
L 794.451809 -39.491875 
L 793.282814 -39.491875 
L 792.11382 -39.491875 
L 790.944825 -39.491875 
L 789.775831 -39.491875 
L 788.606837 -39.491875 
L 787.437842 -39.491875 
L 786.268848 -39.491875 
L 785.099853 -39.491875 
L 783.930859 -39.491875 
L 782.761865 -39.491875 
L 781.59287 -39.491875 
L 780.423876 -39.491875 
L 779.254881 -39.491875 
L 778.085887 -39.491875 
L 776.916892 -39.491875 
L 775.747898 -39.491875 
L 774.578904 -39.491875 
L 773.409909 -39.491875 
L 772.240915 -39.491875 
L 771.07192 -39.491875 
L 769.902926 -39.491875 
L 768.733932 -39.491875 
L 767.564937 -39.491875 
L 766.395943 -39.491875 
L 765.226948 -39.491875 
L 764.057954 -39.491875 
L 762.888959 -39.491875 
L 761.719965 -39.491875 
L 760.550971 -39.491875 
L 759.381976 -39.491875 
L 758.212982 -39.491875 
L 757.043987 -39.491875 
L 755.874993 -39.491875 
L 754.705999 -39.491875 
L 753.537004 -39.491875 
L 752.36801 -39.491875 
L 751.199015 -39.491875 
L 750.030021 -39.491875 
L 748.861027 -39.491875 
L 747.692032 -39.491875 
L 746.523038 -39.491875 
L 745.354043 -39.491875 
L 744.185049 -39.491875 
L 743.016054 -39.491875 
L 741.84706 -39.491875 
L 740.678066 -39.491875 
L 739.509071 -39.491875 
L 738.340077 -39.491875 
L 737.171082 -39.491875 
L 736.002088 -39.491875 
L 734.833094 -39.491875 
L 733.664099 -39.491875 
L 732.495105 -39.491875 
L 731.32611 -39.491875 
L 730.157116 -39.491875 
L 728.988122 -39.491875 
L 727.819127 -39.491875 
L 726.650133 -39.491875 
L 725.481138 -39.491875 
L 724.312144 -39.491875 
L 723.143149 -39.491875 
L 721.974155 -39.491875 
L 720.805161 -39.491875 
L 719.636166 -39.491875 
L 718.467172 -39.491875 
L 717.298177 -39.491875 
L 716.129183 -39.491875 
L 714.960189 -39.491875 
L 713.791194 -39.491875 
L 712.6222 -39.491875 
L 711.453205 -39.491875 
L 710.284211 -39.491875 
L 709.115216 -39.491875 
L 707.946222 -39.491875 
L 706.777228 -39.491875 
L 705.608233 -39.491875 
L 704.439239 -39.491875 
L 703.270244 -39.491875 
L 702.10125 -39.491875 
L 700.932256 -39.491875 
L 699.763261 -39.491875 
L 698.594267 -39.491875 
L 697.425272 -39.491875 
L 696.256278 -39.491875 
L 695.087284 -39.491875 
L 693.918289 -39.491875 
L 692.749295 -39.491875 
L 691.5803 -39.491875 
L 690.411306 -39.491875 
L 689.242311 -39.491875 
L 688.073317 -39.491875 
L 686.904323 -39.491875 
L 685.735328 -39.491875 
L 684.566334 -39.491875 
L 683.397339 -39.491875 
L 682.228345 -39.491875 
L 681.059351 -39.491875 
L 679.890356 -39.491875 
L 678.721362 -39.491875 
L 677.552367 -39.491875 
L 676.383373 -39.491875 
L 675.214378 -39.491875 
L 674.045384 -39.491875 
L 672.87639 -39.491875 
L 671.707395 -39.491875 
L 670.538401 -39.491875 
L 669.369406 -39.491875 
L 668.200412 -39.491875 
L 667.031418 -39.491875 
L 665.862423 -39.491875 
L 664.693429 -39.491875 
L 663.524434 -39.491875 
L 662.35544 -39.491875 
L 661.186446 -39.491875 
L 660.017451 -39.491875 
L 658.848457 -39.491875 
L 657.679462 -39.491875 
L 656.510468 -39.491875 
L 655.341473 -39.491875 
L 654.172479 -39.491875 
L 653.003485 -39.491875 
L 651.83449 -39.491875 
L 650.665496 -39.491875 
L 649.496501 -39.491875 
L 648.327507 -39.491875 
L 647.158513 -39.491875 
L 645.989518 -39.491875 
L 644.820524 -39.491875 
L 643.651529 -39.491875 
L 642.482535 -39.491875 
L 641.313541 -39.491875 
L 640.144546 -39.491875 
L 638.975552 -39.491875 
L 637.806557 -39.491875 
L 636.637563 -39.491875 
L 635.468568 -39.491875 
L 634.299574 -39.491875 
L 633.13058 -39.491875 
L 631.961585 -39.491875 
L 630.792591 -39.491875 
L 629.623596 -39.491875 
L 628.454602 -39.491875 
L 627.285608 -39.491875 
L 626.116613 -39.491875 
L 624.947619 -39.491875 
L 623.778624 -39.491875 
L 622.60963 -39.491875 
L 621.440635 -39.491875 
L 620.271641 -39.491875 
L 619.102647 -39.491875 
L 617.933652 -39.491875 
L 616.764658 -39.491875 
L 615.595663 -39.491875 
L 614.426669 -39.491875 
L 613.257675 -39.491875 
L 612.08868 -39.491875 
L 610.919686 -39.491875 
L 609.750691 -39.491875 
L 608.581697 -39.491875 
L 607.412703 -39.491875 
L 606.243708 -39.491875 
L 605.074714 -39.491875 
L 603.905719 -39.491875 
L 602.736725 -39.491875 
L 601.56773 -39.491875 
L 600.398736 -39.491875 
L 599.229742 -39.491875 
L 598.060747 -39.491875 
L 596.891753 -39.491875 
L 595.722758 -39.491875 
L 594.553764 -39.491875 
L 593.38477 -39.491875 
L 592.215775 -39.491875 
L 591.046781 -39.491875 
L 589.877786 -39.491875 
L 588.708792 -39.491875 
L 587.539797 -39.491875 
L 586.370803 -39.491875 
L 585.201809 -39.491875 
L 584.032814 -39.491875 
L 582.86382 -39.491875 
L 581.694825 -39.491875 
L 580.525831 -39.491875 
L 579.356837 -39.491875 
L 578.187842 -39.491875 
L 577.018848 -39.491875 
L 575.849853 -39.491875 
L 574.680859 -39.491875 
L 573.511865 -39.491875 
L 572.34287 -39.491875 
L 571.173876 -39.491875 
L 570.004881 -39.491875 
L 568.835887 -39.491875 
L 567.666892 -39.491875 
L 566.497898 -39.491875 
L 565.328904 -39.491875 
L 564.159909 -39.491875 
L 562.990915 -39.491875 
L 561.82192 -39.491875 
L 560.652926 -39.491875 
L 559.483932 -39.491875 
L 558.314937 -39.491875 
L 557.145943 -39.491875 
L 555.976948 -39.491875 
L 554.807954 -39.491875 
L 553.638959 -39.491875 
L 552.469965 -39.491875 
L 551.300971 -39.491875 
L 550.131976 -39.491875 
L 548.962982 -39.491875 
L 547.793987 -39.491875 
L 546.624993 -39.491875 
L 545.455999 -39.491875 
L 544.287004 -39.491875 
L 543.11801 -39.491875 
L 541.949015 -39.491875 
L 540.780021 -39.491875 
L 539.611027 -39.491875 
L 538.442032 -39.491875 
L 537.273038 -39.491875 
L 536.104043 -39.491875 
L 534.935049 -39.491875 
L 533.766054 -39.491875 
L 532.59706 -39.491875 
L 531.428066 -39.491875 
L 530.259071 -39.491875 
L 529.090077 -39.491875 
L 527.921082 -39.491875 
L 526.752088 -39.491875 
L 525.583094 -39.491875 
L 524.414099 -39.491875 
L 523.245105 -39.491875 
L 522.07611 -39.491875 
L 520.907116 -39.491875 
L 519.738122 -39.491875 
L 518.569127 -39.491875 
L 517.400133 -39.491875 
L 516.231138 -39.491875 
L 515.062144 -39.491875 
L 513.893149 -39.491875 
L 512.724155 -39.491875 
L 511.555161 -39.491875 
L 510.386166 -39.491875 
L 509.217172 -39.491875 
L 508.048177 -39.491875 
L 506.879183 -39.491875 
L 505.710189 -39.491875 
L 504.541194 -39.491875 
L 503.3722 -39.491875 
L 502.203205 -39.491875 
L 501.034211 -39.491875 
L 499.865216 -39.491875 
L 498.696222 -39.491875 
L 497.527228 -39.491875 
L 496.358233 -39.491875 
L 495.189239 -39.491875 
L 494.020244 -39.491875 
L 492.85125 -39.491875 
L 491.682256 -39.491875 
L 490.513261 -39.491875 
L 489.344267 -39.491875 
L 488.175272 -39.491875 
L 487.006278 -39.491875 
L 485.837284 -39.491875 
L 484.668289 -39.491875 
L 483.499295 -39.491875 
L 482.3303 -39.491875 
L 481.161306 -39.491875 
L 479.992311 -39.491875 
L 478.823317 -39.491875 
L 477.654323 -39.491875 
L 476.485328 -39.491875 
L 475.316334 -39.491875 
L 474.147339 -39.491875 
L 472.978345 -39.491875 
L 471.809351 -39.491875 
L 470.640356 -39.491875 
L 469.471362 -39.491875 
L 468.302367 -39.491875 
L 467.133373 -39.491875 
L 465.964378 -39.491875 
L 464.795384 -39.491875 
L 463.62639 -39.491875 
L 462.457395 -39.491875 
L 461.288401 -39.491875 
L 460.119406 -39.491875 
L 458.950412 -39.491875 
L 457.781418 -39.491875 
L 456.612423 -39.491875 
L 455.443429 -39.491875 
L 454.274434 -39.491875 
L 453.10544 -39.491875 
L 451.936446 -39.491875 
L 450.767451 -39.491875 
L 449.598457 -39.491875 
L 448.429462 -39.491875 
L 447.260468 -39.491875 
L 446.091473 -39.491875 
L 444.922479 -39.491875 
L 443.753485 -39.491875 
L 442.58449 -39.491875 
L 441.415496 -39.491875 
L 440.246501 -39.491875 
L 439.077507 -39.491875 
L 437.908513 -39.491875 
L 436.739518 -39.491875 
L 435.570524 -39.491875 
L 434.401529 -39.491875 
L 433.232535 -39.491875 
L 432.063541 -39.491875 
L 430.894546 -39.491875 
L 429.725552 -39.491875 
L 428.556557 -39.491875 
L 427.387563 -39.491875 
L 426.218568 -39.491875 
L 425.049574 -39.491875 
L 423.88058 -39.491875 
L 422.711585 -39.491875 
L 421.542591 -39.491875 
L 420.373596 -39.491875 
L 419.204602 -39.491875 
L 418.035608 -39.491875 
L 416.866613 -39.491875 
L 415.697619 -39.491875 
L 414.528624 -39.491875 
L 413.35963 -39.491875 
L 412.190635 -39.491875 
L 411.021641 -39.491875 
L 409.852647 -39.491875 
L 408.683652 -39.491875 
L 407.514658 -39.491875 
L 406.345663 -39.491875 
L 405.176669 -39.491875 
L 404.007675 -39.491875 
L 402.83868 -39.491875 
L 401.669686 -39.491875 
L 400.500691 -39.491875 
L 399.331697 -39.491875 
L 398.162703 -39.491875 
L 396.993708 -39.491875 
L 395.824714 -39.491875 
L 394.655719 -39.491875 
L 393.486725 -39.491875 
L 392.31773 -39.491875 
L 391.148736 -39.491875 
L 389.979742 -39.491875 
L 388.810747 -39.491875 
L 387.641753 -39.491875 
L 386.472758 -39.491875 
L 385.303764 -39.491875 
L 384.13477 -39.491875 
L 382.965775 -39.491875 
L 381.796781 -39.491875 
L 380.627786 -39.491875 
L 379.458792 -39.491875 
L 378.289797 -39.491875 
L 377.120803 -39.491875 
L 375.951809 -39.491875 
L 374.782814 -39.491875 
L 373.61382 -39.491875 
L 372.444825 -39.491875 
L 371.275831 -39.491875 
L 370.106837 -39.491875 
L 368.937842 -39.491875 
L 367.768848 -39.491875 
L 366.599853 -39.491875 
L 365.430859 -39.491875 
L 364.261865 -39.491875 
L 363.09287 -39.491875 
L 361.923876 -39.491875 
L 360.754881 -39.491875 
L 359.585887 -39.491875 
L 358.416892 -39.491875 
L 357.247898 -39.491875 
L 356.078904 -39.491875 
L 354.909909 -39.491875 
L 353.740915 -39.491875 
L 352.57192 -39.491875 
L 351.402926 -39.491875 
L 350.233932 -39.491875 
L 349.064937 -39.491875 
L 347.895943 -39.491875 
L 346.726948 -39.491875 
L 345.557954 -39.491875 
L 344.388959 -39.491875 
L 343.219965 -39.491875 
L 342.050971 -39.491875 
L 340.881976 -39.491875 
L 339.712982 -39.491875 
L 338.543987 -39.491875 
L 337.374993 -39.491875 
L 336.205999 -39.491875 
L 335.037004 -39.491875 
L 333.86801 -39.491875 
L 332.699015 -39.491875 
L 331.530021 -39.491875 
L 330.361027 -39.491875 
L 329.192032 -39.491875 
L 328.023038 -39.491875 
L 326.854043 -39.491875 
L 325.685049 -39.491875 
L 324.516054 -39.491875 
L 323.34706 -39.491875 
L 322.178066 -39.491875 
L 321.009071 -39.491875 
L 319.840077 -39.491875 
L 318.671082 -39.491875 
L 317.502088 -39.491875 
L 316.333094 -39.491875 
L 315.164099 -39.491875 
L 313.995105 -39.491875 
L 312.82611 -39.491875 
L 311.657116 -39.491875 
L 310.488122 -39.491875 
L 309.319127 -39.491875 
L 308.150133 -39.491875 
L 306.981138 -39.491875 
L 305.812144 -39.491875 
L 304.643149 -39.491875 
L 303.474155 -39.491875 
L 302.305161 -39.491875 
L 301.136166 -39.491875 
L 299.967172 -39.491875 
L 298.798177 -39.491875 
L 297.629183 -39.491875 
L 296.460189 -39.491875 
L 295.291194 -39.491875 
L 294.1222 -39.491875 
L 292.953205 -39.491875 
L 291.784211 -39.491875 
L 290.615216 -39.491875 
L 289.446222 -39.491875 
L 288.277228 -39.491875 
L 287.108233 -39.491875 
L 285.939239 -39.491875 
L 284.770244 -39.491875 
L 283.60125 -39.491875 
L 282.432256 -39.491875 
L 281.263261 -39.491875 
L 280.094267 -39.491875 
L 278.925272 -39.491875 
L 277.756278 -39.491875 
L 276.587284 -39.491875 
L 275.418289 -39.491875 
L 274.249295 -39.491875 
L 273.0803 -39.491875 
L 271.911306 -39.491875 
L 270.742311 -39.491875 
L 269.573317 -39.491875 
L 268.404323 -39.491875 
L 267.235328 -39.491875 
L 266.066334 -39.491875 
L 264.897339 -39.491875 
L 263.728345 -39.491875 
L 262.559351 -39.491875 
L 261.390356 -39.491875 
L 260.221362 -39.491875 
L 259.052367 -39.491875 
L 257.883373 -39.491875 
L 256.714378 -39.491875 
L 255.545384 -39.491875 
L 254.37639 -39.491875 
L 253.207395 -39.491875 
L 252.038401 -39.491875 
L 250.869406 -39.491875 
L 249.700412 -39.491875 
L 248.531418 -39.491875 
L 247.362423 -39.491875 
L 246.193429 -39.491875 
L 245.024434 -39.491875 
L 243.85544 -39.491875 
L 242.686446 -39.491875 
L 241.517451 -39.491875 
L 240.348457 -39.491875 
L 239.179462 -39.491875 
L 238.010468 -39.491875 
L 236.841473 -39.491875 
L 235.672479 -39.491875 
L 234.503485 -39.491875 
L 233.33449 -39.491875 
L 232.165496 -39.491875 
L 230.996501 -39.491875 
L 229.827507 -39.491875 
L 228.658513 -39.491875 
L 227.489518 -39.491875 
L 226.320524 -39.491875 
L 225.151529 -39.491875 
L 223.982535 -39.491875 
L 222.813541 -39.491875 
L 221.644546 -39.491875 
L 220.475552 -39.491875 
L 219.306557 -39.491875 
L 218.137563 -39.491875 
L 216.968568 -39.491875 
L 215.799574 -39.491875 
L 214.63058 -39.491875 
L 213.461585 -39.491875 
L 212.292591 -39.491875 
L 211.123596 -39.491875 
L 209.954602 -39.491875 
L 208.785608 -39.491875 
L 207.616613 -39.491875 
L 206.447619 -39.491875 
L 205.278624 -39.491875 
L 204.10963 -39.491875 
L 202.940635 -39.491875 
L 201.771641 -39.491875 
L 200.602647 -39.491875 
L 199.433652 -39.491875 
L 198.264658 -39.491875 
L 197.095663 -39.491875 
L 195.926669 -39.491875 
L 194.757675 -39.491875 
L 193.58868 -39.491875 
L 192.419686 -39.491875 
L 191.250691 -39.491875 
L 190.081697 -39.491875 
L 188.912703 -39.491875 
L 187.743708 -39.491875 
L 186.574714 -39.491875 
L 185.405719 -39.491875 
L 184.236725 -39.491875 
L 183.06773 -39.491875 
L 181.898736 -39.491875 
L 180.729742 -39.491875 
L 179.560747 -39.491875 
L 178.391753 -39.491875 
L 177.222758 -39.491875 
L 176.053764 -39.491875 
L 174.88477 -39.491875 
L 173.715775 -39.491875 
L 172.546781 -39.491875 
L 171.377786 -39.491875 
L 170.208792 -39.491875 
L 169.039797 -39.491875 
L 167.870803 -39.491875 
L 166.701809 -39.491875 
L 165.532814 -39.491875 
L 164.36382 -39.491875 
L 163.194825 -39.491875 
L 162.025831 -39.491875 
L 160.856837 -39.491875 
L 159.687842 -39.491875 
L 158.518848 -39.491875 
L 157.349853 -39.491875 
L 156.180859 -39.491875 
L 155.011865 -39.491875 
L 153.84287 -39.491875 
L 152.673876 -39.491875 
L 151.504881 -39.491875 
L 150.335887 -39.491875 
L 149.166892 -39.491875 
L 147.997898 -39.491875 
L 146.828904 -39.491875 
L 145.659909 -39.491875 
L 144.490915 -39.491875 
L 143.32192 -39.491875 
L 142.152926 -39.491875 
L 140.983932 -39.491875 
L 139.814937 -39.491875 
L 138.645943 -39.491875 
L 137.476948 -39.491875 
L 136.307954 -39.491875 
L 135.138959 -39.491875 
L 133.969965 -39.491875 
L 132.800971 -39.491875 
L 131.631976 -39.491875 
L 130.462982 -39.491875 
L 129.293987 -39.491875 
L 128.124993 -39.491875 
L 126.955999 -39.491875 
L 125.787004 -39.491875 
L 124.61801 -39.491875 
L 123.449015 -39.491875 
L 122.280021 -39.491875 
L 121.111027 -39.491875 
L 119.942032 -39.491875 
L 118.773038 -39.491875 
L 117.604043 -39.491875 
L 116.435049 -39.491875 
L 115.266054 -39.491875 
L 114.09706 -39.491875 
L 112.928066 -39.491875 
L 111.759071 -39.491875 
L 110.590077 -39.491875 
L 109.421082 -39.491875 
L 108.252088 -39.491875 
L 107.083094 -39.491875 
L 105.914099 -39.491875 
L 104.745105 -39.491875 
L 103.57611 -39.491875 
L 102.407116 -39.491875 
L 101.238122 -39.491875 
L 100.069127 -39.491875 
L 98.900133 -39.491875 
L 97.731138 -39.491875 
L 96.562144 -39.491875 
L 95.393149 -39.491875 
L 94.224155 -39.491875 
L 93.055161 -39.491875 
L 91.886166 -39.491875 
L 90.717172 -39.491875 
L 89.548177 -39.491875 
L 88.379183 -39.491875 
L 87.210189 -39.491875 
L 86.041194 -39.491875 
L 84.8722 -39.491875 
L 83.703205 -39.491875 
L 82.534211 -39.491875 
L 81.365216 -39.491875 
L 80.196222 -39.491875 
L 79.027228 -39.491875 
L 77.858233 -39.491875 
L 76.689239 -39.491875 
L 75.520244 -39.491875 
L 74.35125 -39.491875 
z
" id="mf74c471fc2" style="stroke:#ff4500;stroke-opacity:0.5;stroke-width:0.5;"/>
    </defs>
    <g clip-path="url(#p114ef16af3)">
     <use style="fill:#ff4500;fill-opacity:0.5;stroke:#ff4500;stroke-opacity:0.5;stroke-width:0.5;" x="0" xlink:href="#mf74c471fc2" y="281.073625"/>
    </g>
   </g>
   <g id="LineCollection_1">
    <path clip-path="url(#p114ef16af3)" d="M 74.35125 251.420664 
L 74.35125 34.964555 
" style="fill:none;stroke:#808080;stroke-width:0.5;"/>
   </g>
   <g id="LineCollection_2">
    <path clip-path="url(#p114ef16af3)" d="M 910.489213 251.420664 
L 910.489213 34.964555 
" style="fill:none;stroke:#808080;stroke-width:0.5;"/>
   </g>
   <g id="patch_3">
    <path d="M 74.35125 241.58175 
L 74.35125 24.14175 
" style="fill:none;stroke:#ffffff;stroke-linecap:square;stroke-linejoin:miter;"/>
   </g>
   <g id="patch_4">
    <path d="M 911.35125 241.58175 
L 911.35125 24.14175 
" style="fill:none;stroke:#ffffff;stroke-linecap:square;stroke-linejoin:miter;"/>
   </g>
   <g id="patch_5">
    <path d="M 74.35125 241.58175 
L 911.35125 241.58175 
" style="fill:none;stroke:#ffffff;stroke-linecap:square;stroke-linejoin:miter;"/>
   </g>
   <g id="patch_6">
    <path d="M 74.35125 24.14175 
L 911.35125 24.14175 
" style="fill:none;stroke:#ffffff;stroke-linecap:square;stroke-linejoin:miter;"/>
   </g>
   <g id="text_15">
    <!-- Total bases over time -->
    <defs>
     <path d="M -0.296875 72.90625 
L 61.375 72.90625 
L 61.375 64.59375 
L 35.5 64.59375 
L 35.5 0 
L 25.59375 0 
L 25.59375 64.59375 
L -0.296875 64.59375 
z
" id="DejaVuSans-54"/>
     <path d="M 9.421875 75.984375 
L 18.40625 75.984375 
L 18.40625 0 
L 9.421875 0 
z
" id="DejaVuSans-6c"/>
     <path d="M 2.984375 54.6875 
L 12.5 54.6875 
L 29.59375 8.796875 
L 46.6875 54.6875 
L 56.203125 54.6875 
L 35.6875 0 
L 23.484375 0 
z
" id="DejaVuSans-76"/>
    </defs>
    <g transform="translate(414.729 18.14175)scale(0.144 -0.144)">
     <use xlink:href="#DejaVuSans-54"/>
     <use x="60.818359" xlink:href="#DejaVuSans-6f"/>
     <use x="122" xlink:href="#DejaVuSans-74"/>
     <use x="161.208984" xlink:href="#DejaVuSans-61"/>
     <use x="222.488281" xlink:href="#DejaVuSans-6c"/>
     <use x="250.271484" xlink:href="#DejaVuSans-20"/>
     <use x="282.058594" xlink:href="#DejaVuSans-62"/>
     <use x="345.535156" xlink:href="#DejaVuSans-61"/>
     <use x="406.814453" xlink:href="#DejaVuSans-73"/>
     <use x="458.914062" xlink:href="#DejaVuSans-65"/>
     <use x="520.4375" xlink:href="#DejaVuSans-73"/>
     <use x="572.537109" xlink:href="#DejaVuSans-20"/>
     <use x="604.324219" xlink:href="#DejaVuSans-6f"/>
     <use x="665.505859" xlink:href="#DejaVuSans-76"/>
     <use x="724.685547" xlink:href="#DejaVuSans-65"/>
     <use x="786.208984" xlink:href="#DejaVuSans-72"/>
     <use x="827.322266" xlink:href="#DejaVuSans-20"/>
     <use x="859.109375" xlink:href="#DejaVuSans-74"/>
     <use x="898.318359" xlink:href="#DejaVuSans-69"/>
     <use x="926.101562" xlink:href="#DejaVuSans-6d"/>
     <use x="1023.513672" xlink:href="#DejaVuSans-65"/>
    </g>
   </g>
  </g>
 </g>
 <defs>
  <clipPath id="p114ef16af3">
   <rect height="217.44" width="837" x="74.35125" y="24.14175"/>
  </clipPath>
 </defs>
</svg>
