<?xml version="1.0" encoding="utf-8" standalone="no"?>
<!DOCTYPE svg PUBLIC "-//W3C//DTD SVG 1.1//EN"
  "http://www.w3.org/Graphics/SVG/1.1/DTD/svg11.dtd">
<!-- Created with matplotlib (http://matplotlib.org/) -->
<svg height="273pt" version="1.1" viewBox="0 0 903 273" width="903pt" xmlns="http://www.w3.org/2000/svg" xmlns:xlink="http://www.w3.org/1999/xlink">
 <defs>
  <style type="text/css">
*{stroke-linecap:butt;stroke-linejoin:round;}
  </style>
 </defs>
 <g id="figure_1">
  <g id="patch_1">
   <path d="M 0 273.814375 
L 903.56875 273.814375 
L 903.56875 0 
L 0 0 
z
" style="fill:#ffffff;"/>
  </g>
  <g id="axes_1">
   <g id="patch_2">
    <path d="M 59.36875 239.758125 
L 896.36875 239.758125 
L 896.36875 22.318125 
L 59.36875 22.318125 
z
" style="fill:#ffffff;"/>
   </g>
   <g id="matplotlib.axis_1">
    <g id="xtick_1">
     <g id="line2d_1"/>
     <g id="text_1">
      <!-- $\mathdefault{10^{3}}$ -->
      <defs>
       <path d="M 12.40625 8.296875 
L 28.515625 8.296875 
L 28.515625 63.921875 
L 10.984375 60.40625 
L 10.984375 69.390625 
L 28.421875 72.90625 
L 38.28125 72.90625 
L 38.28125 8.296875 
L 54.390625 8.296875 
L 54.390625 0 
L 12.40625 0 
z
" id="DejaVuSans-31"/>
       <path d="M 31.78125 66.40625 
Q 24.171875 66.40625 20.328125 58.90625 
Q 16.5 51.421875 16.5 36.375 
Q 16.5 21.390625 20.328125 13.890625 
Q 24.171875 6.390625 31.78125 6.390625 
Q 39.453125 6.390625 43.28125 13.890625 
Q 47.125 21.390625 47.125 36.375 
Q 47.125 51.421875 43.28125 58.90625 
Q 39.453125 66.40625 31.78125 66.40625 
z
M 31.78125 74.21875 
Q 44.046875 74.21875 50.515625 64.515625 
Q 56.984375 54.828125 56.984375 36.375 
Q 56.984375 17.96875 50.515625 8.265625 
Q 44.046875 -1.421875 31.78125 -1.421875 
Q 19.53125 -1.421875 13.0625 8.265625 
Q 6.59375 17.96875 6.59375 36.375 
Q 6.59375 54.828125 13.0625 64.515625 
Q 19.53125 74.21875 31.78125 74.21875 
z
" id="DejaVuSans-30"/>
       <path d="M 40.578125 39.3125 
Q 47.65625 37.796875 51.625 33 
Q 55.609375 28.21875 55.609375 21.1875 
Q 55.609375 10.40625 48.1875 4.484375 
Q 40.765625 -1.421875 27.09375 -1.421875 
Q 22.515625 -1.421875 17.65625 -0.515625 
Q 12.796875 0.390625 7.625 2.203125 
L 7.625 11.71875 
Q 11.71875 9.328125 16.59375 8.109375 
Q 21.484375 6.890625 26.8125 6.890625 
Q 36.078125 6.890625 40.9375 10.546875 
Q 45.796875 14.203125 45.796875 21.1875 
Q 45.796875 27.640625 41.28125 31.265625 
Q 36.765625 34.90625 28.71875 34.90625 
L 20.21875 34.90625 
L 20.21875 43.015625 
L 29.109375 43.015625 
Q 36.375 43.015625 40.234375 45.921875 
Q 44.09375 48.828125 44.09375 54.296875 
Q 44.09375 59.90625 40.109375 62.90625 
Q 36.140625 65.921875 28.71875 65.921875 
Q 24.65625 65.921875 20.015625 65.03125 
Q 15.375 64.15625 9.8125 62.3125 
L 9.8125 71.09375 
Q 15.4375 72.65625 20.34375 73.4375 
Q 25.25 74.21875 29.59375 74.21875 
Q 40.828125 74.21875 47.359375 69.109375 
Q 53.90625 64.015625 53.90625 55.328125 
Q 53.90625 49.265625 50.4375 45.09375 
Q 46.96875 40.921875 40.578125 39.3125 
z
" id="DejaVuSans-33"/>
      </defs>
      <g style="fill:#262626;" transform="translate(176.603497 250.856563)scale(0.1 -0.1)">
       <use transform="translate(0 0.765625)" xlink:href="#DejaVuSans-31"/>
       <use transform="translate(63.623047 0.765625)" xlink:href="#DejaVuSans-30"/>
       <use transform="translate(128.203125 39.046875)scale(0.7)" xlink:href="#DejaVuSans-33"/>
      </g>
     </g>
    </g>
    <g id="xtick_2">
     <g id="line2d_2"/>
     <g id="text_2">
      <!-- $\mathdefault{10^{4}}$ -->
      <defs>
       <path d="M 37.796875 64.3125 
L 12.890625 25.390625 
L 37.796875 25.390625 
z
M 35.203125 72.90625 
L 47.609375 72.90625 
L 47.609375 25.390625 
L 58.015625 25.390625 
L 58.015625 17.1875 
L 47.609375 17.1875 
L 47.609375 0 
L 37.796875 0 
L 37.796875 17.1875 
L 4.890625 17.1875 
L 4.890625 26.703125 
z
" id="DejaVuSans-34"/>
      </defs>
      <g style="fill:#262626;" transform="translate(595.281865 250.856563)scale(0.1 -0.1)">
       <use transform="translate(0 0.684375)" xlink:href="#DejaVuSans-31"/>
       <use transform="translate(63.623047 0.684375)" xlink:href="#DejaVuSans-30"/>
       <use transform="translate(128.203125 38.965625)scale(0.7)" xlink:href="#DejaVuSans-34"/>
      </g>
     </g>
    </g>
    <g id="xtick_3">
     <g id="line2d_3"/>
    </g>
    <g id="xtick_4">
     <g id="line2d_4"/>
    </g>
    <g id="xtick_5">
     <g id="line2d_5"/>
    </g>
    <g id="xtick_6">
     <g id="line2d_6"/>
    </g>
    <g id="xtick_7">
     <g id="line2d_7"/>
    </g>
    <g id="xtick_8">
     <g id="line2d_8"/>
    </g>
    <g id="xtick_9">
     <g id="line2d_9"/>
    </g>
    <g id="xtick_10">
     <g id="line2d_10"/>
    </g>
    <g id="xtick_11">
     <g id="line2d_11"/>
    </g>
    <g id="xtick_12">
     <g id="line2d_12"/>
    </g>
    <g id="xtick_13">
     <g id="line2d_13"/>
    </g>
    <g id="xtick_14">
     <g id="line2d_14"/>
    </g>
    <g id="xtick_15">
     <g id="line2d_15"/>
    </g>
    <g id="xtick_16">
     <g id="line2d_16"/>
    </g>
    <g id="xtick_17">
     <g id="line2d_17"/>
    </g>
    <g id="xtick_18">
     <g id="line2d_18"/>
    </g>
    <g id="xtick_19">
     <g id="line2d_19"/>
    </g>
    <g id="text_3">
     <!-- Mean read length -->
     <defs>
      <path d="M 9.8125 72.90625 
L 24.515625 72.90625 
L 43.109375 23.296875 
L 61.8125 72.90625 
L 76.515625 72.90625 
L 76.515625 0 
L 66.890625 0 
L 66.890625 64.015625 
L 48.09375 14.015625 
L 38.1875 14.015625 
L 19.390625 64.015625 
L 19.390625 0 
L 9.8125 0 
z
" id="DejaVuSans-4d"/>
      <path d="M 56.203125 29.59375 
L 56.203125 25.203125 
L 14.890625 25.203125 
Q 15.484375 15.921875 20.484375 11.0625 
Q 25.484375 6.203125 34.421875 6.203125 
Q 39.59375 6.203125 44.453125 7.46875 
Q 49.3125 8.734375 54.109375 11.28125 
L 54.109375 2.78125 
Q 49.265625 0.734375 44.1875 -0.34375 
Q 39.109375 -1.421875 33.890625 -1.421875 
Q 20.796875 -1.421875 13.15625 6.1875 
Q 5.515625 13.8125 5.515625 26.8125 
Q 5.515625 40.234375 12.765625 48.109375 
Q 20.015625 56 32.328125 56 
Q 43.359375 56 49.78125 48.890625 
Q 56.203125 41.796875 56.203125 29.59375 
z
M 47.21875 32.234375 
Q 47.125 39.59375 43.09375 43.984375 
Q 39.0625 48.390625 32.421875 48.390625 
Q 24.90625 48.390625 20.390625 44.140625 
Q 15.875 39.890625 15.1875 32.171875 
z
" id="DejaVuSans-65"/>
      <path d="M 34.28125 27.484375 
Q 23.390625 27.484375 19.1875 25 
Q 14.984375 22.515625 14.984375 16.5 
Q 14.984375 11.71875 18.140625 8.90625 
Q 21.296875 6.109375 26.703125 6.109375 
Q 34.1875 6.109375 38.703125 11.40625 
Q 43.21875 16.703125 43.21875 25.484375 
L 43.21875 27.484375 
z
M 52.203125 31.203125 
L 52.203125 0 
L 43.21875 0 
L 43.21875 8.296875 
Q 40.140625 3.328125 35.546875 0.953125 
Q 30.953125 -1.421875 24.3125 -1.421875 
Q 15.921875 -1.421875 10.953125 3.296875 
Q 6 8.015625 6 15.921875 
Q 6 25.140625 12.171875 29.828125 
Q 18.359375 34.515625 30.609375 34.515625 
L 43.21875 34.515625 
L 43.21875 35.40625 
Q 43.21875 41.609375 39.140625 45 
Q 35.0625 48.390625 27.6875 48.390625 
Q 23 48.390625 18.546875 47.265625 
Q 14.109375 46.140625 10.015625 43.890625 
L 10.015625 52.203125 
Q 14.9375 54.109375 19.578125 55.046875 
Q 24.21875 56 28.609375 56 
Q 40.484375 56 46.34375 49.84375 
Q 52.203125 43.703125 52.203125 31.203125 
z
" id="DejaVuSans-61"/>
      <path d="M 54.890625 33.015625 
L 54.890625 0 
L 45.90625 0 
L 45.90625 32.71875 
Q 45.90625 40.484375 42.875 44.328125 
Q 39.84375 48.1875 33.796875 48.1875 
Q 26.515625 48.1875 22.3125 43.546875 
Q 18.109375 38.921875 18.109375 30.90625 
L 18.109375 0 
L 9.078125 0 
L 9.078125 54.6875 
L 18.109375 54.6875 
L 18.109375 46.1875 
Q 21.34375 51.125 25.703125 53.5625 
Q 30.078125 56 35.796875 56 
Q 45.21875 56 50.046875 50.171875 
Q 54.890625 44.34375 54.890625 33.015625 
z
" id="DejaVuSans-6e"/>
      <path id="DejaVuSans-20"/>
      <path d="M 41.109375 46.296875 
Q 39.59375 47.171875 37.8125 47.578125 
Q 36.03125 48 33.890625 48 
Q 26.265625 48 22.1875 43.046875 
Q 18.109375 38.09375 18.109375 28.8125 
L 18.109375 0 
L 9.078125 0 
L 9.078125 54.6875 
L 18.109375 54.6875 
L 18.109375 46.1875 
Q 20.953125 51.171875 25.484375 53.578125 
Q 30.03125 56 36.53125 56 
Q 37.453125 56 38.578125 55.875 
Q 39.703125 55.765625 41.0625 55.515625 
z
" id="DejaVuSans-72"/>
      <path d="M 45.40625 46.390625 
L 45.40625 75.984375 
L 54.390625 75.984375 
L 54.390625 0 
L 45.40625 0 
L 45.40625 8.203125 
Q 42.578125 3.328125 38.25 0.953125 
Q 33.9375 -1.421875 27.875 -1.421875 
Q 17.96875 -1.421875 11.734375 6.484375 
Q 5.515625 14.40625 5.515625 27.296875 
Q 5.515625 40.1875 11.734375 48.09375 
Q 17.96875 56 27.875 56 
Q 33.9375 56 38.25 53.625 
Q 42.578125 51.265625 45.40625 46.390625 
z
M 14.796875 27.296875 
Q 14.796875 17.390625 18.875 11.75 
Q 22.953125 6.109375 30.078125 6.109375 
Q 37.203125 6.109375 41.296875 11.75 
Q 45.40625 17.390625 45.40625 27.296875 
Q 45.40625 37.203125 41.296875 42.84375 
Q 37.203125 48.484375 30.078125 48.484375 
Q 22.953125 48.484375 18.875 42.84375 
Q 14.796875 37.203125 14.796875 27.296875 
z
" id="DejaVuSans-64"/>
      <path d="M 9.421875 75.984375 
L 18.40625 75.984375 
L 18.40625 0 
L 9.421875 0 
z
" id="DejaVuSans-6c"/>
      <path d="M 45.40625 27.984375 
Q 45.40625 37.75 41.375 43.109375 
Q 37.359375 48.484375 30.078125 48.484375 
Q 22.859375 48.484375 18.828125 43.109375 
Q 14.796875 37.75 14.796875 27.984375 
Q 14.796875 18.265625 18.828125 12.890625 
Q 22.859375 7.515625 30.078125 7.515625 
Q 37.359375 7.515625 41.375 12.890625 
Q 45.40625 18.265625 45.40625 27.984375 
z
M 54.390625 6.78125 
Q 54.390625 -7.171875 48.1875 -13.984375 
Q 42 -20.796875 29.203125 -20.796875 
Q 24.46875 -20.796875 20.265625 -20.09375 
Q 16.0625 -19.390625 12.109375 -17.921875 
L 12.109375 -9.1875 
Q 16.0625 -11.328125 19.921875 -12.34375 
Q 23.78125 -13.375 27.78125 -13.375 
Q 36.625 -13.375 41.015625 -8.765625 
Q 45.40625 -4.15625 45.40625 5.171875 
L 45.40625 9.625 
Q 42.625 4.78125 38.28125 2.390625 
Q 33.9375 0 27.875 0 
Q 17.828125 0 11.671875 7.65625 
Q 5.515625 15.328125 5.515625 27.984375 
Q 5.515625 40.671875 11.671875 48.328125 
Q 17.828125 56 27.875 56 
Q 33.9375 56 38.28125 53.609375 
Q 42.625 51.21875 45.40625 46.390625 
L 45.40625 54.6875 
L 54.390625 54.6875 
z
" id="DejaVuSans-67"/>
      <path d="M 18.3125 70.21875 
L 18.3125 54.6875 
L 36.8125 54.6875 
L 36.8125 47.703125 
L 18.3125 47.703125 
L 18.3125 18.015625 
Q 18.3125 11.328125 20.140625 9.421875 
Q 21.96875 7.515625 27.59375 7.515625 
L 36.8125 7.515625 
L 36.8125 0 
L 27.59375 0 
Q 17.1875 0 13.234375 3.875 
Q 9.28125 7.765625 9.28125 18.015625 
L 9.28125 47.703125 
L 2.6875 47.703125 
L 2.6875 54.6875 
L 9.28125 54.6875 
L 9.28125 70.21875 
z
" id="DejaVuSans-74"/>
      <path d="M 54.890625 33.015625 
L 54.890625 0 
L 45.90625 0 
L 45.90625 32.71875 
Q 45.90625 40.484375 42.875 44.328125 
Q 39.84375 48.1875 33.796875 48.1875 
Q 26.515625 48.1875 22.3125 43.546875 
Q 18.109375 38.921875 18.109375 30.90625 
L 18.109375 0 
L 9.078125 0 
L 9.078125 75.984375 
L 18.109375 75.984375 
L 18.109375 46.1875 
Q 21.34375 51.125 25.703125 53.5625 
Q 30.078125 56 35.796875 56 
Q 45.21875 56 50.046875 50.171875 
Q 54.890625 44.34375 54.890625 33.015625 
z
" id="DejaVuSans-68"/>
     </defs>
     <g style="fill:#262626;" transform="translate(433.760938 264.534688)scale(0.1 -0.1)">
      <use xlink:href="#DejaVuSans-4d"/>
      <use x="86.279297" xlink:href="#DejaVuSans-65"/>
      <use x="147.802734" xlink:href="#DejaVuSans-61"/>
      <use x="209.082031" xlink:href="#DejaVuSans-6e"/>
      <use x="272.460938" xlink:href="#DejaVuSans-20"/>
      <use x="304.248047" xlink:href="#DejaVuSans-72"/>
      <use x="345.330078" xlink:href="#DejaVuSans-65"/>
      <use x="406.853516" xlink:href="#DejaVuSans-61"/>
      <use x="468.132812" xlink:href="#DejaVuSans-64"/>
      <use x="531.609375" xlink:href="#DejaVuSans-20"/>
      <use x="563.396484" xlink:href="#DejaVuSans-6c"/>
      <use x="591.179688" xlink:href="#DejaVuSans-65"/>
      <use x="652.703125" xlink:href="#DejaVuSans-6e"/>
      <use x="716.082031" xlink:href="#DejaVuSans-67"/>
      <use x="779.558594" xlink:href="#DejaVuSans-74"/>
      <use x="818.767578" xlink:href="#DejaVuSans-68"/>
     </g>
    </g>
   </g>
   <g id="matplotlib.axis_2">
    <g id="ytick_1">
     <g id="line2d_20"/>
     <g id="text_4">
      <!-- 0.0000 -->
      <defs>
       <path d="M 10.6875 12.40625 
L 21 12.40625 
L 21 0 
L 10.6875 0 
z
" id="DejaVuSans-2e"/>
      </defs>
      <g style="fill:#262626;" transform="translate(20.878125 243.557344)scale(0.1 -0.1)">
       <use xlink:href="#DejaVuSans-30"/>
       <use x="63.623047" xlink:href="#DejaVuSans-2e"/>
       <use x="95.410156" xlink:href="#DejaVuSans-30"/>
       <use x="159.033203" xlink:href="#DejaVuSans-30"/>
       <use x="222.65625" xlink:href="#DejaVuSans-30"/>
       <use x="286.279297" xlink:href="#DejaVuSans-30"/>
      </g>
     </g>
    </g>
    <g id="ytick_2">
     <g id="line2d_21"/>
     <g id="text_5">
      <!-- 0.0001 -->
      <g style="fill:#262626;" transform="translate(20.878125 200.070676)scale(0.1 -0.1)">
       <use xlink:href="#DejaVuSans-30"/>
       <use x="63.623047" xlink:href="#DejaVuSans-2e"/>
       <use x="95.410156" xlink:href="#DejaVuSans-30"/>
       <use x="159.033203" xlink:href="#DejaVuSans-30"/>
       <use x="222.65625" xlink:href="#DejaVuSans-30"/>
       <use x="286.279297" xlink:href="#DejaVuSans-31"/>
      </g>
     </g>
    </g>
    <g id="ytick_3">
     <g id="line2d_22"/>
     <g id="text_6">
      <!-- 0.0002 -->
      <defs>
       <path d="M 19.1875 8.296875 
L 53.609375 8.296875 
L 53.609375 0 
L 7.328125 0 
L 7.328125 8.296875 
Q 12.9375 14.109375 22.625 23.890625 
Q 32.328125 33.6875 34.8125 36.53125 
Q 39.546875 41.84375 41.421875 45.53125 
Q 43.3125 49.21875 43.3125 52.78125 
Q 43.3125 58.59375 39.234375 62.25 
Q 35.15625 65.921875 28.609375 65.921875 
Q 23.96875 65.921875 18.8125 64.3125 
Q 13.671875 62.703125 7.8125 59.421875 
L 7.8125 69.390625 
Q 13.765625 71.78125 18.9375 73 
Q 24.125 74.21875 28.421875 74.21875 
Q 39.75 74.21875 46.484375 68.546875 
Q 53.21875 62.890625 53.21875 53.421875 
Q 53.21875 48.921875 51.53125 44.890625 
Q 49.859375 40.875 45.40625 35.40625 
Q 44.1875 33.984375 37.640625 27.21875 
Q 31.109375 20.453125 19.1875 8.296875 
z
" id="DejaVuSans-32"/>
      </defs>
      <g style="fill:#262626;" transform="translate(20.878125 156.584009)scale(0.1 -0.1)">
       <use xlink:href="#DejaVuSans-30"/>
       <use x="63.623047" xlink:href="#DejaVuSans-2e"/>
       <use x="95.410156" xlink:href="#DejaVuSans-30"/>
       <use x="159.033203" xlink:href="#DejaVuSans-30"/>
       <use x="222.65625" xlink:href="#DejaVuSans-30"/>
       <use x="286.279297" xlink:href="#DejaVuSans-32"/>
      </g>
     </g>
    </g>
    <g id="ytick_4">
     <g id="line2d_23"/>
     <g id="text_7">
      <!-- 0.0003 -->
      <g style="fill:#262626;" transform="translate(20.878125 113.097341)scale(0.1 -0.1)">
       <use xlink:href="#DejaVuSans-30"/>
       <use x="63.623047" xlink:href="#DejaVuSans-2e"/>
       <use x="95.410156" xlink:href="#DejaVuSans-30"/>
       <use x="159.033203" xlink:href="#DejaVuSans-30"/>
       <use x="222.65625" xlink:href="#DejaVuSans-30"/>
       <use x="286.279297" xlink:href="#DejaVuSans-33"/>
      </g>
     </g>
    </g>
    <g id="ytick_5">
     <g id="line2d_24"/>
     <g id="text_8">
      <!-- 0.0004 -->
      <g style="fill:#262626;" transform="translate(20.878125 69.610674)scale(0.1 -0.1)">
       <use xlink:href="#DejaVuSans-30"/>
       <use x="63.623047" xlink:href="#DejaVuSans-2e"/>
       <use x="95.410156" xlink:href="#DejaVuSans-30"/>
       <use x="159.033203" xlink:href="#DejaVuSans-30"/>
       <use x="222.65625" xlink:href="#DejaVuSans-30"/>
       <use x="286.279297" xlink:href="#DejaVuSans-34"/>
      </g>
     </g>
    </g>
    <g id="ytick_6">
     <g id="line2d_25"/>
     <g id="text_9">
      <!-- 0.0005 -->
      <defs>
       <path d="M 10.796875 72.90625 
L 49.515625 72.90625 
L 49.515625 64.59375 
L 19.828125 64.59375 
L 19.828125 46.734375 
Q 21.96875 47.46875 24.109375 47.828125 
Q 26.265625 48.1875 28.421875 48.1875 
Q 40.625 48.1875 47.75 41.5 
Q 54.890625 34.8125 54.890625 23.390625 
Q 54.890625 11.625 47.5625 5.09375 
Q 40.234375 -1.421875 26.90625 -1.421875 
Q 22.3125 -1.421875 17.546875 -0.640625 
Q 12.796875 0.140625 7.71875 1.703125 
L 7.71875 11.625 
Q 12.109375 9.234375 16.796875 8.0625 
Q 21.484375 6.890625 26.703125 6.890625 
Q 35.15625 6.890625 40.078125 11.328125 
Q 45.015625 15.765625 45.015625 23.390625 
Q 45.015625 31 40.078125 35.4375 
Q 35.15625 39.890625 26.703125 39.890625 
Q 22.75 39.890625 18.8125 39.015625 
Q 14.890625 38.140625 10.796875 36.28125 
z
" id="DejaVuSans-35"/>
      </defs>
      <g style="fill:#262626;" transform="translate(20.878125 26.124007)scale(0.1 -0.1)">
       <use xlink:href="#DejaVuSans-30"/>
       <use x="63.623047" xlink:href="#DejaVuSans-2e"/>
       <use x="95.410156" xlink:href="#DejaVuSans-30"/>
       <use x="159.033203" xlink:href="#DejaVuSans-30"/>
       <use x="222.65625" xlink:href="#DejaVuSans-30"/>
       <use x="286.279297" xlink:href="#DejaVuSans-35"/>
      </g>
     </g>
    </g>
    <g id="text_10">
     <!-- Read Frequency -->
     <defs>
      <path d="M 44.390625 34.1875 
Q 47.5625 33.109375 50.5625 29.59375 
Q 53.5625 26.078125 56.59375 19.921875 
L 66.609375 0 
L 56 0 
L 46.6875 18.703125 
Q 43.0625 26.03125 39.671875 28.421875 
Q 36.28125 30.8125 30.421875 30.8125 
L 19.671875 30.8125 
L 19.671875 0 
L 9.8125 0 
L 9.8125 72.90625 
L 32.078125 72.90625 
Q 44.578125 72.90625 50.734375 67.671875 
Q 56.890625 62.453125 56.890625 51.90625 
Q 56.890625 45.015625 53.6875 40.46875 
Q 50.484375 35.9375 44.390625 34.1875 
z
M 19.671875 64.796875 
L 19.671875 38.921875 
L 32.078125 38.921875 
Q 39.203125 38.921875 42.84375 42.21875 
Q 46.484375 45.515625 46.484375 51.90625 
Q 46.484375 58.296875 42.84375 61.546875 
Q 39.203125 64.796875 32.078125 64.796875 
z
" id="DejaVuSans-52"/>
      <path d="M 9.8125 72.90625 
L 51.703125 72.90625 
L 51.703125 64.59375 
L 19.671875 64.59375 
L 19.671875 43.109375 
L 48.578125 43.109375 
L 48.578125 34.8125 
L 19.671875 34.8125 
L 19.671875 0 
L 9.8125 0 
z
" id="DejaVuSans-46"/>
      <path d="M 14.796875 27.296875 
Q 14.796875 17.390625 18.875 11.75 
Q 22.953125 6.109375 30.078125 6.109375 
Q 37.203125 6.109375 41.296875 11.75 
Q 45.40625 17.390625 45.40625 27.296875 
Q 45.40625 37.203125 41.296875 42.84375 
Q 37.203125 48.484375 30.078125 48.484375 
Q 22.953125 48.484375 18.875 42.84375 
Q 14.796875 37.203125 14.796875 27.296875 
z
M 45.40625 8.203125 
Q 42.578125 3.328125 38.25 0.953125 
Q 33.9375 -1.421875 27.875 -1.421875 
Q 17.96875 -1.421875 11.734375 6.484375 
Q 5.515625 14.40625 5.515625 27.296875 
Q 5.515625 40.1875 11.734375 48.09375 
Q 17.96875 56 27.875 56 
Q 33.9375 56 38.25 53.625 
Q 42.578125 51.265625 45.40625 46.390625 
L 45.40625 54.6875 
L 54.390625 54.6875 
L 54.390625 -20.796875 
L 45.40625 -20.796875 
z
" id="DejaVuSans-71"/>
      <path d="M 8.5 21.578125 
L 8.5 54.6875 
L 17.484375 54.6875 
L 17.484375 21.921875 
Q 17.484375 14.15625 20.5 10.265625 
Q 23.53125 6.390625 29.59375 6.390625 
Q 36.859375 6.390625 41.078125 11.03125 
Q 45.3125 15.671875 45.3125 23.6875 
L 45.3125 54.6875 
L 54.296875 54.6875 
L 54.296875 0 
L 45.3125 0 
L 45.3125 8.40625 
Q 42.046875 3.421875 37.71875 1 
Q 33.40625 -1.421875 27.6875 -1.421875 
Q 18.265625 -1.421875 13.375 4.4375 
Q 8.5 10.296875 8.5 21.578125 
z
M 31.109375 56 
z
" id="DejaVuSans-75"/>
      <path d="M 48.78125 52.59375 
L 48.78125 44.1875 
Q 44.96875 46.296875 41.140625 47.34375 
Q 37.3125 48.390625 33.40625 48.390625 
Q 24.65625 48.390625 19.8125 42.84375 
Q 14.984375 37.3125 14.984375 27.296875 
Q 14.984375 17.28125 19.8125 11.734375 
Q 24.65625 6.203125 33.40625 6.203125 
Q 37.3125 6.203125 41.140625 7.25 
Q 44.96875 8.296875 48.78125 10.40625 
L 48.78125 2.09375 
Q 45.015625 0.34375 40.984375 -0.53125 
Q 36.96875 -1.421875 32.421875 -1.421875 
Q 20.0625 -1.421875 12.78125 6.34375 
Q 5.515625 14.109375 5.515625 27.296875 
Q 5.515625 40.671875 12.859375 48.328125 
Q 20.21875 56 33.015625 56 
Q 37.15625 56 41.109375 55.140625 
Q 45.0625 54.296875 48.78125 52.59375 
z
" id="DejaVuSans-63"/>
      <path d="M 32.171875 -5.078125 
Q 28.375 -14.84375 24.75 -17.8125 
Q 21.140625 -20.796875 15.09375 -20.796875 
L 7.90625 -20.796875 
L 7.90625 -13.28125 
L 13.1875 -13.28125 
Q 16.890625 -13.28125 18.9375 -11.515625 
Q 21 -9.765625 23.484375 -3.21875 
L 25.09375 0.875 
L 2.984375 54.6875 
L 12.5 54.6875 
L 29.59375 11.921875 
L 46.6875 54.6875 
L 56.203125 54.6875 
z
" id="DejaVuSans-79"/>
     </defs>
     <g style="fill:#262626;" transform="translate(14.798438 171.710781)rotate(-90)scale(0.1 -0.1)">
      <use xlink:href="#DejaVuSans-52"/>
      <use x="69.419922" xlink:href="#DejaVuSans-65"/>
      <use x="130.943359" xlink:href="#DejaVuSans-61"/>
      <use x="192.222656" xlink:href="#DejaVuSans-64"/>
      <use x="255.699219" xlink:href="#DejaVuSans-20"/>
      <use x="287.486328" xlink:href="#DejaVuSans-46"/>
      <use x="344.896484" xlink:href="#DejaVuSans-72"/>
      <use x="385.978516" xlink:href="#DejaVuSans-65"/>
      <use x="447.501953" xlink:href="#DejaVuSans-71"/>
      <use x="510.978516" xlink:href="#DejaVuSans-75"/>
      <use x="574.357422" xlink:href="#DejaVuSans-65"/>
      <use x="635.880859" xlink:href="#DejaVuSans-6e"/>
      <use x="699.259766" xlink:href="#DejaVuSans-63"/>
      <use x="754.240234" xlink:href="#DejaVuSans-79"/>
     </g>
    </g>
   </g>
   <g id="PolyCollection_1">
    <path clip-path="url(#pab7093dbb9)" d="M 59.732046 237.942654 
L 59.732046 239.758125 
L 119.058101 239.758125 
L 163.715968 239.758125 
L 199.539856 239.758125 
L 229.454131 239.758125 
L 255.135215 239.758125 
L 277.634007 239.758125 
L 297.652934 239.758125 
L 315.684797 239.758125 
L 332.08869 239.758125 
L 347.134381 239.758125 
L 361.029685 239.758125 
L 373.93809 239.758125 
L 385.990536 239.758125 
L 397.293516 239.758125 
L 407.934806 239.758125 
L 417.987613 239.758125 
L 427.513629 239.758125 
L 436.565325 239.758125 
L 445.187705 239.758125 
L 453.419655 239.758125 
L 461.295007 239.758125 
L 468.843378 239.758125 
L 476.09084 239.758125 
L 483.060468 239.758125 
L 489.772779 239.758125 
L 496.246099 239.758125 
L 502.496863 239.758125 
L 508.539866 239.758125 
L 514.388477 239.758125 
L 520.054814 239.758125 
L 525.549894 239.758125 
L 530.883767 239.758125 
L 536.065623 239.758125 
L 541.103887 239.758125 
L 546.006303 239.758125 
L 550.780005 239.758125 
L 555.431579 239.758125 
L 559.967118 239.758125 
L 564.392271 239.758125 
L 568.712284 239.758125 
L 572.932038 239.758125 
L 577.056079 239.758125 
L 581.088655 239.758125 
L 585.033734 239.758125 
L 588.895033 239.758125 
L 592.676037 239.758125 
L 596.380016 239.758125 
L 600.010047 239.758125 
L 603.569025 239.758125 
L 607.059677 239.758125 
L 610.484579 239.758125 
L 613.84616 239.758125 
L 617.146721 239.758125 
L 620.388437 239.758125 
L 623.573369 239.758125 
L 626.703473 239.758125 
L 629.780604 239.758125 
L 632.806526 239.758125 
L 635.782916 239.758125 
L 638.711368 239.758125 
L 641.593403 239.758125 
L 644.430468 239.758125 
L 647.223947 239.758125 
L 649.975157 239.758125 
L 652.68536 239.758125 
L 655.355759 239.758125 
L 657.987506 239.758125 
L 660.581706 239.758125 
L 663.139413 239.758125 
L 665.661641 239.758125 
L 668.149361 239.758125 
L 670.603503 239.758125 
L 673.024963 239.758125 
L 675.414598 239.758125 
L 677.773236 239.758125 
L 680.10167 239.758125 
L 682.400663 239.758125 
L 684.670951 239.758125 
L 686.913243 239.758125 
L 689.128219 239.758125 
L 691.316537 239.758125 
L 693.478832 239.758125 
L 695.615715 239.758125 
L 697.727777 239.758125 
L 699.815587 239.758125 
L 701.879697 239.758125 
L 703.920637 239.758125 
L 705.938924 239.758125 
L 707.935053 239.758125 
L 709.909506 239.758125 
L 711.86275 239.758125 
L 713.795234 239.758125 
L 715.707395 239.758125 
L 717.599657 239.758125 
L 719.472429 239.758125 
L 721.326109 239.758125 
L 723.161082 239.758125 
L 724.977722 239.758125 
L 726.776391 239.758125 
L 728.557442 239.758125 
L 730.321216 239.758125 
L 732.068046 239.758125 
L 733.798253 239.758125 
L 735.512152 239.758125 
L 737.210047 239.758125 
L 738.892233 239.758125 
L 740.558999 239.758125 
L 742.210626 239.758125 
L 743.847385 239.758125 
L 745.469542 239.758125 
L 747.077355 239.758125 
L 748.671075 239.758125 
L 750.250948 239.758125 
L 751.817212 239.758125 
L 753.3701 239.758125 
L 754.909838 239.758125 
L 756.436646 239.758125 
L 757.950741 239.758125 
L 759.452332 239.758125 
L 760.941624 239.758125 
L 762.418816 239.758125 
L 763.884105 239.758125 
L 765.33768 239.758125 
L 766.779727 239.758125 
L 768.210427 239.758125 
L 769.629958 239.758125 
L 771.038492 239.758125 
L 772.436199 239.758125 
L 773.823244 239.758125 
L 775.199788 239.758125 
L 776.56599 239.758125 
L 777.922003 239.758125 
L 779.267978 239.758125 
L 780.604062 239.758125 
L 781.930401 239.758125 
L 783.247135 239.758125 
L 784.554402 239.758125 
L 785.852338 239.758125 
L 787.141074 239.758125 
L 788.420741 239.758125 
L 789.691464 239.758125 
L 790.953369 239.758125 
L 792.206576 239.758125 
L 793.451205 239.758125 
L 794.687372 239.758125 
L 795.915192 239.758125 
L 797.134777 239.758125 
L 798.346236 239.758125 
L 799.549677 239.758125 
L 800.745205 239.758125 
L 801.932924 239.758125 
L 803.112935 239.758125 
L 804.285338 239.758125 
L 805.450229 239.758125 
L 806.607705 239.758125 
L 807.75786 239.758125 
L 808.900785 239.758125 
L 810.036571 239.758125 
L 811.165306 239.758125 
L 812.287078 239.758125 
L 813.401971 239.758125 
L 814.51007 239.758125 
L 815.611457 239.758125 
L 816.706213 239.758125 
L 817.794417 239.758125 
L 818.876147 239.758125 
L 819.95148 239.758125 
L 821.020491 239.758125 
L 822.083253 239.758125 
L 823.13984 239.758125 
L 824.190323 239.758125 
L 825.234771 239.758125 
L 826.273255 239.758125 
L 827.305841 239.758125 
L 828.332596 239.758125 
L 829.353586 239.758125 
L 830.368874 239.758125 
L 831.378526 239.758125 
L 832.382601 239.758125 
L 833.381163 239.758125 
L 834.374271 239.758125 
L 835.361984 239.758125 
L 836.344361 239.758125 
L 837.321459 239.758125 
L 838.293334 239.758125 
L 839.260042 239.758125 
L 840.221638 239.758125 
L 841.178175 239.758125 
L 842.129707 239.758125 
L 843.076285 239.758125 
L 844.01796 239.758125 
L 844.954784 239.758125 
L 845.886806 239.758125 
L 846.814075 239.758125 
L 847.73664 239.758125 
L 848.654547 239.758125 
L 849.567843 239.758125 
L 850.476575 239.758125 
L 851.380788 239.758125 
L 852.280527 239.758125 
L 853.175836 239.758125 
L 854.066758 239.758125 
L 854.953335 239.758125 
L 855.835611 239.758125 
L 856.713627 239.758125 
L 857.587423 239.758125 
L 858.45704 239.758125 
L 859.322518 239.758125 
L 860.183896 239.758125 
L 861.041213 239.758125 
L 861.894506 239.758125 
L 862.743814 239.758125 
L 863.589173 239.758125 
L 864.43062 239.758125 
L 865.268191 239.758125 
L 866.101922 239.758125 
L 866.931847 239.758125 
L 867.758001 239.758125 
L 868.580419 239.758125 
L 869.399133 239.758125 
L 870.214178 239.758125 
L 871.025586 239.758125 
L 871.833389 239.758125 
L 872.637618 239.758125 
L 873.438307 239.758125 
L 874.235485 239.758125 
L 875.029183 239.758125 
L 875.819432 239.758125 
L 876.606261 239.758125 
L 877.389701 239.758125 
L 878.169779 239.758125 
L 878.946524 239.758125 
L 879.719966 239.758125 
L 880.490131 239.758125 
L 881.257048 239.758125 
L 882.020745 239.758125 
L 882.781246 239.758125 
L 883.538581 239.758125 
L 884.292774 239.758125 
L 885.043852 239.758125 
L 885.79184 239.758125 
L 886.536763 239.758125 
L 887.278648 239.758125 
L 888.017517 239.758125 
L 888.753397 239.758125 
L 889.48631 239.758125 
L 890.216281 239.758125 
L 890.943333 239.758125 
L 891.667489 239.758125 
L 892.388773 239.758125 
L 893.107207 239.758125 
L 893.822814 239.758125 
L 894.535615 239.758125 
L 895.245633 239.758125 
L 895.952889 239.758125 
L 895.952889 239.558262 
L 895.952889 239.558262 
L 895.245633 239.665273 
L 894.535615 239.639395 
L 893.822814 239.618355 
L 893.107207 239.593215 
L 892.388773 239.51502 
L 891.667489 239.245441 
L 890.943333 238.537328 
L 890.216281 236.774906 
L 889.48631 233.246218 
L 888.753397 228.120151 
L 888.017517 223.095454 
L 887.278648 221.675276 
L 886.536763 224.560685 
L 885.79184 228.213298 
L 885.043852 231.046 
L 884.292774 233.293378 
L 883.538581 234.997223 
L 882.781246 236.167054 
L 882.020745 236.958583 
L 881.257048 237.475081 
L 880.490131 237.758357 
L 879.719966 238.038994 
L 878.946524 238.380614 
L 878.169779 238.512624 
L 877.389701 238.461492 
L 876.606261 238.498857 
L 875.819432 238.570885 
L 875.029183 238.591563 
L 874.235485 238.55281 
L 873.438307 238.547091 
L 872.637618 238.658624 
L 871.833389 238.66187 
L 871.025586 238.557247 
L 870.214178 238.607872 
L 869.399133 238.863378 
L 868.580419 238.985624 
L 867.758001 238.917348 
L 866.931847 238.844007 
L 866.101922 238.805001 
L 865.268191 238.720297 
L 864.43062 238.586583 
L 863.589173 238.530755 
L 862.743814 238.594866 
L 861.894506 238.641636 
L 861.041213 238.535211 
L 860.183896 238.364348 
L 859.322518 238.157059 
L 858.45704 238.114245 
L 857.587423 238.14572 
L 856.713627 238.201551 
L 855.835611 238.295066 
L 854.953335 238.41448 
L 854.066758 238.504334 
L 853.175836 238.603021 
L 852.280527 238.668919 
L 851.380788 238.682217 
L 850.476575 238.741015 
L 849.567843 238.83673 
L 848.654547 238.839096 
L 847.73664 238.704383 
L 846.814075 238.567841 
L 845.886806 238.513624 
L 844.954784 238.525512 
L 844.01796 238.578904 
L 843.076285 238.67046 
L 842.129707 238.711967 
L 841.178175 238.619583 
L 840.221638 238.512968 
L 839.260042 238.504718 
L 838.293334 238.618427 
L 837.321459 238.745189 
L 836.344361 238.773753 
L 835.361984 238.745682 
L 834.374271 238.741252 
L 833.381163 238.718869 
L 832.382601 238.659803 
L 831.378526 238.627503 
L 830.368874 238.424581 
L 829.353586 238.143274 
L 828.332596 238.096435 
L 827.305841 238.268067 
L 826.273255 238.432582 
L 825.234771 238.445771 
L 824.190323 238.45855 
L 823.13984 238.493368 
L 822.083253 238.402131 
L 821.020491 238.329951 
L 819.95148 238.278932 
L 818.876147 238.201106 
L 817.794417 238.207464 
L 816.706213 238.173918 
L 815.611457 238.07637 
L 814.51007 238.097675 
L 813.401971 238.192201 
L 812.287078 238.214156 
L 811.165306 238.241701 
L 810.036571 238.250467 
L 808.900785 238.060359 
L 807.75786 237.893719 
L 806.607705 237.957614 
L 805.450229 238.145883 
L 804.285338 238.187464 
L 803.112935 238.133061 
L 801.932924 238.09199 
L 800.745205 238.014008 
L 799.549677 238.026944 
L 798.346236 238.020637 
L 797.134777 237.937754 
L 795.915192 237.85294 
L 794.687372 237.854369 
L 793.451205 237.862309 
L 792.206576 237.682941 
L 790.953369 237.572629 
L 789.691464 237.648485 
L 788.420741 237.665927 
L 787.141074 237.626317 
L 785.852338 237.642499 
L 784.554402 237.550562 
L 783.247135 237.456115 
L 781.930401 237.500878 
L 780.604062 237.413127 
L 779.267978 237.240069 
L 777.922003 237.348862 
L 776.56599 237.535569 
L 775.199788 237.427304 
L 773.823244 237.305618 
L 772.436199 237.307097 
L 771.038492 237.313037 
L 769.629958 237.293498 
L 768.210427 237.194501 
L 766.779727 237.025098 
L 765.33768 236.886021 
L 763.884105 236.865543 
L 762.418816 236.852508 
L 760.941624 236.778469 
L 759.452332 236.775371 
L 757.950741 236.782887 
L 756.436646 236.702816 
L 754.909838 236.61753 
L 753.3701 236.614901 
L 751.817212 236.694185 
L 750.250948 236.501305 
L 748.671075 236.132649 
L 747.077355 236.146444 
L 745.469542 236.466649 
L 743.847385 236.654843 
L 742.210626 236.634137 
L 740.558999 236.502465 
L 738.892233 236.095044 
L 737.210047 235.89401 
L 735.512152 236.058692 
L 733.798253 236.208708 
L 732.068046 236.230454 
L 730.321216 236.136045 
L 728.557442 236.074883 
L 726.776391 235.960194 
L 724.977722 235.735995 
L 723.161082 235.795679 
L 721.326109 235.829304 
L 719.472429 235.428924 
L 717.599657 235.000496 
L 715.707395 234.947519 
L 713.795234 235.16082 
L 711.86275 235.353641 
L 709.909506 235.583992 
L 707.935053 235.861575 
L 705.938924 236.011729 
L 703.920637 235.82612 
L 701.879697 235.604764 
L 699.815587 235.579125 
L 697.727777 235.703451 
L 695.615715 235.708094 
L 693.478832 235.592117 
L 691.316537 235.393633 
L 689.128219 235.260705 
L 686.913243 235.396166 
L 684.670951 235.465103 
L 682.400663 235.247054 
L 680.10167 234.879495 
L 677.773236 234.720516 
L 675.414598 234.791549 
L 673.024963 234.780126 
L 670.603503 234.850699 
L 668.149361 234.932783 
L 665.661641 234.779333 
L 663.139413 234.549656 
L 660.581706 234.528501 
L 657.987506 234.71154 
L 655.355759 234.675605 
L 652.68536 234.4202 
L 649.975157 234.227751 
L 647.223947 234.130402 
L 644.430468 234.135281 
L 641.593403 234.278379 
L 638.711368 234.182687 
L 635.782916 233.848688 
L 632.806526 233.65678 
L 629.780604 233.69873 
L 626.703473 233.658759 
L 623.573369 233.487958 
L 620.388437 233.548949 
L 617.146721 233.629813 
L 613.84616 233.5573 
L 610.484579 232.980294 
L 607.059677 232.498191 
L 603.569025 232.746947 
L 600.010047 233.02784 
L 596.380016 232.987515 
L 592.676037 232.787111 
L 588.895033 232.665905 
L 585.033734 232.640674 
L 581.088655 232.637215 
L 577.056079 232.510651 
L 572.932038 232.003283 
L 568.712284 231.50548 
L 564.392271 231.339897 
L 559.967118 231.323756 
L 555.431579 231.299235 
L 550.780005 231.293727 
L 546.006303 231.068602 
L 541.103887 230.703744 
L 536.065623 230.328735 
L 530.883767 229.996189 
L 525.549894 229.980905 
L 520.054814 230.099103 
L 514.388477 230.132783 
L 508.539866 230.033292 
L 502.496863 230.014513 
L 496.246099 229.89128 
L 489.772779 229.15528 
L 483.060468 228.414269 
L 476.09084 228.01711 
L 468.843378 227.48108 
L 461.295007 226.868212 
L 453.419655 226.383711 
L 445.187705 224.256706 
L 436.565325 209.5122 
L 427.513629 142.692574 
L 417.987613 38.341516 
L 407.934806 32.672411 
L 397.293516 119.090348 
L 385.990536 176.735039 
L 373.93809 196.420619 
L 361.029685 205.181484 
L 347.134381 207.520052 
L 332.08869 205.882809 
L 315.684797 203.37477 
L 297.652934 201.727263 
L 277.634007 198.736121 
L 255.135215 193.557458 
L 229.454131 188.756258 
L 199.539856 191.305279 
L 163.715968 208.36107 
L 119.058101 228.698959 
L 59.732046 237.942654 
z
" style="fill:#1e90ff;fill-opacity:0.5;"/>
   </g>
   <g id="LineCollection_1">
    <path clip-path="url(#pab7093dbb9)" d="M 131.633864 239.758125 
L 131.633864 22.318125 
" style="fill:none;stroke:#404040;stroke-dasharray:1,1.65;stroke-dashoffset:0;"/>
   </g>
   <g id="LineCollection_2">
    <path clip-path="url(#pab7093dbb9)" d="M 414.022346 239.758125 
L 414.022346 22.318125 
" style="fill:none;stroke:#404040;"/>
   </g>
   <g id="LineCollection_3">
    <path clip-path="url(#pab7093dbb9)" d="M 792.153736 239.758125 
L 792.153736 22.318125 
" style="fill:none;stroke:#404040;stroke-dasharray:3.7,1.6;stroke-dashoffset:0;"/>
   </g>
   <g id="line2d_26">
    <path clip-path="url(#pab7093dbb9)" d="M 59.732046 237.942654 
L 119.058101 228.698959 
L 163.715968 208.36107 
L 199.539856 191.305279 
L 229.454131 188.756258 
L 255.135215 193.557458 
L 277.634007 198.736121 
L 297.652934 201.727263 
L 315.684797 203.37477 
L 332.08869 205.882809 
L 347.134381 207.520052 
L 361.029685 205.181484 
L 373.93809 196.420619 
L 385.990536 176.735039 
L 397.293516 119.090348 
L 407.934806 32.672411 
L 417.987613 38.341516 
L 427.513629 142.692574 
L 436.565325 209.5122 
L 445.187705 224.256706 
L 453.419655 226.383711 
L 461.295007 226.868212 
L 476.09084 228.01711 
L 483.060468 228.414269 
L 496.246099 229.89128 
L 508.539866 230.033292 
L 514.388477 230.132783 
L 530.883767 229.996189 
L 550.780005 231.293727 
L 564.392271 231.339897 
L 568.712284 231.50548 
L 577.056079 232.510651 
L 581.088655 232.637215 
L 588.895033 232.665905 
L 600.010047 233.02784 
L 607.059677 232.498191 
L 613.84616 233.5573 
L 617.146721 233.629813 
L 623.573369 233.487958 
L 626.703473 233.658759 
L 635.782916 233.848688 
L 638.711368 234.182687 
L 641.593403 234.278379 
L 644.430468 234.135281 
L 649.975157 234.227751 
L 657.987506 234.71154 
L 660.581706 234.528501 
L 663.139413 234.549656 
L 668.149361 234.932783 
L 677.773236 234.720516 
L 680.10167 234.879495 
L 682.400663 235.247054 
L 684.670951 235.465103 
L 689.128219 235.260705 
L 697.727777 235.703451 
L 699.815587 235.579125 
L 701.879697 235.604764 
L 705.938924 236.011729 
L 707.935053 235.861575 
L 711.86275 235.353641 
L 715.707395 234.947519 
L 717.599657 235.000496 
L 721.326109 235.829304 
L 724.977722 235.735995 
L 728.557442 236.074883 
L 733.798253 236.208708 
L 737.210047 235.89401 
L 738.892233 236.095044 
L 740.558999 236.502465 
L 743.847385 236.654843 
L 745.469542 236.466649 
L 747.077355 236.146444 
L 748.671075 236.132649 
L 750.250948 236.501305 
L 751.817212 236.694185 
L 754.909838 236.61753 
L 759.452332 236.775371 
L 765.33768 236.886021 
L 769.629958 237.293498 
L 775.199788 237.427304 
L 776.56599 237.535569 
L 779.267978 237.240069 
L 781.930401 237.500878 
L 783.247135 237.456115 
L 787.141074 237.626317 
L 789.691464 237.648485 
L 790.953369 237.572629 
L 794.687372 237.854369 
L 797.134777 237.937754 
L 799.549677 238.026944 
L 801.932924 238.09199 
L 805.450229 238.145883 
L 806.607705 237.957614 
L 807.75786 237.893719 
L 810.036571 238.250467 
L 813.401971 238.192201 
L 815.611457 238.07637 
L 817.794417 238.207464 
L 819.95148 238.278932 
L 825.234771 238.445771 
L 826.273255 238.432582 
L 828.332596 238.096435 
L 829.353586 238.143274 
L 831.378526 238.627503 
L 837.321459 238.745189 
L 839.260042 238.504718 
L 841.178175 238.619583 
L 842.129707 238.711967 
L 846.814075 238.567841 
L 848.654547 238.839096 
L 850.476575 238.741015 
L 855.835611 238.295066 
L 858.45704 238.114245 
L 859.322518 238.157059 
L 861.041213 238.535211 
L 861.894506 238.641636 
L 864.43062 238.586583 
L 866.101922 238.805001 
L 869.399133 238.863378 
L 870.214178 238.607872 
L 871.025586 238.557247 
L 872.637618 238.658624 
L 873.438307 238.547091 
L 876.606261 238.498857 
L 878.946524 238.380614 
L 882.020745 236.958583 
L 882.781246 236.167054 
L 883.538581 234.997223 
L 884.292774 233.293378 
L 885.043852 231.046 
L 885.79184 228.213298 
L 886.536763 224.560685 
L 887.278648 221.675276 
L 888.017517 223.095454 
L 889.48631 233.246218 
L 890.216281 236.774906 
L 890.943333 238.537328 
L 891.667489 239.245441 
L 892.388773 239.51502 
L 894.535615 239.639395 
L 895.245633 239.665273 
L 895.952889 239.558262 
L 895.952889 239.558262 
" style="fill:none;opacity:0.5;stroke:#1e90ff;stroke-linecap:round;stroke-width:1.5;"/>
   </g>
   <g id="patch_3">
    <path d="M 59.36875 239.758125 
L 59.36875 22.318125 
" style="fill:none;stroke:#262626;stroke-linecap:square;stroke-linejoin:miter;stroke-width:1.25;"/>
   </g>
   <g id="patch_4">
    <path d="M 896.36875 239.758125 
L 896.36875 22.318125 
" style="fill:none;stroke:#262626;stroke-linecap:square;stroke-linejoin:miter;stroke-width:1.25;"/>
   </g>
   <g id="patch_5">
    <path d="M 59.36875 239.758125 
L 896.36875 239.758125 
" style="fill:none;stroke:#262626;stroke-linecap:square;stroke-linejoin:miter;stroke-width:1.25;"/>
   </g>
   <g id="patch_6">
    <path d="M 59.36875 22.318125 
L 896.36875 22.318125 
" style="fill:none;stroke:#262626;stroke-linecap:square;stroke-linejoin:miter;stroke-width:1.25;"/>
   </g>
   <g id="text_11">
    <!-- Distribution of reads length -->
    <defs>
     <path d="M 19.671875 64.796875 
L 19.671875 8.109375 
L 31.59375 8.109375 
Q 46.6875 8.109375 53.6875 14.9375 
Q 60.6875 21.78125 60.6875 36.53125 
Q 60.6875 51.171875 53.6875 57.984375 
Q 46.6875 64.796875 31.59375 64.796875 
z
M 9.8125 72.90625 
L 30.078125 72.90625 
Q 51.265625 72.90625 61.171875 64.09375 
Q 71.09375 55.28125 71.09375 36.53125 
Q 71.09375 17.671875 61.125 8.828125 
Q 51.171875 0 30.078125 0 
L 9.8125 0 
z
" id="DejaVuSans-44"/>
     <path d="M 9.421875 54.6875 
L 18.40625 54.6875 
L 18.40625 0 
L 9.421875 0 
z
M 9.421875 75.984375 
L 18.40625 75.984375 
L 18.40625 64.59375 
L 9.421875 64.59375 
z
" id="DejaVuSans-69"/>
     <path d="M 44.28125 53.078125 
L 44.28125 44.578125 
Q 40.484375 46.53125 36.375 47.5 
Q 32.28125 48.484375 27.875 48.484375 
Q 21.1875 48.484375 17.84375 46.4375 
Q 14.5 44.390625 14.5 40.28125 
Q 14.5 37.15625 16.890625 35.375 
Q 19.28125 33.59375 26.515625 31.984375 
L 29.59375 31.296875 
Q 39.15625 29.25 43.1875 25.515625 
Q 47.21875 21.78125 47.21875 15.09375 
Q 47.21875 7.46875 41.1875 3.015625 
Q 35.15625 -1.421875 24.609375 -1.421875 
Q 20.21875 -1.421875 15.453125 -0.5625 
Q 10.6875 0.296875 5.421875 2 
L 5.421875 11.28125 
Q 10.40625 8.6875 15.234375 7.390625 
Q 20.0625 6.109375 24.8125 6.109375 
Q 31.15625 6.109375 34.5625 8.28125 
Q 37.984375 10.453125 37.984375 14.40625 
Q 37.984375 18.0625 35.515625 20.015625 
Q 33.0625 21.96875 24.703125 23.78125 
L 21.578125 24.515625 
Q 13.234375 26.265625 9.515625 29.90625 
Q 5.8125 33.546875 5.8125 39.890625 
Q 5.8125 47.609375 11.28125 51.796875 
Q 16.75 56 26.8125 56 
Q 31.78125 56 36.171875 55.265625 
Q 40.578125 54.546875 44.28125 53.078125 
z
" id="DejaVuSans-73"/>
     <path d="M 48.6875 27.296875 
Q 48.6875 37.203125 44.609375 42.84375 
Q 40.53125 48.484375 33.40625 48.484375 
Q 26.265625 48.484375 22.1875 42.84375 
Q 18.109375 37.203125 18.109375 27.296875 
Q 18.109375 17.390625 22.1875 11.75 
Q 26.265625 6.109375 33.40625 6.109375 
Q 40.53125 6.109375 44.609375 11.75 
Q 48.6875 17.390625 48.6875 27.296875 
z
M 18.109375 46.390625 
Q 20.953125 51.265625 25.265625 53.625 
Q 29.59375 56 35.59375 56 
Q 45.5625 56 51.78125 48.09375 
Q 58.015625 40.1875 58.015625 27.296875 
Q 58.015625 14.40625 51.78125 6.484375 
Q 45.5625 -1.421875 35.59375 -1.421875 
Q 29.59375 -1.421875 25.265625 0.953125 
Q 20.953125 3.328125 18.109375 8.203125 
L 18.109375 0 
L 9.078125 0 
L 9.078125 75.984375 
L 18.109375 75.984375 
z
" id="DejaVuSans-62"/>
     <path d="M 30.609375 48.390625 
Q 23.390625 48.390625 19.1875 42.75 
Q 14.984375 37.109375 14.984375 27.296875 
Q 14.984375 17.484375 19.15625 11.84375 
Q 23.34375 6.203125 30.609375 6.203125 
Q 37.796875 6.203125 41.984375 11.859375 
Q 46.1875 17.53125 46.1875 27.296875 
Q 46.1875 37.015625 41.984375 42.703125 
Q 37.796875 48.390625 30.609375 48.390625 
z
M 30.609375 56 
Q 42.328125 56 49.015625 48.375 
Q 55.71875 40.765625 55.71875 27.296875 
Q 55.71875 13.875 49.015625 6.21875 
Q 42.328125 -1.421875 30.609375 -1.421875 
Q 18.84375 -1.421875 12.171875 6.21875 
Q 5.515625 13.875 5.515625 27.296875 
Q 5.515625 40.765625 12.171875 48.375 
Q 18.84375 56 30.609375 56 
z
" id="DejaVuSans-6f"/>
     <path d="M 37.109375 75.984375 
L 37.109375 68.5 
L 28.515625 68.5 
Q 23.6875 68.5 21.796875 66.546875 
Q 19.921875 64.59375 19.921875 59.515625 
L 19.921875 54.6875 
L 34.71875 54.6875 
L 34.71875 47.703125 
L 19.921875 47.703125 
L 19.921875 0 
L 10.890625 0 
L 10.890625 47.703125 
L 2.296875 47.703125 
L 2.296875 54.6875 
L 10.890625 54.6875 
L 10.890625 58.5 
Q 10.890625 67.625 15.140625 71.796875 
Q 19.390625 75.984375 28.609375 75.984375 
z
" id="DejaVuSans-66"/>
    </defs>
    <g style="fill:#262626;" transform="translate(395.469063 16.318125)scale(0.12 -0.12)">
     <use xlink:href="#DejaVuSans-44"/>
     <use x="77.001953" xlink:href="#DejaVuSans-69"/>
     <use x="104.785156" xlink:href="#DejaVuSans-73"/>
     <use x="156.884766" xlink:href="#DejaVuSans-74"/>
     <use x="196.09375" xlink:href="#DejaVuSans-72"/>
     <use x="237.207031" xlink:href="#DejaVuSans-69"/>
     <use x="264.990234" xlink:href="#DejaVuSans-62"/>
     <use x="328.466797" xlink:href="#DejaVuSans-75"/>
     <use x="391.845703" xlink:href="#DejaVuSans-74"/>
     <use x="431.054688" xlink:href="#DejaVuSans-69"/>
     <use x="458.837891" xlink:href="#DejaVuSans-6f"/>
     <use x="520.019531" xlink:href="#DejaVuSans-6e"/>
     <use x="583.398438" xlink:href="#DejaVuSans-20"/>
     <use x="615.185547" xlink:href="#DejaVuSans-6f"/>
     <use x="676.367188" xlink:href="#DejaVuSans-66"/>
     <use x="711.572266" xlink:href="#DejaVuSans-20"/>
     <use x="743.359375" xlink:href="#DejaVuSans-72"/>
     <use x="784.441406" xlink:href="#DejaVuSans-65"/>
     <use x="845.964844" xlink:href="#DejaVuSans-61"/>
     <use x="907.244141" xlink:href="#DejaVuSans-64"/>
     <use x="970.720703" xlink:href="#DejaVuSans-73"/>
     <use x="1022.820312" xlink:href="#DejaVuSans-20"/>
     <use x="1054.607422" xlink:href="#DejaVuSans-6c"/>
     <use x="1082.390625" xlink:href="#DejaVuSans-65"/>
     <use x="1143.914062" xlink:href="#DejaVuSans-6e"/>
     <use x="1207.292969" xlink:href="#DejaVuSans-67"/>
     <use x="1270.769531" xlink:href="#DejaVuSans-74"/>
     <use x="1309.978516" xlink:href="#DejaVuSans-68"/>
    </g>
   </g>
   <g id="legend_1">
    <g id="line2d_27">
     <path d="M 772.15625 35.416563 
L 792.15625 35.416563 
" style="fill:none;opacity:0.5;stroke:#1e90ff;stroke-linecap:round;stroke-width:1.5;"/>
    </g>
    <g id="line2d_28"/>
    <g id="text_12">
     <!-- num_bases -->
     <defs>
      <path d="M 52 44.1875 
Q 55.375 50.25 60.0625 53.125 
Q 64.75 56 71.09375 56 
Q 79.640625 56 84.28125 50.015625 
Q 88.921875 44.046875 88.921875 33.015625 
L 88.921875 0 
L 79.890625 0 
L 79.890625 32.71875 
Q 79.890625 40.578125 77.09375 44.375 
Q 74.3125 48.1875 68.609375 48.1875 
Q 61.625 48.1875 57.5625 43.546875 
Q 53.515625 38.921875 53.515625 30.90625 
L 53.515625 0 
L 44.484375 0 
L 44.484375 32.71875 
Q 44.484375 40.625 41.703125 44.40625 
Q 38.921875 48.1875 33.109375 48.1875 
Q 26.21875 48.1875 22.15625 43.53125 
Q 18.109375 38.875 18.109375 30.90625 
L 18.109375 0 
L 9.078125 0 
L 9.078125 54.6875 
L 18.109375 54.6875 
L 18.109375 46.1875 
Q 21.1875 51.21875 25.484375 53.609375 
Q 29.78125 56 35.6875 56 
Q 41.65625 56 45.828125 52.96875 
Q 50 49.953125 52 44.1875 
z
" id="DejaVuSans-6d"/>
      <path d="M 50.984375 -16.609375 
L 50.984375 -23.578125 
L -0.984375 -23.578125 
L -0.984375 -16.609375 
z
" id="DejaVuSans-5f"/>
     </defs>
     <g style="fill:#262626;" transform="translate(800.15625 38.916563)scale(0.1 -0.1)">
      <use xlink:href="#DejaVuSans-6e"/>
      <use x="63.378906" xlink:href="#DejaVuSans-75"/>
      <use x="126.757812" xlink:href="#DejaVuSans-6d"/>
      <use x="224.169922" xlink:href="#DejaVuSans-5f"/>
      <use x="274.169922" xlink:href="#DejaVuSans-62"/>
      <use x="337.646484" xlink:href="#DejaVuSans-61"/>
      <use x="398.925781" xlink:href="#DejaVuSans-73"/>
      <use x="451.025391" xlink:href="#DejaVuSans-65"/>
      <use x="512.548828" xlink:href="#DejaVuSans-73"/>
     </g>
    </g>
    <g id="line2d_29">
     <path d="M 772.15625 50.372813 
L 792.15625 50.372813 
" style="fill:none;stroke:#404040;stroke-dasharray:1,1.65;stroke-dashoffset:0;"/>
    </g>
    <g id="text_13">
     <!-- 10% = 744.0 -->
     <defs>
      <path d="M 72.703125 32.078125 
Q 68.453125 32.078125 66.03125 28.46875 
Q 63.625 24.859375 63.625 18.40625 
Q 63.625 12.0625 66.03125 8.421875 
Q 68.453125 4.78125 72.703125 4.78125 
Q 76.859375 4.78125 79.265625 8.421875 
Q 81.6875 12.0625 81.6875 18.40625 
Q 81.6875 24.8125 79.265625 28.4375 
Q 76.859375 32.078125 72.703125 32.078125 
z
M 72.703125 38.28125 
Q 80.421875 38.28125 84.953125 32.90625 
Q 89.5 27.546875 89.5 18.40625 
Q 89.5 9.28125 84.9375 3.921875 
Q 80.375 -1.421875 72.703125 -1.421875 
Q 64.890625 -1.421875 60.34375 3.921875 
Q 55.8125 9.28125 55.8125 18.40625 
Q 55.8125 27.59375 60.375 32.9375 
Q 64.9375 38.28125 72.703125 38.28125 
z
M 22.3125 68.015625 
Q 18.109375 68.015625 15.6875 64.375 
Q 13.28125 60.75 13.28125 54.390625 
Q 13.28125 47.953125 15.671875 44.328125 
Q 18.0625 40.71875 22.3125 40.71875 
Q 26.5625 40.71875 28.96875 44.328125 
Q 31.390625 47.953125 31.390625 54.390625 
Q 31.390625 60.6875 28.953125 64.34375 
Q 26.515625 68.015625 22.3125 68.015625 
z
M 66.40625 74.21875 
L 74.21875 74.21875 
L 28.609375 -1.421875 
L 20.796875 -1.421875 
z
M 22.3125 74.21875 
Q 30.03125 74.21875 34.609375 68.875 
Q 39.203125 63.53125 39.203125 54.390625 
Q 39.203125 45.171875 34.640625 39.84375 
Q 30.078125 34.515625 22.3125 34.515625 
Q 14.546875 34.515625 10.03125 39.859375 
Q 5.515625 45.21875 5.515625 54.390625 
Q 5.515625 63.484375 10.046875 68.84375 
Q 14.59375 74.21875 22.3125 74.21875 
z
" id="DejaVuSans-25"/>
      <path d="M 10.59375 45.40625 
L 73.1875 45.40625 
L 73.1875 37.203125 
L 10.59375 37.203125 
z
M 10.59375 25.484375 
L 73.1875 25.484375 
L 73.1875 17.1875 
L 10.59375 17.1875 
z
" id="DejaVuSans-3d"/>
      <path d="M 8.203125 72.90625 
L 55.078125 72.90625 
L 55.078125 68.703125 
L 28.609375 0 
L 18.3125 0 
L 43.21875 64.59375 
L 8.203125 64.59375 
z
" id="DejaVuSans-37"/>
     </defs>
     <g style="fill:#262626;" transform="translate(800.15625 53.872813)scale(0.1 -0.1)">
      <use xlink:href="#DejaVuSans-31"/>
      <use x="63.623047" xlink:href="#DejaVuSans-30"/>
      <use x="127.246094" xlink:href="#DejaVuSans-25"/>
      <use x="222.265625" xlink:href="#DejaVuSans-20"/>
      <use x="254.052734" xlink:href="#DejaVuSans-3d"/>
      <use x="337.841797" xlink:href="#DejaVuSans-20"/>
      <use x="369.628906" xlink:href="#DejaVuSans-37"/>
      <use x="433.251953" xlink:href="#DejaVuSans-34"/>
      <use x="496.875" xlink:href="#DejaVuSans-34"/>
      <use x="560.498047" xlink:href="#DejaVuSans-2e"/>
      <use x="592.285156" xlink:href="#DejaVuSans-30"/>
     </g>
    </g>
    <g id="line2d_30">
     <path d="M 772.15625 65.050938 
L 792.15625 65.050938 
" style="fill:none;stroke:#404040;"/>
    </g>
    <g id="text_14">
     <!-- median = 3516.0 -->
     <defs>
      <path d="M 33.015625 40.375 
Q 26.375 40.375 22.484375 35.828125 
Q 18.609375 31.296875 18.609375 23.390625 
Q 18.609375 15.53125 22.484375 10.953125 
Q 26.375 6.390625 33.015625 6.390625 
Q 39.65625 6.390625 43.53125 10.953125 
Q 47.40625 15.53125 47.40625 23.390625 
Q 47.40625 31.296875 43.53125 35.828125 
Q 39.65625 40.375 33.015625 40.375 
z
M 52.59375 71.296875 
L 52.59375 62.3125 
Q 48.875 64.0625 45.09375 64.984375 
Q 41.3125 65.921875 37.59375 65.921875 
Q 27.828125 65.921875 22.671875 59.328125 
Q 17.53125 52.734375 16.796875 39.40625 
Q 19.671875 43.65625 24.015625 45.921875 
Q 28.375 48.1875 33.59375 48.1875 
Q 44.578125 48.1875 50.953125 41.515625 
Q 57.328125 34.859375 57.328125 23.390625 
Q 57.328125 12.15625 50.6875 5.359375 
Q 44.046875 -1.421875 33.015625 -1.421875 
Q 20.359375 -1.421875 13.671875 8.265625 
Q 6.984375 17.96875 6.984375 36.375 
Q 6.984375 53.65625 15.1875 63.9375 
Q 23.390625 74.21875 37.203125 74.21875 
Q 40.921875 74.21875 44.703125 73.484375 
Q 48.484375 72.75 52.59375 71.296875 
z
" id="DejaVuSans-36"/>
     </defs>
     <g style="fill:#262626;" transform="translate(800.15625 68.550938)scale(0.1 -0.1)">
      <use xlink:href="#DejaVuSans-6d"/>
      <use x="97.412109" xlink:href="#DejaVuSans-65"/>
      <use x="158.935547" xlink:href="#DejaVuSans-64"/>
      <use x="222.412109" xlink:href="#DejaVuSans-69"/>
      <use x="250.195312" xlink:href="#DejaVuSans-61"/>
      <use x="311.474609" xlink:href="#DejaVuSans-6e"/>
      <use x="374.853516" xlink:href="#DejaVuSans-20"/>
      <use x="406.640625" xlink:href="#DejaVuSans-3d"/>
      <use x="490.429688" xlink:href="#DejaVuSans-20"/>
      <use x="522.216797" xlink:href="#DejaVuSans-33"/>
      <use x="585.839844" xlink:href="#DejaVuSans-35"/>
      <use x="649.462891" xlink:href="#DejaVuSans-31"/>
      <use x="713.085938" xlink:href="#DejaVuSans-36"/>
      <use x="776.708984" xlink:href="#DejaVuSans-2e"/>
      <use x="808.496094" xlink:href="#DejaVuSans-30"/>
     </g>
    </g>
    <g id="line2d_31">
     <path d="M 772.15625 79.729063 
L 792.15625 79.729063 
" style="fill:none;stroke:#404040;stroke-dasharray:3.7,1.6;stroke-dashoffset:0;"/>
    </g>
    <g id="text_15">
     <!-- 90% = 28132.2 -->
     <defs>
      <path d="M 10.984375 1.515625 
L 10.984375 10.5 
Q 14.703125 8.734375 18.5 7.8125 
Q 22.3125 6.890625 25.984375 6.890625 
Q 35.75 6.890625 40.890625 13.453125 
Q 46.046875 20.015625 46.78125 33.40625 
Q 43.953125 29.203125 39.59375 26.953125 
Q 35.25 24.703125 29.984375 24.703125 
Q 19.046875 24.703125 12.671875 31.3125 
Q 6.296875 37.9375 6.296875 49.421875 
Q 6.296875 60.640625 12.9375 67.421875 
Q 19.578125 74.21875 30.609375 74.21875 
Q 43.265625 74.21875 49.921875 64.515625 
Q 56.59375 54.828125 56.59375 36.375 
Q 56.59375 19.140625 48.40625 8.859375 
Q 40.234375 -1.421875 26.421875 -1.421875 
Q 22.703125 -1.421875 18.890625 -0.6875 
Q 15.09375 0.046875 10.984375 1.515625 
z
M 30.609375 32.421875 
Q 37.25 32.421875 41.125 36.953125 
Q 45.015625 41.5 45.015625 49.421875 
Q 45.015625 57.28125 41.125 61.84375 
Q 37.25 66.40625 30.609375 66.40625 
Q 23.96875 66.40625 20.09375 61.84375 
Q 16.21875 57.28125 16.21875 49.421875 
Q 16.21875 41.5 20.09375 36.953125 
Q 23.96875 32.421875 30.609375 32.421875 
z
" id="DejaVuSans-39"/>
      <path d="M 31.78125 34.625 
Q 24.75 34.625 20.71875 30.859375 
Q 16.703125 27.09375 16.703125 20.515625 
Q 16.703125 13.921875 20.71875 10.15625 
Q 24.75 6.390625 31.78125 6.390625 
Q 38.8125 6.390625 42.859375 10.171875 
Q 46.921875 13.96875 46.921875 20.515625 
Q 46.921875 27.09375 42.890625 30.859375 
Q 38.875 34.625 31.78125 34.625 
z
M 21.921875 38.8125 
Q 15.578125 40.375 12.03125 44.71875 
Q 8.5 49.078125 8.5 55.328125 
Q 8.5 64.0625 14.71875 69.140625 
Q 20.953125 74.21875 31.78125 74.21875 
Q 42.671875 74.21875 48.875 69.140625 
Q 55.078125 64.0625 55.078125 55.328125 
Q 55.078125 49.078125 51.53125 44.71875 
Q 48 40.375 41.703125 38.8125 
Q 48.828125 37.15625 52.796875 32.3125 
Q 56.78125 27.484375 56.78125 20.515625 
Q 56.78125 9.90625 50.3125 4.234375 
Q 43.84375 -1.421875 31.78125 -1.421875 
Q 19.734375 -1.421875 13.25 4.234375 
Q 6.78125 9.90625 6.78125 20.515625 
Q 6.78125 27.484375 10.78125 32.3125 
Q 14.796875 37.15625 21.921875 38.8125 
z
M 18.3125 54.390625 
Q 18.3125 48.734375 21.84375 45.5625 
Q 25.390625 42.390625 31.78125 42.390625 
Q 38.140625 42.390625 41.71875 45.5625 
Q 45.3125 48.734375 45.3125 54.390625 
Q 45.3125 60.0625 41.71875 63.234375 
Q 38.140625 66.40625 31.78125 66.40625 
Q 25.390625 66.40625 21.84375 63.234375 
Q 18.3125 60.0625 18.3125 54.390625 
z
" id="DejaVuSans-38"/>
     </defs>
     <g style="fill:#262626;" transform="translate(800.15625 83.229063)scale(0.1 -0.1)">
      <use xlink:href="#DejaVuSans-39"/>
      <use x="63.623047" xlink:href="#DejaVuSans-30"/>
      <use x="127.246094" xlink:href="#DejaVuSans-25"/>
      <use x="222.265625" xlink:href="#DejaVuSans-20"/>
      <use x="254.052734" xlink:href="#DejaVuSans-3d"/>
      <use x="337.841797" xlink:href="#DejaVuSans-20"/>
      <use x="369.628906" xlink:href="#DejaVuSans-32"/>
      <use x="433.251953" xlink:href="#DejaVuSans-38"/>
      <use x="496.875" xlink:href="#DejaVuSans-31"/>
      <use x="560.498047" xlink:href="#DejaVuSans-33"/>
      <use x="624.121094" xlink:href="#DejaVuSans-32"/>
      <use x="687.744141" xlink:href="#DejaVuSans-2e"/>
      <use x="719.53125" xlink:href="#DejaVuSans-32"/>
     </g>
    </g>
   </g>
  </g>
 </g>
 <defs>
  <clipPath id="pab7093dbb9">
   <rect height="217.44" width="837" x="59.36875" y="22.318125"/>
  </clipPath>
 </defs>
</svg>
